<?xml version="1.0" encoding="utf-8"?>
<!-- Generator: Adobe Illustrator 19.1.0, SVG Export Plug-In . SVG Version: 6.00 Build 0)  -->
<svg version="1.1" id="Layer_1" xmlns="http://www.w3.org/2000/svg" xmlns:xlink="http://www.w3.org/1999/xlink" x="0px" y="0px"
	 viewBox="0 0 110 61.9921" style="enable-background:new 0 0 110 61.9921;" xml:space="preserve">
<style type="text/css">
	.st0{fill:#009C84;}
	.st1{fill:#888888;}
	.st2{fill:#019C84;}
</style>
<g>
	<path class="st0" d="M88.6316,61.9921c-7.6985-0.178-15.0689-3.0815-20.7301-9.71c-3.3317-3.9009-5.2644-8.4629-6.0378-13.5329
		c-0.9838-6.4485-0.116-12.5935,3.0632-18.3237C69.0043,13.0761,75.2562,8.6166,83.46,6.9703
		c6.6549-1.3355,13.1476-0.7152,19.3625,2.1346c2.2611,1.0368,4.2786,2.4663,6.168,4.0665c1.2818,1.0856,1.3287,2.5084,0.221,3.7867
		c-1.5128,1.7456-3.0228,3.4938-4.5417,5.2341c-1.1611,1.3303-2.4752,1.5147-3.8721,0.4183
		c-2.3976-1.882-4.9766-3.3178-7.9983-3.9663c-6.9852-1.499-13.7229,1.8306-16.5483,8.4491
		c-2.7589,6.4627-2.0082,12.5709,2.4828,18.0492c2.251,2.7458,5.2402,4.3099,8.7944,4.7482
		c4.8283,0.5954,9.0287-0.91,12.8261-3.7906c0.1299-0.0985,0.2547-0.2042,0.3886-0.2967c1.7556-1.2135,2.6637-1.0996,4.054,0.4992
		c1.3724,1.5783,2.6967,3.2024,4.1356,4.7176c1.6249,1.711,1.0864,3.2683-0.3491,4.4665c-2.3318,1.9464-4.9155,3.4615-7.762,4.5321
		C97.1758,61.39,93.3931,61.9476,88.6316,61.9921z"/>
	<path class="st1" d="M0.0009,38.926c0.0007-6.6648,0.0004-13.3296,0.001-19.9944c0.0001-1.5914,0.78-2.3953,2.3965-2.3952
		c8.6232,0.0006,17.2472-0.0476,25.8692,0.0581c2.9721,0.0364,5.8447,0.7383,8.32,2.589c2.4486,1.8308,3.768,4.339,4.4375,7.238
		c0.6503,2.8158,0.7869,5.6883,0.7908,8.5657c0.0108,7.9977,0.0041,15.9955,0.0038,23.9932
		c-0.0001,1.5631-0.768,2.3419-2.3494,2.3485c-2.3938,0.0101-4.7878,0.0085-7.1816,0.0004
		c-1.6187-0.0055-2.3967-0.7869-2.3971-2.3936c-0.0018-7.4265-0.0068-14.853,0.0047-22.2794
		c0.002-1.2797-0.0242-2.5655-0.2708-3.8112c-0.6477-3.2715-2.6299-4.7043-6.008-4.9809c-3.6356-0.2977-7.2816-0.0586-10.9215-0.148
		c-0.6546-0.0161-0.7503,0.2425-0.7486,0.8123c0.0177,5.903,0.011,11.8062,0.011,17.7093c0,4.2437,0.0009,8.4874-0.0003,12.7311
		c-0.0005,1.562-0.7703,2.3527-2.3311,2.3598c-2.421,0.0112-4.8422,0.0102-7.2632,0.0002c-1.6083-0.0066-2.364-0.79-2.3639-2.4087
		C0.0005,52.2556,0.0002,45.5908,0.0009,38.926z"/>
	<path class="st1" d="M45.5234,39.0577c-0.0001-6.6927-0.0011-13.3854,0.0008-20.078c0.0004-1.3698,0.7293-2.1151,2.0894-2.1184
		c2.9382-0.0071,5.8765-0.0062,8.8147,0.0001c1.3563,0.0029,2.0867,0.7553,2.0866,2.1217
		c-0.0007,13.3581-0.0015,26.7163-0.0024,40.0744c-0.0001,1.5718-0.6899,2.2668-2.2919,2.2718c-2.775,0.0087-5.55,0.0099-8.325,0
		c-1.6838-0.006-2.3731-0.707-2.3727-2.3567C45.5243,52.3342,45.5234,45.6959,45.5234,39.0577z"/>
	<path class="st2" d="M93.7654,40.0435c-2.9098,0-5.8195,0.0034-8.7293-0.0008c-3.5475-0.0051-6.1096-2.6395-5.9984-6.1607
		c0.089-2.8208,2.6939-5.3808,5.5133-5.385c6.1458-0.0093,12.2917-0.0086,18.4375,0.0006c2.8351,0.0042,5.394,2.389,5.6074,5.1024
		c0.3022,3.8443-2.5488,6.1169-4.9668,6.3476c-0.4855,0.0463-0.9737,0.0902-1.4608,0.0917
		C99.3673,40.0479,96.5663,40.0435,93.7654,40.0435z"/>
	<path class="st1" d="M59.5009,7.5887c0.0491,0.4016-0.1543,0.8193-0.4851,1.1518c-1.8749,1.8846-3.7574,3.7617-5.6515,5.6269
		c-0.8797,0.8663-1.9557,0.8588-2.7996,0.0147c-1.7674-1.7676-3.534-3.536-5.2966-5.3084c-1.067-1.0729-1.031-1.9607,0.0643-3.0427
		c1.8133-1.7913,3.6117-3.5977,5.4108-5.4033c0.8046-0.8075,1.8741-0.8451,2.6596-0.0594c1.8248,1.8253,3.637,3.6632,5.4677,5.4826
		C59.2807,6.4586,59.4812,6.9269,59.5009,7.5887z"/>
</g>
</svg>
