<?xml version="1.0" encoding="utf-8"?>
<!-- Generator: Adobe Illustrator 13.0.0, SVG Export Plug-In . SVG Version: 6.00 Build 14948)  -->
<!DOCTYPE svg PUBLIC "-//W3C//DTD SVG 1.1//EN" "http://www.w3.org/Graphics/SVG/1.1/DTD/svg11.dtd">
<svg version="1.1" id="Ebene_1" xmlns="http://www.w3.org/2000/svg" xmlns:xlink="http://www.w3.org/1999/xlink" x="0px" y="0px"
	 width="595px" height="450px" viewBox="0 0 595 450" shape-rendering="geometricPrecision"
	 xml:space="default">
	<defs>
		<style>
			.logo_rot { fill:#F90000; }
			.logo_schwarz { fill:#222; }
		</style>
	</defs>
	<g id="logo">
		<path class="logo_rot" fill="#FF0000" d="M595.593,190.395c0.834,36.052-17.429,71.147-41.326,99.275c-11.49,13.524-23.535,24.265-38.951,32.593
		c-14.056,7.593-23.275,11.153-37.117,15.04c-10.527,2.956-22.597,5.05-33.555,4.93c-14.558-0.159-29.391-1.305-43.705-8.249
		c-14.379-6.976-21.181-11.836-29.869-24.144c-3.886-5.505-6.628-10.905-8.506-16.348c-2.635-7.635-4.313-14.6-4.578-22.071
		c-0.338-9.526,1.802-18.525,6.133-27.521c2.356-4.895,5.573-10.885,13.445-19.2c8.183-8.644,16.78-15.165,29.18-20.175
		c1.267-0.512,5.068-2.049,5.068-2.049s-4.321-1.53-5.76-2.043c-6.218-2.215-11.359-4.3-19.58-9.892
		c-7.094-4.825-13.15-12.691-15.861-21.11c-1.667-5.178-3.039-9.891-3.02-15.408c0.03-8.488,0.987-15.269,3.479-21.171
		c18.416-43.626,75.328-49.995,116.857-40.964v25.876c-23.182-14.304-40.901-16.863-62.049-6.279
		c-15.077,7.546-23.888,22.121-22.301,39.958c0.645,7.238,1.795,14.058,6.68,20.827c11.722,16.246,28.525,17.959,42.961,18.456
		c9.762,0.336,13.721-1.229,17.912-2.088c0,8.381-0.039,18.501,0,24.94c-11.035-2.07-22.18-3.318-33.152-0.061
		c-8.476,2.516-14.205,5.327-21.422,10.522c-4.275,3.077-6.466,5.775-9.813,10.219c-7.943,10.545-10.117,22.728-10.324,33.869
		c-0.096,5.13,0.211,9.219,2.074,14.325c5.782,15.848,22.221,30.601,39.117,33.651c13.918,2.514,34.597,3.575,48.266-1.069
		c17.263-5.865,32.433-13.229,45.053-26.699c15.547-16.594,32.418-36.376,42.102-66.341c9.886-30.59,1.689-66.192-12.475-93.339
		c-12.574-24.101-36.661-49.884-58.455-62.928c-34.14-20.434-64.888-29.989-102.168-38.385
		C363.101,19.047,321.66,16.117,284.278,16.6c-36.179,0.468-71.404,4.208-106.559,13.037c-29.781,7.479-47.948,14.162-81.63,32.858
		C81.542,70.57,70.86,79.879,59.424,91.642c-28.997,29.823-43.411,63.936-42.021,95.998c0.517,11.936,1.773,23.478,6.253,36.199
		c3.669,10.42,7.598,18.944,13.655,28.346c9.795,15.201,17.365,24.763,29.349,35.396c5.514,4.893,10.583,8.562,16.846,12.256
		c0.036,3.539,0.036,13.154,0.036,19.807C14.788,272.64-26.748,197.309,19.69,115.071c6.768-11.985,15.651-23.774,25.594-34.365
		c25.579-27.247,53.015-42.453,86.739-55.183c19.244-7.264,37.854-12.774,58.25-16.407c33.155-5.906,67.315-9.226,100.879-9.114
		c81.861,0.272,204.509,19.971,261.021,85.611C579.111,116.904,594.678,150.844,595.593,190.395z"/>

		<path class="logo_rot" fill="#FF0000" d="M352.878,275.464c-0.372,17.78-0.688,24.326-5.016,35.947c-5.261,14.129-11.537,22.519-27.541,26.198
		c-11.999,2.759-26.529-4.389-31.787-10.464c-8.991-10.389-10.544-15.988-11.731-39.184c-2.573,8.66-12.157,27.175-26.202,36.997
		c-8.688,6.076-20.263,10.338-31.024,12.343c-18.536,3.453-37.376,3.496-56.041-5.395c-8.839-4.21-17.122-9.34-23.625-14.818
		c-8.45-7.119-15.572-16.291-21.542-25.03c0.12,18.683-3.221,10.321,2.983,28.853c4.279,12.782,8.502,23.495,8.787,37.203
		c0.26,12.508-0.929,26.558-10.546,35.441c-2.112,1.951-4.392,3.187-8.301,1.756c-2.827-1.035-4.535-4.302-5.027-6.417
		c-3.426-14.72-2.222-29.305-2.409-43.827c-0.813-62.932-0.121-251.745-0.121-251.745h39.691c0,46.51-0.042,93.029-0.042,139.462
		c0,11.643-0.146,38.563,0.086,40.748c1.165,10.952,5.105,21.656,15.322,32.542c15.41,16.418,63.524,20.969,81.184,2.044
		c18.887-20.24,18.708-41.458,19.048-68.196c0.686-54.034-0.125-95.792,0-146.599h38.914c-0.246,64.829-0.983,129.763,0,194.549
		c0.104,6.884-0.566,13.888,1.309,20.737c3.576,13.065,21.88,17.679,29.49,2.558c8.691-17.269,6.402-36.771,6.402-55.935h17.738
		C352.878,262.029,353.02,268.702,352.878,275.464z"/>

		<polygon class="logo_schwarz" fill="#000000" points="547.315,448.854 547.315,405.198 560.729,405.198 582.636,435.979 582.636,405.198
		593.142,405.198 593.142,448.854 579.812,448.854 557.782,417.822 557.782,448.854 	"/>
		<path class="logo_schwarz" fill="#000000" d="M532.765,410.354c-4.744-4.197-11.072-6.301-19.082-6.301h-0.033c-8.031,0-14.361,2.104-19.104,6.301
		c-4.699,4.122-7.07,9.762-7.07,16.754c0,6.997,2.371,12.468,7.07,16.724c4.742,4.163,11.072,6.17,19.104,6.17h0.033
		c8.01,0,14.338-2.007,19.082-6.17c4.707-4.256,7.031-9.727,7.031-16.724C539.796,420.115,537.472,414.476,532.765,410.354z
		 M524.017,437.247c-2.623,2.616-5.875,3.807-10.334,3.807h-0.037c-4.455,0-7.729-1.19-10.352-3.807
		c-2.496-2.453-3.717-5.884-3.717-10.14c0-4.41,1.221-7.879,3.717-10.3c2.623-2.449,6.098-3.69,10.352-3.69h0.037
		c4.459,0,7.711,1.187,10.334,3.65c2.459,2.461,3.688,5.891,3.688,10.34C527.704,431.363,526.476,434.794,524.017,437.247z"/>
		<path class="logo_schwarz" fill="#000000" d="M377.112,433.73h11.176v0.453c0,2.409,1.086,4.249,3.295,5.682c2.188,1.267,5.313,1.877,9.398,1.877
		c3.264,0,5.717-0.492,7.438-1.389c1.758-0.936,2.545-2.204,2.545-3.922c0-1.553-0.566-2.506-1.719-3.271
		c-0.992-0.658-3.281-1.186-6.76-1.437l-7.82-0.897c-5.596-0.571-9.844-1.839-12.439-3.756c-2.746-2.087-4.004-4.779-4.004-8.505
		c0-4.203,1.902-7.742,5.762-10.458c3.775-2.635,8.871-4.053,15.242-4.053c6.869,0,12.143,1.38,16.059,3.863
		c3.768,2.479,5.766,5.95,5.766,10.441v0.253h-10.91c-0.324-2.076-1.24-3.735-2.996-4.819c-1.801-1.109-4.402-1.682-7.781-1.682
		c-3.037,0-5.416,0.473-7.129,1.446c-1.652,0.805-2.449,2.032-2.449,3.645c0,1.244,0.469,2.226,1.406,2.808
		c1.043,0.569,3.42,0.979,7.379,1.462l8.129,0.935c5.641,0.619,9.727,1.886,12.266,4.008c2.734,2.009,4.002,4.951,4.002,8.791
		c0,4.818-1.916,8.583-5.875,11.087c-4.01,2.482-9.77,3.711-17.377,3.711c-7.168,0-12.799-1.305-16.764-3.886
		c-3.777-2.69-5.84-6.585-5.84-11.401v-0.985H377.112z"/>
		<polygon class="logo_schwarz" fill="#000000" points="431.069,448.854 431.069,405.198 442.022,405.198 442.022,448.854 	"/>
		<polygon class="logo_schwarz" fill="#000000" points="451.952,448.854 451.952,405.198 462.911,405.198 462.911,439.74 485.267,439.74 485.267,448.854
		"/>
		<path class="logo_schwarz" fill="#000000" d="M368.173,409.166c-2.867-2.557-6.801-3.968-11.945-3.968h-4.826h-20.986v43.653h10.963v-13.973h10.023
		h4.826c5.145,0,9.078-1.267,11.945-3.848c2.859-2.655,4.232-6.249,4.232-10.916C372.407,415.485,371.032,411.84,368.173,409.166z
		 M359.124,424.944c-1.428,1.015-4.084,1.468-7.678,1.468h-0.045h-10.023v-12.198h10.023h0.693c3.639,0,6.008,0.346,7.359,1.335
		c1.268,0.95,1.916,2.445,1.916,4.734C361.372,422.487,360.647,424.091,359.124,424.944z"/>
		<polygon class="logo_schwarz" fill="#000000" points="254.487,437.404 254.487,427.85 275.581,427.85 275.581,437.404 	"/>
		<polygon class="logo_schwarz" fill="#000000" points="284.611,448.854 284.611,405.198 323.339,405.198 323.339,413.988 295.483,413.988
		295.483,421.431 320.216,421.431 320.216,430.255 295.483,430.255 295.483,439.74 323.339,439.74 323.339,448.854 	"/>
		<path class="logo_schwarz" fill="#000000" d="M238.955,410.354c-4.785-4.197-11.036-6.301-19.053-6.301c-0.042,0-0.042,0-0.042,0
		c-7.926,0-14.264,2.104-19.082,6.301c-4.705,4.122-7.078,9.762-7.078,16.754c0,6.997,2.373,12.468,7.078,16.724
		c4.818,4.163,11.156,6.17,19.082,6.17c0,0,0,0,0.042,0c8.017,0,14.268-2.007,19.053-6.17c4.741-4.256,7.066-9.727,7.066-16.724
		C246.021,420.115,243.696,414.476,238.955,410.354z M230.246,437.247c-2.533,2.616-6.011,3.807-10.344,3.807
		c-0.042,0-0.042,0-0.042,0c-4.369,0-7.802-1.19-10.38-3.807c-2.448-2.453-3.76-5.884-3.76-10.14c0-4.41,1.312-7.879,3.885-10.3
		c2.453-2.449,5.93-3.69,10.255-3.69c0,0,0,0,0.042,0c4.333,0,7.811,1.187,10.344,3.65c2.455,2.461,3.681,5.891,3.681,10.34
		C233.926,431.363,232.701,434.794,230.246,437.247z"/>
		<polygon class="logo_schwarz" fill="#000000" points="0.484,448.854 0.484,405.198 14.668,405.198 28.684,436.508 43.196,405.198 57.179,405.198
		57.179,448.854 46.671,448.854 46.671,419.71 33.102,448.854 24.028,448.854 10.99,419.229 10.99,448.854 	"/>
		<path class="logo_schwarz" fill="#000000" d="M186.388,438.433c0-0.409,0-0.815-0.121-1.186c-0.086-2.988-0.493-5.023-1.311-6.214
		c-0.778-1.188-2.084-2.165-4.048-3.063c2.29-0.815,4.048-2.326,5.311-4.215c1.312-1.923,1.964-4.162,1.964-6.687
		c0-4.043-1.426-6.982-4.129-9.002c-2.821-1.848-7.113-2.866-12.912-2.866h-5.272h-21.541v43.653h10.947v-15.975h10.594h1.757h0.244
		c2.978,0,5.027,0.604,6.088,1.796c1.061,1.229,1.51,3.758,1.51,7.805v3.064c0,0.611,0.167,1.274,0.246,1.842
		c0.206,0.57,0.369,1.05,0.66,1.466h12.342C187.365,447.427,186.55,443.989,186.388,438.433z M174.534,422.615
		c-1.35,0.865-3.684,1.184-6.906,1.184h-1.757h-10.592v-9.889h10.592h1.35c3.761,0,6.208,0.394,7.389,1.099
		c1.313,0.66,1.927,1.882,1.927,3.65C176.535,420.577,175.798,421.873,174.534,422.615z"/>
		<polygon class="logo_schwarz" fill="#000000" points="67.108,448.854 67.108,405.198 78.066,405.198 78.066,448.854 	"/>
		<path class="logo_schwarz" fill="#000000" d="M137.007,431.938c-0.566,5.509-3.185,9.841-7.765,13.2c-4.581,3.299-10.3,4.862-17.411,4.862
		c-7.928,0-14.305-2.007-19.131-6.172c-4.705-4.254-7.074-9.727-7.074-16.722c0-6.992,2.369-12.632,7.074-16.756
		c4.826-4.195,11.203-6.299,19.131-6.299c6.942,0,12.754,1.599,17.329,4.66c4.495,3.253,7.072,7.349,7.64,12.493h-11.933
		c-0.69-2.725-2.127-4.711-4.373-6.156c-2.249-1.322-5.028-1.933-8.663-1.933c-4.373,0-7.851,1.241-10.299,3.69
		c-2.58,2.421-3.886,5.89-3.886,10.3c0,4.256,1.306,7.687,3.755,10.14c2.579,2.616,6.017,3.807,10.43,3.807
		c3.798,0,6.868-0.904,9.195-2.375c2.329-1.63,3.597-3.885,3.924-6.74H137.007L137.007,431.938z"/>
	</g>
</svg>
