<?xml version="1.0" encoding="utf-8"?>
<!-- Generator: Adobe Illustrator 21.0.2, SVG Export Plug-In . SVG Version: 6.00 Build 0)  -->
<svg version="1.1" id="Layer_1" xmlns="http://www.w3.org/2000/svg" xmlns:xlink="http://www.w3.org/1999/xlink" x="0px" y="0px"
	 viewBox="0 0 216 58" style="enable-background:new 0 0 216 58;" xml:space="preserve">
<style type="text/css">
	.st0{fill:#F99D31;}
	.st1{fill:#6CB33F;}
	.st2{fill:#00A4E4;}
	.st3{fill:#E31B23;}
</style>
<rect y="38.4" class="st0" width="49.3" height="2.8"/>
<rect x="51.3" y="38.4" class="st1" width="49.3" height="2.8"/>
<rect x="102.7" y="38.4" class="st2" width="49.3" height="2.8"/>
<rect x="154" y="38.4" class="st3" width="49.3" height="2.8"/>
<g>
	<g>
		<path d="M4.6,2.2h3.8v16.8c0,6.2-2.8,7.6-6.2,7.6c-0.9,0-1.6-0.1-2.1-0.3L0.4,23c0.4,0.1,0.9,0.2,1.4,0.2c1.6,0,2.8-0.6,2.8-4.1
			V2.2z"/>
		<path d="M16.7,26.5c-1.2,0-2.3-1-2.3-2.6c0-1.5,1.1-2.6,2.3-2.6c1.3,0,2.3,1,2.3,2.6C19.1,25.5,18.1,26.5,16.7,26.5L16.7,26.5z"/>
		<path d="M43.9,25.8c-0.7,0.4-2,0.6-3.5,0.6c-5.5,0-8.6-4.5-8.6-11.9C31.8,5.3,36.7,2,40.9,2c1.6,0,2.7,0.3,3.1,0.6l-0.7,3.2
			c-0.6-0.3-1.1-0.5-2.3-0.5c-2.6,0-5.3,2.4-5.3,8.9c0,6.5,2.4,8.8,5.3,8.8c0.9,0,1.8-0.2,2.4-0.4L43.9,25.8z"/>
		<path d="M49.1,13.7c0-1.6-0.1-3.4-0.1-4.9h3.3l0.2,2.6h0.1c0.7-1.7,2.1-2.9,3.5-2.9c0.4,0,0.6,0,0.8,0.1v3.8c-0.2,0-0.5,0-0.8,0
			c-1.3,0-2.6,1.1-3.1,3c-0.1,0.4-0.1,1-0.1,1.6v9.2h-3.8V13.7z"/>
		<path d="M72.3,22.3c0,1.4,0,2.8,0.2,4h-3.4l-0.2-1.7h-0.1c-0.9,1.3-2.2,2-3.7,2c-2.5,0-4.4-2.1-4.4-5.1c0-4.5,3.8-6.3,7.7-6.4
			v-0.5c0-1.8-0.7-3.1-2.6-3.1c-1.2,0-2.3,0.4-3.2,1l-0.7-2.6c0.9-0.5,2.7-1.2,4.8-1.2c4.5,0,5.6,3.1,5.6,6.8V22.3z M68.5,17.5
			c-1.5,0-4.2,0.4-4.2,3.5c0,2,1,2.7,1.9,2.7c1,0,1.9-0.6,2.2-2c0.1-0.2,0.1-0.6,0.1-0.9V17.5z"/>
		<path d="M80.5,6.5c-1.1,0-2-0.9-2-2.2c0-1.4,0.9-2.2,2-2.2c1.2,0,2.1,0.9,2.1,2.2C82.6,5.7,81.7,6.5,80.5,6.5L80.5,6.5z
			 M78.6,26.2V8.9h3.8v17.4H78.6z"/>
		<path d="M100.5,24.1c0,4.1-0.6,6-1.9,7.3c-1.2,1.2-2.9,1.9-5.2,1.9c-1.6,0-3-0.3-4.1-0.8l0.8-3c0.8,0.4,1.9,0.7,3.3,0.7
			c2.3,0,3.4-1.5,3.4-4.7v-1.4h-0.1c-0.6,1.2-1.8,1.9-3.2,1.9c-3.5,0-5.3-3.9-5.3-8.5c0-6.1,2.7-9.1,5.7-9.1c1.6,0,2.6,1,3.2,2.1
			h0.1l0.2-1.9h3.3c-0.1,1.4-0.2,3.1-0.2,5.5V24.1z M96.7,15c0-0.5-0.1-0.9-0.2-1.3c-0.2-0.9-0.8-2-1.9-2c-1.8,0-2.7,2.5-2.7,5.7
			c0,3.8,1.1,5.6,2.6,5.6c0.7,0,1.5-0.4,2-1.8c0.2-0.5,0.2-1,0.2-1.5V15z"/>
		<path d="M117.6,26.2l-5.4-24h4.2l2,10.8c0.5,2.6,1.1,5.8,1.4,8.7h0.1c0.3-3,0.9-6,1.4-8.8l1.9-10.7h4.1l-5.5,24H117.6z"/>
		<path d="M134.2,18.6c0,3.9,1.8,5,3.8,5c1.3,0,2.4-0.3,3.1-0.6l0.6,2.7c-1.1,0.5-2.8,0.8-4.3,0.8c-4.5,0-6.9-3.2-6.9-8.6
			c0-5.7,2.7-9.2,6.5-9.2c3.6,0,5.5,3.3,5.5,7.9c0,1,0,1.6-0.1,2H134.2z M138.9,15.8c0-2.8-0.9-4.4-2.2-4.4c-1.6,0-2.4,2.4-2.5,4.4
			H138.9z"/>
		<path d="M148,13.7c0-2-0.1-3.3-0.1-4.9h3.3l0.2,2h0.1c0.8-1.4,2.3-2.3,4.1-2.3c2.9,0,4.5,2.2,4.5,6.3v11.4h-3.8v-11
			c0-1.7-0.4-3.4-2-3.4c-0.9,0-1.8,0.7-2.1,2.1c-0.1,0.4-0.2,0.9-0.2,1.6v10.7H148V13.7z"/>
		<path d="M170.7,4.5v4.3h3.3v2.7h-3.3v9c0,2.1,0.8,2.7,1.8,2.7c0.4,0,0.8,0,1.2-0.1l0.1,3c-0.6,0.2-1.4,0.3-2.5,0.3
			c-1.2,0-2.3-0.3-3.1-1.1c-0.9-0.9-1.3-2.1-1.3-4.7v-9.1h-2.1V8.9h2.1v-3L170.7,4.5z"/>
		<path d="M182,18.6c0,3.9,1.8,5,3.8,5c1.3,0,2.4-0.3,3.1-0.6l0.6,2.7c-1.1,0.5-2.8,0.8-4.3,0.8c-4.5,0-6.9-3.2-6.9-8.6
			c0-5.7,2.7-9.2,6.5-9.2c3.6,0,5.5,3.3,5.5,7.9c0,1,0,1.6-0.1,2H182z M186.7,15.8c0-2.8-0.9-4.4-2.2-4.4c-1.6,0-2.4,2.4-2.5,4.4
			H186.7z"/>
		<path d="M195.8,13.7c0-1.6-0.1-3.4-0.1-4.9h3.3l0.2,2.6h0.1c0.7-1.7,2.1-2.9,3.5-2.9c0.4,0,0.6,0,0.8,0.1v3.8c-0.2,0-0.5,0-0.8,0
			c-1.3,0-2.6,1.1-3.1,3c-0.1,0.4-0.1,1-0.1,1.6v9.2h-3.8V13.7z"/>
		<path d="M3.1,47.5v10.3H1.3V47.5H3.1z"/>
		<path d="M22.2,57.8V47.5h2.1l2.7,4.4c0.7,1.1,1.3,2.3,1.8,3.5h0c-0.1-1.4-0.2-2.7-0.2-4.3v-3.6h1.7v10.3h-1.9l-2.7-4.5
			c-0.7-1.1-1.3-2.4-1.8-3.6l0,0c0.1,1.3,0.1,2.7,0.1,4.4v3.7H22.2z"/>
		<path d="M49.4,55.7c0.6,0.4,1.5,0.7,2.5,0.7c1.2,0,1.9-0.6,1.9-1.4c0-0.8-0.5-1.2-1.8-1.7c-1.7-0.6-2.8-1.5-2.8-3
			c0-1.7,1.4-3,3.6-3c1.1,0,1.9,0.2,2.5,0.5l-0.5,1.5c-0.4-0.2-1.1-0.5-2-0.5c-1.2,0-1.7,0.6-1.7,1.2c0,0.8,0.6,1.2,2,1.7
			c1.8,0.7,2.7,1.6,2.7,3.1c0,1.6-1.3,3.1-3.9,3.1c-1.1,0-2.2-0.3-2.8-0.6L49.4,55.7z"/>
		<path d="M76.2,49h-2.9v-1.6h7.8V49h-3v8.7h-1.9V49z"/>
		<path d="M101.1,47.5v10.3h-1.9V47.5H101.1z"/>
		<path d="M122.1,49h-2.9v-1.6h7.8V49h-3v8.7h-1.9V49z"/>
		<path d="M146.9,47.5v6c0,2,0.8,2.9,2.1,2.9c1.4,0,2.2-0.9,2.2-2.9v-6h1.9v5.9c0,3.2-1.6,4.6-4.1,4.6c-2.4,0-3.9-1.3-3.9-4.6v-5.9
			H146.9z"/>
		<path d="M174.1,49h-2.9v-1.6h7.8V49h-3v8.7h-1.9V49z"/>
		<path d="M202.8,53.2h-3.9v3h4.3v1.5H197V47.5h6V49h-4.1v2.7h3.9V53.2z"/>
	</g>
	<g>
		<path d="M212.3,0.2c2.1,0,3.7,1.6,3.7,3.7c0,2.1-1.6,3.7-3.7,3.7c-2.1,0-3.8-1.6-3.8-3.7C208.5,1.9,210.2,0.2,212.3,0.2L212.3,0.2
			z M212.2,0.9c-1.7,0-2.9,1.4-2.9,3c0,1.7,1.3,3.1,3,3.1c1.6,0,2.9-1.3,2.9-3C215.2,2.2,213.9,0.9,212.2,0.9L212.2,0.9z M211.6,5.9
			h-0.7V2.1c0.4-0.1,0.8-0.1,1.3-0.1c0.6,0,1,0.1,1.2,0.3c0.2,0.2,0.4,0.5,0.4,0.8c0,0.5-0.3,0.8-0.7,0.9v0c0.3,0.1,0.5,0.4,0.6,0.9
			c0.1,0.6,0.2,0.8,0.3,0.9h-0.7c-0.1-0.1-0.2-0.5-0.3-1c-0.1-0.4-0.3-0.6-0.9-0.6h-0.5V5.9z M211.6,3.8h0.5c0.5,0,1-0.2,1-0.6
			c0-0.4-0.3-0.6-0.9-0.6c-0.3,0-0.4,0-0.6,0V3.8z"/>
	</g>
</g>
</svg>
