<?xml version="1.0" encoding="utf-8"?>
<!-- Generator: Adobe Illustrator 13.0.2, SVG Export Plug-In . SVG Version: 6.00 Build 14948)  -->
<!DOCTYPE svg PUBLIC "-//W3C//DTD SVG 1.1//EN" "http://www.w3.org/Graphics/SVG/1.1/DTD/svg11.dtd">
<svg version="1.1" id="Layer_1" xmlns="http://www.w3.org/2000/svg" xmlns:xlink="http://www.w3.org/1999/xlink" x="0px" y="0px"
	 width="708px" height="723px" viewBox="0 0 707.728 722.361" enable-background="new 0 0 707.728 722.361"
	 xml:space="preserve">
<polyline fill="#004E6D" points="20.172,25.297 20.172,694.797 685.524,694.797 685.524,25.297 520.891,25.297 352.86,139.469 
	182.055,25.25 20.172,25.297 "/>
<g>
	<defs>
		<polyline id="SVGID_1_" points="20.172,25.297 20.172,694.797 685.524,694.797 685.524,25.297 520.891,25.297 352.86,139.469 
			182.055,25.25 20.172,25.297 		"/>
	</defs>
	<clipPath id="SVGID_2_">
		<use xlink:href="#SVGID_1_"  overflow="visible"/>
	</clipPath>
	<path clip-path="url(#SVGID_2_)" fill="none" stroke="#FFFFFF" stroke-width="4.8573" stroke-miterlimit="3.864" d="
		M351.665,131.461L630.805,15.43 M351.665,131.461l333.758-80.562 M351.665,131.461l334.391-27.766 M351.665,131.461l333.641,24.758
		 M351.665,131.461l329.219,79.914 M351.665,131.461l331.672,136.93 M351.665,131.461l310.586,190.5 M351.665,131.461
		l221.859,190.961 M351.563,131.852l163.445,190.57 M351.665,131.461l117.508,189.617 M351.665,131.461l80.773,190.5
		 M351.665,131.461l47.273,190.5 M351.563,131.852l16.695,190.109 M351.086,132.844l-11.602,188.641 M351.665,131.461
		l-45.039,190.102 M351.665,131.461L274.336,320.36 M351.563,131.852L233.297,321.961 M351.665,131.461l-160.82,190.5
		 M351.665,131.461L128.086,321.485 M351.665,131.461L90.375,21.891 M351.665,131.461L24.25,51.446 M351.665,131.461L21.618,103.196
		 M351.665,131.461L20.672,156.688 M351.665,131.461L21.516,208.5 M351.665,131.461L25.711,263.805 M351.665,131.461l-312.289,190.5
		"/>
	
		<line clip-path="url(#SVGID_2_)" fill="none" stroke="#292526" stroke-width="12.9377" stroke-miterlimit="3.864" x1="24.157" y1="321.727" x2="687.5" y2="321.727"/>
	<path clip-path="url(#SVGID_2_)" fill="none" stroke="#292526" stroke-width="11.3186" stroke-miterlimit="3.864" d="
		M23.165,571.188H689.75 M14.672,447.204h675.844"/>
	<path clip-path="url(#SVGID_2_)" fill-rule="evenodd" clip-rule="evenodd" fill="#FFFFFF" d="M310.094,518.805l14.438-39.445h0.25
		l12.875,39.445H310.094 M339.219,523.407l5.234,15.672c1.938,5.328,1.211,9.328-6.414,9.328v3.172h28.25v-3.172
		c-5.211,0-7.148-3.875-9.82-10.672c-4.141-10.805-16.492-48.195-24.758-72.586h-6.797c-10.078,26.828-24.273,66.523-29.492,77.203
		c-1.953,3.992-5.469,6.055-8.75,6.055v3.172h22.094v-3.172c-5.336,0-7.641-4-6.062-8.734l5.578-16.266H339.219z"/>
	<path clip-path="url(#SVGID_2_)" fill-rule="evenodd" clip-rule="evenodd" fill="#FFFFFF" d="M362.586,469.774
		c10.914,1.32,10.43,0.734,10.43,12v54.633c0,11.289,0.484,10.68-10.43,12v3.172h32.641v-3.172c-10.922-1.32-10.43-0.711-10.43-12
		V513.93h11.406c14.672,24.414,18.555,37.648,25.742,37.648h12.484v-1.586c-4.242-2.555-11.055-11.047-17.109-19.914l-11.898-18.086
		c9.336-3.625,16.977-12.234,16.977-24.75c0-14.195-12.234-20.633-24.5-20.633h-35.312V469.774 M384.797,470.508h9.352
		c8.852,0,16.133,4.594,16.133,17.82c0,13.727-4.859,21.742-15.406,21.742h-10.078V470.508z"/>
	<path clip-path="url(#SVGID_2_)" fill-rule="evenodd" clip-rule="evenodd" fill="#FFFFFF" d="M223.336,469.774
		c10.922,1.32,10.438,0.734,10.438,12v54.633c0,11.289,0.484,10.68-10.438,12v3.172h32.648v-3.172
		c-10.922-1.32-10.438-0.711-10.438-12V513.93h11.406c14.68,24.414,18.562,37.648,25.734,37.648h12.5v-1.586
		c-4.242-2.555-11.055-11.047-17.133-19.914l-11.859-18.086c9.32-3.625,16.992-12.234,16.992-24.75
		c0-14.195-12.266-20.633-24.531-20.633h-35.32V469.774 M245.547,470.508h9.344c8.867,0,16.133,4.594,16.133,17.82
		c0,13.727-4.828,21.742-15.398,21.742h-10.078V470.508z"/>
	<path clip-path="url(#SVGID_2_)" fill="#FFFFFF" d="M446.477,551.579h32.641v-3.172c-10.922-1.32-10.438-0.711-10.438-12v-13.586
		c0-3.047,0.258-6.453,1.469-8.867l20.258-36.789c3.266-5.828,6.547-7.391,9.945-7.391v-3.164h-25v3.164
		c7.18,0,11.047,3.516,6.914,10.914l-16.727,30.477l-14.703-30.477c-3.016-6.297-3.875-10.914,5.344-10.914v-3.164h-30.938v3.164
		c5.586,0,8.984,3.031,12.969,10.914l18.695,37.008v18.711c0,11.289,0.5,10.68-10.43,12V551.579"/>
	<path clip-path="url(#SVGID_2_)" fill-rule="evenodd" clip-rule="evenodd" fill="#FFFFFF" d="M558.54,548.782
		c-15.656,0-30.703-15.062-30.703-44.414c0-16.508,8.5-34.953,29.125-34.953c14.789,0,30.469,11.773,30.469,40.781
		C587.43,526.446,581.11,548.782,558.54,548.782 M555.266,553.016c26.82,0,46-20.867,46-46.469
		c0-18.688-15.297-41.398-41.633-41.398c-25.234,0-45.625,19.305-45.625,45.516C514.008,534.227,532.079,553.016,555.266,553.016z"
		/>
	<path clip-path="url(#SVGID_2_)" fill="#FFFFFF" d="M625.438,470.508h16.508c8.734,0,10.805,6.656,12.383,15.641h3.148V466.61
		h-54.25v3.164c10.922,1.32,10.453,0.734,10.453,12v54.633c0,11.289,0.469,10.68-10.453,12v3.172h32.656v-3.172
		c-10.93-1.32-10.445-0.711-10.445-12v-24.891h11.539c8.133,0,10.789,4.383,11.148,11.523h3.156v-25.961h-3.156
		c-0.242,7.516-3.508,10.555-11.148,10.555h-11.539V470.508"/>
	<path clip-path="url(#SVGID_2_)" fill-rule="evenodd" clip-rule="evenodd" fill="#FFFFFF" d="M156.149,466.61v3.164
		c10.922,1.32,10.445,0.734,10.445,12v54.633c0,11.289,0.477,10.68-10.445,12v3.172h33.602c17.867,0,30.844-7.289,30.844-24.281
		c0-12.75-10.305-21.125-23.156-21.492v-0.242c9.57-2.781,17.461-10.32,17.461-20.5c0-13.852-10.211-18.453-28.766-18.453H156.149
		 M178.344,509.086h7.789c11.406,0,20.625,5.227,20.625,19.898c0,12.031-5.219,18.711-16.133,18.711
		c-10.078,0-12.281-3.031-12.281-13.727V509.086z M178.344,470.508h6.93c11.656,0,17.484,4.594,17.484,16.617
		c0,14.062-8.266,18.094-15.18,18.094h-9.234V470.508z"/>
	<path clip-path="url(#SVGID_2_)" fill="#FFFFFF" d="M137.235,481.774c0-11.266-0.492-10.68,10.445-12v-3.164h-32.656v3.164
		c10.922,1.32,10.43,0.734,10.43,12v54.633c0,11.289,0.492,10.68-10.43,12v3.172h32.656v-3.172c-10.938-1.32-10.445-0.711-10.445-12
		V481.774"/>
	<path clip-path="url(#SVGID_2_)" fill="#FFFFFF" d="M50.375,551.579h59.594l3.648-21.844h-3.039
		c-5.586,12.961-4.867,17.961-22.469,17.961c-10.797,0-15.523-0.852-15.523-9.352v-56.57c0-11.266-0.492-10.68,10.43-12v-3.164
		H50.375v3.164c10.914,1.32,10.445,0.734,10.445,12v54.633c0,11.289,0.469,10.68-10.445,12V551.579"/>
	<path clip-path="url(#SVGID_2_)" fill-rule="evenodd" clip-rule="evenodd" fill="#FFFFFF" d="M371.36,424.836
		c-15.648,0-30.688-15.055-30.688-44.43c0-16.5,8.461-34.953,29.109-34.953c14.805,0,30.453,11.781,30.453,40.789
		C400.235,402.5,393.93,424.836,371.36,424.836 M368.079,429.086c26.836,0,46-20.883,46-46.5c0-18.68-15.289-41.367-41.625-41.367
		c-25.25,0-45.633,19.297-45.633,45.516C326.821,410.266,344.899,429.086,368.079,429.086z"/>
	<path clip-path="url(#SVGID_2_)" fill="#FFFFFF" d="M495.782,427.625v-68.57c0-2.555,0.492-4.609,0.727-6.57
		c0.609-4.352,4.711-6.047,10.43-6.672v-3.141h-29.742v3.141c8.023,0.625,12.164,2.32,12.766,6.672
		c0.234,1.961,0.727,4.016,0.727,6.57v49.883h-0.25c-18.086-21.977-36.883-44.297-54.984-66.266h-22.078v3.141
		c6.914,0,10.664,3.898,14.062,8.273v57.148c0,2.555-0.469,4.609-0.719,6.57c-0.609,4.375-4.609,6.062-10.438,6.672v3.148h29.734
		v-3.148c-8.008-0.609-12.133-2.297-12.742-6.672c-0.25-1.961-0.734-4.016-0.734-6.57v-53.641
		c19.797,23.297,39.812,47.203,59.109,70.031H495.782"/>
	<path clip-path="url(#SVGID_2_)" fill="#FFFFFF" d="M312,357.829c0-11.281-0.453-10.672,10.461-12.016v-3.141h-32.656v3.141
		c10.922,1.344,10.445,0.734,10.445,12.016v54.617c0,11.297,0.477,10.68-10.445,12.031v3.148h32.656v-3.148
		C311.547,423.125,312,423.743,312,412.446V357.829"/>
	<path clip-path="url(#SVGID_2_)" fill-rule="evenodd" clip-rule="evenodd" fill="#FFFFFF" d="M171.586,394.86l14.422-39.445h0.273
		l12.852,39.445H171.586 M200.727,399.477l5.203,15.641c1.953,5.344,1.211,9.359-6.43,9.359v3.148h28.273v-3.148
		c-5.219,0-7.156-3.898-9.812-10.688c-4.141-10.789-16.523-48.195-24.766-72.57h-6.797c-10.078,26.812-24.266,66.508-29.5,77.172
		c-1.945,4.023-5.469,6.086-8.742,6.086v3.148h22.086v-3.148c-5.32,0-7.641-4.016-6.055-8.75l5.586-16.25H200.727z"/>
	<path clip-path="url(#SVGID_2_)" fill="#FFFFFF" d="M256.157,346.547h10.922c10.555,0,12.992,6.688,16.977,14.688h3.047
		l-3.281-18.562h-67.117l-3.266,18.562h3.031c4-8,6.43-14.688,16.992-14.688h10.906v65.898c0,11.297,0.5,10.68-10.43,12.031v3.148
		h32.641v-3.148c-10.922-1.352-10.422-0.734-10.422-12.031V346.547"/>
	<path clip-path="url(#SVGID_2_)" fill-rule="evenodd" clip-rule="evenodd" fill="#FFFFFF" d="M520.415,394.86l14.438-39.445h0.242
		l12.883,39.445H520.415 M549.547,399.477l5.211,15.641c1.938,5.344,1.211,9.359-6.43,9.359v3.148h28.273v-3.148
		c-5.203,0-7.156-3.898-9.828-10.688c-4.125-10.789-16.508-48.195-24.766-72.57h-6.797c-10.062,26.812-24.266,66.508-29.469,77.172
		c-1.961,4.023-5.477,6.086-8.742,6.086v3.148h22.086v-3.148c-5.344,0-7.641-4.016-6.07-8.75l5.57-16.25H549.547z"/>
	<path clip-path="url(#SVGID_2_)" fill="#FFFFFF" d="M575.297,427.625h59.586l3.648-21.859H635.5
		c-5.57,13.008-4.859,17.977-22.461,17.977c-10.789,0-15.531-0.859-15.531-9.344v-56.57c0-11.281-0.5-10.672,10.453-12.016v-3.141
		h-32.664v3.141c10.922,1.344,10.438,0.734,10.438,12.016v54.617c0,11.297,0.484,10.68-10.438,12.031V427.625"/>
	<path clip-path="url(#SVGID_2_)" fill="#FFFFFF" d="M147.696,427.625v-68.57c0-2.555,0.469-4.609,0.734-6.57
		c0.594-4.352,4.719-6.047,10.422-6.672v-3.141h-29.734v3.141c8.016,0.625,12.133,2.32,12.742,6.672
		c0.25,1.961,0.734,4.016,0.734,6.57v49.883h-0.25c-18.086-21.977-36.883-44.297-54.969-66.266H65.282v3.141
		c6.914,0,10.688,3.898,14.086,8.273v57.148c0,2.555-0.508,4.609-0.742,6.57c-0.602,4.375-4.609,6.062-10.43,6.672v3.148h29.742
		v-3.148c-8.008-0.609-12.156-2.297-12.734-6.672c-0.266-1.961-0.758-4.016-0.758-6.57v-53.641
		c19.805,23.297,39.812,47.203,59.109,70.031H147.696"/>
	<path clip-path="url(#SVGID_2_)" fill-rule="evenodd" clip-rule="evenodd" fill="#FFFFFF" d="M244.696,593.782
		c10.898,1.336,10.414,0.727,10.414,12.016v54.625c0,11.273,0.484,10.672-10.414,12v3.164h36.766
		c30.094,0,47.93-20.641,47.93-44.914c0-24.992-15.055-40.047-44.43-40.047h-40.266V593.782 M266.891,594.508h12.984
		c23.305,0,35.672,13.344,35.672,36.414c0,30.594-14.922,40.773-34.086,40.773c-11.531,0-14.57-0.117-14.57-13.344V594.508z"/>
	<path clip-path="url(#SVGID_2_)" fill="#FFFFFF" d="M179.672,675.586h59.727l3.641-21.852h-3.164
		c-5.586,12.984-4.742,17.961-22.344,17.961c-10.906,0-15.633-0.852-15.633-11.148v-27.453h10.18c8.141,0,10.938,4.266,11.188,11.43
		h3.133v-25.859h-3.133c-0.25,7.516-3.531,10.555-11.188,10.555h-10.18v-34.711h16.492c8.742,0,11.172,6.672,12.383,15.664h3.148
		v-19.547h-54.25v3.156c10.938,1.336,10.43,0.727,10.43,12.016v54.625c0,11.273,0.508,10.672-10.43,12V675.586"/>
	<path clip-path="url(#SVGID_2_)" fill="#FFFFFF" d="M115.508,676.313h1.938l33-66.867h0.234v50.977c0,11.273,0.5,10.672-10.414,12
		v3.164h32.641v-3.164c-10.938-1.328-10.438-0.727-10.438-12v-54.141c0-7.641,3.266-12.5,12.133-12.5v-3.156h-19.664L120,658.469
		l-33.883-67.844h-22.93v3.156c5.82,0,11.773,4.742,14.195,10.43v54.984c0,2.562-0.484,4.617-0.719,6.555
		c-0.609,4.375-4.75,6.078-10.469,6.672v3.164H93.54v-3.164c-5.703-0.594-9.844-2.297-10.453-6.672
		c-0.234-1.938-0.602-3.992-0.602-6.555v-49.164h0.25L115.508,676.313"/>
	<path clip-path="url(#SVGID_2_)" fill="#FFFFFF" d="M354.016,605.797c0-11.289-0.492-10.68,10.461-12.016v-3.156h-32.672v3.156
		c10.93,1.336,10.445,0.727,10.445,12.016v54.625c0,11.273,0.484,10.672-10.445,12v3.164h32.672v-3.164
		c-10.953-1.328-10.461-0.727-10.461-12V605.797"/>
	<path clip-path="url(#SVGID_2_)" fill="#FFFFFF" d="M444.258,653.977c-3.875,9.594-11.406,18.805-27.562,18.805
		c-24.75,0-35.789-16.969-35.672-41.125c0.117-21.859,11.039-38.234,33.734-38.234c19.305,0,25.492,10.555,25.852,20.258h3.156
		v-15.648c0-1.953-1.328-3.641-4.727-4.734c-5.953-1.953-11.539-4.133-23.305-4.133c-32.656,0-48.539,24.758-48.539,43.461
		c0,32.531,22.445,44.414,47.328,44.414c10.57,0,19.047-2.062,23.656-3.648c3.414-1.086,5.586-1.562,5.586-4.234l3.656-15.18
		H444.258"/>
	<path clip-path="url(#SVGID_2_)" fill="#FFFFFF" d="M470.93,605.797c0-11.289-0.477-10.68,10.445-12.016v-3.156h-32.641v3.156
		c10.906,1.336,10.43,0.727,10.43,12.016v54.625c0,11.273,0.477,10.672-10.43,12v3.164h32.641v-3.164
		c-10.922-1.328-10.445-0.727-10.445-12V605.797"/>
	<path clip-path="url(#SVGID_2_)" fill="#FFFFFF" d="M567.938,675.586v-68.578c0-2.539,0.508-4.602,0.727-6.555
		c0.609-4.375,4.742-6.062,10.445-6.672v-3.156h-29.727v3.156c7.992,0.609,12.133,2.297,12.734,6.672
		c0.234,1.953,0.727,4.016,0.727,6.555v49.891h-0.219c-18.109-21.977-36.914-44.305-54.992-66.273h-22.102v3.156
		c6.914,0,10.68,3.891,14.078,8.25v57.164c0,2.562-0.469,4.617-0.703,6.555c-0.625,4.375-4.633,6.078-10.453,6.672v3.164h29.719
		v-3.164c-7.992-0.594-12.117-2.297-12.734-6.672c-0.242-1.938-0.711-3.992-0.711-6.555v-53.641
		c19.773,23.305,39.789,47.211,59.109,70.031H567.938"/>
	<path clip-path="url(#SVGID_2_)" fill="#FFFFFF" d="M582.219,675.586h59.711l3.633-21.852h-3.148
		c-5.57,12.984-4.727,17.961-22.328,17.961c-10.898,0-15.648-0.852-15.648-11.148v-27.453h10.188c8.125,0,10.93,4.266,11.172,11.43
		h3.156v-25.859h-3.156c-0.242,7.516-3.531,10.555-11.172,10.555h-10.188v-34.711h16.508c8.734,0,11.156,6.672,12.367,15.664h3.164
		v-19.547h-54.258v3.156c10.93,1.336,10.43,0.727,10.43,12.016v54.625c0,11.273,0.5,10.672-10.43,12V675.586"/>
</g>
<polygon fill-rule="evenodd" clip-rule="evenodd" fill="#292526" points="353.125,139.438 179.469,32.438 31.352,32.438 
	31.352,690.11 675.282,690.11 675.282,32.438 528.032,32.438 353.024,139.438 192.305,1.18 1.18,1.18 1.18,721.18 706.547,721.18 
	706.547,1.18 513.813,1.18 "/>
<polygon fill="none" stroke="#292526" stroke-width="2.3606" stroke-miterlimit="3.864" points="353.125,139.438 179.469,32.438 
	31.352,32.438 31.352,690.11 675.282,690.11 675.282,32.438 528.032,32.438 353.024,139.438 192.305,1.18 1.18,1.18 1.18,721.18 
	706.547,721.18 706.547,1.18 513.813,1.18 "/>
</svg>
