<?xml version="1.0" encoding="UTF-8"?>
<svg width="316pt" version="1.1" xmlns="http://www.w3.org/2000/svg" height="142pt" viewBox="0 0 316 142" xmlns:xlink="http://www.w3.org/1999/xlink">
 <defs>
  <clipPath id="Clip0">
   <path d="M0 0 L0 141.132 L315.012 141.132 L315.012 0 L0 0 Z" transform="translate(0, 0.868164)"/>
  </clipPath>
 </defs>
 <g id="Background">
  <g id="Group1" clip-path="url(#Clip0)">
   <path style="fill:#dc0031; fill-rule:nonzero;stroke:none;" d="M315.012 141.132 L0 141.132 L0 0 L315.012 0 L315.012 141.132 Z" transform="translate(0, 0.868164)"/>
   <path style="fill:#ffffff; fill-rule:nonzero;stroke:none;" d="M302.506 128.616 L2.14747 128.616 L2.14747 2.14746 L302.506 2.14746 L302.506 128.616 Z M0 0 L0 130.781 L304.662 130.781 L304.662 0 L0 0 Z" transform="translate(5.17773, 6.04004)"/>
   <path style="fill:#ffffff; fill-rule:nonzero;stroke:none;" d="M29.4453 26.918 C29.4287 31.586 27.2149 36.4317 19.3125 36.4444 C14.2656 36.4151 12.5889 34.9014 12.5596 30.3565 L12.5596 17.628 L18.9502 17.628 C25.9483 17.6319 29.4404 22.335 29.4453 26.918 Z M19.0127 16.2315 L12.5596 16.2315 L12.5596 1.5733 C14.0772 1.5118 16.458 1.3985 17.7442 1.3985 C25.1211 1.4131 27.5606 5.1875 27.5742 9.3575 C27.5606 14 24.7783 16.2129 19.0127 16.2315 Z M26.5264 16.6143 C30.4863 15.794 33.2539 12.6133 33.2559 9.1768 C33.2598 6.2442 32.0186 4.1387 29.5215 2.376 C27.2998 0.7764 22.6446 0.0039 17.3223 0 C16.1729 0 11.5889 0.0625 8.2656 0.1827 C6.5147 0.2432 2.3506 0.4834 0.6641 0.544 L0.544 0.5469 L0.544 1.8174 L0.544 1.9405 L2.7793 1.9405 C6.9522 1.9737 7.2656 3.6192 7.3018 7.0645 L7.3018 32.1065 C7.2637 35.8829 6.4512 36.8897 1.5127 36.9297 L0 36.9297 L0 38.2002 L0 38.3243 L22.21 38.3243 C31.9912 38.3135 35.3526 31.5547 35.3682 26.7354 C35.3682 22.0323 32.086 18.3379 26.5264 16.6143 Z" transform="translate(26.0742, 28.3691)"/>
   <path style="fill:#ffffff; fill-rule:nonzero;stroke:none;" d="M20.6425 1.7608 C30.5254 1.7647 37.5871 9.5909 37.5941 20.7618 C37.5851 29.293 32.9211 37.878 23.1757 37.8946 C13.5341 37.8926 5.9267 29.9981 5.9228 18.7705 C5.9267 11.5664 10.1181 1.7774 20.6425 1.7608 Z M22.2099 0 C9.3037 0.0225 0.0234 8.5664 0 20.6416 C0.0029 32.0078 10.0322 39.6328 21.9091 39.6534 C33.6751 39.6299 43.4931 31.0323 43.5161 18.7705 C43.5121 7.8272 33.6681 0.0205 22.2099 0 Z" transform="translate(69.3809, 28.0068)"/>
   <path style="fill:#ffffff; fill-rule:nonzero;stroke:none;" d="M2.437 38.6866 L2.504 38.6866 L2.54 38.6319 C2.764 38.2969 3.149 38.0225 3.643 38.0225 C4.42 38.0147 8.686 39.6514 12.03 39.6534 C19.137 39.6426 24.463 35.2071 24.463 29.211 C24.407 17.9707 5.01 15.6465 5.096 7.2461 C5.098 3.9444 7.79 1.7061 11.731 1.6983 C15.836 1.6983 19.654 4.4385 21.327 8.7403 L21.358 8.8174 L22.47 8.8174 L22.61 8.8174 L21.553 0.9063 L20.477 0.9063 L20.414 0.9063 L20.377 0.9541 C20.014 1.4258 19.853 1.501 19.393 1.5118 C17.358 1.5215 16.279 0.002 11.186 0 C4.983 0.0108 0.323 3.7813 0.32 8.876 C0.383 19.5743 19.77 22.252 19.688 30.7793 C19.682 35.4561 15.49 37.7676 11.487 37.7735 C6.836 37.7715 2.668 34.6817 1.411 29.3614 L1.388 29.2657 L1.29 29.2657 L0.145 29.2657 L0 29.2657 L1.3 38.6866 L2.437 38.6866 Z" transform="translate(120.892, 28.0068)"/>
   <path style="fill:#ffffff; fill-rule:nonzero;stroke:none;" d="M1.332 10.0205 L1.349 9.918 C2.269 4.6016 3.297 3.333 5.629 3.3242 L16.004 3.3242 L16.004 33.0098 C15.971 36.2373 15.02 37.2568 11.36 37.29 L9.004 37.29 L9.004 38.5605 L9.004 38.6846 L28.26 38.6846 L28.26 37.416 L28.26 37.29 L25.905 37.29 C22.243 37.2568 21.293 36.2373 21.262 33.0098 L21.262 3.3242 L31.635 3.3262 C33.969 3.333 34.996 4.6016 35.916 9.918 L35.934 10.0205 L37.127 10.0205 L37.264 10.0205 L36.276 0 L35.012 0 L34.907 0 L34.889 0.1025 C34.807 0.708 33.987 0.9072 33.145 0.9043 L4.122 0.9023 C3.712 0.9043 3.3 0.8457 2.956 0.7285 C2.623 0.6162 2.429 0.417 2.374 0.1025 L2.355 0 L1.104 0 L0.991 0 L0 10.0205 L1.225 10.0205 L1.332 10.0205 Z" transform="translate(151.547, 28.0088)"/>
   <path style="fill:#ffffff; fill-rule:nonzero;stroke:none;" d="M23.176 37.8946 C13.533 37.8926 5.928 29.9981 5.924 18.7705 C5.93 11.5664 10.121 1.7774 20.643 1.7608 C30.527 1.7647 37.586 9.5909 37.592 20.7618 C37.586 29.293 32.922 37.878 23.176 37.8946 Z M22.213 0 C9.301 0.0225 0.024 8.5664 0 20.6416 C0.004 32.0078 10.033 39.6328 21.91 39.6534 C33.676 39.6299 43.494 31.0323 43.518 18.7705 C43.514 7.8272 33.67 0.0205 22.213 0 Z" transform="translate(193.057, 28.0068)"/>
   <path style="fill:#ffffff; fill-rule:nonzero;stroke:none;" d="M14.246 36.5127 L14.246 36.3877 L14.123 36.3877 C8.996 36.3438 8.193 35.584 8.152 31.2627 L8.152 5.6875 L39.23 38.2071 L39.287 38.2071 L40.978 38.2071 L40.978 4.4112 C41.002 2.1231 41.808 1.4317 46.343 1.4004 L46.466 1.4004 L46.466 0.126 L46.466 0.002 L32.099 0.002 L32.099 1.2754 L32.099 1.3946 L32.22 1.3985 C37.06 1.5596 37.978 2.0977 38.011 5.7403 L38.011 29.4434 L9.767 0 L0.119 0 L0.119 1.2754 L0.119 1.3946 L0.24 1.3985 C2.308 1.458 3.832 1.9219 5.187 2.8477 L5.187 32.4707 C5.164 35.1983 4.086 36.3604 0.367 36.3877 L0.127 36.3877 L0 36.3877 L0 37.6582 L0 37.7813 L14.246 37.7813 L14.246 36.5127 Z" transform="translate(242.536, 28.9111)"/>
   <path style="fill:#ffffff; fill-rule:nonzero;stroke:none;" d="M21.0147 0 L21.0147 0.8867 L21.0147 1.002 L21.1329 1.0108 C24.4249 1.208 24.879 1.7217 24.9219 5.5508 L24.9219 14.8423 C24.9112 21.5473 20.4356 23.3513 15.9542 23.3663 C10.0625 23.3543 7.003 20.2103 6.9913 14.8803 L6.9913 3.7979 C7.0176 1.5283 7.837 1.042 10.0137 1.0108 L10.3711 1.0108 L10.4961 1.0108 L10.4961 0.126 L10.4961 0 L0 0 L0 0.8867 L0 1.0068 L0.1241 1.0108 C2.8379 1.0889 3.3907 1.3555 3.4288 3.876 L3.4288 15.5183 C3.4415 21.2823 7.4131 25.6793 15.0782 25.6923 C23.7891 25.6793 26.9952 20.3163 27.0059 15.3193 L27.0059 4.5537 C27.0333 2.0332 27.878 1.0733 30.5108 1.0108 L30.6348 1.0088 L30.6348 0.126 L30.6348 0 L30.5088 0 L21.0147 0 Z" transform="translate(26.2646, 88.0537)"/>
   <path style="fill:#ffffff; fill-rule:nonzero;stroke:none;" d="M21.2138 0.8858 L21.2138 1.0059 L21.3359 1.0098 C24.5351 1.1299 25.0869 1.4463 25.1221 3.835 L25.1221 19.3923 L6.5185 0.002 L0.0801 0.002 L0.0801 0.8858 L0.0801 1.0059 L0.2012 1.0098 C1.5517 1.0488 2.5459 1.3516 3.4306 1.9473 L3.4306 21.5003 C3.4053 23.2893 2.7353 24.0193 0.2842 24.0463 L0.126 24.0463 L0 24.0463 L0 24.9313 L0 25.0553 L9.5 25.0553 L9.5 24.1713 L9.5 24.0463 L9.375 24.0463 C5.9883 24.0023 5.5127 23.5523 5.4726 20.7023 L5.4726 3.9082 L25.9472 25.3333 L26.0049 25.3333 L27.04 25.3333 L27.164 25.3333 L27.164 2.959 C27.1894 1.4707 27.668 1.044 30.6689 1.0117 L30.793 1.0117 L30.793 0.126 L30.793 0 L21.2138 0 L21.2138 0.8858 Z" transform="translate(60.7383, 88.0537)"/>
   <path style="fill:#ffffff; fill-rule:nonzero;stroke:none;" d="M0 0.8858 L0 1.002 L0.1182 1.0098 C2.3389 1.1592 2.96 1.6377 2.9902 3.7568 L2.9893 20.7423 C2.9512 23.4063 2.5654 23.8903 0.1182 24.0463 L0 24.0523 L0 24.9303 L0 25.0563 L9.9372 25.0563 L9.9372 24.9303 L9.9372 24.1723 L9.9372 24.0463 L9.8132 24.0463 C7.0852 24.0103 6.5862 23.3513 6.5522 21.0233 L6.5522 4.1152 C6.5862 1.4736 7.3142 1.0459 9.8132 1.0098 L9.9372 1.0098 L9.9372 0.126 L9.9372 0 L0 0 L0 0.8858 Z" transform="translate(96.9668, 88.0537)"/>
   <path style="fill:#ffffff; fill-rule:nonzero;stroke:none;" d="M17.626 0.8848 L17.626 1.0107 L17.75 1.0107 C20.472 1.0234 21.331 1.4756 21.333 2.5625 C21.335 3.084 21.101 3.874 20.664 4.9853 L14.477 21.1563 L7.418 3.5918 C7.257 3.2021 7.177 2.8672 7.177 2.5869 C7.159 1.6045 8.206 1.0762 11.094 1.0088 L11.216 1.0068 L11.216 0.1269 L11.216 0 L0 0 L0 0.8848 L0 1.0088 L0.126 1.0088 C2.534 1.0312 2.895 1.5283 3.918 4.042 L12.599 25.6903 L12.685 25.6903 L14.765 25.6903 L23.011 4.3594 C23.975 1.9033 24.975 1.0185 27.002 1.0088 L27.126 1.0088 L27.126 0.1269 L27.126 0 L17.626 0 L17.626 0.8848 Z" transform="translate(110.593, 88.0547)"/>
   <path style="fill:#ffffff; fill-rule:nonzero;stroke:none;" d="M21.125 18.8643 L21.1 18.9553 C20.081 22.3793 19.338 23.3493 16.595 23.3673 L10.455 23.3693 C8.992 23.3353 8.458 23.0993 8.424 21.2993 L8.424 12.9323 L15.04 12.9323 C16.652 12.9633 17.273 13.1533 17.625 15.9713 L17.637 16.0813 L18.509 16.0813 L18.633 16.0813 L18.633 15.9593 L18.633 8.2578 L17.749 8.2578 L17.635 8.2578 L17.625 8.3711 C17.404 10.6758 16.816 11.2276 15.44 11.2461 L8.424 11.2461 L8.424 1.6885 L16.713 1.6885 C18.084 1.7002 19.003 2.3067 19.54 5.6895 L19.555 5.7949 L20.383 5.7949 L20.515 5.7949 L20.18 0 L0.798 0 L0.798 0.8858 L0.798 1.0098 L1.802 1.0098 C4.438 1.044 4.831 1.8565 4.865 4.0772 L4.865 20.9013 C4.829 23.2743 4.414 24.0083 1.242 24.0463 L0.125 24.0463 L0 24.0463 L0 24.9303 L0 25.0563 L21.412 25.0563 L22.076 18.8643 L21.22 18.8643 L21.125 18.8643 Z" transform="translate(139.604, 88.0537)"/>
   <path style="fill:#ffffff; fill-rule:nonzero;stroke:none;" d="M3.459 4.833 C3.461 2.6778 5.209 1.2149 7.797 1.208 C10.488 1.208 13 3.0039 14.102 5.833 L14.129 5.9131 L14.895 5.9131 L15.037 5.9131 L14.326 0.5977 L13.582 0.5977 L13.518 0.5977 L13.48 0.6485 C13.238 0.9561 13.158 0.9893 12.859 1 C11.543 1.0108 10.811 0.002 7.438 0 C3.326 0.0059 0.219 2.5137 0.217 5.9092 C0.277 13.026 13.098 14.805 13.016 20.384 C13.01 23.44 10.271 24.956 7.639 24.96 C4.582 24.958 1.848 22.932 1.02 19.436 L0.998 19.342 L0.9 19.342 L0.143 19.342 L0 19.342 L0.869 25.652 L1.658 25.652 L1.723 25.652 L1.762 25.596 C1.902 25.386 2.143 25.211 2.453 25.211 C2.943 25.2 5.777 26.286 7.996 26.288 C12.711 26.28 16.254 23.337 16.254 19.346 C16.195 11.875 3.371 10.3252 3.459 4.833 Z" transform="translate(196.479, 87.457)"/>
   <path style="fill:#ffffff; fill-rule:nonzero;stroke:none;" d="M0 0.8858 L0 1.0039 L0.118 1.0098 C2.334 1.1592 2.959 1.6397 2.991 3.7568 L2.989 20.7423 C2.954 23.4063 2.567 23.8903 0.118 24.0463 L0 24.0523 L0 24.9303 L0 25.0563 L9.94 25.0563 L9.94 24.9303 L9.94 24.1723 L9.94 24.0463 L9.815 24.0463 C7.084 24.0103 6.584 23.3513 6.549 21.0233 L6.549 4.1152 C6.584 1.4736 7.313 1.0459 9.815 1.0098 L9.94 1.0098 L9.94 0.126 L9.94 0 L0 0 L0 0.8858 Z" transform="translate(219.709, 88.0537)"/>
   <path style="fill:#ffffff; fill-rule:nonzero;stroke:none;" d="M23.186 0 L23.078 0 L23.061 0.1035 C23.022 0.4648 22.508 0.5976 21.952 0.5957 L2.768 0.5957 C2.502 0.5957 2.233 0.5596 2.012 0.4844 C1.803 0.4121 1.69 0.293 1.657 0.1035 L1.639 0 L0.78 0 L0.664 0 L0 6.708 L0.856 6.708 L0.963 6.708 L0.981 6.6055 C1.596 3.0879 2.252 2.29 3.768 2.2842 L10.578 2.2842 L10.578 21.855 C10.547 23.977 9.965 24.608 7.555 24.64 L5.955 24.642 L5.955 25.526 L5.955 25.65 L18.768 25.65 L18.768 24.766 L18.768 24.642 L17.166 24.642 C14.756 24.608 14.17 23.977 14.141 21.855 L14.141 2.2812 L20.955 2.2842 C22.467 2.29 23.123 3.0879 23.739 6.6055 L23.756 6.708 L24.582 6.708 L24.721 6.708 L24.057 0 L23.186 0 Z" transform="translate(234.672, 87.459)"/>
   <path style="fill:#ffffff; fill-rule:nonzero;stroke:none;" d="M18.462 0.002 L18.462 0.8858 L18.462 1.0098 L18.587 1.0098 C20.33 1.0166 21.099 1.3262 21.101 2.0899 C21.105 2.4688 20.916 3.002 20.513 3.6924 L14.99 13.0873 L8.72 3.4082 C8.291 2.7568 8.058 2.2461 8.062 1.9053 C8.064 1.3369 8.722 1.0098 10.728 1.0098 L10.853 1.0098 L10.853 0.126 L10.853 0 L0 0 L0 0.8858 L0 1.0059 L0.121 1.0098 C2.691 1.1026 3.513 1.5977 5.482 4.6621 L12.558 15.7143 L12.558 21.2993 C12.531 23.2233 11.937 24.0173 9.494 24.0463 L8.74 24.0463 L8.613 24.0463 L8.613 24.9303 L8.613 25.0563 L19.826 25.0563 L19.826 24.1723 L19.826 24.0463 L19.185 24.0463 C16.779 24.0173 16.146 23.3033 16.119 21.2193 L16.117 15.2393 L22.722 4.0986 C23.835 2.2412 24.927 1.2149 27.607 1.0098 L27.722 1.002 L27.722 0.126 L27.722 0.002 L18.462 0.002 Z" transform="translate(261.29, 88.0537)"/>
   <path style="fill:#ffffff; fill-rule:nonzero;stroke:none;" d="M16.914 7.4326 C16.898 12.1337 14.111 13.9192 9.736 13.9352 C9.359 13.9372 9.041 13.9432 8.734 13.9432 C8.309 13.9412 7.904 13.9302 7.397 13.8722 L7.397 1.0742 C8.049 1.0087 8.541 1.0087 9.258 1.0087 C15.332 1.0293 16.893 3.7832 16.914 7.4326 Z M22.58 21.7552 C22.582 21.7572 17.516 15.3092 16.705 14.2802 C16.451 13.9772 16.272 13.7732 16.125 13.6492 C19.068 12.5442 20.898 10.291 20.897 7.1953 C20.885 3.0605 17.502 0.0087 10.133 0.0019 C7.551 0 6.75 0.042 5.123 0.1201 C3.494 0.2002 1.07 0.3603 0.127 0.3603 L0 0.3603 L0 1.2373 L0 1.3623 L1 1.3623 C3.275 1.3955 3.818 1.9726 3.854 4.414 L3.852 21.1302 C3.818 23.7632 3.123 24.2642 0.803 24.2982 L0.127 24.2982 L0 24.2982 L0 25.1762 L0 25.3022 L11.488 25.3022 L11.488 24.4242 L11.488 24.2982 L10.447 24.2982 C8.242 24.2662 7.426 23.7872 7.397 21.4502 L7.416 14.8692 C7.996 14.9052 8.523 14.9432 9.342 14.9412 C10.418 14.9412 11.477 14.8532 12.324 14.7042 L12.338 14.6402 L12.338 14.6982 C12.709 14.6332 14.141 16.6932 15.631 18.5702 L17.965 21.4502 C21.123 25.0442 22.08 25.7382 27.475 25.7232 C27.522 25.7232 27.572 25.7252 27.627 25.7252 L27.75 25.7252 L27.75 24.8852 L27.75 24.7782 L27.647 24.7612 C25.217 24.3462 24.35 23.8622 22.58 21.7552 Z" transform="translate(166.436, 87.8018)"/>
  </g>
 </g>
</svg>
