<?xml version="1.0" encoding="utf-8"?>
<!-- Generator: Adobe Illustrator 16.0.3, SVG Export Plug-In . SVG Version: 6.00 Build 0)  -->
<!DOCTYPE svg PUBLIC "-//W3C//DTD SVG 1.1//EN" "http://www.w3.org/Graphics/SVG/1.1/DTD/svg11.dtd">
<svg version="1.1" id="Layer_1" xmlns="http://www.w3.org/2000/svg" xmlns:xlink="http://www.w3.org/1999/xlink" x="0px" y="0px"
	 width="780px" height="165.199px" viewBox="0 0 780 165.199" enable-background="new 0 0 780 165.199"
	 xml:space="preserve">
<g>
	<path fill="#B62B21" d="M11.905,95.674c0,3.227,0.055,8.73,0.114,10.771c0.064,1.488,0.549,1.982,2.558,2.459
		c1.326,0.307,1.57,0.508,1.57,1.445v1.186c0,0.742-0.193,1.004-0.789,1.004c-0.428,0-1.394-0.066-2.42-0.121
		c-1.155-0.066-2.853-0.141-4.73-0.141c-2.238,0-3.758,0.074-4.938,0.141c-1.031,0.055-2.057,0.121-2.424,0.121
		c-0.661,0-0.847-0.262-0.847-1.004v-1.186c0-0.938,0.246-1.14,1.643-1.445c1.967-0.477,2.443-0.971,2.503-2.459
		c0.06-2.41,0.119-6.928,0.119-10.771V85.662c0-3.83-0.06-8.252-0.119-10.72c-0.06-1.543-0.536-1.979-2.503-2.479
		C0.246,72.152,0,71.98,0,71.044v-1.227c0-0.74,0.186-0.998,0.733-0.998c0.596,0,1.505,0.065,2.536,0.127
		c1.06,0.058,2.458,0.13,4.388,0.13c3.033,0,3.033,0,8.669-0.192c1.2-0.065,2.3-0.065,3.269-0.065c4.245,0,7.099,0.936,9.148,3.097
		c1.875,1.93,3.035,4.76,3.035,7.543c0,4.727-2.908,9.125-6.967,10.223c-1.341,0.379-1.456,0.436-1.456,0.75
		c0,0.063,0.067,0.186,0.246,0.371c0.415,0.733,0.777,1.354,0.967,1.92c1.273,2.903,5.397,10.143,7.518,13.032
		c1.662,2.356,2.44,3.026,4.262,3.455c1.158,0.313,1.217,0.39,1.217,1.406v1.059c0,0.55-0.375,0.863-0.979,0.863H36.11
		c-1.34-0.065-3.49-0.121-4.946-0.121c-0.905,0-2.169,0.056-3.624,0.121h-0.972c-1.146,0-1.146,0-2.609-3.757
		c-0.534-1.358-4.662-10.184-6.843-14.766c-1.024-2.229-1.278-2.416-2.725-2.416h-0.426c-0.242,0.063-0.422,0.063-0.422,0.063
		L12.568,91.6c-0.36,0-0.663,0.428-0.663,1.121V95.674z M11.96,75.257l-0.055,7.326v2.282l0.055,1.67
		c-0.055,1.227,0.189,1.477,1.275,1.477c3.936,0,6.231-0.492,7.635-1.607c1.694-1.411,2.732-3.693,2.732-6.096
		c0-3.445-1.886-6.108-4.852-6.908c-1.224-0.314-2.914-0.435-5.208-0.435c-1.335,0-1.583,0.121-1.583,0.994V75.257z"/>
	<path fill="#B62B21" d="M43.803,85.059c0.183-1.668,0.606-2.17,2.476-2.668c2.132-0.494,5.521-0.922,7.823-0.922
		c7.753,0,11.295,2.775,11.295,8.777l-0.184,11.375c0,6.192,0,6.239,0.728,6.93c0.549,0.423,1.147,0.609,2.613,0.742
		c1.214,0.129,1.569,0.31,1.569,1.06v0.938c0,0.684-0.183,0.803-1.271,1.064l-7.182,1.231c-0.355,0.06-0.844,0.127-1.331,0.127
		c-0.604,0-0.971-0.262-1.09-0.938c-0.183-0.422-0.359-1.987-0.298-2.424c0-1.139-0.127-1.627-0.434-1.627
		c-0.058,0-0.236,0.127-0.424,0.248c-0.358,0.369-2.843,2.137-3.687,2.639c-1.639,0.982-3.88,1.601-6,1.601
		c-3.823,0-6.853-3.36-6.853-7.769c0-2.096,0.671-4.739,1.518-6.045c0.484-0.676,0.542-0.744,3.755-1.364l7.997-1.597
		c3.455-0.762,3.881-1.063,3.881-2.924v-1.041c0-4.211-1.583-5.814-5.636-5.814c-2.611,0-6.064,0.984-8.368,2.351
		c-0.486,0.322-0.719,0.375-0.902,0.375c-0.298,0-0.429-0.243-0.429-0.739V88.26L43.803,85.059z M58.71,100.072
		c0-0.932-0.064-1.105-0.494-1.105c-0.118,0-0.242,0-0.425,0.055l-0.665,0.119c-3.336,0.685-4.413,0.998-5.69,1.734
		c-1.751,0.998-2.552,2.283-2.552,3.971c0,2.082,1.394,3.461,3.464,3.461c1.756,0,3.812-0.943,5.151-2.295
		c0.902-0.992,1.21-1.977,1.21-4.199L58.71,100.072L58.71,100.072z"/>
	<path fill="#B62B21" d="M98.635,65.857c0.301-0.062,0.603-0.062,0.732-0.062c0.539,0,0.844,0.37,0.844,1.113l-0.428,18.877v11.02
		c0,8.041,0.059,10.063,0.487,10.881c0.541,1.164,0.973,1.404,3.576,1.654c0.544,0,0.847,0.26,0.847,0.688v1.14
		c0,0.623-0.187,0.812-1.272,0.998l-7.816,1.539c-0.482,0.062-0.846,0.135-1.09,0.135c-0.473,0-0.639-0.313-0.688-1.125l-0.188-2.61
		c-0.12-1.486-0.12-1.545-0.535-1.545c-0.063,0-0.309,0.119-0.555,0.348c-0.482,0.508-2.122,1.76-3.215,2.578
		c-1.812,1.229-3.385,1.727-5.383,1.727c-6.67,0-11.456-6.152-11.456-14.865c0-10.018,5.698-16.875,13.938-16.875
		c1.639,0,4.848,0.668,5.633,1.172c0.174,0.179,0.359,0.248,0.418,0.248c0.24,0,0.494-0.498,0.494-0.992
		c0-0.062,0-0.062-0.065-1.103l-0.059-6.593c0-3.209-0.184-3.468-2.85-3.904c-1.147-0.114-1.388-0.291-1.388-1.17v-1.162
		c0-0.631,0.239-0.815,1.213-0.936L98.635,65.857z M79.639,96.482c0,6.791,2.914,11.57,7.146,11.57
		c4.367,0,6.493-3.644,6.493-11.062c0-3.837-0.429-6.375-1.337-8.109c-1.083-1.907-2.972-3.098-5.09-3.098
		C82.604,85.785,79.639,90.188,79.639,96.482"/>
	<path fill="#B62B21" d="M111.356,84.996c0-5.285-0.057-11.465-0.174-12.593c-0.124-1.413-0.789-1.971-2.492-2.163
		c-1.508-0.114-1.875-0.356-1.875-1.115v-1.043c0-0.561,0.246-0.75,1.027-0.86l8.846-1.299l1.154-0.187
		c0.423,0,0.724,0.428,0.724,1.041c0,0.196,0,0.501-0.06,0.864c-0.064,1.557-0.125,3.35-0.181,8.351
		c0,3.833-0.062,6.719-0.117,8.494l-0.059,1.068v0.414c0,0.252,0.114,0.379,0.292,0.379c0.313,0,1.036-0.686,2.427-2.162
		c1.942-2.105,3.44-2.718,6.396-2.718c6.97,0,11.38,5.507,11.38,14.339c0,10.394-6.536,17.402-16.193,17.402
		c-3.273,0-7.635-1.119-10.248-2.645c-0.785-0.463-1.083-0.965-1.083-2.008v-0.697c0.121-5.312,0.181-11.812,0.236-19.469V84.996
		L111.356,84.996z M119.052,91.35c-0.672,1.688-0.968,4.144-0.968,8.047c0,4.769,0.18,6.435,0.669,7.531
		c0.665,1.307,2.649,2.357,4.535,2.357c4.697,0,8.207-5.074,8.207-11.939c0-6.479-2.66-10.746-6.715-10.746
		C122.45,86.6,120.146,88.447,119.052,91.35"/>
	<path fill="#B62B21" d="M171.731,87.891c1.406,2.476,2.184,5.502,2.184,8.652c0,4.271-1.389,8.477-3.819,11.457
		c-2.784,3.422-6.901,5.209-12.112,5.209c-8.745,0-14.392-5.846-14.392-15.059c0-4.816,1.577-9.146,4.427-12.182
		c2.846-3.083,6.349-4.502,11.063-4.502C164.83,81.467,169.369,83.75,171.731,87.891 M150.74,96.932
		c0,6.656,3.51,11.557,8.341,11.557c4.295,0,7.628-4.571,7.628-10.524c0-6.971-3.395-11.93-8.187-11.93
		C154.021,86.033,150.74,90.617,150.74,96.932"/>
	<path fill="#B62B21" d="M207.515,96.482c0.062,5.82,0.116,9.215,0.242,10.279c0.241,1.666,0.841,2.088,3.138,2.395
		c0.98,0.128,1.157,0.314,1.157,1.064v0.824c0,0.742-0.177,0.93-1.033,1.043l-8.23,1.119c-0.428,0.061-0.785,0.127-0.847,0.127
		c-0.73,0-0.73,0-1.162-4.246c-0.052-0.916-0.234-1.346-0.594-1.346c-0.178,0-0.485,0.189-1.277,0.979
		c-4.118,3.816-5.331,4.486-8.602,4.486c-2.301,0-4.665-0.617-6.268-1.668c-1.939-1.191-2.787-3.307-2.787-6.695
		c0-0.494,0-1.572,0.056-2.672v-3.207V93.51c0-7.227-0.179-7.783-2.608-8.018c-1.389-0.121-1.684-0.314-1.684-1.008v-1.041
		c0-0.736,0.164-0.864,1.023-0.995l8.927-0.854c0.621-0.063,1.04-0.131,1.092-0.131c0.432,0,0.612,0.244,0.612,0.736
		c0,0.307,0,0.806-0.062,1.368c-0.239,2.896-0.363,6.859-0.363,9.822v4.83c0,5.623,0.124,6.549,1.086,7.914
		c0.734,1.051,2.058,1.605,3.761,1.605c2.846,0,5.396-1.365,6.486-3.467c0.785-1.412,0.966-2.974,0.966-7.795v-3.027
		c0-2.344-0.123-5.627-0.242-6.242c-0.239-1.109-0.848-1.615-2.372-1.793c-1.387-0.119-1.688-0.301-1.688-0.934v-1.096
		c0-0.682,0.183-0.881,1.03-0.94l8.724-0.916c0.356-0.068,0.728-0.068,0.981-0.068c0.599,0,0.779,0.189,0.779,0.736l-0.063,1.604
		c-0.063,1.612-0.063,1.612-0.117,4.331c-0.062,1.119-0.062,2.479-0.062,4.019V96.482L207.515,96.482z"/>
	<path fill="#B62B21" d="M241.605,65.857c0.297-0.062,0.607-0.062,0.729-0.062c0.544,0,0.847,0.37,0.847,1.113l-0.427,18.877v11.02
		c0,8.041,0.069,10.063,0.487,10.881c0.546,1.164,0.971,1.404,3.535,1.654c0.552,0,0.854,0.26,0.854,0.688v1.14
		c0,0.623-0.183,0.812-1.265,0.998l-7.789,1.539c-0.49,0.062-0.856,0.135-1.086,0.135c-0.494,0-0.67-0.313-0.729-1.125l-0.18-2.61
		c-0.13-1.486-0.13-1.545-0.555-1.545c-0.055,0-0.298,0.119-0.538,0.348c-0.477,0.508-2.123,1.76-3.212,2.578
		c-1.818,1.229-3.395,1.727-5.396,1.727c-6.659,0-11.448-6.152-11.448-14.865c0-10.018,5.694-16.875,13.932-16.875
		c1.649,0,4.854,0.668,5.649,1.172c0.176,0.179,0.353,0.248,0.411,0.248c0.24,0,0.491-0.498,0.491-0.992
		c0-0.062,0-0.062-0.062-1.103l-0.069-6.593c0-3.209-0.179-3.468-2.838-3.904c-1.155-0.114-1.395-0.291-1.395-1.17v-1.162
		c0-0.631,0.238-0.815,1.213-0.936L241.605,65.857z M222.583,96.482c0,6.791,2.908,11.57,7.148,11.57
		c4.364,0,6.479-3.644,6.479-11.062c0-3.837-0.429-6.375-1.327-8.109c-1.093-1.907-2.964-3.098-5.094-3.098
		C225.545,85.785,222.583,90.188,222.583,96.482"/>
	<path fill="#B62B21" d="M270.658,85.662c0-3.829-0.059-8.25-0.121-10.72c-0.062-1.543-0.547-1.979-2.539-2.479
		c-1.402-0.312-1.648-0.482-1.648-1.418v-1.229c0-0.74,0.188-0.998,0.795-0.998c0.358,0,1.449,0.062,2.488,0.127
		c1.146,0.058,2.845,0.13,4.722,0.13c2.208,0,3.726-0.072,4.938-0.13c1.024-0.065,2.062-0.127,2.425-0.127
		c0.599,0,0.777,0.258,0.777,0.998v1.229c0,0.936-0.241,1.106-1.574,1.418c-2.057,0.5-2.479,0.936-2.541,2.479
		c-0.064,2.041-0.124,7.511-0.124,10.72v6.551c0,7.109,0.311,9.9,1.396,11.877c1.636,2.967,5.036,4.693,9.273,4.693
		c5.08,0,8.658-2.09,9.992-5.865c0.792-2.344,0.845-3.281,0.845-11.002v-6.254c0-3.651-0.053-8.371-0.117-10.72
		c-0.06-1.543-0.484-1.979-2.538-2.479c-1.398-0.312-1.642-0.482-1.642-1.418v-1.229c0-0.74,0.186-0.998,0.788-0.998
		c0.423,0,1.451,0.062,2.489,0.127c1.146,0.058,2.358,0.13,3.446,0.13c1.339,0,2.43-0.072,3.602-0.13
		c1.028-0.065,2.067-0.127,2.486-0.127c0.603,0,0.781,0.258,0.781,0.998v1.229c0,0.936-0.238,1.106-1.635,1.418
		c-2.048,0.5-2.444,0.936-2.504,2.479c-0.062,2.105-0.12,7.326-0.12,10.72v6.002c0,7.303-0.131,9.15-0.606,11.254
		c-1.582,6.809-7.327,10.291-16.97,10.291c-7.452,0-12.694-2.424-14.93-6.83c-1.281-2.598-1.639-5.496-1.639-14.463v-6.254H270.658z
		"/>
	<path fill="#B62B21" d="M311.079,83.871c0-0.929,0.117-1.111,0.906-1.231l8.6-1.042c0.545-0.064,0.972-0.129,1.036-0.129
		c0.482,0,0.777,0.428,0.847,1.171c0.059,0.497,0.179,3.393,0.179,3.711c0.067,0.739,0.294,1.293,0.605,1.293
		c0.187,0,0.433-0.183,0.669-0.431l0.606-0.68l1.155-1.162c2.903-3.167,4.415-3.904,7.932-3.904c4.33,0,7.539,1.667,8.688,4.563
		c0.614,1.486,0.614,1.486,0.614,10.511v2.052c0,3.709,0.05,7.229,0.119,8.469c0.121,1.305,0.478,1.66,2.305,2.223
		c1.81,0.557,1.872,0.623,1.872,1.434v1.01c0,0.623-0.183,0.812-0.662,0.812h-0.437c-1.57-0.121-4.417-0.188-6.66-0.188
		c-2.293,0-5.106,0.066-6.695,0.188h-0.417c-0.486,0-0.673-0.263-0.673-0.812v-1.01c0-0.811,0.068-0.877,1.888-1.434
		c1.815-0.563,2.158-0.918,2.271-2.223c0.058-1.42,0.121-4.828,0.121-8.469v-2.052c0-3.886-0.164-5.556-0.635-6.86
		c-0.668-1.67-2.308-2.591-4.548-2.591c-2.477,0-4.775,1.168-6.182,3.152c-1.015,1.42-1.272,2.793-1.272,6.748v1.603
		c0,3.836,0.068,7.049,0.127,8.469c0.13,1.305,0.483,1.66,2.245,2.223c1.813,0.623,1.876,0.623,1.876,1.434v1.01
		c0,0.549-0.184,0.812-0.674,0.812h-0.425c-1.581-0.121-4.299-0.188-6.599-0.188c-2.303,0-5.279,0.066-6.729,0.188h-0.425
		c-0.479,0-0.663-0.263-0.663-0.812v-1.01c0-0.811,0.06-0.877,1.88-1.434c1.816-0.563,2.177-0.918,2.304-2.223
		c0.059-1.308,0.117-4.633,0.117-8.469v-2.158c0-3.043-0.359-7.853-0.731-8.974c-0.301-1.06-0.908-1.43-2.784-1.551
		c-1.457-0.123-1.751-0.25-1.751-0.798L311.079,83.871L311.079,83.871z"/>
	<path fill="#B62B21" d="M356.423,93.512c0-7.291-0.12-7.727-2.612-8.018c-1.392-0.121-1.689-0.314-1.689-0.938v-1.111
		c0-0.687,0.188-0.864,1.028-0.935l8.663-0.912l0.495-0.063c0.172-0.068,0.353-0.068,0.479-0.068c0.542,0,0.78,0.428,0.78,1.173
		c0,0.119,0,0.119-0.054,2.418c-0.063,1.045-0.123,7.045-0.123,10.434v3.102c0,3.709,0.06,6.982,0.123,8.463
		c0.124,1.312,0.485,1.666,2.22,2.229c1.798,0.557,1.864,0.623,1.864,1.435v1.01c0,0.549-0.182,0.811-0.666,0.811h-0.418
		c-1.552-0.121-4.267-0.188-6.572-0.188c-2.311,0-5.211,0.065-6.729,0.188h-0.428c-0.546,0-0.661-0.188-0.661-0.811v-1.01
		c0-0.812,0-0.812,1.875-1.435c1.875-0.617,2.186-0.918,2.308-2.229c0.055-1.615,0.121-4.441,0.121-8.463v-5.082H356.423z
		 M363.997,72.465c0,2.541-2.115,4.582-4.79,4.582c-2.602,0-4.717-1.983-4.717-4.524c0-2.64,1.992-4.439,4.959-4.439
		C362.119,68.084,363.997,69.884,363.997,72.465"/>
	<path fill="#B62B21" d="M400.678,83.389c0,0.854,0,0.854-1.165,1.168c-0.783,0.371-1.155,0.938-2.181,3.582
		c-0.666,1.729-0.666,1.729-5.845,14.598c-1.929,4.814-2.361,5.933-2.779,7.105c-0.556,1.445-0.556,1.52-0.797,1.895
		c-0.181,0.302-0.432,0.437-1.271,0.541c-0.546,0.074-0.721,0.074-2.847,0.437c-0.236,0.062-0.479,0.062-0.667,0.062
		c-0.611,0-0.672-0.062-1.335-2.055c-0.779-2.104-1.329-3.478-4.121-11.201c-2.908-7.98-4.113-11.127-5.151-13.549
		c-0.419-1.041-0.539-1.104-1.936-1.605c-0.36-0.121-0.546-0.492-0.546-0.975v-1.123c0-0.612,0.248-0.798,1.024-0.798
		c0.193,0,0.193,0,2.979,0.131c0.663,0.055,1.757,0.055,3.2,0.055c2.856,0,4.62-0.055,6.436-0.186h0.716
		c0.62,0,0.856,0.186,0.856,0.798v1.123c0,0.799-0.061,0.799-1.692,1.229c-1.766,0.441-2.433,0.877-2.433,1.73
		c0,0.309,0.064,0.744,0.249,1.229c0.297,0.943,0.605,1.855,0.843,2.789l1.518,4.879c1.874,6.193,3.149,10.09,3.271,10.09
		c0.058,0,0.116-0.314,0.233-0.682l0.241-0.871l0.556-1.668c0.302-1.004,0.724-2.168,1.091-3.514l1.763-4.836
		c1.867-5.373,2.354-7.045,2.354-7.728c0-0.735-0.964-1.42-2.478-1.738c-0.729-0.184-0.903-0.36-0.903-0.909v-1.123
		c0-0.554,0.233-0.798,0.713-0.798c0.19,0,0.368,0,0.68,0.064c0.728,0.066,3.21,0.121,4.427,0.121c1.098,0,2.5-0.055,3.778-0.186
		h0.539c0.485,0,0.681,0.186,0.681,0.798V83.389L400.678,83.389z"/>
	<path fill="#B62B21" d="M411.82,95.07c-2.253,0-2.494,0.182-2.494,2.275c0,6,3.819,10.397,9.031,10.397
		c3.026,0,7.386-1.492,9.357-3.152c0.124-0.135,0.184-0.188,0.244-0.188c0.181,0,0.36,0.248,0.36,0.55
		c0,0.93-0.546,5.017-0.666,5.45c-0.181,0.314-0.847,0.703-2.518,1.386c-2.188,0.856-5.078,1.42-7.625,1.42
		c-8.85,0-14.97-6.086-14.97-14.983c0-9.584,6.484-16.758,15.276-16.758c7.147,0,11.044,4.083,11.044,11.443
		c0,1.658-0.659,2.16-2.946,2.16H411.82z M412.847,92.029l2.781-0.242c1.096-0.066,4.062-0.313,5.151-0.492
		c0.908-0.063,1.275-0.428,1.275-1.234c0-1.11-0.422-2.483-1.158-3.461c-0.727-1.002-1.938-1.541-3.568-1.541
		c-1.941,0-3.88,0.914-4.965,2.349c-0.974,1.178-1.693,2.959-1.693,4.01c0,0.5,0.23,0.688,0.841,0.688L412.847,92.029z"/>
	<path fill="#B62B21" d="M433.887,84.186c0-0.93,0.181-1.108,1.088-1.24l8.919-1.348l0.485-0.063
		c0.24-0.068,0.411-0.068,0.485-0.068c0.414,0,0.724,0.428,0.724,1.043l-0.063,2.736c0,2.645,0.063,3.08,0.546,3.08
		c0.184,0,0.727-0.436,1.147-0.984c0.914-1.057,0.914-1.057,2.362-2.729c1.694-1.904,2.302-2.347,4.052-2.783
		c0.91-0.232,1.828-0.363,2.89-0.363c1.554,0,2.229,0.428,2.169,1.348v0.131l-0.241,4.33c-0.065,1.117-0.301,1.547-0.85,1.547
		c-0.121,0-0.302-0.061-0.539-0.116c-0.72-0.259-2.096-0.379-3.485-0.379c-2.242,0-3.994,0.623-5.148,1.733
		c-1.386,1.414-1.63,2.662-1.63,8.779v2.779l0.12,3.957c0.063,2.027,0.181,2.537,1.027,2.973c0.481,0.234,0.546,0.234,3.164,0.863
		c1.86,0.43,1.925,0.43,1.925,1.26v0.863c0,0.629-0.306,1.004-0.798,1.004h-0.304c-1.747-0.066-6.599-0.188-9.009-0.188
		c-1.945,0-4.787,0.065-6.302,0.188h-0.425c-0.48,0-0.677-0.262-0.677-0.811v-1.011c0-0.812,0-0.812,1.889-1.434
		c1.875-0.617,2.184-0.918,2.304-2.229c0.063-1.535,0.116-4.373,0.116-8.463v-2.051c0-3.088-0.411-6.604-1.04-8.283
		c-0.535-1.541-1.439-2.096-3.379-2.156c-1.343-0.07-1.522-0.19-1.522-0.856V84.186L433.887,84.186z"/>
	<path fill="#B62B21" d="M483.347,87.824c-0.066,0.994-0.188,1.121-0.852,1.121h-0.977c-0.604,0-0.604,0-1.199-1.604
		c-0.677-1.612-2.551-2.541-5.216-2.541c-2.905,0-4.851,1.604-4.851,4.019c0,1.678,0.847,2.785,3.21,4.154
		c1.399,0.791,1.399,0.791,5.45,2.653c3.938,1.793,6.243,4.819,6.243,8.222c0,5.625-5.032,9.36-12.655,9.36
		c-2.914,0-5.95-0.608-7.942-1.674c-0.849-0.369-1.031-0.75-0.972-1.693l0.376-4.204c0.06-0.738,0.36-1.046,1.021-1.046h1.034
		c0.666,0,0.727,0,1.088,1.606c0.546,2.115,3.211,3.709,6.053,3.709c3.098,0,5.286-1.674,5.286-4.084
		c0-1.854-0.983-2.846-4.312-4.387c-7.874-3.647-9.81-5.764-9.81-10.328c0-6.051,4.486-9.64,11.984-9.64
		c2.304,0,4.794,0.428,6.248,1.039c0.97,0.38,1.211,0.685,1.211,1.429v0.178L483.347,87.824z"/>
	<path fill="#B62B21" d="M494.838,93.512c0-7.291-0.12-7.727-2.599-8.018c-1.398-0.121-1.696-0.314-1.696-0.938v-1.111
		c0-0.687,0.174-0.864,1.021-0.935l8.664-0.912l0.495-0.063c0.181-0.068,0.361-0.068,0.484-0.068c0.539,0,0.786,0.428,0.786,1.173
		c0,0.119,0,0.119-0.06,2.418c-0.066,1.045-0.127,7.045-0.127,10.434v3.102c0,3.709,0.061,6.982,0.127,8.463
		c0.12,1.312,0.48,1.666,2.236,2.229c1.816,0.557,1.863,0.623,1.863,1.435v1.01c0,0.549-0.174,0.811-0.646,0.811h-0.436
		c-1.572-0.121-4.291-0.188-6.603-0.188c-2.302,0-5.205,0.065-6.715,0.188h-0.436c-0.546,0-0.66-0.188-0.66-0.811v-1.01
		c0-0.812,0-0.812,1.871-1.435c1.883-0.617,2.184-0.918,2.305-2.229c0.063-1.615,0.119-4.441,0.119-8.463v-5.082H494.838z
		 M502.416,72.465c0,2.541-2.129,4.582-4.793,4.582c-2.604,0-4.718-1.983-4.718-4.524c0-2.64,1.992-4.439,4.958-4.439
		C500.535,68.084,502.416,69.884,502.416,72.465"/>
	<path fill="#B62B21" d="M514.83,90.365c-0.061-3.588-0.061-3.646-1.514-3.646c-0.24,0-0.24,0-1.088,0.059h-1.576
		c-0.486,0.063-0.844,0.063-0.904,0.063c-0.37,0-0.605-0.185-0.605-0.37c0-0.121,0.058-0.437,0.235-0.808l0.727-2.039
		c0.492-1.355,0.612-1.485,1.208-1.485c0.19,0,0.736,0.065,1.459,0.13c0.245,0.057,0.492,0.057,0.729,0.057
		c1.091,0,1.513-0.372,1.513-1.293c0-0.303-0.062-2.26-0.181-4.049c-0.062-0.991-0.062-1.92-0.062-2.6
		c0-1.353,0.362-1.861,1.681-2.347l3.811-1.361c1.202-0.437,1.202-0.437,1.379-0.437c0.369,0,0.61,0.437,0.61,0.926
		c0,0.382-0.055,1.06-0.182,1.801c-0.181,1.542-0.605,6.746-0.605,7.885c0,1.103,0.298,1.288,2.063,1.288h4.965
		c1.452,0,2.245-0.059,3.15-0.186h0.357c0.313,0,0.487,0.186,0.487,0.497c0,0.368-0.174,0.993-0.716,2.851
		c-0.375,1.299-0.68,1.539-1.646,1.539c-0.241,0-0.241,0-1.813-0.121c-0.426,0-1.152-0.063-2.3-0.119
		c-1.343-0.063-1.759-0.063-2.301-0.063c-1.948,0-1.948,0-1.948,2.661v9.523c0,4.939,0.128,6.541,0.729,7.725
		c0.556,1.158,1.761,1.789,3.64,1.789c1.332,0,2.796-0.233,4.903-0.811c0.492-0.121,0.783-0.182,0.904-0.182
		c0.313,0,0.428,0.182,0.428,0.502c0,0.871-0.487,3.791-0.659,4.045c-0.556,0.629-4.729,1.42-7.572,1.42
		c-6.899,0-9.484-2.043-9.484-7.385l0.068-3.65c0.053-1.473,0.112-2.656,0.112-3.453L514.83,90.365L514.83,90.365z"/>
	<path fill="#B62B21" d="M567.389,83.258c0,0.613-0.131,0.736-0.666,0.984c-1.279,0.623-1.403,0.816-2.796,4.463
		c-0.546,1.609-1.151,3.082-1.762,4.566l-3.272,8.221c-1.272,3.227-2.479,6.441-3.75,9.734c-2.966,7.928-3.269,8.664-4.901,10.451
		c-1.402,1.614-3.974,2.727-6.391,2.727c-4.853,0-5.453-0.369-5.453-3.461c0-0.625,0-1.113,0.06-1.428l0.062-1.125
		c0-0.67,0.181-0.91,0.596-0.91c0.194,0,0.315,0,0.482,0.061c1.707,0.502,3.097,0.676,4.728,0.676c3.257,0,5.482-1.734,6.392-5.068
		c0.13-0.436,0.251-0.797,0.425-1.059c0-0.053,0.065-0.119,0.065-0.119c0-0.121-0.183-0.234-0.36-0.354
		c-0.724-0.39-0.789-0.509-2.416-4.56c-2.036-4.943-4.104-9.83-6.161-14.713c-0.724-1.727-1.633-3.896-2.537-5.996
		c-0.676-1.481-0.911-1.67-2.311-2.104c-0.414-0.127-0.543-0.306-0.543-0.984v-1.054c0-0.49,0.248-0.734,0.736-0.734h0.419
		c0.546,0.064,5.989,0.186,7.146,0.186c1.614,0,4.507-0.055,5.535-0.186h0.549c0.545,0,0.847,0.294,0.847,0.734v1.054
		c0,0.857,0,0.857-2.243,1.421c-1.27,0.313-1.935,0.983-1.935,1.791c0,0.37,0.127,0.872,0.375,1.426
		c0.351,0.99,0.713,1.973,1.018,3.037l1.938,5.057l0.975,2.477c0.414,1.111,1.151,2.973,1.633,4.271
		c0.361,1.045,0.482,1.299,0.61,1.299c0.361,0,5.577-16.693,5.577-17.867c0-0.867-0.616-1.43-1.763-1.682
		c-1.459-0.299-1.579-0.371-1.579-1.229v-1.054c0-0.549,0.188-0.734,0.663-0.734h0.556c1.259,0.131,2.84,0.186,4.477,0.186
		c1.328,0,2.558-0.055,3.581-0.121c0.231-0.064,0.485-0.064,0.598-0.064c0.546,0,0.8,0.244,0.8,0.734v1.052H567.389z"/>
	<path fill="#231F20" d="M611.945,95.098l-0.352,0.812L601.5,95.633l-0.673-0.844l-0.666,0.014v6.188
		c-0.147,2.823,2.729,6.252,6.587,6.237c3.613-0.186,5.367-3.606,5.608-6.787l0.389-5.356L611.945,95.098z M610.7,101.256
		c-0.269,1.354-1.938,3.162-3.896,3.369c-2.758,0.066-5.063-2.195-5.199-4.098c-0.104-1.801,0.021-2.264,0.021-2.264l9.271,0.309
		C610.87,99.59,610.957,100.111,610.7,101.256"/>
	<polygon fill="#231F20" points="604.398,124.371 606.367,128.307 606.797,128.061 606.571,127.021 615.817,122.932
		616.294,123.514 617.091,123.131 615.373,119.596 614.82,119.836 614.834,120.93 605.753,124.893 604.959,124.291 	"/>
	<path fill="#231F20" d="M607.402,120.232v0.436l-2.645,0.541c-1.497-1.018-2.203-2.096-2.646-3.863
		c-0.863-3.441,0-6.635,4.493-7.887c4.729-1.479,6.69,1.594,7.71,5.17c0.291,1.057,0.311,1.82,0.485,2.973l-2.505,0.695
		l-0.342-0.516c0.984-0.883,1.295-2.209,0.972-3.475c-0.486-1.949-2.723-3.062-4.554-2.316l1.322,5.738l1.019,0.422l0.181,0.549
		l-2.675,0.684l-0.167-0.557l0.385-0.596l-1.456-5.765c-2.229,0.134-3.877,2.425-3.401,4.599
		C603.892,118.459,605.563,120.037,607.402,120.232"/>
	<path fill="#231F20" d="M605.43,92.451c-0.319-0.695,0-1.539,0.723-1.865c0.695-0.285,1.533-0.09,1.814,0.516
		c0.364,0.717,0,1.543-0.666,2.045C606.605,93.463,605.767,93.146,605.43,92.451"/>
	<path fill="#231F20" d="M613.354,129.137c-0.325-0.715-0.037-1.539,0.475-1.861c0.634-0.328,1.558,0.009,2.089,0.736
		c0.306,0.697-0.02,1.555-0.709,1.842C614.5,130.189,613.677,129.848,613.354,129.137"/>
	<path fill="#231F20" d="M683.358,156.182c-0.317-0.725,0.027-1.541,0.753-1.861c0.74-0.321,1.57,0,1.865,0.689
		c0.275,0.717,0.004,1.547-0.719,1.895C684.557,157.225,683.723,156.885,683.358,156.182"/>
	<polygon fill="#231F20" points="608.3,69.522 606.287,73.458 606.76,73.623 607.603,72.904 616.531,77.502 616.353,78.247
		617.154,78.567 618.773,75.11 618.188,74.837 617.371,75.429 608.828,70.846 608.734,69.917 	"/>
	<polygon fill="#231F20" points="613.853,86.816 613.298,86.646 612.768,87.047 606.087,85.617 615.646,81.979 616.517,79.773
		615.814,79.608 615.17,79.891 606.179,76.31 606.116,75.459 605.464,75.25 604.337,78.35 605.159,78.651 605.935,78.25
		612.312,80.743 602.109,84.664 601.65,86.197 612.319,88.551 612.774,89.057 613.171,89.24 	"/>
	<path fill="#231F20" d="M634.296,146.486L634.296,146.486c0.09-1.682-0.249-3.121-1.345-4.246l-0.16-0.188l-0.072-0.074
		l-0.074-0.045l-0.054-0.056l-0.16-0.127c-1.191-1.037-2.639-1.379-4.326-1.19c-1.791,0.18-3.484,1.131-4.579,2.725
		c-1.928,2.424-1.905,5.557,0.372,7.82l0.066,0.047h-0.011l-0.029-0.027l0.04,0.027c2.443,2.035,5.601,1.936,7.968-0.033
		C633.327,149.953,634.19,148.252,634.296,146.486 M630.397,148.775c-0.392,0.402-1.896,1.82-3.441,1.854
		c-0.663,0.007-1.249-0.2-1.795-0.729l-0.153-0.174c-0.513-0.375-0.745-0.83-0.783-1.5c-0.01-1.293,1.092-3.021,1.929-3.904
		c0.689-0.695,3.211-3.342,5.196-1.553l0.294,0.268C633.561,144.918,630.968,148.18,630.397,148.775"/>
	<polygon fill="#231F20" points="648.842,163.311 652.991,164.229 653.035,163.746 652.125,163.064 654.076,153.281 655.005,153.24
		655.063,152.391 651.255,151.707 651.096,152.357 652.045,153.053 650.122,162.502 649.107,162.783 	"/>
	<path fill="#231F20" d="M680.49,158.818l0.428,0.02l0.853,2.586c-1.119,1.439-2.153,2.121-3.954,2.51
		c-3.485,0.75-6.646-0.033-7.677-4.412c-1.513-4.768,1.546-6.662,5.126-7.707c1.095-0.309,1.838-0.313,3.005-0.469l0.664,2.578
		l-0.512,0.328c-0.857-1.039-2.185-1.365-3.49-1.084c-1.918,0.502-3.123,2.777-2.452,4.652l5.758-1.313l0.465-1.043l0.569-0.147
		l0.636,2.686l-0.592,0.127l-0.587-0.369l-5.677,1.346c0.101,2.164,2.296,3.791,4.519,3.342
		C679.005,162.207,680.621,160.639,680.49,158.818"/>
	<polygon fill="#231F20" points="625.086,135.096 624.63,135.479 624.699,136.16 619.789,141.148 621.969,131.186 620.59,129.285
		620.102,129.754 619.978,130.471 611.959,136.033 611.184,135.631 610.7,136.061 612.768,138.746 613.469,138.176 613.549,137.32
		619.075,133.361 616.819,143.955 617.887,145.166 625.707,137.387 626.373,137.26 626.731,137.031 	"/>
	<polygon fill="#231F20" points="664.738,153.355 664.702,153.943 665.288,154.34 665.97,161.215 659.516,152.947 657.283,152.725
		657.353,153.402 657.779,153.979 657.003,163.766 656.182,164.143 656.176,164.797 659.412,164.844 659.472,163.934
		658.907,163.324 659.343,156.576 666.125,165.199 667.716,165.186 666.839,154.387 667.202,153.777 667.242,153.342 	"/>
	<polygon fill="#231F20" points="630.794,155.746 631.097,155.082 632.034,155.156 638.478,147.785 638.164,147.008
		638.679,146.404 640.681,147.256 640.36,154.572 644.484,149.773 644.284,149.391 644.635,149.137 647.535,150.309
		647.491,151.053 646.985,151.293 645.683,161.248 646.392,162.066 646.202,162.662 642.791,161.148 642.995,160.432
		643.607,160.285 644.552,152.43 638.507,159.648 637.295,159.246 638.125,150.195 633.222,156.072 633.654,156.896
		633.469,157.332 	"/>
	<path fill="#231F20" d="M707.449,142.857l0.396-0.195l1.751,2.068c-0.201,1.836-0.805,2.934-2.173,4.172
		c-2.695,2.537-5.896,3.281-9.079-0.094c-3.372-3.588-1.621-6.775,1.095-9.341c0.783-0.782,1.442-1.163,2.407-1.866l1.819,1.928
		l-0.262,0.535c-1.308-0.476-2.609-0.121-3.591,0.774c-1.521,1.32-1.47,3.845,0.063,5.115l4.508-3.851l-0.124-1.125l0.385-0.406
		l1.878,1.861l-0.428,0.4l-0.713-0.006l-4.53,4.203c1.136,1.916,3.927,2.33,5.631,0.697
		C707.576,146.793,708.122,144.578,707.449,142.857"/>
	<path fill="#231F20" d="M721.606,82.234v-0.448l2.662-0.573c1.493,1.106,2.146,2.133,2.55,3.917
		c0.875,3.474-0.072,6.666-4.472,7.854c-4.616,1.431-6.724-1.625-7.673-5.209c-0.31-1.063-0.328-1.825-0.514-2.998l2.541-0.68
		l0.332,0.523c-1.002,0.855-1.336,2.191-1.008,3.492c0.462,1.955,2.671,3.076,4.549,2.355l-1.28-5.763l-1.068-0.438l-0.144-0.57
		l2.73-0.735l0.114,0.488l-0.386,0.743l1.441,5.795c2.237-0.065,3.914-2.391,3.448-4.6C725.145,83.98,723.448,82.443,721.606,82.234
		"/>
	<path fill="#231F20" d="M723.059,74.817l-2.989,1.489c-0.007-2.293,0.596-4.871,0.345-6.169c-0.433-1.868-1.015-2.369-2.511-3.611
		l-0.435,0.343c0.435,0.758,0.611,0.755,0.902,1.88c0.393,1.59,0.349,2.615-0.047,4.208c-0.855-1.627-2.762-2.281-4.798-1.689
		c-2.514,0.668-3.957,3.285-2.828,5.656l2.504,5.811l0.852-0.37l0.21-0.544l8.966-4.615l0.636,0.422l0.486-0.158L723.059,74.817z
		 M712.967,79.944c-1.139-2.375-1.784-5.869,1.318-6.657c2.574-0.693,4.108,1.77,4.471,3.745L712.967,79.944z"/>
	<path fill="#231F20" d="M716.55,105.602l0.043-9.299l-0.768-2.525l3.188,2.023c-0.321,0.08-0.593,0.188-0.787,0.34
		c-0.334,0.342-0.334,1.729-0.388,3.818l10.224-0.135l0.197-0.455l0.524,0.027l0.021,3.662l-0.298-0.009l-0.452-0.862l-10.142,0.176
		c0.015,1.104-0.146,2.744,0.164,2.992c0.114,0.112,0.315,0.233,0.583,0.328l-2.679,1.766L716.55,105.602z"/>
	<polygon fill="#231F20" points="727.264,114.434 728.052,110.25 727.579,110.215 726.859,111.061 716.996,109.313 716.903,108.582
		716.062,108.516 715.54,112.357 716.16,112.426 716.779,111.668 726.39,113.322 726.721,114.213 	"/>
	<path fill="#231F20" d="M722.909,116.609l0.43-0.455l2.322,1.064c0.479,1.895,0.398,3.247-0.425,4.981
		c-1.665,3.239-4.088,5.409-8.688,3.521c-4.471-2.016-3.976-5.705-2.476-9.16c0.462-1.057,0.918-1.641,1.49-2.639l2.558,0.979
		l-0.193,0.689c-1.351,0.068-2.317,0.684-2.896,1.875c-0.958,1.922,0.532,3.637,2.304,5.016c1.762,1.338,5.604,0.763,6.604-1.227
		C724.562,119.918,724.201,117.936,722.909,116.609"/>
	<polygon fill="#231F20" points="719.524,134.285 721.65,130.529 721.178,130.516 720.281,131.039 711.177,126.043 711.349,125.328
		710.572,125 709.146,128.434 709.725,128.729 710.582,128.207 719.062,132.967 719.139,133.885 	"/>
	<path fill="#231F20" d="M712.47,143.734l5.923-6.783l-1.272-3.262l-0.84,0.852c0,0,0.291,1.359,0.177,2.182
		c-0.251,1.641-2.508,3.609-2.508,3.609l-7.683-6.367l0.328-0.816l-0.693-0.469l-2.65,3.348l0.716,0.496l0.856-0.396l7.466,6.254
		l-0.149,0.878L712.47,143.734z"/>
	<path fill="#231F20" d="M691.892,159.367l3.203-1.74l-0.324-0.389l-0.844-0.127l-2.283-4.641c0,0,1.905-1.365,3.116-1.628
		c0.609-0.141,1.566-0.127,1.566-0.127l-1.161-2.351c0,0-0.553,0.716-0.961,1.105c-0.914,0.877-3.229,1.672-3.229,1.672
		l-1.621-3.387c0,0,2.268-1.613,3.727-2.043c0.47-0.146,1.386-0.32,1.386-0.32s0.041-0.645,0.171-1.006
		c0.212-0.629,0.801-1.525,0.801-1.525l-9.395,5.496l0.197,0.691l0.932-0.008l4.53,8.998l-0.216,0.777L691.892,159.367z"/>
	<path fill="#231F20" d="M702.852,41.898l-0.528-1.498h-11.052V30.233c0-2.812-1.416-5.77-5.169-6.921
		c-2.718-3.291-6.444-6.031-10.643-7.785V6.25h-6.338V0h-4.717h-0.011h-4.676v6.25h-6.207v9.277
		c-4.188,1.754-7.967,4.494-10.593,7.785c-3.692,1.152-5.118,4.11-5.118,6.921V40.4h-11.016l-0.476,1.498
		c-1.328,4.049-1.918,8.485-1.918,13.326c0,14.966,5.534,32.477,10.951,46.12c8.212,20.629,19.067,39.311,24.719,45.529
		c1.346,1.346,2.432,2.531,4.222,2.605c0.024,0.014,0.081,0,0.11,0h0.011c0.054,0,0.084,0.014,0.128,0
		c1.844-0.074,2.945-1.26,4.261-2.605c5.792-6.219,16.735-24.9,24.957-45.529c5.461-13.643,10.976-31.154,10.976-46.12
		C704.727,50.383,704.217,45.947,702.852,41.898 M686.897,30.233V40.4h-9.956V29.779c0-1.329,0.358-1.593,0.589-1.757
		c0.542-0.395,1.845-0.872,4.992-0.872C686.432,27.15,686.897,28.899,686.897,30.233 M679.659,22.968
		c-1.521,0.154-2.979,0.487-4.204,1.21c-1.43-2.214-3.592-3.781-6.33-4.56v-1.463C673.038,18.903,676.718,20.545,679.659,22.968
		 M672.587,29.779V40.4h-8.18h-0.011h-7.993l-0.01-10.621c0-3.046,2.019-6.571,8.003-6.571h0.011
		C670.5,23.208,672.587,26.733,672.587,29.779 M656.901,9.643h6.233V3.414h1.262h0.011h1.343v6.229h6.334v2.764h-6.334v6.333h-1.343
		h-0.011h-1.262v-6.333h-6.233V9.643z M659.72,18.156v1.463c-2.571,0.778-4.734,2.345-6.197,4.56
		c-1.192-0.723-2.678-1.056-4.197-1.21C652.285,20.545,655.954,18.903,659.72,18.156 M642.198,30.233
		c0-1.333,0.434-3.083,4.292-3.083c3.141,0,4.405,0.477,4.941,0.872c0.261,0.165,0.607,0.429,0.607,1.757c0,0,0,6.928,0.004,10.621
		h-9.846L642.198,30.233L642.198,30.233z M664.396,44.774h0.011h34.713c0.175,0.647,0.334,1.351,0.452,2.057h-16.337
		c-6.924,0-9.887,1.684-9.887,5.725c0,1.245,0.688,2.593,1.814,3.542c-0.794,0.318-4.107,1.505-4.594,1.717
		c-0.395-0.445-1.138-1.151-1.242-2.256c0.325-0.534,1.045-1.639,1.045-3.229c0-2.485-1.711-5.001-6.063-5.128
		c-2.009,0.079-3.278,0.67-4.296,1.478c-0.063,0.076-0.113,0.124-0.177,0.199c-1.809,0.497-2.946,1.751-2.946,3.36v1.724
		c0,0,0.797,0.085,1.252,0.254c0.582,0.26,0.807,0.561,0.987,0.809c0.495,0.71,0.077,2.297-0.925,2.79
		c-0.469-0.212-3.793-1.399-4.603-1.717c1.138-0.949,1.878-2.297,1.878-3.542c0-4.041-2.997-5.725-9.96-5.725h-15.97
		c0.15-0.706,0.274-1.41,0.466-2.057L664.396,44.774L664.396,44.774z M632.517,79.196c-0.641-2.361-1.183-4.573-1.654-6.811
		c4.837-0.758,16.712-2.644,24.994-3.922L632.517,79.196z M658.056,72.192l-4.645,7.004h-10.1L658.056,72.192z M633.775,83.553
		h21.054v10.135H637.1C635.814,90.211,634.758,86.816,633.775,83.553 M654.829,131.541c-3.184-5.357-6.642-11.912-9.963-18.994
		h9.963V131.541z M674.177,131.541v-18.994h9.956C680.781,119.629,677.349,126.184,674.177,131.541 M689.702,99.703
		c-1.161,2.881-2.376,5.658-3.639,8.463h-14.07h-2.179v30.23c-1.607,2.324-3.023,4.19-4.201,5.471
		c-0.325,0.35-0.86,0.891-1.206,1.145c-0.308-0.254-0.797-0.795-1.146-1.145c-1.188-1.279-2.612-3.146-4.222-5.471v-30.23h-2.061
		h-13.982c-1.267-2.805-2.48-5.582-3.594-8.463c-0.221-0.563-0.454-1.109-0.669-1.652h20.306V83.553h5.357h0.011h5.407v14.498
		h20.545C690.154,98.594,689.93,99.141,689.702,99.703 M658.582,79.196l3.655-5.512v5.512H658.582z M666.628,79.196v-5.512
		l3.669,5.512H666.628z M692.007,93.688h-17.83V83.553h21.222C694.395,86.816,693.281,90.211,692.007,93.688 M670.895,72.192
		l14.864,7.004h-10.208L670.895,72.192z M696.623,79.196L696.623,79.196l-23.48-10.733c8.255,1.278,20.244,3.164,25.132,3.922
		C697.803,74.623,697.256,76.834,696.623,79.196 M699.12,68.123l-27.816-4.373c0.35,0.847,0.563,1.813,0.563,2.78
		c0,3.98-3.203,7.196-7.218,7.196c-0.06,0-0.156-0.012-0.24-0.012h-0.011c-0.086,0-0.133,0.012-0.221,0.012
		c-3.957,0-7.026-3.215-7.026-7.196c0-0.968,0.204-1.934,0.539-2.78l-27.677,4.373c-0.8-4.717-1.197-9.09-1.197-13.002
		c0-1.413,0.07-2.718,0.167-4.052h16.541c4.553,0,4.931,0.473,5.142,0.689c0.307,0.281,0.383,1.036-0.043,1.337
		c-0.982,0.62-2.504,1.354-2.504,3.583v0.121c0,1.792,1.58,2.46,5.351,3.958c1.085,0.415,4.888,1.917,4.888,1.917l0.79-0.452
		c1.322-0.68,4.145-2.58,4.145-5.822c0-0.419-0.05-0.75-0.104-1.038c-0.104-0.44-0.285-0.824-0.466-1.145v-0.025
		c-0.6-1.122-1.322-1.453-1.322-1.453s0.354-1.54,2.581-1.739l0.004,0.019c0.097-0.026,0.16-0.046,0.251-0.046h0.174
		c1.115,0,1.861,0.926,1.861,2.016c0,1.354-0.866,1.632-0.866,3.412c-0.023,3.242,2.805,5.142,4.113,5.822l0.856,0.452
		c0,0,3.88-1.501,4.938-1.917c3.82-1.498,5.355-2.166,5.355-3.958v-0.121c0-2.228-1.488-2.963-2.457-3.583
		c-0.491-0.301-0.404-1.056-0.061-1.337c0.215-0.216,0.606-0.689,5.086-0.689h16.939c0.104,1.333,0.188,2.639,0.188,4.052
		C700.362,59.032,699.929,63.406,699.12,68.123"/>
</g>
</svg>
