<svg xmlns="http://www.w3.org/2000/svg" viewBox="0 0 400 98.5" enable-background="new 0 0 400 98.5"><path fill="#8C1E2B" d="M321.351 29.058l6.067-3.347c-7.551-13.859-21.579-23.7-37.991-25.433l-.687 6.898c14.094 1.504 26.137 9.969 32.61 21.882z"/><path fill="#B51F1F" d="M284.229 6.931c1.31 0 2.604.068 3.884.186l.687-6.897c-1.506-.14-3.03-.22-4.571-.22-15.046 0-28.525 6.801-37.548 17.484l5.299 4.462c7.748-9.173 19.326-15.014 32.249-15.014z"/><path fill="#0063AE" d="M288.748 91.121l.687 6.897c16.385-1.733 30.393-11.546 37.949-25.372l-6.067-3.347c-6.481 11.881-18.502 20.316-32.569 21.822z"/><path fill="#5C2A67" d="M327.709 26.271l-6.07 3.347c3.062 5.844 4.807 12.485 4.807 19.529 0 7.069-1.755 13.732-4.839 19.592l6.07 3.348c3.633-6.852 5.7-14.657 5.7-22.94 0-8.256-2.058-16.039-5.668-22.876z"/><path fill="#002F63" d="M284.229 91.365c-12.829 0-24.328-5.757-32.076-14.815l-5.299 4.462c9.021 10.567 22.425 17.284 37.376 17.284 1.543 0 3.069-.079 4.578-.219l-.687-6.897c-1.282.116-2.58.185-3.891.185z"/><g fill="#636362"><path d="M264.753 71.463c.254.419.286.573.16.721-.126.133-.33.155-.569-.059-.202-.177-.285-.374-.303-.62l-.409.027c.025.337.135.623.418.871.377.34.869.391 1.181.042.325-.364.214-.66-.096-1.177-.251-.406-.3-.591-.16-.751.18-.199.406-.175.692.086.19.17.31.446.317.714l.406-.012c.007-.359-.128-.719-.428-.985-.522-.465-.98-.431-1.305-.059-.332.362-.199.716.093 1.201zM262.828 71.158l1.971-1.905-.29-.295-1.972 1.905zM261.666 67.786l.556.667.3-.256-.288-.345.007-.007c.249-.207.586-.261.869.084.313.362.187.815-.283 1.209-.47.396-.943.441-1.25.076-.175-.217-.194-.391-.116-.647l-.401-.128c-.135.355-.081.699.199 1.044.458.541 1.194.514 1.836-.022.632-.534.793-1.255.34-1.797-.396-.465-.987-.534-1.524-.079l-.246.202zM260.197 68.069l2.223-1.615-.239-.33-2.225 1.61zM261.218 65.452l-1.962 1.273.226.342 2.301-1.489-.975-1.492-.337.222zM257.964 64.603l.192.364 2.427-1.292-.839-1.568-.35.187.64 1.206zM257.689 60.234l-1.467.625.165.381 1.472-.63c.465-.192.793-.111.96.281.16.384-.015.689-.49.893l-1.452.618.162.377 1.465-.62c.692-.295.96-.793.692-1.418s-.793-.802-1.506-.507zM256.123 57.842l.46-.13 1.381-.423-.113-.384-2.616.802.121.416 1.575.15.5.039-.387.315-1.226 1.019.133.404 2.621-.805-.121-.367-1.383.421-.458.153.362-.295 1.282-1.085-1.671-.18-.46-.049zM257.403 54.307c-.108-.674-.583-.975-1.334-.861l-1.58.251.066.409 1.58-.251c.505-.074.795.084.864.507.059.409-.18.667-.692.743l-1.563.246.071.406 1.57-.248c.743-.118 1.127-.534 1.016-1.201zM257.122 52.299l-1.418.074-.632.032c.064-.035.224-.138.323-.219l1.656-1.176-.017-.389-2.734.143.017.399 1.415-.076.642-.032-.374.244-1.62 1.127.022.423 2.744-.148-.025-.401zM257.083 49.539l-2.739-.05-.015.413 2.747.047zM257.189 47.662l-2.646-1.174-.039.443 1.691.709.485.198-.507.107-1.792.416-.037.447 2.813-.71.032-.436zM257.671 44.519l-.391-.074-.261 1.387-.857-.161.15-.775-.396-.074-.14.77-.67-.13.259-1.327-.396-.074-.335 1.728 2.698.524zM256.458 41.507c-.546-.145-.891.182-1.016.642l-.31 1.157 2.646.711.106-.386-1.051-.284.165-.597 1.186-.246.128-.455-1.231.247c.003-.385-.197-.676-.623-.789zm.207.967l-.207.775-.844-.234.204-.768c.066-.273.271-.409.544-.337.286.076.377.298.303.564zM258.412 39.528c-.46-.175-.741.076-1.085.522-.303.394-.436.478-.618.41-.167-.07-.266-.257-.153-.555.099-.251.254-.401.475-.502l-.17-.377c-.308.145-.532.362-.669.704-.187.473-.057.95.389 1.122.463.172.692-.032 1.061-.513.29-.38.448-.491.642-.42.256.101.308.32.17.678-.089.238-.303.449-.554.545l.162.381c.33-.119.615-.381.763-.753.251-.655.047-1.066-.414-1.243zM259.373 39.284l-2.481-1.162.178-.38 2.481 1.162zM258.626 35.565l-.352-.188-.943 1.775.352.188.374-.706 2.065 1.1.197-.362-2.065-1.101zM259.057 34.108l1.76 2.324.239-.359-.423-.544.596-.918.669.16.244-.369-2.848-.66-.236.367zm1.142.244l.655.16-.46.711-.411-.528c-.13-.168-.34-.42-.421-.511l.638.167zM261.745 31.161l-.313-.252-1.265 1.564.313.251.502-.623 1.824 1.47.256-.318-1.819-1.469zM261.863 30.418l2.033 1.834.278-.309-2.04-1.835zM264.194 29.618c-.44.229-.598.246-.729.111-.13-.13-.138-.34.091-.566.197-.19.394-.261.645-.256l.003-.409c-.337-.005-.635.096-.901.354-.369.35-.455.834-.123 1.179.337.349.64.261 1.174-.017.428-.222.615-.256.768-.101.18.192.135.411-.13.677-.192.182-.473.281-.748.261l-.005.414c.35.032.716-.084 1.007-.359.502-.487.492-.948.15-1.304-.337-.35-.699-.239-1.201.017zM267.935 26.807l-.692.517.239.318.357-.267.005.01c.194.252.234.597-.126.863-.384.292-.822.14-1.199-.354-.364-.49-.389-.96-.012-1.244.231-.171.408-.178.655-.085l.153-.399c-.345-.153-.689-.114-1.051.153-.566.428-.578 1.163-.071 1.829.5.664 1.209.859 1.772.431.49-.368.583-.955.162-1.519l-.192-.251zM269.927 24.9c-.303-.478-.778-.478-1.181-.226l-1.019.64 1.45 2.324.345-.215-.576-.922.522-.322 1.044.63.399-.254-1.066-.652c.261-.278.313-.628.084-1.002zm-.505.848l-.684.425-.463-.748.674-.426c.236-.145.48-.113.63.13.16.256.074.475-.158.619zM272.164 22.875l-.423.209-.054.875c-.015.197-.022.495-.022.606l-.492-.367-.714-.49-.436.212 1.615 1.058.473.972.374-.178-.477-.973.158-1.924zM273.855 22.212l-1.071.406.982 2.561.374-.139-.367-.955.667-.258c.505-.191.743-.605.544-1.131-.204-.53-.662-.667-1.13-.484zm.468 1.248l-.689.258-.335-.879.687-.263c.263-.103.502-.012.603.271.108.273.027.5-.266.613zM276.944 21.247l.293 1.073-1.223.327-.278-1.073-.399.111.701 2.646.404-.106-.325-1.193 1.218-.324.322 1.189.396-.108-.709-2.646zM278.174 20.969l.529 2.69.406-.074-.527-2.696zM280.5 21.727c-.485-.071-.623-.149-.65-.34-.027-.185.086-.357.406-.399.268-.037.468.02.669.167l.249-.33c-.273-.197-.578-.294-.943-.244-.505.069-.859.413-.793.884.074.485.369.588.967.677.468.071.64.155.67.364.042.263-.123.421-.502.473-.259.039-.542-.044-.753-.217l-.251.321c.268.235.63.361 1.026.304.697-.1.96-.477.889-.965-.069-.485-.426-.61-.985-.696zM289.455 20.796l-.578 1.711-.098.309-.02-.327-.199-1.816-.35-.049-.672 1.659-.126.337-.01-.364-.086-1.757-.416-.059.177 2.796.404.055.692-1.692.123-.349.027.372.177 1.813.414.057.938-2.637-.396-.055zM291.434 21.247l-1.615 2.422.413.101.374-.578 1.066.268.064.684.428.108-.305-2.904-.426-.101zm-.613 1.622l.362-.556.347-.569.047.662.066.667-.822-.204zM293.964 21.958l-.389-.13-.896 2.594 1.683.574.133-.379-1.297-.445zM296.684 23.059l-.677-.315-1.159 2.486.682.315c.642.303 1.381.197 1.784-.677.411-.879.037-1.496-.63-1.809zm.251 1.632c-.241.521-.652.768-1.238.492l-.308-.143.812-1.762.318.143c.583.278.657.751.416 1.27zM298.902 25.904l.199-.337-.672-.409.349-.578 1.164.697.197-.34-1.504-.913-1.42 2.351 1.568.943.207-.345-1.208-.731.443-.741zM302.269 26.385l-.829 1.143-.377.524.042-.443.145-1.969-.342-.246-1.61 2.218.325.234.832-1.152.372-.514-.037.394-.123 2.036.313.226 1.61-2.215-.32-.235zM303.317 28.717c-.258-.421-.29-.573-.16-.719.121-.135.325-.162.561.052.207.182.29.379.298.628l.421-.027c-.027-.336-.148-.625-.426-.881-.372-.335-.864-.385-1.181-.034-.325.364-.214.655.096 1.172.251.411.305.596.158.756-.175.194-.406.17-.687-.084-.197-.172-.313-.448-.313-.721l-.406.017c-.015.354.126.716.423.98.522.47.982.428 1.309.064.327-.359.192-.719-.094-1.201zM305.343 29.063l-1.979 1.904.29.298 1.971-1.908zM305.966 30.744c.138-.122.345-.129.564.114.177.197.244.399.229.65l.411.017c.01-.339-.071-.638-.32-.913-.342-.379-.825-.482-1.177-.166-.364.33-.285.635-.032 1.18.212.431.236.623.084.761-.197.182-.419.133-.672-.153-.177-.192-.266-.478-.239-.743l-.411-.03c-.047.352.059.726.327 1.021.468.522.926.532 1.295.199.364-.331.263-.699.027-1.206-.217-.448-.231-.603-.086-.732zM309.173 33.773l-2.838.663.236.356.667-.161.598.922-.423.546.244.369 1.755-2.333-.239-.362zm-.687.943l-.411.532-.46-.711.65-.158c.204-.049.524-.138.637-.177l-.416.514zM308.511 36.808c-.084-.143-.278-.199-.418-.118-.158.086-.209.276-.128.42.079.151.271.206.423.125.143-.084.202-.279.123-.427zM310.559 39.158c.879-.406.997-1.12.684-1.787l-.32-.682-2.484 1.164.315.673c.303.656.926 1.04 1.804.631zm-1.445-.795l-.14-.308 1.762-.817.145.303c.271.591.025.997-.495 1.241-.522.244-.994.17-1.272-.418zM309.709 40.056c-.155.065-.234.245-.185.404.066.158.251.24.411.174.15-.057.236-.239.177-.399-.059-.158-.249-.236-.404-.178zM312.232 42.198l-.372.272-1.337 1.013 1.654.273.46.066-.468.108-1.405.354.096.389 2.658-.664-.101-.423-1.566-.234-.502-.064.413-.298 1.275-.951-.108-.409-2.661.664.091.375 1.403-.352.468-.121zM311.235 47.522c.054.413.281.714.638.872l.187-.37c-.241-.111-.372-.267-.421-.556-.049-.473.3-.773.916-.849.608-.076 1.024.133 1.081.605.029.283-.047.438-.258.608l.273.332c.31-.224.448-.544.391-.989-.081-.704-.716-1.076-1.543-.98-.822.103-1.346.624-1.263 1.327zM312.769 48.878c-.829.02-1.401.478-1.388 1.19.007.407.197.741.537.926l.226-.34c-.229-.14-.349-.315-.349-.595-.012-.477.367-.747.984-.76.618-.007 1.009.244 1.014.721.007.282-.098.43-.318.573l.229.359c.335-.19.512-.495.507-.937-.017-.714-.605-1.149-1.442-1.137zM312.761 51.573c-.827-.069-1.447.332-1.514 1.036-.03.414.123.763.443.984l.256-.315c-.212-.162-.31-.349-.288-.632.042-.478.451-.699 1.063-.645.615.052.98.34.935.817-.027.283-.14.416-.379.539l.197.384c.352-.158.556-.443.593-.884.062-.706-.478-1.208-1.307-1.285zM312.528 54.253c-.82-.148-1.467.195-1.59.894-.076.409.049.773.352 1.024l.278-.298c-.197-.18-.278-.369-.229-.655.084-.47.505-.655 1.12-.551.601.111.938.426.857.896-.049.281-.182.406-.423.507l.16.399c.364-.126.591-.389.664-.829.128-.699-.372-1.241-1.189-1.386zM309.827 59.425l.377.126.423-1.302 2.228.724.126-.386-2.607-.852zM308.712 62.098l2.09 2.008.185-.396-1.339-1.245-.394-.357c.096.022.352.054.517.071l1.826.224.192-.406-2.887-.293-.19.394zM307.814 63.798l2.397 1.332.202-.362-2.405-1.332zM283.219 48.891l.076.24c.006-.002.59-.183.949.038l.133-.214c-.458-.282-1.13-.073-1.158-.063zM283.511 48.225c-.127 0-.226.103-.226.234 0 .127.1.227.226.227.127 0 .229-.102.229-.227 0-.129-.102-.234-.229-.234zM283.973 48.687c.127 0 .229-.102.229-.227 0-.075-.039-.134-.093-.177-.003-.192-.001-.387.009-.56.019.183.23.32.515.32.299 0 .524-.148.524-.344s-.23-.35-.524-.35c-.275 0-.487.138-.512.317.015-.221.04-.394.078-.444.11-.141.407-.178.567-.178.082 0 .258.138.354.239l.182-.174c-.049-.053-.311-.318-.537-.318-.129 0-.569.02-.768.278-.143.19-.149.849-.141 1.205-.064.041-.112.101-.112.186 0 .127.1.227.229.227zm.66-1.085c.175 0 .268.076.273.097-.005.022-.096.092-.273.092-.175 0-.267-.071-.271-.091.004-.023.096-.098.271-.098zM283.002 47.043c.199-.016.489.159.583.228l.15-.203c-.043-.031-.42-.3-.757-.276-.314.03-.588.246-.601.254l.156.198c.002-.002.23-.178.468-.201zM283.56 47.699c0-.196-.233-.35-.529-.35-.293 0-.522.154-.522.35s.224.344.522.344c.302 0 .529-.148.529-.344zm-.529.092c-.175 0-.267-.071-.271-.091.004-.023.096-.098.271-.098.181 0 .273.074.278.097-.005.022-.098.092-.278.092zM279.016 53.978c.212 0 .384-.172.384-.384 0-.212-.172-.384-.384-.384s-.384.172-.384.384c0 .208.176.384.384.384zM280.564 54.652c.213 0 .379-.166.379-.379s-.166-.379-.379-.379c-.207 0-.374.17-.374.379 0 .213.164.379.374.379zM282.12 55.073c.217 0 .386-.167.386-.382 0-.213-.17-.379-.386-.379-.208 0-.377.17-.377.379 0 .21.169.382.377.382zM283.769 55.272c.214 0 .382-.166.382-.379 0-.214-.167-.382-.382-.382-.212 0-.384.171-.384.382 0 .209.172.379.384.379zM286.422 54.243c-.209 0-.379.169-.379.377 0 .212.17.384.379.384.212 0 .384-.172.384-.384 0-.208-.172-.377-.384-.377zM288.136 53.783c-.212 0-.384.171-.384.382 0 .213.169.379.384.379.212 0 .377-.166.377-.379 0-.21-.169-.382-.377-.382zM286.341 49.238c.065.331.848.754 1.396.754l.046-.001c.647-.032.743-.81.801-1.275l.033-.223c.045-.237.064-.892-.163-1.169.19-.064.325-.234.325-.445 0-.265-.217-.481-.482-.481-.255 0-.47.22-.47.481 0 .09.031.169.074.241-.095.013-.188.032-.299.093-.295.152-.636.507-.937.974l-.08.121c-.183.273-.341.509-.242.929zm1.43.501l-.034.001c-.511-.001-1.121-.41-1.149-.556-.027-.117-.009-.2.007-.287l1.524.593c-.081.138-.184.24-.347.248zm.524-3.088c.126 0 .231.105.231.228 0 .126-.102.223-.231.223-.121 0-.219-.1-.219-.223 0-.124.101-.228.219-.228zm-1.42 1.672c.273-.425.587-.756.843-.888.102-.056.186-.082.261-.082s.155.025.268.083c.129.066.196.622.122 1.007l-.036.242c-.026.206-.063.401-.115.574l-1.545-.601.119-.21.082-.124zM300.624 31.476c-.364 0-.66.295-.66.658 0 .364.295.66.66.66.364 0 .66-.296.66-.66 0-.362-.295-.658-.66-.658zm0 1.066c-.225 0-.409-.183-.409-.408 0-.228.18-.406.409-.406.229 0 .409.178.409.406 0 .225-.183.408-.409.408zM284.311 18.594c-17.401 0-31.557 14.154-31.557 31.551 0 15.174 10.769 27.878 25.065 30.88l.007.019.03-.01c2.085.435 4.243.666 6.456.666 5.286 0 10.27-1.314 14.651-3.622l.033.017.023-.046c10.006-5.297 16.842-15.814 16.842-27.904 0-17.397-14.153-31.551-31.55-31.551zm-15.689 52.25l-.01-12.033c0-.571-.437-2.223-1.113-2.223-.674 0-1.11 1.652-1.11 2.223v10.127c-.262-.249-.517-.505-.767-.764h.15v-12.187l1.431-.318c.06.043.124.085.206.085h.509l.16-.069-.009.02.8.35.004-.008c.068.082.161.141.276.141h.113v15.11l-.64-.453zm-.251-.202c-.601-.466-1.176-.959-1.73-1.472v-10.358c0-.587.449-1.972.859-1.972.411 0 .861 1.385.861 1.972l.01 11.831zm-3.943-3.791l-.007-8.04c0-.571-.437-2.223-1.113-2.223-.673 0-1.108 1.652-1.108 2.223v4.967c-.374-.605-.73-1.221-1.053-1.855v-5.945h.345l.134-.055.007.039 1.445-.278-.003-.014.095.04h.507l.101-.042 1.097.332.007-.023.148.063h.49v12.028c-.378-.395-.742-.8-1.093-1.217zm-.251-.302c-.62-.759-1.196-1.551-1.725-2.374v-5.364c0-.587.448-1.972.857-1.972.411 0 .861 1.385.861 1.972l.007 7.738zm19.935-43.866c.12.052.214.145.214.284.003.142-.093.242-.214.295v-.58zm-.251.579c-.118-.052-.212-.146-.214-.286-.002-.089.032-.174.095-.24l.119-.051v.577zm.364.978l.409.021 1.046 3.433v1.751h-3.382v-1.752l1.079-3.41c.284-.009.562-.043.848-.043zm11.337 2.65l.054 1.364-.062-.012-.125.025.063-1.41.069.033zm.002 50.545c-.957-.135-1.659-.604-1.724-.65l-4.471-3.956.085-.154.052-.213c.101-.096.212-.219.228-.302.009-.038.037-.154-.241-.325l-.082-.176-.023-.033-.29-.332c.097-.101.395-.322.647-.49l.534-.284.185-.082c.121.47.341 1.103.666 1.103l.028-.002c.097-.027.161-.07.192-.129l.022-.058-.068-.795.706.446c.016.007.389.196 1.008.162.602-.025 1.172-.217 1.209-.23l1.553-.736c.011-.007 1.132-.7 1.435-.847.457-.204.737-.266.865-.251 0 .122-.122.46-.198.668-.08.222-.155.43-.174.562-.039.268.041.9.169 1.057v.001c.021.036.074.266-.002.528-.478.72-.807.844-.809.844l-.043.025c-.133.111-.388.298-.51.325l-.135-.007-.007-.484-.017-.03c-.146-.24-.357-.529-.53-.54l-.021-.001c-.193 0-.386.169-.409.188l-.102.091.352.332.064.239-.057-.01c-.082-.057-.306-.198-.495-.198l-.028.001c-.19.018-.74.302-.848.358l.06.238c.002 0 .368-.005.626.015.117.009.285.08.425.149l-.059.027c-.062.004-.267.007-.512-.052-.389-.1-.756.516-.825.639l-.133.24.836-.172c.1.044.35.144.619.119l.373-.074c.133-.031.352-.081.401-.062.094.06.164.224.166.283l-.025.589-.018.356.238-.266c.081-.09.484-.55.514-.793.017-.158 0-.34-.014-.442l1.334-.939c.155-.122.667-.53.756-.673.064-.103.092-.368.106-.567l.748.42c.338.114.844.358.912.539.079.214-.007.588-.054.74-.242.318-.556.677-.646.715-.194.075-.652.433-.704.473l-.422.639.518-.153h.128c.238-.022.34-.031.382-.069l.329-.079.075-.017.02-.075c.017-.066.095-.26.217-.265l.421-.015c.016.002.256.023.493-.032l.095-.076c-.247.243-.527.487-.843.729-2.919 2.234-4.535 2.397-5.25 2.294zm-6.277-4.341l2.841 2.514c-1.41-.308-2.366-.44-2.677-.478-.05-.693-.122-1.544-.164-2.035zm-.837 4.552c.233.025.433.047.587.084.333.085.948.276 1.644.511-.047.102-.084.207-.084.317 0 .099.021.192.055.278h-.173c-.016 0-.38.001-.631.13-.096.047-.18.123-.25.206v-.444l-.244-.046-.247.646-.097-.193c-.204-.416-.854-.42-.881-.42l-.01.251c.001 0 .111.022.241.279l.306.636c-.665-.196-1.618-.348-3.853-.394-.395-.007-.801.009-1.212.041-.847-.079-2.555-.541-3.595-.822l-.822-.218c-.229-.054-.551-.197-.925-.363-.558-.248-1.26-.543-2.037-.741.628-.132 1.805-.374 2.856-.551l.043.004c.269.018.555.04.819.075-.136.036-.269.082-.35.151-.102.089-.309.156-.475.21l-.213.076c-.251.106-.315.437-.279.626.046.234.45.462.72.462.224 0 .795-.228 1.237-.42.258-.118.666-.255.785-.255l.015.001.17.064c.143.064.315.144.493.121.167-.023.318-.163.408-.263l.275.048.501.018c.655 0 1.557-.075 2.168-.241.085.05.181.118.214.202.097.263.338.48.666.594.101.032.207.046.311.046.255 0 .501-.085.64-.202.16-.143.265-.397.298-.639.348.068.669.107.928.135zm4.886.528c.112.09.175.223.175.372 0 .331-.346.573-.677.45l-.11-.042-.049.107c-.078.17-.25.279-.439.279-.202 0-.384-.123-.453-.305l-.055-.145-.13.084c-.08.05-.169.076-.27.076-.265 0-.48-.222-.48-.492 0-.113.037-.219.108-.316l.065-.089-.078-.076c-.098-.096-.153-.22-.153-.351 0-.271.219-.492.487-.492l.134.02.134.049.032-.139c.049-.215.247-.373.473-.373.226 0 .425.158.473.374l.038.172.15-.092c.066-.039.146-.06.24-.06.27 0 .49.219.49.487 0 .121-.042.231-.122.32l-.087.1.103.082zm-3.747 1.495c.042-.103.192-.39.372-.478l.121-.048c-.127.126-.272.283-.395.459-.134.181-.198.363-.229.49l-.522-.228-.351-.731-.048-.087c.106.042.201.106.246.199.17.346.236.438.247.453l.138.176.178-.465v.212l.242.048zm.302.081c.268-.383.661-.685.665-.689l.16-.122c.129.213.349.362.613.362.1 0 .194-.017.282-.052.132.209.369.342.626.342.25 0 .48-.126.614-.327.195.046.375-.003.53-.093.677.239 1.093.397 1.326.493-1.314.464-2.665.848-4.052 1.135-.026-.023-.344-.281-.971-.544.006-.057.038-.277.206-.505zm-20.71-4.661l.004-.004-.017-.021c-.086-.149-.26-.364-.411-.541.137.066.293.181.426.378.07.105.118.169.198.169l.074-.002.037-.059c.033-.054.06-.096-.249-.767l.13.11c.267.212.395.47.396.473l.238-.054.098.383.245-.005.143-.673.037.369.247.02.059-.209-.044.204-.221.354-1.832.2c-.032-.112-.092-.293-.185-.463.154.06.311.145.398.254.055.068.084.103.146.103l.089-.001.031-.081-.038-.133zm2.354-.965c.111-.693.21-1.341.21-1.649 0-.605.149-2.076.346-2.789.165-.588 1.135-2.273 1.991-3.758l.073-.128.005.001.002-.014.302-.525-.214.496h-.001c-.333.769-.642 1.453-.811 1.755-.357.639-.845 1.514-.786 2.591.007.304.023.559.049.802l.016.149.144-.042c.021-.005.497-.144.817-.388.303-.222.39-.276.857-.528.19-.106.393-.155.636-.155.249 0 .512.053.759.106.272.059.645.102.957.132-.183.098-.379.222-.581.348-.274.172-.557.35-.8.459-.297.134-.645.21-.955.21-.283 0-.414-.063-.448-.102-.235-.263-.685-.341-.849-.127-.334.42-.524.692-.532.703l-.023.033.011.77c0 .541.387 2.341.529 2.982-.746-.169-1.497-.287-2.057-.287l-.221.014.046-.147.017-.079.491-.788.017-.047zm.758-5.51l-.194.39c-.167-.14-.426-.376-.584-.615-.335-.492-.457-1.082-.333-1.618.049-.209.066-.567.076-.907.114.31.293.69.582 1.121.562.833.444 1.62.443 1.627l.01.002zm1.254-2.288c.001 0-.175.027-.299-.094-.117-.122-.142-.283-.08-.544.053-.244.074-.697-.097-.874l-.342-.297.117-.107c.363.087.714-.127.848-.451l.14.292c.187.562.113 1.257.087 1.451l-.057.099-.313.544-.004-.021zm-2.607-3.101c-.096-.09-.148-.214-.148-.358 0-.268.222-.487.492-.487l.133.02.132.041.028-.135c.046-.214.242-.37.468-.37.224 0 .427.16.481.379l.038.159.144-.078c.073-.039.159-.062.242-.062.272 0 .485.214.485.487 0 .119-.042.234-.116.322l-.082.097.074.062-.053.045.244.32.005.022c0 .271-.219.492-.487.492l-.183-.039-.116-.049-.05.114c-.075.171-.249.282-.441.282-.197 0-.378-.124-.448-.309l-.055-.143-.13.081c-.078.05-.172.078-.265.078-.272 0-.495-.219-.495-.487 0-.117.039-.224.113-.309l.078-.092-.087-.082zm11.673-13.232l.033-.015v.626l.047.038c.018.015.45.353 1.058.353.581 0 1.058-.103 1.275-.276l.047-.038v-.514l.251.031c.116.017.415.245.599.41l.012.009c-.041.17.002.35.112.504l-.074.447.014.058h-.001l-.938 2.294-.001-.011-1.108.144c-.043-.004-1.535-.133-2.431-.432-.557-.19-.863-.356-1.323-.607l-.454-.245c-.273-.14-.681-.266-.937-.339.335-.231.719-.487 1.032-.696.56-.373 1.044-.695 1.175-.813.199-.172.806-.695 1.259-.863.283-.105.361-.048.362-.049l-.011-.017zm1.257-6.146c.252 0 .759.132.906.236.19.131.619.485.73.739.087.209.15.46.178.589l-.022-.003-.218-.033c-.277-.063-1.498-.081-1.644-.083-.475-.015-1.063.086-1.537.214.043-.237.167-.742.489-1.113.311-.354.902-.548 1.119-.548zm-.106-.563c0-.154.13-.284.285-.284.158 0 .286.127.286.284 0 .158-.13.291-.286.291-.155 0-.285-.134-.285-.291zm-.07 2.26l.097.002h.004c.37.004 1.38.028 1.595.078l.242.036c.258.031.43.052.539.303.153.34-.012.683-.175.857-.247-.082-1.055-.347-1.413-.418-.422-.078-1.081-.107-1.592.001-.512.113-.829.274-1.147.435l-.039.023-.053-.246-.026-.164-.025-.108c-.048-.201-.064-.302.006-.354.191-.15 1.261-.442 1.986-.442zm1.953 1.941l.015-.153c.07.098.128.207.118.287l-.007.176c-.001.126-.001.172-.096.295l-.164.161c.072-.293.117-.585.134-.766zm-3.646-.412l-.025-.02.022-.011.003.032zm.008.08c.027.252.074.67.128 1.006l-.139-.199c-.095-.145-.175-.365-.175-.48 0-.056.093-.205.185-.327zm.233-.202l-.079.007c.244-.118.503-.227.88-.31.479-.099 1.095-.072 1.493.001.209.042.598.159.921.261l-.062.554c-.025.266-.119.871-.299 1.25-.183.391-.687 1.051-.853 1.153-.177.111-.582.105-.924-.013-.278-.088-.658-.924-.784-1.199l-.068-.145c-.065-.14-.172-1.031-.225-1.559zm.998 3.142c.207.071.422.106.619.106.207 0 .391-.039.516-.118.108-.066.278-.259.447-.479v.952c-.16.094-.514.189-1.071.189-.411 0-.736-.186-.854-.264v-.674c.112.139.226.251.343.288zm6.338 4.74l.091.207c.063.183.068 1.077-.037 1.668-.068.38-.041 1.077-.016 1.692.014.361.026.7.015.877l-.013.439c-.032.395-.109.937-.227 1.097-.109.143-.359.151-.516.138l-.042-.04c-.055-.033-.122-.03-.187.011-.101.07-.437.1-.637.117l-.245.027c-.153.021-.565-.178-.74-.265l-.047-.022c-.164-.089-.489-.098-.7-.094.044-.153.02-.405-.042-.786l-.007-.052c-.028-.146.027-.588.06-.852l.028-.257.122.067c.116.084.213.116.303.116.11 0 .207-.048.313-.11l.024-.039.014.053c.175-.048.382-.071.425-.046.106.052.385.192.601-.023l.073-.012c.082.021.196.116.247.274l.063.38c.027.229.053.444.154.589l.207-.143c-.065-.095-.087-.288-.11-.476-.017-.142-.034-.289-.074-.425-.073-.224-.241-.4-.428-.446-.113-.028-.229-.001-.309.079-.065.063-.148.058-.311-.025-.105-.053-.279-.036-.419-.011.026-.118.036-.262.047-.425.012-.178.023-.362.06-.489.108-.347.438-1.638.455-1.709l.098-.829-.02-.002c.304-.103.593-.214.858-.335.266-.118.503-.235.697-.36.033.143.102.296.171.44zm.199 6.639c.009.028.026.128.004.441l-.809.941c.008-.559.008-1.139.008-1.316l-.018-.332.01.001c.196 0 .464-.042.618-.244l.077-.142c.026.264.061.501.109.651zm2.114-12.285l-.002.38h.255v.122h-2.887v-.122h.441v-.38h2.194zm-.275.754l-.034.225-.016.081c-.043.221-.05.261-.422.458-.199.105-.331.25-.415.369l-.049-.075c-.084-.121-.225-.171-.362-.22-.133-.047-.258-.091-.332-.192-.16-.218-.164-.517-.164-.519l-.032-.126h1.826zm-1.673-1.007v-.136c-.007-.06-.754-5.998-5.847-8.072l-.171-.009-.048.009c-5.097 2.074-5.844 8.012-5.852 8.087v.121h-.74l.1-.007c-.022-.293-.079-.575-.159-.848.064-.19.68-2.025.918-2.607.23-.586 1.165-2.221 1.799-2.98.161-.196.375-.418.615-.647h.012v-.011c.682-.652 1.575-1.367 2.108-1.769.543-.407 1.063-.883 1.313-1.118.201.193.583.546 1.012.891v.016h.02l.268.211c.505.38 1.446 1.133 2.154 1.813v.005h.005c.161.155.303.302.431.444l-.01.024h.033l.127.142c.631.754 1.556 2.367 1.8 2.979.235.594.866 2.507.904 2.622-.077.268-.131.545-.152.832l.1.007h-.74zm-11.239.633v.122h-2.882v-.122h.447l-.002-.38h2.187l-.007.38h.258zm-2.345.374h1.817l-.025.094-.004.031c0 .003-.004.302-.162.519-.076.102-.201.146-.332.193-.135.049-.276.098-.357.218l-.053.078c-.082-.119-.214-.265-.415-.37-.37-.196-.378-.234-.42-.451l-.018-.088-.031-.225zm-7.212 5.995c-.068 0-.121-.054-.121-.123v-.254c0-.066.057-.126.121-.126h.509c.06 0 .116.06.116.126v.254c0 .068-.052.123-.116.123h-.509zm0-.753l-.156.065-.788-.367-.01.021c-.069-.085-.162-.148-.277-.148h-.509c-.075 0-.131.041-.189.077l-.001-.005-1.447.262v-4.582l.097-.053 1.239-.468-.006-.016.181.075h.512l.158-.066v.009l.98.015c.063.054.139.096.226.096h.084v5.084h-.094zm-.912.32l.053-.128v-.176l.533.248-.046.112v.179l-.54-.236zm-.198-.374v.246c0 .068-.057.128-.121.128h-.509c-.069 0-.121-.055-.121-.128v-.246c0-.07.052-.123.121-.123h.509c.064 0 .121.058.121.123zm-.975.313l-1.172.26.016-.039v-.251l-.035-.085 1.17-.211-.005.013v.246l.027.067zm-6.081.285c-.073 0-.126-.05-.126-.121v-.249c0-.07.054-.123.126-.123h.51c.066 0 .118.053.118.123v.249c0 .069-.052.121-.118.121h-.51zm2.673-16.062c.223 0 .404.18.404.401 0 .225-.181.408-.404.408-.23 0-.411-.179-.411-.408 0-.225.181-.401.411-.401zm1.617 8.497l.004-.001-.023.185.064.707-.898-1.961-1.074 1.879-.891-1.924-.112.18 1.311-6.451 1.621 7.384zm3.707 1.016v-.009l-.937-.019c-.066-.061-.15-.104-.247-.104h-.086l.906-2.364.657 1.342c-.108.354-.186.722-.197 1.112l-.098.042zm-.177.57l-.664-.01.027-.066v-.251l-.007-.016.661.014-.025.062v.251l.007.017zm-1.217-.376l.028-.073h.182c.063 0 .118.057.118.122v.251c0 .067-.052.12-.118.12h-.512c-.068 0-.123-.054-.123-.12v-.251c0-.064.059-.122.123-.122h.27l.031.073zm-.302-.326c-.103 0-.196.045-.265.115l-.001-.003-1.25.492-.165-.07h-.012l.957-2.624.898 2.09h-.162zm-.331.729l-.981.37v-.188l-.04-.1.978-.385v.199l.043.103zm-2.98.151l.021-.049v-.235l.763.226-.037.091v.182l-.747-.214zm-2.269.077l1.03-.32v.193l.047.114-1.044.328v-.236l-.033-.079zm1.281-.127v-.249c0-.068.057-.125.123-.125h.207l.008.018.01-.018h.281c.069 0 .128.057.128.125v.249c0 .068-.058.124-.128.124h-.507c-.068 0-.123-.056-.123-.124zm1.936-.223l-1.108-.328-.002.007c-.06-.039-.12-.081-.196-.081h-.137l.918-1.607.887 1.936h-.188l-.174.073zm.05.305c0-.07.054-.125.123-.125h.304l.057.124.045-.124h.104c.066 0 .118.055.118.125v.248c0 .066-.053.12-.118.12h-.509c-.068 0-.123-.054-.123-.12v-.248zm-2.549-2.378l.775 1.671h-.09c-.114 0-.207.057-.276.138l-1.279.397c-.058-.038-.115-.08-.188-.08h-.252l1.309-2.126zm-1.564 2.378h.507c.063 0 .121.059.121.124v.251c0 .068-.054.122-.121.122h-.507c-.06 0-.126-.049-.126-.122v-.251c0-.064.062-.124.126-.124zm.507.75c.074 0 .132-.042.19-.079l.003.009 1.411-.443.138.058h.507c.094 0 .174-.043.24-.099l.958.275c.069.086.162.149.281.149h.428v4.464h-.49l-.133.054-.983-.293-.002.005c-.065-.054-.144-.096-.236-.096h-.507l-.165.069-.006-.025-1.326.301-.182-.075h-.335v-4.275h.207zm.467 4.573l.981-.223-.011.026v.249l.055.136-1.019.196.024-.059v-.249l-.031-.076zm1.222-.197c0-.068.052-.121.118-.121h.507c.066 0 .126.057.126.121v.249c0 .066-.059.126-.126.126h-.507c-.066 0-.118-.055-.118-.126v-.249zm1.002.249v-.225l.649.194-.046.111v.251l.003.008-.663-.201.057-.137zm.854.33v-.251c0-.064.057-.118.123-.118h.49v.495h-.49c-.064 0-.123-.06-.123-.126zm4.251-5.816c-.06 0-.113-.054-.113-.115v-.251c0-.069.052-.127.113-.127h.512c.064 0 .121.06.121.127v.251c0 .059-.059.115-.121.115h-.512zm.227-2.165l-.797-1.63-1.017 2.651-1.045-2.429-.97 2.66-.054-.582 1.844-14.617 1.755 11.331v.038h.006l.203 1.313.079 1.217.012-.001-.016.048zm.229-.462l-.054-.829-.208-1.344v-4.634l2.136-.711v5.773c-.799.368-1.449.979-1.874 1.744zm2.854-20.13l.062 1.177-.126-.025-.062.013.045-1.126.08-.039zm-.064 1.404c.304 0 .551.246.551.548 0 .212-.126.391-.305.481l-.103.017.003.018-.147.029c-.305 0-.544-.239-.544-.546 0-.308.239-.548.544-.548zm0 1.346l.188-.038.773 4.58h-1.896l.748-4.579.187.037zm.842 4.795v2.925l-1.065-.158-.602-.856v-1.911h1.666zm-1.86 2.074l.65.927 1.461.216v-.583h.812v2.145l-2.57-.011v-.161l-1.235-2.582.882.05zm-1.062.152l.912 1.888-1.684.669.772-2.557zm1.023 2.116l.142.293v.167l-2.388.794v-.362l2.246-.891zm.393.677l2.57.011v5.575c-.343-.093-.696-.158-1.066-.158-.533 0-1.037.106-1.504.284v-5.712zm4.403-8.316c.113.036.204.124.204.249 0 .129-.09.217-.204.252v-.501zm-.251.46c-.063-.051-.108-.122-.108-.211 0-.087.045-.157.108-.208v.419zm.817 2.725l-1.956.761 1.254-2.256.702 1.495zm4.238-4.825h1.101l-.003 2.928h-1.098v-2.928zm1.101-.252l-1.128.002-.415-1.669h1.545l-.002 1.668zm-1.711-1.304l.333 1.341-.682.108.348-1.448zm.359 1.59v2.894h-.662v-2.788l.662-.106zm3.288 3.146v-.252h-1.688v-2.928h3.382v2.928h-1.686v.252h7.762l-.758 1.631h-14.015l-.766-1.631h7.769zm3.499-5.1l-.438 1.668h-1.116v-1.668h1.555zm-.216 4.848v-2.893l.674.107v2.787h-.674zm-1.339-2.928l1.088-.002v2.93h-1.088v-2.928zm1.367-.215l.345-1.314.342 1.421-.687-.107zm4.781 1.864c.103.041.187.123.187.241 0 .124-.082.205-.187.245v-.486zm-.251.458c-.072-.051-.126-.123-.126-.217 0-.092.054-.163.126-.214v.431zm.135 1.225l1.271 2.285-1.983-.756.711-1.53zm-1.896 12.352c-.242-.606-1.13-2.157-1.771-2.958.323-.013.923.002 1.474.034l.133.008v-4.648c0-.556-.492-2.229-1.218-2.229-.745 0-1.226 1.656-1.226 2.229l-.011 3.72c-.299-.278-.621-.559-.934-.82v-5.956h4.435l-.184 12.622c-.217-.65-.54-1.603-.699-2.002zm-1.968-3.189l-.4-.417.012-3.957c0-.605.5-1.977.975-1.977.471 0 .967 1.372.967 1.977v4.381c-.946-.049-1.36-.035-1.554-.007zm-2.843-2.477l-.005-1.897c0-.573-.481-2.229-1.226-2.229-.74 0-1.218 1.656-1.218 2.229v1.826l-.278.222c-.201.152-.455.35-.729.571v-5.627h-.251v5.831c-.327.27-.665.562-.978.852l-.007-3.675c0-.573-.479-2.229-1.218-2.229-.745 0-1.226 1.656-1.226 2.229v4.574h.251l-.053.094c.101-.042.709-.041 1.328-.017-.65.827-1.505 2.33-1.734 2.913-.16.39-.48 1.315-.702 1.964l-.181-12.584h9.233v5.749c-.316-.257-.607-.486-.818-.645l-.189-.151zm-.252-.201c-.544-.453-.978-.883-.982-.888l-.026.025-.027-.026c-.005.005-.401.393-.911.82v-1.626c0-.605.496-1.977.967-1.977.475 0 .975 1.372.975 1.977l.004 1.696zm-5.155 2.71c-.855-.039-1.276-.027-1.477-.001v-4.405c0-.605.5-1.977.975-1.977.471 0 .967 1.372.967 1.977l.007 3.911c-.179.173-.336.339-.472.495zm-3.071-7.455l.183 12.624c-.488-.974-1.35-1.717-2.384-2.072v-9.694l2.202-.857zm.339 12.853l-.03.089-.033-.088.064-.001zm13.762.103l-.034-.103.073.001-.039.102zm.321-12.914l2.196.837v9.673000000000002c-1.032.354-1.891 1.094-2.379 2.062l.184-12.572zm4.354-6.315c.308 0 .549.241.549.548 0 .306-.241.546-.549.546l-.145-.029.003-.018-.101-.017c-.176-.09-.301-.269-.301-.481 0-.302.245-.548.544-.548zm0 1.346l.185-.036.756 4.579h-1.898l.771-4.58.186.038zm-.834 4.795h1.661v1.91l-.608.857-1.053.158v-2.924zm-.251 3.059v.159l1.447-.217.658-.927.882-.05-1.22 2.527-.006.216-2.583.011v-2.144h.822v.425zm2.006 1.743v-.167l.142-.292 2.234.89v.362l-2.375-.794zm.251-.686l.913-1.889.77 2.56-1.684-.671zm-3.079.915l2.577-.011v5.709c-.463-.176-.963-.281-1.492-.281-.377 0-.737.067-1.085.163v-5.58zm2.828.037l2.124.71v4.685l-.202 1.304-.051.806c-.427-.762-1.075-1.371-1.872-1.736v-5.769zm2.097 7.932l.075-1.206 1.965-12.694 1.848 14.591-.056.618-.971-2.669-1.046 2.429-1.018-2.652-.792 1.619-.012-.037h.006zm5.737-7.969c.225 0 .409.18.409.401 0 .225-.183.408-.409.408-.229 0-.409-.179-.409-.408 0-.225.18-.401.409-.401zm.001 1.101l1.319 6.473-.118-.191-.89 1.923-1.071-1.878-.903 1.954.064-.728-.021-.164 1.619-7.389zm2.667 14.96h-.507c-.069 0-.123-.053-.123-.121v-.249c0-.069.054-.123.123-.123h.507c.066 0 .121.055.121.123v.249c0 .068-.053.121-.121.121zm-6.058-.611l1.167.212-.034.084v.251l.016.04-1.174-.254.03-.074v-.246l-.005-.013zm.089-5.341l.042-.102v-.202l.976.384-.043.103v.186l-.974-.37zm-1.854-.355l.642-.013-.007.016v.251l.028.066-.646.01.007-.017v-.251l-.025-.062zm.767-.268l-.934.019v.006l-.095-.04c-.011-.394-.091-.765-.201-1.122l.652-1.331.906 2.364h-.075c-.097 0-.184.043-.252.104zm.119.271c0-.065.063-.122.133-.122h.172l.028.073.031-.073h.271c.068 0 .123.055.123.122v.251c0 .068-.053.12-.123.12h-.502c-.074 0-.133-.053-.133-.12v-.251zm.635-.375h-.163l.901-2.09.955 2.624h-.005l-.168.069-1.247-.491-.004.01c-.068-.073-.162-.122-.269-.122zm3.97.475l.009-.018h.198c.068 0 .126.057.126.125v.249c0 .068-.057.124-.126.124h-.509c-.064 0-.118-.057-.118-.124v-.249c0-.066.055-.125.118-.125h.292l.011.018zm1.611.481l-.033.081v.236l-1.042-.327.048-.115v-.193l1.028.318zm-1.914-.751c-.076 0-.135.042-.193.082l-.002-.007-1.106.329-.176-.073h-.187l.896-1.937.916 1.607h-.148zm-.349.675l-.753.215v-.183l-.037-.089.77-.229v.237l.02.049zm-1.63.4c-.07 0-.13-.055-.13-.12v-.248c0-.069.059-.125.13-.125h.097l.045.123.057-.123h.304c.069 0 .123.055.123.125v.248c0 .066-.055.12-.123.12h-.502zm.057 5.462c-.065 0-.118-.057-.118-.126v-.251c0-.066.052-.118.118-.118h.509c.07 0 .121.049.121.118v.251c0 .06-.043.126-.121.126h-.509zm.836-.487l.655-.195v.226l.055.137-.67.205.005-.012v-.251l-.045-.11zm.907.031v-.249c0-.068.05-.121.113-.121h.512c.069 0 .123.053.123.121v.249c0 .07-.054.126-.123.126h-.512c-.063 0-.113-.055-.113-.126zm.989-.274l.975.222-.032.077v.249l.024.058-1.013-.196.056-.135v-.249l-.01-.025zm1.667-.076h-.349l-.181.075-1.326-.302-.006.025-.168-.069h-.512c-.09 0-.164.041-.227.094l-.001-.003-.985.293-.134-.054h-.49v-4.464h.426c.119 0 .212-.063.281-.148l.963-.275c.064.056.142.099.233.099h.509l.139-.058 1.411.443.003-.009c.058.038.117.079.193.079h.221v4.275zm-.221-4.527c-.073 0-.123-.05-.123-.122v-.251c0-.061.047-.124.123-.124h.505c.068 0 .126.057.126.124v.251c0 .07-.054.122-.126.122h-.505zm0-.75c-.074 0-.131.042-.189.079l-1.278-.396c-.069-.081-.163-.139-.278-.139h-.082l.772-1.671 1.309 2.126h-.255zm-7.79-.353c.069 0 .121.055.121.127v.251c0 .065-.053.115-.121.115h-.5c-.068 0-.126-.053-.126-.115v-.251c0-.071.055-.127.126-.127h.5zm0 .746c.092 0 .17-.042.235-.096l.964-.014v-.011l.168.068h.502c.075 0 .131-.041.189-.077l-.007.018 1.23.467.102.054v4.582l-1.445-.262-.001.007c-.059-.038-.118-.08-.193-.08h-.509c-.116 0-.208.058-.275.141l-.007-.014-.794.368-.157-.066h-.089v-5.084h.089zm1.866 5.03v.246c0 .07-.055.128-.123.128h-.509c-.068 0-.118-.054-.118-.128v-.246c0-.071.05-.123.118-.123h.509c.069 0 .123.054.123.123zm-1.539.32l.538-.249v.175l.051.128-.543.24v-.183l-.045-.111zm-.326-.015c.074 0 .121.065.121.126v.254c0 .07-.052.123-.121.123h-.5c-.07 0-.126-.054-.126-.123v-.254c0-.066.059-.126.126-.126h.5zm0 .753c.121 0 .214-.063.281-.151l.008.018.793-.35-.008-.017.159.066h.509c.075 0 .133-.042.191-.08l1.448.314v9.265l-.625-.541v-5.901c0-.571-.436-2.223-1.11-2.223-.673 0-1.108 1.652-1.108 2.223l-.007 3.992-.62-.532v-6.084h.089zm.948 9.805c.207.214.401.209.54.207l.043-.001c.124 0 .726.046 1.056.172.3.114.459.197.471.247l.01.036.026.026c.063.062.11.462.101.864 0 .002.009.254-.204.583-.169.265-.861.418-1.114.455l-.162.023.065.15c.046.108.164.428.158.613l-.027.592-.017.348c-.023.303-.257.978-.26.985l-.033.097.087.053c.507.304 1.088.704 1.138.8.009.124-.169 1.012-.298 1.602l-.012.054.032.044c.081.119.15.273.154.298-.203.048-.415.027-.431.027l-.442.015c-.229.009-.364.215-.426.378-.204.044-.318.071-.378.103l-.218.023h-.073l.032-.049c.186-.145.507-.379.625-.425.201-.084.637-.644.767-.813l.018-.037c.007-.023.187-.572.058-.924-.132-.359-.912-.639-1.046-.682l-1.088-.613-.005.209c-.007.263-.039.587-.078.647-.044.071-.396.372-.692.604l-1.458 1.026.014.079c.001.002.046.256.023.447-.007.066-.097.21-.214.366l.007-.224c-.004-.15-.119-.389-.281-.492-.129-.084-.336-.034-.596.028l-.34.068c-.266.027-.518-.111-.521-.112l-.039-.021-.351.073c.118-.149.256-.273.354-.273l.025.002c.337.084.607.058.615.058l.557-.249-.198-.124c-.046-.028-.46-.283-.751-.304l-.112-.007.278-.101h.009c.092 0 .271.097.367.166l.528.114-.187-.697-.192-.183.122-.044c.054.02.202.199.322.393l.007.529.036.037c.057.059.206.146.409.098.199-.046.516-.298.598-.366.101-.042.453-.233.925-.951l.016-.032c.096-.313.059-.651-.044-.778l.001-.001c-.043-.078-.151-.585-.111-.863.016-.107.09-.313.162-.512.165-.455.262-.742.182-.895l-.114-.095c-.201-.062-.561.025-1.079.258-.316.154-1.414.832-1.448.853l-1.527.724c-.006.002-.56.19-1.124.213-.553.016-.874-.132-.875-.132l-1.132-.713.117 1.221-.005.002c-.108-.025-.318-.53-.441-1.06l-.034-.15-.47.213-.551.294c-.879.58-.825.683-.777.773.05.097.266.332.351.422l.107.229.034.021.138.097-.164.174-.028.027-.034.159-.127-.257c-.044-.062-.114-.084-.188-.108-.096-.03-.16-.054-.18-.11-.07-.196-.322-.788-.334-.812l-.021-.034c-.015-.016-.348-.389-.821-.645-.466-.25-.769-.338-.783-.342l-.033-.01-.154.042-.137-.203-.049-.044.153-.06.112.059.417.068.096-.224-.224-.174-.309-.431.052.014.452.407.027-.523.188.23c.039.092.127.305.143.39.011.161.266.511.375.653l.762.378.054-.025c.026-.012.626-.298.833-.481l.398-.382.198-.159-.186-.425-.293-.775-.514-.065-.225.101-.468-.05-.235.315v.292l-.091.039-.021-.21.15-.559-.07-.05c-.004-.002-.29-.208-.439-.338-.178-.161-.331-.363-.338-.431-.001-.046.065-.212.134-.346l.281-.427.234-.236.203-.443.284-.135.06-.097-.004.058-.345.513-.288.697.857-.466.326-.298.119-.031.048.063-.025.14-.363.292-.583.391.113.223 1.22-.437.018.048-.137.114-.94.309-.302-.002h-.014c-.089 0-.187.071-.255.133l-.039.037-.004.306.059.257.496.126.53.036.346-.107.038-.02c.155-.117.345-.19.374-.169.092.048.334.3.475.465l.116.133.411-.705c.13-.305.201-.486.203-.525.022-.059.218-.34.399-.583l.186-.026.091-.188.506-.576.132-.293c.034-.053.282-.255.491-.41l.049-.036.014-.447.188-.306-.252-.389-.316-.042-.292-.1-.127.215-.209-.078c-.084-.02-.145.017-.182.043l-.19.071c-.261.037-.801.479-.907.566l-.031.041-.161.256-.07.002.289-.549.874-.765-.805.076-.658.336c-.302.245-.633.507-.842.662.233-.802 1.343-1.535 1.592-1.691l.027.079.16-.055-.002.004.254.22.53.039.02-.251-.449-.034-.08-.07.171-.058.561-.064.414.005.002-.251-.428-.005-.603.07-.458.154.068-.234c.078-.162.229-.257.229-.257.005-.002.487-.274.709-.374.182-.081.667-.182.838-.214l.064-.012.027-.06c.007-.016.182-.405.321-1.018.062-.268.21-.485.346-.635l-.068.334c-.062.215-.102 1.163-.106 1.27l-.004.085.386.176.06-.082c.004-.005.335-.452.491-.637.135-.166.468-.427.54-.484l.176-.066-.126.224-.074.32-.443 1.093.401.342-.005.263.182.598-.132.235.002.418-.098.485-.279.652-1.3 1.829c-.023.036-.217.367-.127.657l.05.159.139-.092c2.645-1.743 3.79-3.861 3.267-6.009.226.361.478.934.474 1.654-.009 1.511-1.159 3.039-3.327 4.418l-.197.124.213.096c.464.21.676.082.881-.042.092-.054.178-.106.295-.134l.036-.015c2.395-1.456 2.902-3.693 2.997-4.865.208 1.001.185 2.931-2.145 4.934l-.299.258.394-.037c1.324-.124 2.232-1.927 2.688-3.104-.066.479-.18 1.009-.373 1.327-.348.569-.617.833-.731.945l-.078.092-.03.02.012.03.014.07.058.084.086-.012.164-.02c.292-.042.967-.143 1.451-.106.398.026.708.272.913.436.11.087.182.145.255.164.145.038.789.033 1.195-.247.198-.137.311-.319.336-.537.081-.581-.126-.955-.565-1.028-.527-.085-.812-.087-1.115-.091l-.089-.001c-.151-.004-.375-.244-.535-.484l-.032-.15c-.033-.134-.095-.385-.081-.49.053-.278.204-.628.338-.687.198-.09.292-.087.64-.053.289.028.513.165.8.491.11.119.223.185.338.193.034.086.133.128.266.126.186-.001.43.203.569.352l.031.217c-.161.005-.439.005-.631-.031-.221-.043-.421-.277-.466-.335-.052-.133-.359-.859-.989-.746-.609.106-.654.465-.655.555-.011.073-.05.418.165.636zm-13.073 4.462l.07-.019c.087.028.345.122.7.311.383.208.673.507.738.576l.3.731-1.809-1.6zm2.267 2.005l-.109-.096.01.004.058.011.041.081zm12.368-7.603l-.139-.145.249.213-.11-.069zm-1.727-1.837l.007-4.208c0-.587.448-1.972.857-1.972.41 0 .859 1.385.859 1.972v5.684l-1.723-1.477zm1.362 1.499c-.166-.12-.357-.211-.598-.235-.362-.036-.514-.039-.767.074-.343.15-.482.863-.486.877-.018.148.031.363.086.589l.014.053.012.112v.001l.001.001.005.009.009.014c.112.175.434.629.768.635l.09.001c.305.004.569.007 1.077.089.298.049.417.299.356.747-.017.148-.092.266-.23.362-.324.224-.893.231-.988.21l-.161-.117c-.215-.172-.577-.46-1.053-.49-.427-.03-.98.034-1.334.084.145-.162.348-.416.586-.804.45-.738.497-2.418.498-2.488l-.247-.037c-.009.034-.85 3.069-2.312 3.778 2.94-2.842 1.591-5.554 1.576-5.582l-.238.071c.004.034.33 3.431-2.867 5.388-.145.038-.251.102-.346.159-.134.081-.238.139-.414.107 3.531-2.335 3.423-4.507 3.035-5.607-.218-.615-.651-1.193-.828-1.193h-.009l-.063.01-.031.052c-.037.059-.021.106.023.231.758 2.16-.225 4.245-2.847 6.036l.096-.249 1.308-1.844.3-.699.108-.535v-.378l.154-.272-.202-.662.005-.342-.353-.303.382-.945.063-.287.46-.813-.845.32-.032.018c-.017.012-.427.326-.596.533-.121.143-.335.427-.439.567l-.047-.022c.018-.41.055-.994.095-1.133l.142-.715.054-.294-.249.166c-.023.015-.567.384-.715 1.026-.102.453-.228.784-.279.912-.172.034-.625.129-.828.22-.231.105-.709.373-.732.385-.009.006-.218.133-.33.368-.065.142-.087.27-.095.347-.314.194-1.72 1.124-1.75 2.156l-.002.087.08.033c.081.034.117.055 1.196-.827l.57-.297h.002l-.305.267-.463.863.124.054c.055.025.345.137.493-.031.078-.091.154-.229.183-.284.242-.199.626-.476.762-.496.151-.02.234-.069.294-.111l.261.1.1.038.132-.224.119.039.226.032.102.158-.142.23-.011.391c-.495.37-.517.453-.525.486l-.105.24-.5.564-.058.111-.159.023-.031.042c-.475.636-.475.705-.474.727l-.181.46-.228.39c-.126-.138-.316-.332-.433-.394-.203-.103-.509.094-.625.177l-.279.089-.46-.03-.327-.085-.02-.076.004-.165.043-.034.337.002 1.021-.329.338-.268-.071-.178.048-.106.047-.342-.236-.075-.181.334-.346.123.263-.212.059-.342-.113-.151-.002-.235v-.079l-.126-.21-.234.073.023.38-.075.02-.378.329-.21.114.38-.57.018-.316-.261-.509-.233.092.09.343-.095.149-.302.145-.207.47-.233.238-.303.458c-.054.103-.181.362-.169.484 0 .22.377.569.422.609l.389.304-.116.431.001.021c.032.448.063.465.119.497l.053.028.054-.018.314-.134.075-.033v-.373l.1-.133.394.043.223-.101.293.038.241.639.112.254-.058.048-.399.38c-.134.119-.524.321-.719.415l-.58-.276c-.16-.212-.298-.436-.308-.507-.027-.15-.155-.443-.169-.476l-.273-.342-.185-.048-.069-.081-.081-.091-.022-.026-.158-.058-.126-.052-.027-.011-.514.022.64.449-.257-.066-.254-.123-.041-.044-.062.047-.05.01-.143.048-.103.028.028.271.459.079.331.463-.112-.059-.369.143-.222.072-1.533-1.356 8.962-10.426 7.528 6.455zm-13.149-3.205l.229-.025c.287-.025.527-.05.677-.116l.022.366c0 .204 0 .944-.012 1.568l.037.001-1.132 1.316c-.001-.638.042-2.147.074-3.113l.105.002zm-1.823-1.424l.007.049c.025.148.097.599.057.678-.049.039-.201.046-.322.05l-.192.012c-.149.017-.318-.108-.34-.15-.029-.071-.074-.538-.053-.785l.004-.046c.022-.218.152-.879.201-1.121.096-.011.257-.021.393-.009.213.018.329.096.336.121l-.031.274c-.052.407-.091.759-.059.927zm-1.094-.187l-.002.052c-.018.184-.044.261-.062.279-.114.082-1.007.25-1.157.224-.144-.021-1.078-.39-1.178-.479-.151-.145-.154-.209-.158-.21l.1-.042.015-.006 1.11.445.094-.234-1.071-.429-.002-.018-.073-.039c-.012-.006-.031-.064.01-.144l.085-.025.057.004.853.242.069-.244-.865-.246v-.001h-.003l-.077-.022-.004.015-.017-.001-.054-.009c-.03-.064-.046-.197-.007-.265.016-.026.108-.05.186-.052h.026l-.007.019.773.263.064-.244-.753-.258-.005.016-.083-.14.09-.079c.106-.03.553.09.765.172.14.052.374.032.665.002l.206-.017c.066.001.313.123.529.25-.032.175-.098.565-.098.759l-.009.369-.011.091zm-2.802 2.735l-.215-.114.877-2.135.234.096-.896 2.154zm.033.578c0 .262-.214.475-.477.475-.262 0-.475-.213-.475-.475 0-.263.213-.478.475-.478.263 0 .477.214.477.478zm4.024-11.098c.077.069.177.094.277.107l-2.145 5.143-.196-.082-.046-.003 2.111-5.166zm.534-.214c-.048.056-.112.089-.182.091-.065.006-.135-.019-.186-.065-.049-.045-.079-.106-.082-.153l.041-.241c.089.062.19.113.302.146l.228.045-.119.177zm.331 6.398c-.012.167-.031.449-.079.492-.166.095-.21.101-.343.006-.205-.143-.444-.188-.491-.195-.102-.048-.221-.078-.336-.088-.211-.019-.446.009-.513.018l-.035-.021c-.111-.069-.448-.263-.651-.311.047-.057.084-.121.099-.194.028-.129.001-.267-.078-.389l-.097-.097.679-1.627c.891-.119 1.713-.302 2.448-.533l-.083.712c-.004.012-.343 1.339-.449 1.682-.044.155-.058.353-.07.545zm-3.147-.789l.161.02c.149.032.278.114.347.222.03.047.062.118.043.202-.034.16-.287.257-.545.199-.155-.034-.288-.122-.356-.231-.027-.044-.057-.113-.037-.191.03-.129.188-.22.386-.22zm4.747-2.79c-.898.41-2.049.716-3.331.898l.569-1.364.408-.063c1.277-.223 2.53-1.088 2.668-1.186.427.396.677.759.677 1 0 .255-.511.502-.991.715zm-2.397-.778l-.251.04.747-1.791.171-.138.24-.353.045-.017c.564.405 1.233.89 1.56 1.153-.288.194-1.413.915-2.513 1.107zm1.129-2.72c-.03.098-.107.157-.166.188-.142.076-.342.086-.53.028-.311-.094-.522-.357-.463-.573.03-.098.105-.156.162-.187.139-.076.342-.088.543-.026.187.055.345.172.42.313.033.061.066.156.034.258zm-8.808 1.593c.077.02.73.192 1.087.377l.45.242c.473.257.784.427 1.364.624.934.311 2.427.439 2.516.444l.999-.128-.567 1.387-.003-.033-.445.033-.15.011-.391.012c-2.623 0-5.095-1.613-5.305-1.809-.306-.292-.105-.685-.062-.761.038-.057.24-.211.508-.4zm-.597 1.361c.222.197 1.024.695 2.102 1.129-.014.198-.273 4.119-.336 5.492l-.622-1.215c.148-.158.236-.369.236-.596 0-.496-.386-.884-.881-.884-.485 0-.879.396-.879.884 0 .236.123.455.295.618l-.136.143-.582.698c.023-.362.054-.674.081-.773.06-.258.315-1.741.374-2.338.066-.596.066-1.121.066-1.13.046-.446.214-1.584.28-2.029zm1.352 9.905c-.054.443-.165 1.313-.187 1.434-.027.128-.283.64-.391.742-.171-.022-.249.107-.33.215l-.065.085c-.05.062-.092.078-.134.076l-.033-.016c-.049-.111-.169-.17-.284-.228l-.17-.106-.052-.092c-.034-.073-.073-.156-.223-.279-.082-.069-.078-.106-.062-.217l.014-.156c0-.142-.041-.249-.085-.363l-.074-.214c-.049-.156-.036-.535-.026-.669l-.058-.004c.069-.036.147-.106.227-.253l.047-.084c.154-.281.213-.348.375-.298.356.107 1.04.193 1.468-.006l.019-.012.024.445zm-2.276-.921c.137-.224.165-.652.143-1.012l1.008.221.225.021c.349 0 .741-.12.949-.192-.011.257-.025.61-.025.802 0 .31-.048.362-.175.42-.361.17-.981.086-1.289-.006-.377-.119-.533.169-.669.418l-.046.082-.103.14-.001-.01-.016-.084c-.038-.201-.118-.618-.001-.8zm1.201-1.037l-1.088-.24-.007-.064-.015-.162 1.46-1.458c.097.274.239.64.363.875l.422.851c-.112.043-.736.275-1.134.197zm.321-2.95l-.053-.228-.46.482c-.124-.116-.213-.272-.213-.441 0-.348.282-.633.628-.633.353 0 .63.278.63.633 0 .27-.183.499-.432.584l-.1-.398zm-.63.743l.439-.462.129.478.001.002-1.374 1.372.013-.458.009.007.784-.939zm-1.105 3.11c-.059.091-.08.209-.09.331-.424.24-.957.437-1.321.556l.097-.235c.187-.249.79-1.014 1.419-1.45.013.319-.016.653-.106.798zm-1.537 1.194c.319-.098.935-.306 1.45-.576l.053.364.014.073c.015.111.075.183.154.216-.006.092-.032.523.037.735l.08.235c.038.1.069.178.069.272l-.012.121c-.018.128-.041.288.151.447.106.087.127.13.155.192l.075.133c.062.082.164.134.262.183l.17.113c.048.089.133.146.235.156l.032.001c.116 0 .235-.062.322-.17l.071-.092.106-.116.01-.002-.503 5.863c-.719.025-2.034.256-2.901.479-.309.08-.564.156-.8.229-.448.135-.845.251-1.439.331-.052-.315-.087-.583-.087-.735l-.009-.69c.06-.085.236-.327.5-.658.069-.089.334-.004.463.138.142.162.459.187.636.187.345 0 .731-.085 1.058-.234.257-.116.549-.298.831-.475.404-.254.821-.516 1.045-.516l.007-.251c-.01-.001-.981-.058-1.509-.172-.262-.057-.54-.112-.813-.112-.284 0-.533.062-.758.186-.473.257-.572.318-.885.546-.183.14-.434.244-.592.3l-.023-.427c.06-.086.357-.503.771-.852.295-.242.671-.298 1.068-.357.21-.031.427-.063.64-.124l-.006-.019.156-.031c.134.212.373.346.629.346.247 0 .479-.124.617-.325l.169.02c.41 0 .743-.332.743-.741 0-.182-.066-.356-.181-.485.074-.122.11-.251.11-.394 0-.414-.324-.736-.738-.736l-.234.039c-.118-.258-.377-.428-.672-.428-.299 0-.564.178-.681.446-.437-.053-.823.299-.823.738 0 .172.052.327.151.454-.066.114-.102.246-.102.38 0 .245.127.453.311.587l-.125.024c-.415.06-.842.123-1.193.412-.25.211-.458.444-.607.626.017-.903.408-1.643.741-2.241.177-.313.48-.984.796-1.713.079-.052.261-.159.538-.235l-.066-.244-.313.111c.235-.549.465-1.099.645-1.535zm3.036 12.696l-1.191.23.004-.017c-.005-.001-.532-.145-1.327-.619-.442-.258-1.331-.56-2.268-.789l-.115-.526c.124-.043.476-.144 1.333-.276l.736-.114c.931-.149 1.891-.301 2.54-.304l-.038.441c-.012.146-.07.293-.132.448-.085.218-.175.444-.154.701.02.297.131.668.611.826zm-4.365.515l-.348-.03-.1-.48.038.036.13.117.143-.326.149.681-.013.002zm.429-.916c-.123.058-.223.166-.298.274l-.153-.705c.736.203 1.399.439 1.746.641.421.251.764.411 1.006.509l-.95.199.008.038c-.267-.047-.538-.087-.819-.097l-.146-.002-.394.023.239-.993-.239.112zm2.196-2.662v.486l-1.215.146c-.038-.138-.111-.382-.207-.603.148.08.3.19.374.319l.234-.08-.036-.272.156.308.103-.257.102-.245.057.498.25.005c.033-.204.158-.757.353-.999-.081.222-.172.512-.172.694zm.078-.945l-.039.025c-.126.122-.223.319-.295.518l-.064-.558c.257-.052.518-.099.768-.14l-.37.155zm-.603.229l-.193.417-.242-.475-.236.075.084.624c-.251-.181-.543-.272-.56-.277l-.388-.119.252.319c.163.204.308.686.363.903l-.415.065c-.807.124-1.181.223-1.348.277-.084-.399-.177-.866-.252-1.289.608-.082 1.014-.202 1.468-.339.234-.071.485-.148.791-.226.247-.064.519-.125.796-.182l-.121.228zm.777 1.211v-.495c0-.217.197-.721.273-.898l.098-.228c.388-.059.734-.098.992-.11l-.14 1.635v-.005c-.341 0-.765.041-1.223.101zm-1.925-6.406c-.097-.091-.148-.209-.148-.351 0-.315.29-.559.62-.473l.124.036.032-.126c.057-.218.252-.37.476-.37.228 0 .423.155.475.375l.038.162.146-.08c.055-.032.143-.069.246-.069.273 0 .487.213.487.485 0 .123-.039.229-.123.332l-.08.1.102.079c.107.084.172.22.172.368 0 .266-.225.49-.492.49l-.175-.037-.113-.049-.052.111c-.081.17-.256.281-.445.281-.201 0-.384-.124-.457-.309l-.054-.14-.128.079c-.352.213-.752-.052-.752-.41 0-.114.039-.225.11-.311l.075-.091-.086-.081zm-4.291 7.719l.077-.008.043-.004 2.869.36-.003-.016.245.067-.26.593c-.338-.303-.357-.303-.407-.303l-.082.001-.033.075c-.036.079.017.135.053.176.098.111.208.597.256.917-1.44.268-2.773.811-2.915.87-1.189-.591-2.337-1.253-3.435-1.985.611-.159 2.397-.607 3.593-.744zm3.35 2.024l.342.03.015-.062.459-.028.137.001c1.27.043 2.423.555 3.264.928.385.171.717.319.969.379l.816.215c.793.214 1.86.502 2.721.681-2.255.304-4.378.992-4.822 1.14-2.49-.526-4.874-1.345-7.109-2.426.511-.197 1.886-.69 3.21-.858zm6.493-.475l.09.024.448.171c.36.141.778.301 1.177.41l-.139.082c-.113.017-.24-.049-.359-.101l-.231-.082-.044-.004c-.245 0-.767.215-.9.276-.565.246-.999.399-1.133.399-.197 0-.458-.183-.471-.257-.021-.11.023-.304.128-.347l.194-.069c.198-.065.421-.138.56-.26.111-.092.48-.158.687-.177l-.006-.064zm6.866.375c0 .226-.123.47-.239.573-.121.101-.437.196-.706.107-.252-.087-.438-.249-.511-.444-.032-.08-.088-.145-.15-.202l.033-.01c.471-.202 1.042-.366 1.491-.477.027.083.081.276.081.453zm-1.671-.207l-.189.064-.052-.025-.021.049c-.716.198-1.989.27-2.619.214-.505-.047-1.158-.304-1.684-.511l-.457-.175c-.39-.138-.964-.177-1.469-.212l-.557-.046c-.428-.048-.615-.241-.644-.667-.016-.201.059-.39.138-.591.065-.165.132-.336.148-.518l.741-8.631c.172-.236.359-.652.383-.768.03-.16.183-1.398.191-1.472l-.036-.686c.048-.106.061-.237.061-.406 0-.306.039-1.084.039-1.092l.002-.033-.016-.03-.438-.884c-.159-.302-.366-.87-.437-1.101l-.014-.051.181-.064.795 1.553.015-.008c.003.336.019.711.036 1.048.015.288.028.546.028.724 0 .245-.06.997-.113 1.66l-.079 1.066-.048.721c-.053.748-.124 1.775-.105 2.299.031.705-.215 2.304-.219 2.325l-.167 1.436-.134 2.028-.278 1.654-.156.326.226.108.165-.342.293-1.717.135-2.034.166-1.425c.011-.066.252-1.64.22-2.37-.018-.509.053-1.527.106-2.271l.047-.725.079-1.06c.057-.7.113-1.425.113-1.68 0-.181-.012-.444-.027-.736-.018-.361-.039-.769-.039-1.117 0-.571.301-5.161.344-5.808.926.35 2.017.637 3.121.637l.395-.012.15-.01.339-.026-.524 1.283c-.267.033-.484.182-.533.402-.031.126-.007.261.068.382l.046.047c-.217-.059-.47-.112-.583-.067-.183.055-.223.166-.251.244-.023.053-.016.119.02.199-.074.025-.149.068-.196.142-.095.166-.055.388-.002.505l-.042.06c-.06.117-.068.239-.031.336-.062.027-.124.07-.159.148-.074.215.143.423.213.489l.206.124-.906 2.204c-.388.015-.698.336-.698.729 0 .401.325.726.726.726.402 0 .729-.325.729-.726 0-.14-.039-.272-.108-.383l.014.005.941-2.264c.193.071.357.126.414.133.148.027.978-.103 1.271-.234.015.164.037.314.066.372.068.126.304.289.539.289l.053-.002.176-.011c.137-.006.26-.024.365-.064l.006.085c.218-.014.625-.011.761.062l.05.025c.185.091.367.179.534.235-.02.61-.099 3.086-.07 3.448l-3.189 3.71-.08.095 3.388 2.998c.058.771.341 4.953.345 4.998l.024-.002-.204.067c-.535.106-1.389.327-2.036.605zm2.461-.764c-.034-.511-.242-3.571-.321-4.665l1.245 1.102c.106 1.22.263 3.166.244 3.324l-.015.032c-.064.041-.293-.015-.401-.041-.17-.047-.368.055-.593.171l-.159.077zm13.641-2.085c.045-.154-.059-.363-.137-.485.073-.33.306-1.428.292-1.622-.004-.06-.016-.241-1.173-.945.069-.207.22-.688.24-.955l.018-.351.026-.598c.007-.181-.065-.418-.119-.572.3-.058.928-.217 1.133-.541.261-.404.245-.719.244-.721.006-.245.002-.815-.154-1.018-.059-.153-.251-.25-.615-.389-.367-.14-1.007-.187-1.146-.187h-.05c-.111.006-.22.007-.352-.13-.145-.146-.097-.425-.095-.457 0-.01 0-.233.447-.31.454-.094.715.597.717.603l.017.032c.011.015.282.378.631.446.315.059.811.032.831.028l.137-.007-.033-.23.146.125c.112.214 1.067 2.091.932 3.594-.127 1.368-.291 3.025-1.937 4.691zm3.795-9.775c-.566.868-1.151 1.696-1.739 2.487l.007-8.232c0-.587.449-1.972.859-1.972.411 0 .861 1.385.861 1.972v5.745h.012zm-.873-7.967c-.674 0-1.11 1.652-1.11 2.223l-.007 8.473c-.264-.765-.565-1.334-.588-1.378l-.534-.462h.029v-9.405h.49l.157-.065.008.025 1.085-.332.096.041h.512l.103-.043-.003.017 1.44.278.007-.039.134.055h.349v6.4h.019c-.345.622-.704 1.226-1.075 1.81v-5.377c0-.571-.437-2.223-1.113-2.223zm2.419-.649c.154-.045.278-.164.278-.333v-.249c0-.17-.124-.29-.278-.335v-4.314h.032c.212 0 .377-.165.377-.375v-.251c0-.184-.141-.319-.316-.351l-1.16-1.885.006-.001-1.461-7.168c.245-.096.42-.333.42-.612 0-.32-.238-.575-.546-.63v-1.29h-.251v1.294c-.299.063-.522.309-.522.626 0 .286.173.519.422.613l-1.475 6.73-1.847-14.596-.25-.003-1.65 10.664v-2.979l.251.084v-.883l-.393-.156-1.015-3.372-.112.231-.949.053v-1.818h.161l-.815-4.93c.222-.14.376-.376.376-.663 0-.329-.2-.612-.485-.735l-.051-1.293c8.471 4.266 14.309 13.024 14.309 23.141 0 4.628-1.29 8.488-3.057 11.798v-6.013zm-11.897-27.587c-.243.137-.415.389-.415.689 0 .28.153.515.371.657l-.83 4.935h.169v2.381h-.822v-1.477l-1.584-2.85h.016v-.586c.25-.045.438-.25.438-.516 0-.26-.191-.468-.438-.513v-.584h-.251v.598c-.214.07-.377.266-.377.5 0 .239.16.435.377.503v.535h-3.633v-2.747l.122.019-.569-2.372h-1.863l-.984-3.25c3.694.096 7.189.97 10.345 2.463l-.072 1.615zm-13.088-.828h-1.86l-.569 2.372.127-.02v2.748h-3.64v-.518c.259-.037.455-.247.455-.52 0-.267-.2-.48-.455-.517v-.581h-.251v.601c-.208.073-.359.265-.359.497 0 .237.149.428.359.5v.603h.016l-1.569 2.821-.002 1.506h-.84v-2.381h.166l-.832-4.934c.221-.142.376-.378.376-.658 0-.301-.174-.553-.42-.69l-.072-1.381c3.156-1.573 6.671-2.514 10.391-2.674l-1.021 3.228zm-9.993.781c-.283.123-.483.406-.483.735 0 .285.151.519.369.66l-.781 4.786-.023.146h.155v1.818l-.948-.053-.11-.231-1.017 3.367-.404.161v.883l.251-.084v2.929l-1.643-10.614-.25.003-1.841 14.612-1.481-6.747c.246-.095.422-.332.422-.613 0-.311-.224-.56-.517-.625v-1.295h-.251v1.289c-.313.053-.549.305-.549.631 0 .28.176.516.423.612l-1.456 7.168.002.001-1.16 1.883c-.176.03-.322.17-.322.354v.251c0 .207.169.375.377.375h.049v4.306c-.168.038-.3.163-.3.343v.249c0 .176.128.296.29.337v5.462c-1.669-3.456-2.587-7.288-2.587-11.251 0-9.945 5.638-18.587 13.88-22.93l-.096 1.082zm-2.58 27.881h.145c.203 0 .367-.167.367-.374v-.254c0-.204-.167-.377-.367-.377h-.165v-5.084h.177c.202 0 .372-.169.372-.367v-.251c0-.206-.17-.38-.372-.38h-.338c.08-2.116 1.786-3.767 3.912-3.767 2.028 0 3.733 1.581 3.889 3.601h-.446c-.151-1.781-1.659-3.174-3.446-3.174-1.867 0-3.423 1.518-3.468 3.384l.251.006c.043-1.73 1.485-3.138 3.217-3.138 1.65 0 3.041 1.28 3.192 2.922h-.419l.002.38h-.444v.626h.54l.034.276.017.085c.055.284.095.385.549.625.302.158.407.441.409.443l.103.285.129-.274.153-.241c.036-.054.132-.087.234-.124.145-.052.327-.116.45-.28.185-.254.208-.572.21-.65l.038-.144h.518v-.626h-.254l.007-.38h-.433v-.106c.006-.058.732-5.832 5.673-7.858h.074c4.933 2.025 5.662 7.8 5.668 7.844v.121h-.246v.38h-.441v.626h.526l.04.145c.002.079.026.396.212.65.121.163.304.228.452.28.103.037.201.071.238.125l.145.236.123.294.111-.299c.001-.002.11-.286.411-.444.457-.243.496-.346.551-.634l.015-.079.044-.274h.523v-.626h-.252l.002-.38h-.604c.149-1.641 1.54-2.922 3.192-2.922 1.729 0 3.169 1.408 3.212 3.138l.251-.006c-.046-1.866-1.599-3.384-3.463-3.384-1.79 0-3.297 1.392-3.446 3.174h-.451c.154-2.02 1.861-3.601 3.894-3.601 2.12 0 3.822 1.651 3.905 3.767h-.328c-.208 0-.377.17-.377.38v.251c0 .202.169.367.377.367h.16v5.084h-.16c-.208 0-.377.169-.377.377v.254c0 .207.169.374.377.374h.16v5.869l-4.976-4.267-.096-.081-3.353 3.901-.025-.215c-.103-.321-.147-1.094-.148-1.648l.013-.174-.011-.001.011-.276c.014-.192 0-.523-.015-.906-.022-.572-.049-1.285.014-1.638.102-.576.117-1.531.027-1.793l-.103-.234c-.065-.138-.202-.423-.162-.506l-.012-.006c.126-.121.217-.251.217-.406 0-.421-.443-.907-.815-1.241-.234-.208-.996-.763-1.632-1.22.081-.07.147-.151.177-.25.044-.145.026-.305-.053-.451-.11-.202-.318-.361-.571-.435-.263-.08-.532-.063-.733.047l-.165.132c-.109-.096-.477-.41-.696-.442l-.287-.035v-.666c.103-.157.196-.308.252-.427l.047-.124c.122-.097.426-.341.507-.458.143-.184.144-.297.145-.441l.006-.152c.035-.272-.242-.572-.326-.657l.283.094.068.023.055-.046c.297-.254.492-.748.292-1.197-.113-.259-.289-.359-.474-.407l.021-.004c-.002-.017-.08-.405-.212-.725-.175-.401-.813-.844-.818-.847-.103-.073-.298-.145-.502-.198.105-.099.169-.239.169-.395 0-.295-.24-.536-.537-.536-.297 0-.537.241-.537.536 0 .129.047.249.123.343-.32.073-.788.274-1.074.602-.439.506-.548 1.207-.566 1.359-.207.068-.366.138-.441.198-.209.156-.148.41-.098.613l.023.102.022.144c.025.184.049.375.194.444l.042.007c-.079.116-.165.266-.165.383 0 .186.111.458.213.616.101.161.436.597.45.615l.035-.027.034.075c.116.254.237.494.361.707h-.021v.287c-.102-.021-.251-.012-.473.07-.443.165-.975.597-1.336.909-.121.107-.62.44-1.149.793-1.258.839-1.798 1.214-1.884 1.365-.134.234-.194.572-.035.867l-.056-.008c-.011.068-.252 1.67-.311 2.244 0 .005-.001.534-.066 1.117-.058.591-.309 2.053-.368 2.303-.071.262-.17 1.84-.101 2.251l.009.082c-.416.26-.82.659-1.127 1.009.225-.671.388-1.425.388-1.864 0-.124-.034-.286-.08-.457.12-.169.499-.713.603-1.025.075-.223.07-.388.065-.577-.002-.126-.006-.267.014-.447.069-.479-.068-1.319-.074-1.355l-.055-.336-.177.292c-.004.006-.405.672-.697 1.269-.153.317-.171.754-.151 1.116-.178-.303-.378-.593-.605-.807-.521-.485-.957-1.047-1.148-1.455l.068-.013c.134.21.372.345.624.345.247 0 .48-.126.618-.327l.17.022c.41 0 .743-.334.743-.743 0-.176-.065-.346-.182-.482.073-.118.111-.252.111-.386 0-.407-.332-.738-.741-.738l-.231.037c-.119-.256-.38-.428-.667-.428-.305 0-.571.177-.685.443l-.09-.005c-.406 0-.736.334-.736.743 0 .172.053.331.151.458-.068.116-.102.244-.102.377 0 .391.304.704.684.731.185.442.671 1.077 1.241 1.609.379.357.716.958.909 1.473l.132.5.004-.005.033.175c0 .495-.231 1.473-.516 2.181l.005.002-.105.173-.175.359-.25.389c-.023-.779-.262-1.852-.545-2.498-.216-.484-.854-1.399-1.507-2.097l.049-.019c-.004-.009-.358-.941-.308-1.43.047-.45.113-.567.113-.567l-.202-.153c-.025.033-.108.178-.162.693-.033.317.075.766.174 1.1-1.027-1.144-1.041-2.2-1.041-2.721 0-.346.181-.913.474-1.479l.025.027c.005-.004.369-.345.805-.562l.036.033.081-.087.206-.075c.303-.084.561-.046.81-.006.224.034.436.068.656.007.439-.118 1.969-1.615 2.143-1.784l.219-.216h-.308c-.031 0-.748.001-1.268.055-.572.068-1.201.427-1.543.733-.271.241-.821.82-1.063 1.077-.18.082-.346.185-.49.284l.253-.363c.524-.636.605-1.143.616-1.342.097-.14.275-.402.398-.626.203-.362.329-.762.385-1.223.063-.537-.011-1.289-.059-1.688-.057-.463-.001-1.032 0-1.037l-.25-.036c0 .003-.059.303-.238.685l-.133.265c-.176.343-.375.732-.513 1.306-.175.702.079 1.9.112 2.05v.531c-.054.211-.182.512-.454.867.025-.162.048-.348.048-.526 0-.432-.24-1.132-.477-1.599-.222-.445-.409-1.372-.411-1.381l-.247.006c-.002.012-.181 1.182-.345 1.802-.161.578.071 1.129.258 1.571l.092.225c.175.462.363 1.005.363 1.007l.032-.011c-.286.579-.464 1.153-.464 1.513 0 .54 0 1.804 1.291 3.099.153.154.305.326.454.502-.093.018-.221.009-.366-.112l-.145-.124c-.29-.252-.612-.539-.993-.353-.3.154-.386.203-.358.316l.126.098v-.128l.015-.006.074.089.258-.145c.204-.101.406.049.714.32l.148.128c.159.132.319.177.458.177.094 0 .173-.022.241-.051.447.556.834 1.14.99 1.486.35.799.644 2.389.476 2.982l.015.004-.352.618c.004-.307-.021-.686-.136-1.03-.066-.196-.206-.422-.336-.609-.023-.13-.068-.255-.155-.354.069-.116.106-.25.106-.389 0-.407-.33-.738-.736-.738l-.229.034c-.121-.261-.382-.433-.677-.433-.302 0-.569.183-.677.45-.457-.06-.827.299-.827.733 0 .172.053.332.151.459-.07.113-.107.246-.107.383 0 .407.335.738.746.738.095 0 .19-.017.277-.053.132.212.367.346.621.346.146 0 .277-.051.393-.125l-.071.083.342.297c.06.063.085.372.027.64-.05.215-.091.53.148.775.119.117.249.148.354.159-.323.563-.631 1.109-.891 1.592-.034-.34-.146-.815-.483-1.315-.529-.789-.669-1.402-.737-1.696l-.017-.073c-.03-.13-.118-.135-.148-.128-.126.012-.126.042-.134.546-.006.38-.016.957-.078 1.22-.138.604-.002 1.266.37 1.815.192.291.515.575.685.715l-.143.374c-.115.418-.211 1.066-.274 1.668l-.239-.315-.202.153.405.535c-.027.323-.043.614-.043.816l-.015.241c-.68-.385-1.331-.805-1.966-1.244v-15.286zm6.961 2.651c.004.18.007.31-.053.492-.07.209-.306.575-.466.809l-.042-.16c-.014-.065-.209-1.077.049-1.615.162-.332.361-.688.502-.934.032.282.062.667.025.924-.022.199-.018.351-.015.484zm-3.244-2.911c-.094-.087-.145-.213-.145-.353 0-.271.218-.492.485-.492l.128.022.134.05.033-.139c.052-.219.249-.372.48-.372.222 0 .42.159.47.377l.039.165.148-.086c.073-.042.154-.064.241-.064.27 0 .49.219.49.487 0 .112-.043.225-.121.318l-.08.095.094.081c.113.098.178.235.178.375 0 .271-.222.492-.492.492l-.187-.039-.106-.038-.049.102c-.082.17-.257.281-.445.281-.197 0-.379-.126-.454-.31l-.058-.143-.128.084c-.078.052-.17.079-.268.079-.261 0-.482-.224-.482-.49 0-.14.06-.247.11-.313l.07-.09-.084-.079zm-1.155-1.88c-.11.154-.219.306-.311.469l-.296-.811-.095-.233c-.181-.428-.385-.913-.247-1.408.089-.338.181-.821.247-1.206.076.284.176.605.287.828.219.431.452 1.098.452 1.486 0 .383-.114.852-.114.857l.077.019zm1.105-.175c.255-.266.562-.58.738-.737.314-.279.887-.609 1.404-.669.294-.031.666-.044.924-.049-.645.619-1.553 1.433-1.807 1.5-.166.048-.345.02-.549-.014-.148-.022-.305-.047-.476-.047l-.235.016zm-.278-3.563c.13-.546.322-.921.492-1.251l.123-.245.022.284c.048.389.119 1.117.059 1.628-.052.428-.167.797-.354 1.132l-.231.379c-.038-.175-.267-1.299-.111-1.926zm-1.612 23.751l-.151.242.045-.466.018-.255.164-.007-.076.486zm-.302-.337c-.094.063-.19.261-.271.479l-.055-.559-.249-.014-.198.938-.212-.825-.247.031v.596l-.224-.213-.561-.471c.637-.039 1.306-.067 1.93-.092l.3-.013-.213.142zm-1.956.673c-.299-.206-.588-.214-.641-.214l-.321.01.242.21.252.281-.324-.091-.102.223c.212.169.35.607.384.762l.001.003c-.94.208-1.733.421-1.808.441-.495-.338-.977-.692-1.451-1.057.297-.286 1.191-1.041 2.499-1.183.361-.039.767-.068 1.185-.094l-.182.141.266.569zm9.318 6.476c.975-.304 3.156-.921 5.247-1.09l.1.007.001-.015c.375-.028.751-.041 1.109-.034 2.977.062 3.64.31 4.408.598l.105.039c.498.178.813.365.993.487-1.944.379-3.95.584-6.003.584-2.038 0-4.029-.202-5.96-.576zm16.7-1.323c-.153-.088-.639-.278-1.453-.568.095-.124.165-.267.165-.435 0-.182-.064-.353-.18-.484.073-.117.111-.251.111-.39 0-.407-.332-.738-.741-.738l-.23.033c-.118-.255-.379-.427-.671-.427-.299 0-.567.182-.679.448l-.094-.005c-.407 0-.738.334-.738.743l.036.214c-.629-.21-1.164-.375-1.479-.455-.17-.041-.379-.063-.62-.09-.276-.029-.589-.067-.938-.136-.016-.156-.052-.301-.077-.384l.25-.055c.242-.048.459-.16.65-.258.164-.084.345-.165.417-.151.244.063.457.101.602.007.047-.032.107-.092.124-.204.011-.071-.007-.405-.036-.828.386.049 1.469.203 3.046.566v-.001l1.163 1.029.011.007c.031.022.775.546 1.839.697l.384.027c.42 0 .965-.098 1.639-.351l1.134.577c-1.172.609-2.383 1.153-3.635 1.612zm3.911-1.754l-1.093-.556c.832-.355 1.854-.947 3.098-1.899 2.609-1.997 2.799-4.038 2.951-5.678.06-.666-.079-1.384-.268-2.015 3.34-4.412 6.729-9.937 6.729-17.492 0-10.264-5.952-19.142-14.572-23.426l-.006-.143-.517-.109c-3.365-1.58-7.104-2.489-11.06-2.489l-.113.006v-.453c.268-.06.471-.291.465-.576 0-.277-.201-.499-.465-.559v-.132h1.06l-.474-.63.482-.635-1.068.036v-1.154h-.251v1.163l-1.103.037.545.611-.578.572h1.136v.131c-.112.025-.219.071-.3.156-.111.115-.17.265-.165.42.002.283.201.502.465.56v.466c-14.259.198-25.802 11.843-25.802 26.148 0 9.459 5.129 18.208 13.39 22.838l-.045.329-.512.02c-1.045.042-2.23.089-3.154.188-1.431.156-2.377.983-2.673 1.276-7.332-5.734-12.059-14.654-12.059-24.661 0-17.258 14.044-31.299 31.306-31.299 17.258 0 31.299 14.04 31.299 31.299 0 11.969-6.754 22.386-16.648 27.651zm-15.657-56.471l.556-.019v.716h-.523l.313-.309-.346-.388zm.807-.028l.546-.019-.276.364.284.379h-.555v-.725zM284.311 17.601c-17.947 0-32.546 14.6-32.546 32.544 0 17.948 14.6 32.549 32.546 32.549 17.943 0 32.542-14.601 32.542-32.549 0-17.944-14.598-32.544-32.542-32.544zm0 64.842c-17.808 0-32.295-14.489-32.295-32.298 0-17.806 14.488-32.292 32.295-32.292 17.804 0 32.29 14.486 32.29 32.292 0 17.809-14.486 32.298-32.29 32.298zM298.05 42.051c0-.335-.161-1.177-.542-1.177-.374 0-.532.842-.532 1.177v3.353l1.079.122-.006-3.475zm-.822 3.128v-3.128c0-.416.183-.901.281-.925.091.012.29.484.29.925l.004 3.193-.575-.065zM276.178 38.725c0-.015-.096-1.522-.48-1.522h-.101c-.374 0-.478 1.506-.478 1.522l-.002 3.69 1.061-.119v-3.571zm-.251 3.346l-.559.063.002-3.408c0-.223.143-1.112.257-1.269h.041c.114.154.258 1.044.258 1.269v3.346zM292.682 38.725c0-.015-.103-1.522-.48-1.522h-.103c-.384 0-.48 1.506-.48 1.522v3.571l1.072.119-.009-3.69zm-.812 3.346v-3.346c0-.232.14-1.116.257-1.269h.044c.116.158.26 1.046.26 1.269l.006 3.408-.567-.063zM292.108 77.513c-.318 0-.576.257-.576.573 0 .319.258.578.576.578.315 0 .581-.265.581-.578 0-.311-.266-.573-.581-.573zm0 .901c-.176 0-.325-.15-.325-.327 0-.175.149-.322.325-.322.178 0 .33.148.33.322 0 .177-.151.327-.33.327zM292.625 52.794c.316 0 .574-.257.574-.573 0-.319-.257-.579-.574-.579-.319 0-.578.26-.578.579 0 .316.26.573.578.573zm0-.9c.177 0 .322.146.322.327 0 .177-.145.322-.322.322-.18 0-.327-.145-.327-.322 0-.18.148-.327.327-.327zM296.137 53.498c-.319 0-.578.258-.578.576 0 .318.26.576.578.576.316 0 .573-.258.573-.576 0-.318-.257-.576-.573-.576zm0 .901c-.18 0-.327-.146-.327-.325s.148-.325.327-.325c.177 0 .322.146.322.325s-.145.325-.322.325zM297.757 57.325c0-.411-.331-.746-.738-.746l-.235.039c-.122-.258-.38-.428-.673-.428-.302 0-.561.175-.678.448l-.082-.005c-.412 0-.748.334-.748.743 0 .164.058.326.159.453-.066.116-.102.246-.102.379 0 .409.33.741.736.741.097 0 .192-.018.277-.053.139.217.37.346.631.346.244 0 .474-.126.612-.329l.171.016c.407 0 .738-.33.738-.736 0-.176-.064-.346-.178-.48.074-.117.112-.25.112-.389zm-.672 1.354l-.19-.03-.105-.038-.05.101c-.084.17-.256.279-.438.279-.204 0-.382-.121-.463-.315l-.06-.144-.128.09c-.068.048-.162.076-.257.076-.267 0-.485-.22-.485-.49 0-.112.039-.224.111-.313l.074-.094-.089-.079c-.095-.086-.153-.215-.153-.347 0-.276.219-.492.497-.492l.127.02.127.039.033-.128c.058-.224.249-.374.474-.374.228 0 .423.156.478.379l.042.17.148-.092c.069-.043.155-.068.241-.068.263 0 .487.226.487.495 0 .118-.042.225-.122.319l-.084.096.097.082c.112.096.175.228.175.372 0 .267-.219.485-.487.485zM295.918 50.788c.318 0 .576-.261.576-.581 0-.319-.258-.578-.576-.578-.314 0-.569.26-.569.578 0 .321.255.581.569.581zm0-.908c.176 0 .325.15.325.326 0 .182-.146.329-.325.329-.175 0-.318-.148-.318-.329 0-.18.143-.326.318-.326zM296.803 52.914c-.121-.254-.382-.426-.668-.426-.306 0-.57.174-.687.446l-.086-.005c-.409 0-.741.334-.741.743 0 .164.055.325.158.455-.07.116-.106.245-.106.382 0 .407.334.738.743.738.092 0 .186-.017.276-.053.135.21.375.343.63.343.245 0 .474-.124.612-.326l.169.018c.409 0 .741-.332.741-.741 0-.18-.064-.35-.178-.482.073-.113.112-.249.112-.389 0-.406-.336-.736-.748-.736l-.225.032zm.722.704c0 .121-.042.23-.122.315l-.091.098.103.085c.113.094.176.225.176.373 0 .27-.22.49-.49.49l-.177-.034-.111-.048-.052.11c-.082.17-.256.281-.441.281-.199 0-.384-.123-.459-.306l-.055-.134-.126.074c-.085.049-.176.076-.266.076-.271 0-.492-.219-.492-.487 0-.114.039-.222.112-.311l.074-.091-.084-.08c-.096-.092-.154-.224-.154-.354 0-.271.22-.492.49-.492l.116.018.137.063.037-.146c.057-.224.251-.375.484-.375.219 0 .422.162.473.377l.042.172.149-.096c.063-.039.138-.059.23-.059.274 0 .497.218.497.485zM292.871 55.477c-.315 0-.571.258-.571.576 0 .32.256.581.571.581.319 0 .578-.261.578-.581 0-.318-.26-.576-.578-.576zm0 .906c-.176 0-.32-.148-.32-.33 0-.178.144-.325.32-.325.18 0 .327.146.327.325 0 .185-.144.33-.327.33zM296.172 57.163c-.32 0-.581.258-.581.576 0 .318.261.576.581.576.313 0 .576-.263.576-.576 0-.318-.258-.576-.576-.576zm0 .901c-.182 0-.33-.146-.33-.325 0-.182.145-.325.33-.325.178 0 .325.146.325.325 0 .176-.149.325-.325.325zM294.437 55.646c0-.489-.487-.869-.972-.701-.121-.261-.38-.433-.674-.433-.298 0-.562.18-.681.45l-.087-.005c-.407 0-.738.331-.738.738 0 .167.054.326.154.457-.068.117-.105.25-.105.383 0 .409.332.741.741.741.096 0 .191-.018.277-.054.137.21.368.34.624.34.254 0 .485-.124.619-.324l.174.018c.405 0 .733-.331.733-.738 0-.183-.062-.351-.176-.484.073-.121.112-.255.112-.388zm-.669 1.359l-.176-.034-.117-.057-.053.118c-.076.169-.252.278-.447.278-.199 0-.378-.121-.454-.306l-.059-.143-.128.086c-.073.049-.167.078-.26.078-.274 0-.49-.215-.49-.49 0-.11.041-.225.112-.316l.069-.089-.08-.079c-.097-.095-.15-.22-.15-.356 0-.315.304-.573.619-.465l.127.041.033-.13c.057-.222.252-.378.476-.378.226 0 .423.158.479.382l.038.158.143-.075c.382-.199.736.068.736.42 0 .111-.043.225-.122.321l-.079.096.094.08c.111.094.171.226.171.374 0 .268-.217.487-.482.487zM294.383 50.608c0 .41.334.744.743.744.095 0 .19-.019.278-.055.132.21.364.34.625.34.25 0 .476-.122.615-.324l.167.022c.409 0 .741-.333.741-.741 0-.175-.063-.345-.177-.482.074-.119.111-.252.111-.389 0-.41-.331-.744-.738-.744l-.236.038c-.123-.258-.383-.43-.674-.43-.3 0-.566.182-.681.453l-.082-.002c-.412 0-.748.329-.748.734 0 .162.059.322.165.455-.071.116-.108.246-.108.382zm.692-1.318l.133.012.126.036.031-.126c.055-.219.25-.372.474-.372.23 0 .423.152.481.379l.042.164.145-.088c.069-.041.155-.064.242-.064.268 0 .487.22.487.492 0 .145-.065.255-.119.321l-.076.093.089.081c.11.099.174.236.174.377 0 .27-.22.489-.49.489l-.185-.037-.105-.038-.05.1c-.084.171-.254.277-.443.277-.204 0-.38-.119-.45-.303l-.055-.143-.129.081c-.084.052-.176.079-.268.079-.271 0-.492-.22-.492-.492 0-.113.041-.22.116-.31l.078-.092-.087-.081c-.06-.057-.162-.178-.162-.353 0-.266.223-.482.497-.482zM291.087 52.676c0 .407.329.738.733.738.096 0 .191-.018.279-.053.137.212.372.343.629.343.246 0 .476-.123.61-.322l.172.022c.407 0 .738-.334.738-.743 0-.185-.063-.357-.176-.488.075-.118.114-.251.114-.383 0-.403-.338-.744-.741-.744l-.236.038c-.119-.252-.38-.425-.667-.425-.302 0-.57.178-.687.445-.438-.054-.825.299-.825.735 0 .169.054.328.155.458-.068.112-.101.24-.101.379zm.826-1.307l.119.027.031-.118c.057-.216.255-.366.481-.366.222 0 .42.156.47.371l.039.161.145-.081c.075-.042.164-.065.249-.065.266 0 .49.225.49.492 0 .109-.044.221-.126.314l-.084.098.1.081c.108.089.171.226.171.378 0 .271-.219.492-.487.492l-.188-.039-.108-.039-.049.103c-.078.167-.25.276-.437.276-.203 0-.38-.119-.46-.31l-.057-.137-.127.079c-.079.05-.171.078-.265.078-.266 0-.482-.219-.482-.487 0-.118.037-.223.107-.309l.074-.09-.084-.081c-.097-.093-.151-.22-.151-.357 0-.314.287-.551.629-.47zM274.396 56.515c.318 0 .576-.26.576-.578 0-.32-.252-.571-.576-.571s-.576.251-.576.571c0 .319.258.578.576.578zm0-.898c.182 0 .325.14.325.32 0 .183-.143.327-.325.327-.178 0-.325-.148-.325-.327s.143-.32.325-.32zM276.043 68.33c.32 0 .581-.257.581-.573s-.261-.573-.581-.573c-.315 0-.571.257-.571.573 0 .322.251.573.571.573zm0-.896c.178 0 .33.148.33.322 0 .181-.145.322-.33.322-.182 0-.32-.139-.32-.322 0-.177.144-.322.32-.322zM304.651 50.777c-.674 0-1.11 1.652-1.11 2.227l.038 1.233.13-.009c.813-.053 1.732-.079 1.858-.03l-.055-.096h.251v-1.103c0-.571-.437-2.223-1.113-2.223zm.861 3.161c-.219-.023-.679-.032-1.69.031l-.031-.969c0-.587.449-1.971.859-1.971.411 0 .861 1.384.861 1.971v.938zM299.53 54.229c.809-.053 1.724-.08 1.851-.03l-.055-.096h.251v-1.103c0-.571-.437-2.223-1.113-2.223-.674 0-1.11 1.652-1.11 2.228l.047 1.232.129-.009zm.934-3.199c.411 0 .861 1.384.861 1.971v.938c-.219-.023-.683-.032-1.684.031l-.037-.969c0-.603.441-1.971.859-1.971zM267.335 32.794c.363 0 .657-.296.657-.66 0-.362-.294-.658-.657-.658-.368 0-.655.289-.655.658 0 .364.293.66.655.66zm0-1.066c.228 0 .406.178.406.406 0 .225-.182.408-.406.408-.223 0-.404-.183-.404-.408 0-.228.177-.406.404-.406zM270.99 42.051c0-.335-.161-1.177-.542-1.177-.377 0-.544.853-.544 1.177l-.002 3.475 1.088-.122v-3.353zm-.251 3.128l-.586.065.002-3.193c0-.407.192-.905.293-.925.089.007.29.485.29.925v3.128zM262.396 54.199c.128-.049 1.042-.022 1.851.03l.13.009.043-1.237c0-.571-.437-2.223-1.113-2.223-.673 0-1.108 1.652-1.108 2.223v1.103h.251l-.055.096zm.055-1.199c0-.587.448-1.971.857-1.971.42 0 .861 1.368.861 1.966l-.036.973c-.573-.036-.969-.048-1.244-.048l-.438.017v-.938zM267.497 50.777c-.677 0-1.115 1.652-1.115 2.223v1.103h.251l-.055.096c.127-.05 1.045-.023 1.856.03l.13.009.041-1.237c0-.571-.434-2.223-1.108-2.223zm.823 3.192c-.575-.036-.972-.048-1.248-.048l-.439.017v-.938c0-.587.452-1.971.864-1.971.409 0 .857 1.384.857 1.967l-.033.972zM272.102 63.813c.319 0 .578-.26.578-.578 0-.316-.26-.573-.578-.573-.315 0-.571.257-.571.573 0 .319.256.578.571.578zm0-.901c.18 0 .327.145.327.322 0 .18-.148.327-.327.327-.176 0-.32-.148-.32-.327 0-.181.14-.322.32-.322z"/></g><path fill="#A7A6A6" d="M34.744 44.909v-15.024h7.738v1.666h-5.826v4.824h5.409v1.666h-5.409v5.203h5.949v1.664h-7.862zM47.019 38.002v6.906h-1.915v-15.024h5.179c2.666 0 3.601 1.873 3.601 3.746 0 1.77-.977 3.123-2.744 3.434v.044c1.725.268 2.351.849 2.454 3.867.02.647.229 2.998.519 3.933h-1.996c-.544-1.039-.419-2.994-.583-4.994-.145-1.83-1.622-1.912-2.269-1.912h-2.245zm0-1.664h2.87c1.376 0 2.04-1.186 2.04-2.498 0-1.083-.542-2.289-2.018-2.289h-2.892v4.787zM67.116 29.885v15.024h-2.621l-5.929-13.025h-.042v13.025h-1.706v-15.024h2.705l5.846 12.86h.039v-12.86h1.708zM72.068 40.434v.438c0 2.038 1.29 2.685 2.518 2.685 1.516 0 2.683-.647 2.683-2.434 0-3.33-6.739-2.956-6.739-7.473 0-2.661 1.893-4.076 4.408-4.076 2.747 0 4.288 1.33 4.162 4.389h-1.996c.02-1.642-.5-2.725-2.309-2.725-1.149 0-2.311.583-2.311 2.208 0 3.308 6.742 2.826 6.742 7.591 0 3.165-2.186 4.186-4.659 4.186-4.433.038-4.433-3.354-4.391-4.789h1.893zM90.584 29.885v1.666h-3.952v13.358h-1.915v-13.358h-3.953v-1.666h9.82zM99.759 44.909h-1.787v-15.024h3.099l3.788 12.609h.039l3.831-12.609h3.16v15.024h-1.915v-13.358h-.039l-4.205 13.358h-1.809l-4.12-13.358h-.042v13.358zM115.217 39.415v-4.93c0-2.995 1.541-4.91 4.726-4.91 3.182 0 4.723 1.915 4.723 4.91v4.93c0 4.162-1.541 5.808-4.723 5.808-3.185 0-4.726-1.645-4.726-5.808zm7.49.085v-5.079c0-3.141-2.161-3.244-2.764-3.244-.603 0-2.767.103-2.767 3.244v5.079c0 3.288.953 4.117 2.767 4.117 1.809 0 2.764-.828 2.764-4.117zM129.865 38.002v6.906h-1.912v-15.024h5.179c2.666 0 3.601 1.873 3.601 3.746 0 1.77-.98 3.123-2.747 3.434v.044c1.725.268 2.348.849 2.457 3.867.02.647.226 2.998.517 3.933h-1.996c-.542-1.039-.416-2.994-.583-4.994-.143-1.83-1.622-1.912-2.264-1.912h-2.25zm0-1.664h2.872c1.373 0 2.038-1.186 2.038-2.498 0-1.083-.539-2.289-2.018-2.289h-2.892v4.787zM141.723 44.909h-1.913v-15.024h1.913v15.024zM153.769 29.885v1.666h-3.953v13.358h-1.912v-13.358h-3.953v-1.666h9.818zM163.777 31.8l-7.448 11.445h7.615v1.664h-9.383v-2.164l7.281-11.152v-.042h-7.03v-1.666h8.964v1.915zM176.468 29.885h2.434l4.891 15.024h-2.144l-1.081-3.581h-5.806l-1.125 3.581h-1.932l4.763-15.024zm1.164 1.77h-.039l-2.351 8.012h4.805l-2.415-8.012zM187.662 38.002v6.906h-1.915v-15.024h5.181c2.663 0 3.598 1.873 3.598 3.746 0 1.77-.98 3.123-2.747 3.434v.044c1.728.268 2.353.849 2.456 3.867.022.647.229 2.998.519 3.933h-1.996c-.542-1.039-.416-2.994-.583-4.994-.145-1.83-1.619-1.912-2.269-1.912h-2.245zm0-1.664h2.872c1.371 0 2.038-1.186 2.038-2.498 0-1.083-.542-2.289-2.016-2.289h-2.895v4.787zM207.761 29.885v15.024h-2.624l-5.932-13.025h-.037v13.025h-1.708v-15.024h2.705l5.846 12.86h.044v-12.86h1.706zM211.276 29.885h4.617c1.915 0 3.286.689 4.037 2.289.603 1.272.665 4.268.665 4.744 0 3.203-.288 5.056-.913 6.056-.812 1.29-2.333 1.935-4.952 1.935h-3.453v-15.024zm1.912 13.36h1.809c2.666 0 3.643-.998 3.643-4.497v-3.037c0-3.036-.935-4.16-2.934-4.16h-2.518v11.694zM232.372 29.885v1.666h-3.955v13.358h-1.913v-13.358h-3.953v-1.666h9.821z"/><path fill="#636362" d="M0 54.854h1.912v9.612c0 3.288.999 4.12 2.811 4.12 1.809 0 2.806-.832 2.806-4.12v-9.612h1.915v9.53c0 4.162-1.536 5.804-4.721 5.804-3.182 0-4.723-1.642-4.723-5.804v-9.53zM23.176 54.854v15.024h-2.619l-5.932-13.025h-.039v13.025h-1.708v-15.024h2.705l5.847 12.861h.041v-12.861h1.706zM28.815 69.878h-1.915v-15.024h1.915v15.024zM37.656 69.878h-2.289l-4.349-15.024h2.082l3.434 13.213h.039l3.517-13.213h1.954l-4.389 15.024zM44.002 69.878v-15.024h7.741v1.664h-5.826v4.827h5.408v1.664h-5.408v5.203h5.949v1.666h-7.864zM56.279 62.966v6.912h-1.917v-15.024h5.184c2.661 0 3.598 1.873 3.598 3.746 0 1.77-.977 3.121-2.747 3.434v.039c1.728.271 2.351.854 2.456 3.872.02.642.226 2.996.519 3.933h-1.996c-.544-1.041-.416-2.998-.583-4.996-.145-1.829-1.622-1.915-2.269-1.915h-2.245zm0-1.661h2.867c1.376 0 2.04-1.189 2.04-2.498 0-1.081-.539-2.289-2.016-2.289h-2.892v4.787zM67.451 65.403v.436c0 2.041 1.292 2.685 2.516 2.685 1.521 0 2.688-.645 2.688-2.437 0-3.325-6.744-2.954-6.744-7.468 0-2.661 1.893-4.078 4.411-4.078 2.744 0 4.288 1.332 4.16 4.391h-1.996c.022-1.642-.5-2.727-2.309-2.727-1.145 0-2.309.586-2.309 2.208 0 3.308 6.742 2.828 6.742 7.593 0 3.163-2.186 4.182-4.662 4.182-4.433.044-4.433-3.35-4.386-4.785h1.89zM79.703 69.878h-1.917v-15.024h1.917v15.024zM91.752 54.854v1.664h-3.953v13.36h-1.917v-13.36h-3.95v-1.664h9.821zM97.117 54.854h2.432l4.891 15.024h-2.141l-1.083-3.581h-5.804l-1.122 3.581h-1.937l4.765-15.024zm.438-1.765h-1.957v-2.166h1.957v2.166zm.726 3.535h-.039l-2.353 8.007h4.809l-2.417-8.007zm2.934-3.535h-1.957v-2.166h1.957v2.166zM114.868 54.854v1.664h-3.953v13.36h-1.917v-13.36h-3.954v-1.664h9.824zM128.659 58.868c0-1.765-.729-2.722-2.661-2.722-.608 0-2.771.103-2.771 3.242v5.078c0 3.288.958 4.12 2.771 4.12 1.371 0 2.287-.374 2.68-.665v-4.497h-2.767v-1.664h4.681v7.305c-1.226.665-2.663 1.122-4.595 1.122-3.185 0-4.726-1.642-4.726-5.804v-4.93c0-2.998 1.541-4.913 4.726-4.913 3.244 0 4.783 1.186 4.657 4.327h-1.996zM136.045 62.966v6.912h-1.915v-15.024h5.179c2.663 0 3.601 1.873 3.601 3.746 0 1.77-.977 3.121-2.744 3.434v.039c1.725.271 2.351.854 2.451 3.872.022.642.231 2.996.524 3.933h-1.999c-.542-1.041-.416-2.998-.583-4.996-.148-1.829-1.622-1.915-2.269-1.915h-2.245zm0-1.661h2.87c1.371 0 2.041-1.189 2.041-2.498 0-1.081-.544-2.289-2.018-2.289h-2.892v4.787zM145.74 69.878v-15.024h7.738v1.664h-5.826v4.827h5.408v1.664h-5.408v5.203h5.949v1.666h-7.861zM158.306 69.878h-1.912v-15.024h1.912v15.024zM161.781 69.878v-15.024h7.446v1.664h-5.533v4.827h5.245v1.664h-5.245v6.87h-1.912zM172.64 65.403v.436c0 2.041 1.29 2.685 2.518 2.685 1.519 0 2.685-.645 2.685-2.437 0-3.325-6.744-2.954-6.744-7.468 0-2.661 1.893-4.078 4.413-4.078 2.744 0 4.285 1.332 4.157 4.391h-1.996c.022-1.642-.497-2.727-2.309-2.727-1.145 0-2.306.586-2.306 2.208 0 3.308 6.739 2.828 6.739 7.593 0 3.163-2.186 4.182-4.662 4.182-4.433.044-4.433-3.35-4.389-4.785h1.893zM181.171 54.854h2.038l2.831 13.026h.039l3.018-13.026h2.476l2.727 13.026h.042l3.059-13.026h1.994l-3.973 15.024h-2.331l-2.85-13.025h-.042l-3.035 13.025h-2.333l-3.66-15.024zM203.853 54.854h2.432l4.888 15.024h-2.144l-1.081-3.581h-5.801l-1.127 3.581h-1.932l4.765-15.024zm1.164 1.77h-.044l-2.351 8.007h4.807l-2.412-8.007zM213.171 69.878v-15.024h1.912v13.358h5.516v1.666h-7.428zM222.448 54.854h4.62c1.915 0 3.288.689 4.037 2.289.603 1.27.667 4.266.667 4.743 0 3.205-.29 5.056-.918 6.055-.81 1.29-2.326 1.937-4.95 1.937h-3.456v-15.024zm1.915 13.358h1.809c2.663 0 3.643-.997 3.643-4.494v-3.037c0-3.037-.935-4.162-2.934-4.162h-2.518v11.694z"/><path fill="#868686" d="M357.313 30.02h1.189l2.008 8.761h.027l2.131-8.761h.872l-2.477 9.993h-1.162l-2.008-8.886h-.027l-2.062 8.886h-1.108l-2.408-9.993h.941l2.021 8.83h.028l2.035-8.83zM364.703 31.072v-1.052h1.025v1.052h-1.025zm.098 8.941v-6.99h.829v6.99h-.829zM369.451 40.151c-1.509 0-2.104-.734-2.09-2.214h.844c0 .955.221 1.591 1.288 1.591.802 0 1.189-.457 1.189-1.231 0-1.827-3.141-1.357-3.141-3.668 0-1.287.885-1.744 2.104-1.744 1.384 0 1.826.955 1.826 2.021h-.816c-.042-.886-.278-1.357-1.219-1.357-.595 0-1.064.388-1.064 1.011 0 1.744 3.141 1.274 3.141 3.613 0 1.315-.761 1.979-2.062 1.979zM374.835 40.151c-1.509 0-2.104-.734-2.091-2.214h.845c0 .955.221 1.591 1.286 1.591.802 0 1.191-.457 1.191-1.231 0-1.827-3.142-1.357-3.142-3.668 0-1.287.886-1.744 2.104-1.744 1.385 0 1.827.955 1.827 2.021h-.816c-.042-.886-.278-1.357-1.219-1.357-.595 0-1.065.388-1.065 1.011 0 1.744 3.142 1.274 3.142 3.613 0 1.315-.762 1.979-2.062 1.979zM379.014 36.691v.54c0 .969.263 2.256 1.578 2.256 1.038 0 1.55-.664 1.537-1.605h.871c-.097 1.688-1.011 2.27-2.408 2.27-1.204 0-2.408-.484-2.408-2.602v-1.716c0-2.021.844-2.948 2.408-2.948 2.408 0 2.408 1.73 2.408 3.806h-3.986zm3.155-.664c0-1.55-.249-2.478-1.578-2.478-1.328 0-1.578.928-1.578 2.478h3.155zM385.339 40.013h-.831v-6.99h.831v.858h.028c.402-.581.941-.997 1.688-.997 1.73 0 1.911 1.287 1.911 2.201v4.927h-.831v-4.886c0-.817-.319-1.578-1.288-1.578-.747 0-1.509.512-1.509 2.077v4.387zM353.27 55.112v-9.992h.831v9.992h-.831zM355.886 52.371v-1.508c0-1.813.775-2.879 2.408-2.879s2.408 1.066 2.408 2.879v1.508c0 1.814-.775 2.879-2.408 2.879s-2.408-1.065-2.408-2.879zm.831-.761c0 1.828.208 2.975 1.578 2.975s1.578-1.148 1.578-2.975c0-1.813-.208-2.962-1.578-2.962s-1.578 1.149-1.578 2.962zM365.326 50.129c.042-.872-.276-1.481-1.232-1.481-.511 0-.941.291-1.121.803-.111.318-.194 1.274-.194 2.201 0 1.26 0 2.934 1.288 2.934 1.094 0 1.231-.691 1.273-1.536h.831c.069 1.882-1.26 2.201-1.91 2.201-2.367 0-2.367-1.869-2.367-3.598 0-.692.027-1.785.206-2.311.361-.997 1.15-1.357 2.104-1.357 1.204 0 2.021.678 1.953 2.145h-.831zM367.622 45.119h.831v6.09h.028l2.408-3.087h.969l-2.478 3.114 2.643 3.875h-1.052l-2.491-3.805h-.028v3.805h-.831v-9.992zM372.355 48.787v-.665h1.122v-1.439l.831-.36v1.799h1.412v.665h-1.412v4.484c0 .928.097 1.15.761 1.15.278 0 .472-.015.651-.042v.719c-.249.028-.526.042-.789.042-1.121 0-1.454-.498-1.454-1.357v-4.996h-1.122zM377.008 54.06h1.024v1.052h-1.024v-1.052z"/><path fill="#636362" d="M357.381 62.751c-.028-1.231-.332-1.98-1.688-1.98-1.08 0-1.758.374-1.758 1.551 0 1.482.748 1.522 1.882 2.339 1.232.885 2.491 1.148 2.491 3.087 0 1.784-.913 2.657-2.657 2.657-1.951 0-2.824-1.052-2.74-3.003h.913c0 1.107.082 2.256 1.869 2.256 1.163 0 1.73-.623 1.73-1.772 0-1.357-.899-1.744-2.339-2.63-1.938-1.189-2.02-1.785-2.035-2.782-.014-1.73 1.079-2.45 2.713-2.45 2.077 0 2.519 1.288 2.519 2.727h-.9zM360.564 66.889v.539c0 .97.263 2.256 1.578 2.256 1.04 0 1.551-.663 1.537-1.605h.871c-.096 1.688-1.01 2.27-2.408 2.27-1.204 0-2.408-.484-2.408-2.601v-1.717c0-2.021.845-2.948 2.408-2.948 2.408 0 2.408 1.73 2.408 3.805h-3.986zm3.155-.665c0-1.549-.248-2.477-1.578-2.477-1.328 0-1.578.928-1.578 2.477h3.155zM366.239 61.27v-1.052h1.025v1.052h-1.025zm.098 8.941v-6.989h.829v6.989h-.829zM368.509 63.886v-.665h1.121v-1.439l.831-.36v1.799h1.412v.665h-1.412v4.484c0 .928.097 1.15.762 1.15.275 0 .469-.015.65-.042v.719c-.249.028-.526.042-.789.042-1.122 0-1.454-.498-1.454-1.357v-4.996h-1.121zM376.44 62.074c.637-.444 1.26-.914 1.744-1.509h.775v9.646h-.831v-8.54c-.526.499-1.079.956-1.688 1.357v-.954zM386.032 67.055h1.135v.747h-1.135v2.408h-.831v-2.408h-3.46v-.801l2.976-6.436h1.315v6.49zm-.831 0v-5.66h-.027l-2.686 5.66h2.713zM393.158 67.194c0 1.606-.401 3.169-2.477 3.169-1.647 0-2.492-.774-2.45-2.463h.887c-.028 1.094.401 1.715 1.549 1.715 1.454 0 1.606-1.273 1.606-2.422 0-1.204-.098-2.408-1.634-2.408-.622 0-1.369.345-1.509 1.011h-.801v-5.232h4.442v.747h-3.613v3.446c.554-.511.941-.719 1.702-.719 2.368 0 2.298 1.993 2.298 3.155zM398.196 62.71c-.054-.956-.442-1.551-1.411-1.551-1.661 0-1.689 1.73-1.689 3.197v.844l.028-.013c.359-.707 1.052-1.052 1.896-1.052 2.311 0 2.159 2.435 2.159 2.725 0 1.882-.221 3.502-2.34 3.502-2.352 0-2.573-1.369-2.573-3.293v-3.155c0-2.34.442-3.502 2.573-3.502 1.495 0 2.214.789 2.242 2.298h-.886zm-1.398 2.173c-1.01 0-1.702.664-1.702 2.311 0 .082-.193 2.422 1.633 2.422 1.495 0 1.564-1.357 1.564-2.504 0-1.495-.36-2.229-1.495-2.229z"/></svg>