<svg id="UTSW" xmlns="http://www.w3.org/2000/svg" viewBox="0 0 462 90.2234"><defs><style>.cls-1{fill:#58595b;}.cls-2{fill:#005999;}</style></defs><title>UTSouthwestern Medical Center</title><g id="_Group_" data-name="&lt;Group&gt;"><g id="_Group_2" data-name="&lt;Group&gt;"><path id="_Compound_Path_" data-name="&lt;Compound Path&gt;" class="cls-1" d="M159.0059,58.6046h5.7115l9.8845,26.36,9.93-26.36h5.7144V89.9785h-3.9542V63.8746h-.0911l-9.7993,26.1039h-3.554l-9.8025-26.1039H162.96V89.9785h-3.9545Z" transform="translate(0 -0.5)"/><path id="_Compound_Path_2" data-name="&lt;Compound Path&gt;" class="cls-1" d="M214.913,82.7694c-1.0134,5.01-4.6127,7.734-9.7114,7.734-7.247,0-10.6763-5.0089-10.8948-11.9511,0-6.81,4.4825-11.819,10.6763-11.819,8.0423,0,10.5,7.5112,10.282,13.0027H198.2582c-.1336,3.96,2.1151,7.4748,7.077,7.4748,3.0775,0,5.2289-1.5022,5.8875-4.4414Zm-3.6021-6.3231a6.54,6.54,0,0,0-6.5494-6.4185c-3.9088,0-6.2364,2.942-6.5034,6.4185Z" transform="translate(0 -0.5)"/><path id="_Compound_Path_3" data-name="&lt;Compound Path&gt;" class="cls-1" d="M240.3389,89.9785h-3.736V86.9h-.0849c-1.2322,2.5066-4.13,3.6036-7.25,3.6036-6.9891,0-10.4579-5.5384-10.4579-11.9511,0-6.4154,3.4293-11.819,10.3668-11.819,2.3307,0,5.669.8785,7.3412,3.5539h.0849V58.6046h3.736Zm-10.543-2.7677c5.01,0,6.9407-4.3066,6.9407-8.5734,0-4.4794-2.0213-8.61-7.1622-8.61-5.0925,0-6.81,4.3488-6.81,8.7887C222.7642,83.0773,224.9644,87.2108,229.7959,87.2108Z" transform="translate(0 -0.5)"/><path id="_Compound_Path_4" data-name="&lt;Compound Path&gt;" class="cls-1" d="M250.1382,63.1719h-3.7329V58.6046h3.7329Zm-3.7329,4.0862h3.7329v22.72h-3.7329Z" transform="translate(0 -0.5)"/><path id="_Compound_Path_5" data-name="&lt;Compound Path&gt;" class="cls-1" d="M271.576,74.5555a5.2843,5.2843,0,0,0-5.6233-4.5278c-5.4051,0-7.0742,4.2609-7.0742,8.8782,0,4.1714,1.8906,8.3049,6.6342,8.3049,3.6083,0,5.7569-2.1123,6.2364-5.5357h3.83c-.8407,5.5357-4.3094,8.8282-10.021,8.8282-6.9437,0-10.6309-4.8315-10.6309-11.5974,0-6.81,3.5113-12.1727,10.722-12.1727,5.1379,0,9.2682,2.42,9.7994,7.8223Z" transform="translate(0 -0.5)"/><path id="_Compound_Path_6" data-name="&lt;Compound Path&gt;" class="cls-1" d="M299.97,89.8874a5.07,5.07,0,0,1-2.6828.6159c-1.93,0-3.1592-1.0516-3.1592-3.5172a10.0767,10.0767,0,0,1-8,3.5172c-4.1335,0-7.5112-1.845-7.5112-6.3716,0-5.141,3.8237-6.2411,7.69-6.986,4.13-.7875,7.6445-.53,7.6445-3.34,0-3.2518-2.68-3.7783-5.0558-3.7783-3.1623,0-5.49.968-5.6689,4.3094h-3.73c.2185-5.6283,4.5673-7.6038,9.6172-7.6038,4.0878,0,8.5249.9242,8.5249,6.2364V84.6585c0,1.763,0,2.5523,1.1865,2.5523a3.1579,3.1579,0,0,0,1.1442-.2247ZM293.9063,78.24c-1.4475,1.0563-4.264,1.1017-6.7675,1.5448-2.4585.44-4.57,1.3186-4.57,4.0862,0,2.4613,2.112,3.34,4.3973,3.34,4.9163,0,6.9406-3.0791,6.9406-5.141Z" transform="translate(0 -0.5)"/><path id="_Compound_Path_7" data-name="&lt;Compound Path&gt;" class="cls-1" d="M305.0864,58.6046h3.7391V89.9785h-3.7391Z" transform="translate(0 -0.5)"/><path id="_Compound_Path_8" data-name="&lt;Compound Path&gt;" class="cls-1" d="M345.5557,68.0459c-.8832-4.434-4.4368-6.6768-8.7887-6.6768-7.4717,0-10.6278,6.1578-10.6278,12.6994,0,7.1634,3.1561,13.1422,10.6732,13.1422,5.4931,0,8.6554-3.8724,9.056-9.0513h4.17c-.7891,7.8176-5.669,12.5639-13.5808,12.5639-9.7509,0-14.4944-7.2045-14.4944-16.3468,0-9.0955,5.1773-16.52,14.8493-16.52,6.5432,0,11.9483,3.5126,12.9163,10.1894Z" transform="translate(0 -0.5)"/><path id="_Compound_Path_9" data-name="&lt;Compound Path&gt;" class="cls-1" d="M373.6308,82.7694c-1.0137,5.01-4.6189,7.734-9.7145,7.734-7.25,0-10.6763-5.0089-10.8947-11.9511,0-6.81,4.4821-11.819,10.6732-11.819,8.0454,0,10.5035,7.5112,10.2882,13.0027H356.9757c-.1274,3.96,2.1061,7.4748,7.0742,7.4748,3.0772,0,5.232-1.5022,5.8905-4.4414Zm-3.6083-6.3231a6.5274,6.5274,0,0,0-6.54-6.4185c-3.9119,0-6.2426,2.942-6.5068,6.4185Z" transform="translate(0 -0.5)"/><path id="_Compound_Path_10" data-name="&lt;Compound Path&gt;" class="cls-1" d="M377.5427,67.2582h3.5113v3.6039h.0879a7.8888,7.8888,0,0,1,7.3807-4.1288c5.9785,0,7.8176,3.4308,7.8176,8.3064V89.9785h-3.7329V74.6009a4.2786,4.2786,0,0,0-4.61-4.5732c-4.5309,0-6.7249,3.0315-6.7249,7.1181V89.9785h-3.73Z" transform="translate(0 -0.5)"/><path id="_Compound_Path_11" data-name="&lt;Compound Path&gt;" class="cls-1" d="M407.6782,67.2582h4.525v3.296h-4.525V84.6585c0,1.7145.4857,2.0225,2.8134,2.0225h1.7117v3.2975H409.35c-3.8693,0-5.411-.7921-5.411-4.9682V70.5541h-3.8631v-3.296h3.8631V60.4468h3.7388Z" transform="translate(0 -0.5)"/><path id="_Compound_Path_12" data-name="&lt;Compound Path&gt;" class="cls-1" d="M435.4923,82.7694c-1.0135,5.01-4.6158,7.734-9.7114,7.734-7.25,0-10.6795-5.0089-10.8979-11.9511,0-6.81,4.4825-11.819,10.6794-11.819,8.0392,0,10.5,7.5112,10.282,13.0027h-17.01c-.1305,3.96,2.1154,7.4748,7.08,7.4748,3.0743,0,5.2258-1.5022,5.8874-4.4414ZM431.89,76.4462a6.5389,6.5389,0,0,0-6.5463-6.4185c-3.9119,0-6.24,2.942-6.51,6.4185Z" transform="translate(0 -0.5)"/><path id="_Compound_Path_13" data-name="&lt;Compound Path&gt;" class="cls-1" d="M440.06,67.2582h3.511V72.04h.0942c1.7966-3.6372,4.3035-5.4384,8.3459-5.3063V70.689c-6.0241,0-8.2185,3.42-8.2185,9.185V89.9785H440.06Z" transform="translate(0 -0.5)"/></g><g id="_Group_3" data-name="&lt;Group&gt;"><path id="_Compound_Path_14" data-name="&lt;Compound Path&gt;" class="cls-2" d="M79.57,31.0106c.2095,4.5856,2.965,6.0605,7.1529,6.0605,2.965,0,6.0456-1.0958,6.0456-3.9924,0-3.4355-5.4051-4.0894-10.8678-5.678-5.4051-1.58-11.071-4.0925-11.071-11.25,0-8.5156,8.3183-11.8463,15.4167-11.8463,7.52,0,15.0982,3.7693,15.1529,12.5611h-9.86c.1638-3.5492-3.0684-4.6947-6.0879-4.6947-2.1213,0-4.7678.7648-4.7678,3.3277,0,3.006,5.4536,3.5492,10.9678,5.1348,5.4536,1.5812,10.9647,4.205,10.9647,11.25,0,9.8845-8.1576,13.0484-16.4789,13.0484-8.6887,0-16.3667-3.9318-16.4214-13.9207Z" transform="translate(0 -0.5)"/><path id="_Compound_Path_15" data-name="&lt;Compound Path&gt;" class="cls-2" d="M120.3091,11.4936c9.5414,0,16.2393,7.2685,16.2393,16.7978,0,9.5277-6.6979,16.7431-16.2393,16.7431-9.5324,0-16.17-7.2153-16.17-16.7431C104.1395,18.7621,110.7767,11.4936,120.3091,11.4936Zm0,25.594c4.6858,0,6.1665-4.7631,6.1665-8.7962,0-4.0272-1.4807-8.8512-6.1665-8.8512-4.6767,0-6.1,4.824-6.1,8.8512C114.2091,32.3245,115.6324,37.0876,120.3091,37.0876Z" transform="translate(0 -0.5)"/><path id="_Compound_Path_16" data-name="&lt;Compound Path&gt;" class="cls-2" d="M169.43,44.1149h-9.7751V39.781h-.1215a11.2328,11.2328,0,0,1-9.3593,5.2535c-8.8282,0-11.3743-5.2535-11.3743-13.5611v-19.06h10.0725V30.798c0,4.214,1.7754,5.6811,4.9769,5.6811,2.1881,0,5.5114-1.4671,5.5114-7.0817V12.4132H169.43Z" transform="translate(0 -0.5)"/><path id="_Compound_Path_17" data-name="&lt;Compound Path&gt;" class="cls-2" d="M192.5557,19.1322h-6.2212V33.5445c0,2.5082,1.42,3.0576,3.6114,3.0576.8254,0,1.7176-.1231,2.61-.1231v7.6358c-1.8422.0606-3.6751.3049-5.5142.3049-8.5886,0-10.7826-2.5613-10.7826-11.1773v-14.11h-4.5978v-6.719h4.5978V2.82h10.0756v9.593h6.2212Z" transform="translate(0 -0.5)"/><path id="_Compound_Path_18" data-name="&lt;Compound Path&gt;" class="cls-2" d="M196.073.5h10.0634V16.7468h.1215c1.5355-3.2351,5.6873-5.2532,9.3593-5.2532,10.2515,0,11.0831,7.7007,11.0831,12.282V44.1149H216.6247V28.783c0-4.3383.4764-8.7371-5.0378-8.7371-3.7935,0-5.4505,3.3-5.4505,6.7843V44.1149H196.073Z" transform="translate(0 -0.5)"/><path id="_Compound_Path_19" data-name="&lt;Compound Path&gt;" class="cls-2" d="M266.8114,44.1149H256.6236l-4.8647-21.0754H251.64l-4.7951,21.0754H236.6516l-9.5992-31.7017h10.1969l5.15,20.5213h.1212L246.9,12.4132h9.6023l4.5036,20.4623h.1122l5.044-20.4623h10.2515Z" transform="translate(0 -0.5)"/><path id="_Compound_Path_20" data-name="&lt;Compound Path&gt;" class="cls-2" d="M285.3177,30.798c.1762,4.3352,2.607,7.2091,6.8738,7.2091a5.9784,5.9784,0,0,0,5.7451-3.4852h9.414c-1.8239,7.3365-8.4065,10.5125-15.2775,10.5125-10.0147,0-16.8279-6.238-16.8279-16.863a16.3825,16.3825,0,0,1,16.5914-16.6778c11.0163,0,16.5305,8.5522,16.0572,19.3044Zm12.4974-5.8042c-.1759-3.543-2.607-6.4717-5.9785-6.4717-3.5539,0-5.9269,2.6266-6.5189,6.4717Z" transform="translate(0 -0.5)"/><path id="_Compound_Path_21" data-name="&lt;Compound Path&gt;" class="cls-2" d="M319.4655,33.6676a4.3211,4.3211,0,0,0,1.657,3.543,6.1723,6.1723,0,0,0,3.736,1.1017c1.9544,0,4.74-.8543,4.74-3.3581,0-2.4429-3.1378-2.9361-4.9194-3.3578-6.3365-1.657-14.2818-1.8391-14.2818-10.3867,0-7.637,8.0059-9.7161,14.0422-9.7161,6.7585,0,13.8083,2.0181,14.1665,10.2636h-9.3049a3.0074,3.0074,0,0,0-1.3018-2.745,5.7647,5.7647,0,0,0-3.1987-.7965c-1.657,0-4.3308.1806-4.3308,2.3839,0,2.9877,6.7585,3.5415,11.3867,4.5763,6.2184,1.2838,7.8148,5.93,7.8148,8.5538,0,8.4913-7.8148,11.3047-14.7585,11.3047-7.2775,0-14.7493-2.5069-15.0467-11.3668Z" transform="translate(0 -0.5)"/><path id="_Compound_Path_22" data-name="&lt;Compound Path&gt;" class="cls-2" d="M360.76,19.1322h-6.2153V33.5445c0,2.5082,1.42,3.0576,3.6145,3.0576.8285,0,1.7117-.1231,2.6008-.1231v7.6358c-1.8332.0606-3.6692.3049-5.5052.3049-8.5914,0-10.7888-2.5613-10.7888-11.1773v-14.11h-5.0953v-6.719h5.0953V2.82h10.0787v9.593H360.76Z" transform="translate(0 -0.5)"/><path id="_Compound_Path_23" data-name="&lt;Compound Path&gt;" class="cls-2" d="M371.4853,30.798c.1822,4.3352,2.61,7.2091,6.88,7.2091a5.9755,5.9755,0,0,0,5.7451-3.4852h9.423c-1.8422,7.3365-8.4155,10.5125-15.2924,10.5125-10.0088,0-16.822-6.238-16.822-16.863a16.3755,16.3755,0,0,1,16.5853-16.6778c11.0256,0,16.5336,8.5522,16.06,19.3044Zm12.5033-5.8042c-.1731-3.543-2.6039-6.4717-5.9847-6.4717-3.5568,0-5.9238,2.6266-6.5187,6.4717Z" transform="translate(0 -0.5)"/><path id="_Compound_Path_24" data-name="&lt;Compound Path&gt;" class="cls-2" d="M397.0867,12.4132h9.7751v5.5537h.1184c1.478-4.0272,4.9135-6.1606,9.2381-6.1606a10.5585,10.5585,0,0,1,2.3761.2368v9.4715a13.7784,13.7784,0,0,0-3.851-.6159,7.1849,7.1849,0,0,0-7.587,7.52V44.1149h-10.07Z" transform="translate(0 -0.5)"/><path id="_Compound_Path_25" data-name="&lt;Compound Path&gt;" class="cls-2" d="M421.3774,12.4132H431.15v4.3336h.1184c1.8419-3.2351,5.9844-5.2532,9.66-5.2532,10.2484,0,11.08,7.7007,11.08,12.282V44.1149H441.9322V28.783c0-4.3383.4764-8.7371-5.0347-8.7371-3.7876,0-5.4446,3.3-5.4446,6.7843V44.1149H421.3774Z" transform="translate(0 -0.5)"/><path id="_Compound_Path_26" data-name="&lt;Compound Path&gt;" class="cls-2" d="M65.0207,14.187H53.41V44.1208H43.2671V14.187H32.5545V5.9763H65.0207Z" transform="translate(0 -0.5)"/><path id="_Path_" data-name="&lt;Path&gt;" class="cls-2" d="M16.6064,44.9313c11.4961-.1168,16.5581-5.733,16.5581-16.8842V5.9763H23.0311V28.64c0,4.883-1.7632,7.4338-6.4247,7.5659-4.6979-.1215-6.4639-2.6664-6.4639-7.5659V5.9763H0V28.0471C0,39.2135,5.0711,44.8234,16.6064,44.9313Z" transform="translate(0 -0.5)"/></g></g><path class="cls-1" d="M456.2737,81.32a3.3857,3.3857,0,0,1,1.8624.4289,1.6307,1.6307,0,0,1,.6519,1.472,1.9863,1.9863,0,0,1-.13.7593,1.3531,1.3531,0,0,1-.3608.5134,1.6432,1.6432,0,0,1-.5363.3067,2.6979,2.6979,0,0,1-.6593.1378l1.7172,2.8054h-1.3342l-1.5631-2.7439h-.7978v2.7439h-1.2719V81.32Zm-.0156,2.6831a2.2855,2.2855,0,0,0,.9045-.1533q.3522-.1533.3526-.7363a.6443.6443,0,0,0-.123-.4141.8215.8215,0,0,0-.3141-.2371,1.5707,1.5707,0,0,0-.4289-.1156,3.6366,3.6366,0,0,0-.4526-.03h-1.0734v1.6868Z" transform="translate(0 -0.5)"/><path class="cls-1" d="M456.1151,78.73A5.8849,5.8849,0,1,0,462,84.6144,5.8848,5.8848,0,0,0,456.1151,78.73Zm0,10.5287a4.6438,4.6438,0,1,1,4.6437-4.6438A4.6441,4.6441,0,0,1,456.1151,89.2582Z" transform="translate(0 -0.5)"/></svg>