<?xml version="1.0" encoding="utf-8"?>
<!-- Generator: Adobe Illustrator 21.1.0, SVG Export Plug-In . SVG Version: 6.00 Build 0)  -->
<svg version="1.0" id="Layer_1" xmlns="http://www.w3.org/2000/svg" xmlns:xlink="http://www.w3.org/1999/xlink" x="0px" y="0px"
	 viewBox="0 0 179 30" enable-background="new 0 0 179 30" xml:space="preserve">
<path id="Path_2083" fill="#0077C8" d="M17.276,0.5c4.128,0,6.192,2.256,6.192,6.768v1.3c0,3.36-1.344,5.352-4.032,5.976
	c-1.142,0.182-2.3,0.254-3.456,0.216H7.268v4.82H0.5V0.5H17.276z M14.976,9.788c1.2,0,1.8-0.48,1.8-1.44v-1.08
	c0-1.056-0.6-1.584-1.8-1.584h-7.78v4.1L14.976,9.788z M21.024,19.58L31.532,0.5h7.7l10.444,19.08h-7.272l-1.8-3.24h-10.8
	l-1.728,3.24H21.024z M31.824,12.308h6.48l-3.168-5.976L31.824,12.308z M71.204,11.444c-0.29,0.204-0.605,0.372-0.936,0.5
	c1.457,0.618,2.356,2.098,2.232,3.676v3.96h-6.408v-3.888c0-0.768-0.433-1.152-1.3-1.152h-8.64v5.04h-6.328V0.5h16.772
	c3.933,0,5.9,1.704,5.9,5.112V8.28C72.617,9.484,72.133,10.669,71.204,11.444z M64.436,9.788c1.248,0,1.872-0.408,1.872-1.224V6.98
	c0-0.867-0.504-1.3-1.512-1.3h-8.64v4.1L64.436,9.788z M91.148,13.82v-0.36c0-0.768-0.696-1.152-2.088-1.152h-7.92
	c-4.176,0-6.264-1.656-6.264-4.968V6.404c0-2.544,0.84-4.224,2.52-5.04C78.5,0.788,80.492,0.5,83.372,0.5h5.688
	c3.648,0,5.904,0.744,6.768,2.232c0.452,0.764,0.7,1.632,0.72,2.52v0.216h-14.04c-0.96-0.096-1.44,0.192-1.44,0.864V6.62
	c0,0.624,0.36,0.936,1.08,0.936h8.856c4.08,0,6.12,1.848,6.12,5.544v0.864c0,2.208-0.767,3.744-2.3,4.608
	c-1.687,0.783-3.544,1.13-5.4,1.008h-8c-4.267,0-6.4-1.367-6.4-4.1v-0.72h14.4C90.573,14.757,91.148,14.444,91.148,13.82z
	 M122.824,1.796c1.296,1.248,1.944,3.576,1.944,6.984v5.544c-0.057,1.811-1.034,3.467-2.592,4.392
	c-1.716,0.677-3.559,0.972-5.4,0.864h-10.3c-2.085,0.112-4.145-0.498-5.832-1.728c-0.921-0.891-1.462-2.103-1.512-3.384V8.78
	c0-3.12,0.516-5.28,1.548-6.48s3.012-1.8,5.94-1.8h9.804C119.829,0.5,121.963,0.932,122.824,1.796z M105.904,8.132v3.748
	c-0.082,0.655,0.071,1.319,0.432,1.872c0.491,0.493,1.182,0.732,1.872,0.648h7.488c1.584,0,2.376-0.696,2.376-2.088v-4.68
	c0-1.296-0.792-1.944-2.376-1.944h-6.984c-0.764-0.072-1.531,0.092-2.2,0.468c-0.485,0.536-0.706,1.26-0.604,1.976H105.904z
	 M127.58,19.58V0.5h9.288l9.936,12.456V0.5h6.264v19.08h-9.144l-9.792-12.24v12.24H127.58z M171.788,13.82v-0.36
	c0.066-0.468-0.204-0.918-0.648-1.08c-0.501-0.067-1.007-0.091-1.512-0.072h-7.92c-4.176,0-6.264-1.656-6.264-4.968V6.404
	c0-2.544,0.84-4.248,2.52-5.112c1.947-0.648,4-0.917,6.048-0.792h5.612c3.648,0,5.904,0.744,6.768,2.232
	c0.481,0.756,0.754,1.625,0.792,2.52v0.216h-14.108c-0.96-0.096-1.44,0.192-1.44,0.864V6.62c0,0.624,0.36,0.936,1.08,0.936h8.928
	c1.398-0.088,2.793,0.211,4.032,0.864c1.344,0.867,2.016,2.427,2.016,4.68v0.864c0,2.256-0.744,3.792-2.232,4.608
	c-1.684,0.794-3.543,1.141-5.4,1.008h-8.064c-4.272,0-6.408-1.367-6.408-4.1v-0.72h14.4
	C171.188,14.757,171.788,14.444,171.788,13.82L171.788,13.82z"/>
</svg>
