<?xml version="1.0" encoding="UTF-8" ?>
<!DOCTYPE svg PUBLIC "-//W3C//DTD SVG 1.1//EN" "http://www.w3.org/Graphics/SVG/1.1/DTD/svg11.dtd">
<svg width="1340pt" height="738pt" viewBox="0 0 1340 738" version="1.1" xmlns="http://www.w3.org/2000/svg">
<g id="#ffffffff">
<path fill="#ffffff" opacity="1.00" d=" M 268.58 171.53 C 277.48 159.62 294.57 155.07 308.29 160.71 C 317.36 164.28 324.70 171.93 327.88 181.14 C 331.12 190.27 330.17 200.68 325.59 209.18 C 322.68 197.16 321.08 184.34 314.24 173.74 C 308.73 165.44 296.92 162.51 288.13 167.17 C 279.99 171.54 272.35 177.72 267.99 186.01 C 264.86 191.73 266.29 198.92 270.14 203.91 C 271.67 205.35 273.82 205.88 275.69 206.76 C 276.43 209.55 276.96 212.40 277.98 215.11 C 279.38 215.38 280.81 215.45 282.25 215.33 C 285.99 219.94 291.40 226.31 298.05 223.65 C 298.02 224.43 297.97 226.01 297.94 226.80 C 286.75 227.36 275.35 222.50 268.56 213.50 C 259.09 201.63 259.13 183.40 268.58 171.53 Z" />
<path fill="#ffffff" opacity="1.00" d=" M 289.63 169.99 C 294.51 168.11 300.16 167.48 304.92 170.06 C 312.76 173.58 315.26 182.60 317.61 190.10 C 310.78 184.99 304.64 178.71 296.60 175.45 C 293.69 174.49 291.56 172.25 289.63 169.99 Z" />
<path fill="#ffffff" opacity="1.00" d=" M 278.58 177.84 C 281.18 175.61 283.93 173.59 286.76 171.67 C 289.20 174.83 292.15 177.68 296.05 178.92 C 304.78 182.38 310.57 190.28 318.80 194.53 C 319.97 199.35 321.02 204.20 322.00 209.07 C 317.21 205.13 312.60 200.98 308.55 196.28 C 309.34 193.08 309.25 188.79 305.68 187.32 C 302.29 185.38 299.22 188.62 297.36 191.12 C 294.74 189.79 292.09 188.54 289.39 187.40 C 284.81 185.52 281.68 181.50 278.58 177.84 Z" />
<path fill="#ffffff" opacity="1.00" d=" M 353.56 173.54 C 356.61 170.90 361.43 170.82 364.64 173.24 C 371.05 177.65 373.85 185.26 376.91 192.08 C 387.21 217.03 395.19 242.86 402.96 268.69 C 397.60 269.59 392.24 270.55 386.86 271.33 C 377.60 261.09 371.44 248.61 363.36 237.51 C 359.11 231.82 354.10 226.28 347.43 223.47 C 344.23 222.05 340.71 221.76 337.28 221.36 C 339.57 210.52 342.11 199.73 344.97 189.03 C 346.37 183.23 348.66 177.28 353.56 173.54 Z" />
<path fill="#ffffff" opacity="1.00" d=" M 276.13 180.08 C 277.95 182.29 279.83 184.46 281.85 186.49 C 277.86 188.44 274.28 191.57 269.56 191.43 C 270.81 187.16 273.24 183.41 276.13 180.08 Z" />
<path fill="#ffffff" opacity="1.00" d=" M 246.95 183.91 C 250.49 181.15 255.11 183.79 258.47 185.60 C 256.65 197.10 259.86 209.52 268.05 217.98 C 274.31 225.01 283.34 229.18 292.65 230.12 C 287.61 232.15 282.59 234.79 279.15 239.13 C 273.46 246.13 271.08 255.12 269.56 263.85 C 267.63 276.91 266.13 290.03 264.73 303.15 C 253.01 269.71 244.59 234.71 244.16 199.12 C 244.16 194.04 243.51 188.10 246.95 183.91 Z" />
<path fill="#ffffff" opacity="1.00" d=" M 281.36 190.47 C 286.71 188.68 291.86 192.23 296.56 194.40 C 297.00 195.98 297.71 200.09 300.12 197.97 C 300.75 195.66 300.14 192.82 301.87 190.92 C 303.23 189.28 306.11 190.81 305.56 192.84 C 305.45 195.68 302.57 197.28 301.97 199.96 C 303.59 201.03 305.23 199.96 306.76 199.31 C 310.66 203.38 314.57 207.51 319.13 210.88 C 324.68 214.32 328.05 220.15 333.21 224.10 C 331.34 229.82 328.57 236.39 322.26 238.28 C 316.56 239.80 309.72 239.97 304.78 236.29 C 300.33 232.31 301.78 225.70 301.25 220.40 C 304.99 215.43 307.41 209.27 306.95 202.98 C 306.44 202.66 305.44 202.03 304.93 201.72 C 303.35 203.39 303.64 205.84 303.20 207.93 C 302.48 213.19 299.66 218.57 294.82 221.08 C 292.81 220.62 291.06 219.48 289.29 218.50 C 290.54 216.84 293.81 215.05 291.02 213.11 C 289.54 213.75 288.16 214.58 286.78 215.38 C 285.27 213.06 283.41 210.92 280.34 211.56 C 279.24 207.39 278.82 202.92 276.77 199.06 C 275.10 199.45 273.53 200.13 271.95 200.76 C 271.11 198.80 270.32 196.82 269.59 194.82 C 273.98 194.81 277.82 192.87 281.36 190.47 M 280.29 198.31 C 280.01 200.14 281.08 202.61 283.09 202.79 C 285.25 203.33 285.97 200.82 287.08 199.51 C 288.82 198.89 292.66 196.97 289.66 195.20 C 286.40 195.68 283.21 196.80 280.29 198.31 Z" />
<path fill="#ffffff" opacity="1.00" d=" M 212.78 203.34 C 215.11 203.13 217.44 202.93 219.77 202.74 C 222.01 217.02 224.42 231.27 226.66 245.54 C 224.32 245.20 221.97 244.90 219.62 244.61 C 217.37 230.85 215.03 217.10 212.78 203.34 Z" />
<path fill="#ffffff" opacity="1.00" d=" M 336.84 224.83 C 340.04 225.12 343.32 225.37 346.30 226.71 C 352.29 229.26 356.72 234.32 360.59 239.39 C 368.32 250.06 374.33 261.92 382.95 271.95 C 377.08 272.80 371.21 273.63 365.33 274.38 C 367.53 285.31 370.29 296.15 372.25 307.13 C 369.63 315.62 362.75 322.00 355.57 326.84 C 351.33 319.37 346.31 311.72 338.56 307.51 C 335.72 305.85 332.34 305.80 329.22 306.59 C 334.57 279.69 336.04 252.19 336.84 224.83 Z" />
<path fill="#ffffff" opacity="1.00" d=" M 283.44 239.47 C 287.47 235.42 293.03 233.66 298.24 231.70 C 299.42 234.37 300.50 237.29 302.96 239.08 C 308.54 243.32 316.24 243.34 322.77 241.66 C 327.31 240.43 330.71 236.92 333.19 233.08 C 331.84 261.28 330.36 289.80 323.20 317.23 C 317.06 314.47 309.66 312.39 303.45 316.13 C 301.70 301.23 300.13 286.11 295.27 271.84 C 294.77 269.88 292.99 266.58 290.89 269.08 C 296.54 285.12 298.49 302.14 300.48 318.96 C 291.10 329.67 283.08 341.80 271.46 350.32 C 268.03 352.79 264.35 355.28 260.10 356.00 C 256.67 356.21 254.04 353.75 251.62 351.70 C 259.44 349.80 266.26 343.13 267.14 334.94 C 267.84 330.63 265.99 326.41 266.40 322.10 C 267.76 305.38 269.63 288.71 271.84 272.08 C 273.43 260.69 274.93 248.01 283.44 239.47 Z" />
<path fill="#ffffff" opacity="1.00" d=" M 219.86 248.31 C 224.34 248.41 229.31 249.09 232.64 252.39 C 234.65 254.45 234.22 257.56 234.70 260.17 C 235.06 264.29 237.03 267.98 239.23 271.39 C 237.18 272.62 235.13 273.87 233.12 275.17 C 234.39 269.09 233.34 262.68 231.05 256.98 C 229.18 251.96 221.60 253.25 219.86 248.31 Z" />
<path fill="#ffffff" opacity="1.00" d=" M 218.67 270.34 C 215.71 264.95 215.47 258.50 215.41 252.48 C 219.62 253.59 223.81 255.10 227.48 257.48 C 230.14 262.28 230.22 268.05 230.20 273.41 C 226.31 272.80 222.01 272.64 218.67 270.34 Z" />
<path fill="#ffffff" opacity="1.00" d=" M 410.95 259.79 C 420.08 259.19 429.29 258.84 438.40 259.94 C 429.47 263.34 420.07 265.20 410.75 267.21 C 410.78 264.73 410.84 262.26 410.95 259.79 Z" />
<path fill="#ffffff" opacity="1.00" d=" M 369.42 277.33 C 393.87 273.95 418.46 270.12 441.91 262.20 C 443.16 267.12 444.12 272.10 445.11 277.08 C 441.33 277.64 437.42 278.82 434.93 281.90 C 432.42 284.46 431.79 288.07 431.47 291.49 C 422.47 292.98 413.46 294.37 404.49 295.95 C 402.27 289.38 394.82 284.73 388.00 287.03 C 380.66 288.90 376.20 297.72 379.31 304.68 C 381.34 310.20 387.17 313.37 392.89 313.20 C 396.23 328.74 399.72 344.25 403.14 359.77 C 399.77 361.67 396.42 364.23 395.18 368.06 C 393.13 373.43 395.18 379.92 399.87 383.22 C 402.41 385.28 405.75 385.73 408.91 385.99 C 412.48 401.87 416.01 417.75 419.49 433.65 C 416.89 435.20 414.20 436.91 412.71 439.64 C 409.34 445.18 410.88 453.04 416.12 456.87 C 418.66 458.97 422.02 459.44 425.19 459.79 C 421.91 469.42 418.65 479.06 415.25 488.66 C 399.91 418.23 384.71 347.77 369.42 277.33 Z" />
<path fill="#ffffff" opacity="1.00" d=" M 232.76 279.17 C 235.59 277.47 238.41 275.76 241.26 274.09 C 248.15 290.22 254.95 306.39 261.70 322.58 C 263.95 328.01 264.85 334.56 262.08 339.97 C 260.12 343.21 257.20 346.05 253.66 347.50 C 251.38 348.50 248.82 347.47 247.34 345.62 C 243.94 341.48 242.15 336.29 241.10 331.10 C 237.50 313.93 235.62 296.46 232.76 279.17 Z" />
<path fill="#ffffff" opacity="1.00" d=" M 224.77 275.99 C 226.29 277.21 227.86 278.37 229.43 279.53 C 232.41 298.02 234.31 316.71 238.54 334.97 C 239.45 339.71 242.80 343.57 243.39 348.39 C 246.66 369.01 250.10 389.61 253.36 410.24 C 251.65 412.42 249.93 414.59 248.18 416.74 C 240.29 369.84 232.70 322.89 224.77 275.99 Z" />
<path fill="#ffffff" opacity="1.00" d=" M 437.25 284.28 C 439.23 281.61 442.66 280.91 445.77 280.56 C 446.89 287.10 447.96 293.65 448.54 300.26 C 445.18 300.54 441.33 300.80 438.64 298.36 C 434.41 295.06 433.77 288.35 437.25 284.28 Z" />
<path fill="#ffffff" opacity="1.00" d=" M 388.28 290.46 C 394.82 287.81 402.70 293.91 401.43 300.96 C 400.99 308.72 390.34 312.65 384.95 307.08 C 379.44 302.52 381.41 292.53 388.28 290.46 Z" />
<path fill="#ffffff" opacity="1.00" d=" M 405.25 299.19 C 414.20 297.79 423.13 296.32 432.06 294.80 C 434.65 301.43 441.99 305.53 448.98 303.51 C 450.52 320.35 450.27 337.31 448.92 354.15 C 445.20 353.74 441.44 354.15 438.09 355.89 C 425.81 340.36 413.56 324.83 401.28 309.30 C 403.39 306.29 404.85 302.87 405.25 299.19 Z" />
<path fill="#ffffff" opacity="1.00" d=" M 326.75 315.69 C 328.08 313.40 328.99 310.00 332.05 309.58 C 336.63 309.07 340.39 312.43 343.43 315.41 C 352.50 325.22 357.72 338.13 359.70 351.23 C 355.31 351.54 350.92 351.73 346.52 351.83 C 344.28 341.28 341.80 330.37 335.73 321.28 C 333.79 318.06 330.38 316.27 326.75 315.69 Z" />
<path fill="#ffffff" opacity="1.00" d=" M 396.39 312.75 C 396.82 312.26 397.68 311.28 398.11 310.79 C 410.64 326.44 423.02 342.22 435.43 357.96 C 433.35 360.90 432.04 364.27 431.64 367.85 C 428.06 368.10 424.50 368.65 420.92 368.92 C 419.21 366.40 418.00 363.38 415.35 361.66 C 412.78 359.69 409.45 359.49 406.43 358.73 C 403.01 343.43 399.45 328.13 396.39 312.75 Z" />
<path fill="#ffffff" opacity="1.00" d=" M 356.99 329.89 C 363.81 325.58 369.68 319.79 373.74 312.79 C 374.12 315.82 375.51 318.88 374.94 321.95 C 372.38 329.08 366.37 334.21 360.46 338.61 C 359.34 335.69 358.20 332.77 356.99 329.89 Z" />
<path fill="#ffffff" opacity="1.00" d=" M 297.24 328.03 C 300.46 324.34 303.19 319.61 308.03 317.90 C 316.24 315.59 323.22 323.53 331.45 321.17 C 334.66 325.05 336.64 329.71 338.43 334.37 C 332.14 337.35 324.54 339.29 317.91 336.19 C 311.18 333.10 304.81 328.80 297.24 328.03 Z" />
<path fill="#ffffff" opacity="1.00" d=" M 368.97 336.01 C 371.90 333.17 374.49 330.02 376.70 326.59 C 383.40 358.46 390.55 390.25 397.28 422.12 C 397.85 423.66 396.67 424.87 395.89 426.06 C 394.13 428.53 392.05 430.74 389.96 432.92 C 386.16 409.58 380.29 386.66 375.21 363.58 C 373.13 354.39 371.06 345.20 368.97 336.01 Z" />
<path fill="#ffffff" opacity="1.00" d=" M 293.86 331.55 C 295.45 331.57 297.04 331.61 298.64 331.66 C 297.77 335.41 296.85 339.15 295.68 342.82 C 294.70 341.54 293.61 340.32 292.87 338.88 C 291.89 336.42 293.15 333.89 293.86 331.55 Z" />
<path fill="#ffffff" opacity="1.00" d=" M 302.00 332.41 C 306.93 334.27 311.51 336.89 316.23 339.20 C 309.08 364.27 306.72 390.33 303.56 416.11 C 302.54 424.10 301.00 432.43 296.13 439.06 C 293.95 442.06 290.24 444.50 286.40 443.53 C 278.34 441.03 272.15 433.59 271.47 425.14 C 269.73 410.10 276.96 396.24 283.10 383.05 C 288.78 370.72 295.68 358.73 298.57 345.34 C 299.82 341.05 300.95 336.74 302.00 332.41 Z" />
<path fill="#ffffff" opacity="1.00" d=" M 319.28 340.51 C 326.12 342.29 333.19 340.53 339.46 337.65 C 341.31 343.41 342.56 349.34 343.84 355.25 C 348.21 355.34 352.58 355.02 356.94 354.83 C 359.10 367.97 361.48 381.07 364.36 394.07 C 366.71 404.59 370.52 415.02 370.11 425.94 C 370.04 431.11 367.49 436.39 362.74 438.78 C 355.07 442.64 346.29 443.20 337.90 444.15 C 323.28 445.23 308.60 447.55 293.93 445.84 C 304.29 437.99 306.10 424.16 307.49 412.15 C 310.26 388.10 312.91 363.92 319.28 340.51 Z" />
<path fill="#ffffff" opacity="1.00" d=" M 280.44 347.23 C 283.39 344.34 286.25 341.36 288.95 338.23 C 290.07 341.44 292.29 344.02 294.85 346.18 C 293.30 353.78 289.88 360.79 286.68 367.79 C 284.91 360.85 282.71 354.03 280.44 347.23 Z" />
<path fill="#ffffff" opacity="1.00" d=" M 361.36 342.05 C 362.94 340.90 364.51 339.75 366.08 338.59 C 370.44 357.69 374.68 376.82 379.06 395.92 C 375.62 396.70 372.31 397.89 369.08 399.28 C 365.55 384.62 362.85 369.78 360.37 354.92 C 361.39 354.45 362.42 353.98 363.44 353.50 C 362.95 349.64 362.27 345.82 361.36 342.05 Z" />
<path fill="#ffffff" opacity="1.00" d=" M 193.55 348.36 C 194.47 345.94 195.41 343.54 196.35 341.13 C 199.13 346.10 202.00 351.02 204.80 355.99 C 199.93 356.32 195.08 356.76 190.22 357.14 C 190.82 355.45 191.42 353.75 191.99 352.05 C 187.81 352.65 184.00 354.80 181.96 358.60 C 187.13 358.58 194.10 359.38 196.01 365.13 C 197.66 372.45 188.39 378.84 182.05 374.88 C 178.19 372.95 177.52 368.35 176.62 364.61 C 168.78 372.67 171.07 387.72 180.99 393.06 C 185.67 396.46 192.11 395.65 196.55 399.35 C 192.44 399.65 188.07 400.65 184.16 398.84 C 176.69 396.32 170.13 390.21 168.70 382.23 C 167.85 376.77 167.85 370.71 170.84 365.85 C 172.43 363.17 175.07 361.40 177.63 359.74 C 178.84 356.54 180.41 353.30 183.29 351.28 C 186.18 348.95 189.98 348.58 193.55 348.36 M 180.83 362.69 C 181.06 365.50 180.81 368.84 183.16 370.89 C 186.49 374.34 192.98 370.48 192.19 366.04 C 189.94 362.16 184.73 362.31 180.83 362.69 Z" />
<path fill="#ffffff" opacity="1.00" d=" M 439.38 359.24 C 441.94 357.20 445.36 357.28 448.45 357.53 C 447.83 364.19 446.89 370.82 445.81 377.42 C 442.79 376.92 439.51 376.12 437.59 373.52 C 434.02 369.38 434.88 362.36 439.38 359.24 Z" />
<path fill="#ffffff" opacity="1.00" d=" M 404.21 363.23 C 410.50 360.55 418.25 366.15 417.50 372.99 C 417.68 380.75 407.47 385.34 401.64 380.36 C 395.50 376.10 397.09 365.49 404.21 363.23 Z" />
<path fill="#ffffff" opacity="1.00" d=" M 421.25 372.29 C 424.94 371.94 428.64 371.55 432.33 371.16 C 434.48 376.59 439.51 380.31 445.32 380.86 C 442.11 399.35 437.68 417.61 432.58 435.67 C 429.57 433.96 426.26 432.93 422.80 432.77 C 419.26 416.94 415.76 401.10 412.24 385.27 C 417.35 382.87 420.86 377.96 421.25 372.29 Z" />
<path fill="#ffffff" opacity="1.00" d=" M 190.38 381.95 C 195.34 383.38 198.40 388.09 203.34 389.60 C 208.02 391.76 213.20 391.29 218.15 390.66 C 220.00 390.18 220.76 392.23 221.85 393.26 C 223.53 395.49 226.22 396.49 228.65 397.68 C 227.32 399.52 223.72 401.20 225.22 403.84 C 227.66 404.61 228.93 401.86 230.68 400.72 C 233.10 398.23 236.63 397.87 239.91 397.86 C 238.92 401.39 238.07 406.05 234.08 407.35 C 232.17 408.11 227.89 408.02 229.89 411.12 C 231.59 411.26 233.30 411.14 235.01 411.08 C 234.33 416.75 235.03 422.43 235.57 428.08 C 225.55 435.27 218.38 446.15 215.23 458.03 C 214.09 460.17 217.97 461.87 218.31 459.13 C 221.52 448.45 227.36 438.19 236.57 431.60 C 243.82 426.42 250.18 420.06 255.61 413.00 C 254.74 417.57 253.09 421.90 251.38 426.21 C 250.53 427.68 252.60 429.64 253.86 428.01 C 256.16 426.33 257.87 424.01 259.87 422.01 C 258.97 426.64 257.23 431.02 255.51 435.39 C 254.75 436.61 256.17 437.49 256.67 438.48 C 258.97 436.55 261.16 434.50 263.39 432.48 C 262.70 439.43 259.75 445.77 256.79 451.98 C 259.86 454.78 263.29 451.13 265.52 449.11 C 264.94 454.51 263.86 460.08 260.70 464.62 C 255.89 471.88 246.10 474.12 242.15 482.12 C 238.64 489.57 238.49 498.02 237.90 506.09 C 237.36 512.34 233.39 517.90 228.16 521.19 C 223.38 524.32 217.66 525.45 212.09 526.16 C 210.28 522.23 208.60 518.24 207.18 514.16 C 211.55 511.16 216.01 508.06 219.34 503.89 C 218.78 503.06 218.19 502.27 217.57 501.51 C 212.97 505.34 208.78 510.13 203.01 512.18 C 200.93 511.26 199.61 509.32 198.26 507.61 C 195.28 503.52 192.52 499.28 189.37 495.32 C 192.11 486.47 190.96 477.07 189.32 468.13 C 188.96 466.71 188.88 465.15 187.99 463.95 C 185.59 463.18 183.03 463.26 180.56 462.99 C 181.44 461.95 182.31 460.91 183.17 459.87 C 181.44 458.49 179.56 457.31 177.86 455.91 C 179.23 454.89 180.65 453.93 182.04 452.94 C 180.67 451.60 179.25 450.32 177.89 448.99 C 179.25 448.41 180.69 448.02 182.16 447.83 C 185.61 449.17 188.86 450.99 192.47 451.94 C 193.46 456.37 192.61 461.14 194.72 465.31 C 197.81 472.62 200.35 480.18 203.64 487.40 C 203.98 487.65 204.66 488.14 205.00 488.39 C 208.13 485.72 210.86 482.52 213.07 479.06 C 212.66 478.17 212.13 477.35 211.48 476.62 C 209.37 478.73 207.40 480.99 205.43 483.23 C 204.24 479.57 201.79 476.05 202.32 472.05 C 203.04 463.72 203.65 455.27 206.20 447.25 C 208.92 438.20 211.17 429.02 213.44 419.86 C 213.86 418.65 213.43 417.46 213.02 416.34 C 209.81 417.25 206.42 418.51 203.06 417.56 C 199.21 416.81 196.73 413.51 193.60 411.46 C 189.64 408.58 184.88 407.26 180.32 405.65 C 181.04 404.77 181.51 403.33 182.94 403.62 C 189.61 402.85 196.52 403.67 203.05 402.06 C 203.34 400.02 201.43 399.01 200.12 397.88 C 195.93 394.68 191.75 391.48 187.58 388.26 C 188.49 386.14 189.41 384.04 190.38 381.95 M 207.24 396.06 C 211.65 398.37 216.16 400.46 220.72 402.46 C 219.57 399.52 218.26 395.94 214.89 394.95 C 212.30 393.98 209.70 395.31 207.24 396.06 Z" />
<path fill="#ffffff" opacity="1.00" d=" M 178.32 419.03 C 180.13 418.92 181.95 418.79 183.76 418.65 C 188.16 425.08 192.92 431.25 197.52 437.53 C 199.39 441.81 200.43 446.44 201.36 451.01 C 200.78 456.55 199.66 462.04 199.27 467.61 C 197.64 463.93 196.18 460.08 196.47 455.98 C 196.65 452.53 194.97 449.39 192.09 447.56 C 190.95 444.04 190.27 440.36 188.80 436.96 C 185.14 436.15 181.24 436.68 177.75 435.03 C 179.24 433.84 180.72 432.62 182.11 431.31 C 180.46 430.08 178.78 428.90 177.08 427.77 C 178.83 426.69 181.57 426.32 182.11 424.01 C 181.31 422.04 179.72 420.57 178.32 419.03 Z" />
<path fill="#ffffff" opacity="1.00" d=" M 414.53 448.51 C 413.00 442.74 417.85 436.20 423.93 436.50 C 426.70 436.22 429.10 437.79 431.43 439.05 C 429.84 444.78 428.39 450.60 426.10 456.10 C 421.01 457.09 415.51 453.66 414.53 448.51 Z" />
<path fill="#ffffff" opacity="1.00" d=" M 278.78 443.63 C 287.51 448.98 297.95 450.04 307.97 450.07 C 306.55 458.17 304.97 466.31 301.88 473.97 C 300.50 477.11 300.55 480.58 300.23 483.93 C 298.94 500.70 294.39 517.12 294.34 534.00 C 293.95 537.65 295.04 542.26 291.87 544.94 C 288.09 548.02 283.64 550.15 279.39 552.49 C 274.03 555.06 268.79 558.28 262.87 559.33 C 259.69 555.55 259.25 547.63 264.62 545.58 C 270.86 542.33 276.53 538.14 282.36 534.24 C 280.22 517.29 280.01 500.08 281.40 483.06 C 278.82 470.09 278.80 456.80 278.78 443.63 Z" />
<path fill="#ffffff" opacity="1.00" d=" M 329.75 448.31 C 340.05 447.36 350.51 446.73 360.44 443.60 C 358.69 452.84 356.67 462.07 356.35 471.50 C 353.55 491.76 347.26 511.32 343.60 531.41 C 342.96 535.42 342.26 539.86 344.37 543.59 C 348.24 550.79 355.05 555.88 359.13 562.94 C 360.03 564.58 360.87 567.71 358.50 568.47 C 354.73 569.95 350.42 568.72 347.01 566.83 C 341.06 563.37 335.99 558.44 332.27 552.66 C 330.59 550.02 328.59 547.28 328.55 544.02 C 328.19 535.58 331.17 527.49 331.80 519.12 C 333.33 507.44 331.49 495.65 332.69 483.94 C 332.82 479.31 334.23 474.66 333.15 470.06 C 331.70 462.86 330.80 455.57 329.75 448.31 Z" />
<path fill="#ffffff" opacity="1.00" d=" M 257.47 472.81 C 259.24 471.14 261.00 469.43 262.74 467.73 C 264.28 477.54 265.92 487.34 267.49 497.15 C 269.07 495.58 270.65 494.02 272.24 492.46 C 270.79 501.44 269.46 510.44 267.96 519.41 C 263.97 511.37 260.17 503.22 256.30 495.11 C 258.06 495.95 259.81 496.81 261.56 497.66 C 260.18 489.38 258.87 481.09 257.47 472.81 Z" />
<path fill="#ffffff" opacity="1.00" d=" M 382.90 485.94 C 389.55 478.82 398.76 474.49 408.23 472.58 C 408.72 474.64 409.18 476.70 409.66 478.78 C 403.85 479.73 397.47 480.69 393.17 485.12 C 386.30 491.89 382.90 501.34 380.60 510.50 C 377.18 528.27 373.18 546.63 362.44 561.60 C 359.18 556.62 355.14 552.24 351.24 547.77 C 355.31 545.51 358.87 542.35 361.32 538.37 C 367.86 528.07 370.79 516.06 374.32 504.52 C 376.40 498.04 378.09 491.04 382.90 485.94 Z" />
<path fill="#ffffff" opacity="1.00" d=" M 421.64 480.68 C 422.21 479.09 422.81 477.51 423.43 475.94 C 426.66 478.92 430.19 482.37 430.43 487.06 C 430.96 494.53 425.70 500.76 420.33 505.27 C 416.05 509.16 409.60 509.33 405.55 513.54 C 402.43 516.91 400.16 521.02 398.38 525.23 C 400.17 527.32 403.49 526.18 405.52 527.87 C 405.64 532.45 402.24 535.95 399.83 539.48 C 398.67 539.03 396.73 536.41 395.82 538.57 C 393.81 542.98 390.30 546.37 386.56 549.34 C 387.04 544.96 390.87 540.43 388.74 536.11 C 387.38 536.81 386.03 537.53 384.69 538.27 C 385.93 533.57 385.99 528.47 388.18 524.08 C 390.36 524.10 392.85 526.99 394.59 525.71 C 396.51 519.62 397.79 512.37 403.56 508.63 C 409.68 505.22 416.23 502.27 421.33 497.34 C 424.06 494.71 425.75 490.88 425.52 487.07 C 425.39 484.39 423.33 482.50 421.64 480.68 Z" />
<path fill="#ffffff" opacity="1.00" d=" M 241.39 505.08 C 241.76 498.67 242.22 492.21 244.07 486.02 C 245.55 492.79 247.25 499.56 250.18 505.87 C 255.64 516.03 254.75 530.04 246.36 538.40 C 241.16 543.70 234.09 546.68 226.98 548.43 C 222.23 542.37 217.75 536.09 213.92 529.41 C 220.93 528.36 228.11 526.25 233.43 521.33 C 238.01 517.19 241.08 511.29 241.39 505.08 Z" />
<path fill="#ffffff" opacity="1.00" d=" M 257.13 518.42 C 261.78 525.14 267.67 530.96 274.41 535.57 C 269.74 538.95 264.53 541.52 259.80 544.77 C 255.70 549.67 256.73 557.35 260.59 562.13 C 256.84 565.26 252.67 567.86 248.29 570.03 C 241.40 564.42 235.19 558.06 229.36 551.38 C 238.50 548.81 247.59 543.98 252.71 535.69 C 256.03 530.59 257.04 524.41 257.13 518.42 Z" />
<path fill="#ffffff" opacity="1.00" d=" M 297.85 536.12 C 301.69 533.04 305.97 529.98 311.05 529.61 C 314.20 529.19 317.17 530.58 319.96 531.87 C 312.87 533.16 306.51 536.82 301.26 541.66 C 300.01 541.24 298.77 540.83 297.53 540.42 C 297.64 538.98 297.75 537.55 297.85 536.12 Z" />
<path fill="#ffffff" opacity="1.00" d=" M 304.53 543.12 C 310.08 538.65 316.79 534.55 324.24 535.76 C 325.33 538.79 324.95 542.02 325.21 545.17 C 325.41 548.02 327.04 550.46 328.34 552.92 C 327.83 560.41 324.41 567.32 319.65 573.00 C 320.11 565.79 319.07 558.18 314.74 552.20 C 312.22 548.29 308.39 545.57 304.53 543.12 Z" />
<path fill="#ffffff" opacity="1.00" d=" M 292.74 548.85 C 294.31 547.24 295.76 545.53 297.10 543.73 C 303.03 545.80 308.82 549.13 312.30 554.53 C 316.61 560.96 317.04 569.28 315.35 576.63 C 312.05 580.89 306.75 583.15 301.78 584.88 C 294.04 587.51 285.72 586.48 277.95 584.60 C 284.64 579.63 290.54 573.01 292.71 564.79 C 294.38 559.60 293.84 554.08 292.74 548.85 Z" />
<path fill="#ffffff" opacity="1.00" d=" M 265.47 562.53 C 273.81 559.10 282.03 555.35 289.80 550.73 C 290.49 556.49 290.70 562.64 287.99 567.96 C 285.07 574.47 279.60 579.37 273.78 583.29 C 265.78 580.85 258.04 577.46 251.35 572.37 C 256.55 569.81 260.95 566.07 265.47 562.53 Z" />
<path fill="#ffffff" opacity="1.00" d=" M 331.30 557.08 C 336.83 564.41 344.46 571.03 353.77 572.66 C 347.52 579.03 339.93 584.79 330.90 586.22 C 324.68 587.38 318.35 585.96 312.54 583.75 C 321.57 577.34 329.19 568.21 331.30 557.08 Z" />
</g>
<g id="#932636ff">
<path fill="#932636" opacity="1.00" d=" M 347.47 95.39 C 352.30 97.15 356.90 99.48 361.47 101.83 C 359.97 101.77 358.47 101.70 356.97 101.62 C 355.88 112.55 355.06 123.51 354.18 134.46 C 362.17 126.96 370.61 119.81 377.72 111.46 C 377.13 110.66 375.95 109.06 375.36 108.26 C 379.15 110.03 382.96 111.77 386.68 113.69 C 384.64 113.92 382.24 112.98 380.53 114.49 C 369.89 123.21 360.54 133.54 349.34 141.58 C 349.47 128.05 351.19 114.57 351.43 101.03 C 351.65 98.40 348.84 97.19 347.47 95.39 Z" />
<path fill="#932636" opacity="1.00" d=" M 245.92 106.97 C 248.68 102.72 253.91 101.42 258.49 100.13 C 259.50 102.62 260.56 105.08 261.44 107.62 C 259.43 106.22 257.85 103.36 255.04 103.82 C 252.33 104.25 249.31 105.47 248.12 108.14 C 246.64 111.21 248.69 114.91 251.64 116.17 C 256.77 118.48 262.76 118.40 267.59 121.48 C 272.64 124.62 274.48 132.11 271.02 137.07 C 267.93 141.49 262.39 143.40 257.20 143.67 C 255.90 140.93 254.70 138.15 253.76 135.26 C 256.00 137.08 257.72 140.31 260.98 140.24 C 264.34 140.13 268.05 138.31 269.20 134.95 C 270.40 131.23 267.98 127.20 264.55 125.71 C 259.68 123.67 254.15 123.41 249.58 120.63 C 245.14 117.93 242.92 111.51 245.92 106.97 Z" />
<path fill="#932636" opacity="1.00" d=" M 301.87 103.85 C 305.35 104.18 308.84 104.64 312.20 105.64 C 310.24 109.25 307.41 112.25 304.17 114.73 C 304.40 112.50 304.86 110.27 304.67 108.02 C 304.32 106.32 302.81 105.22 301.87 103.85 Z" />
<path fill="#932636" opacity="1.00" d=" M 217.75 122.88 C 221.49 120.21 225.35 117.70 229.24 115.26 C 228.54 116.54 227.74 117.77 227.12 119.10 C 228.73 123.11 231.58 126.46 233.80 130.13 C 238.20 136.45 241.89 143.29 247.00 149.09 C 248.66 148.47 250.32 147.85 252.02 147.31 C 248.45 150.74 243.97 153.01 239.89 155.77 C 240.48 154.52 241.17 153.32 241.69 152.04 C 240.62 149.12 238.83 146.56 237.16 143.98 C 233.12 137.93 229.20 131.80 225.16 125.75 C 224.25 124.46 223.39 123.07 222.05 122.19 C 220.60 122.34 219.18 122.66 217.75 122.88 Z" />
<path fill="#932636" opacity="1.00" d=" M 372.74 150.18 C 381.55 140.51 388.80 129.54 397.49 119.78 C 399.24 134.96 400.25 150.24 401.37 165.49 C 407.29 157.20 414.12 149.51 419.33 140.75 C 418.14 139.37 416.96 137.98 415.88 136.52 C 419.99 138.68 423.59 141.75 426.93 144.96 C 425.52 144.51 424.11 144.05 422.72 143.58 C 414.06 153.24 406.89 164.17 398.09 173.72 C 395.66 158.88 394.84 143.82 393.79 128.83 C 389.50 134.27 385.51 139.93 381.32 145.44 C 379.55 147.83 377.59 150.17 376.53 152.99 C 377.41 154.58 378.34 156.14 379.34 157.67 C 375.51 154.92 371.75 152.05 368.31 148.82 C 369.78 149.25 371.27 149.72 372.74 150.18 Z" />
<path fill="#932636" opacity="1.00" d=" M 198.67 138.73 C 200.28 133.92 205.04 131.45 209.13 129.06 C 210.71 131.19 212.27 133.34 213.68 135.59 C 211.54 134.73 209.51 132.61 207.05 133.47 C 204.42 134.29 201.90 136.24 201.07 138.95 C 200.20 142.13 202.73 145.35 205.71 146.19 C 211.70 147.60 218.13 145.57 223.97 147.89 C 229.37 150.05 232.33 156.71 230.18 162.15 C 228.14 166.96 223.49 170.07 218.67 171.64 C 216.57 169.37 214.68 166.90 213.28 164.14 C 215.65 165.54 217.93 168.07 220.97 167.39 C 224.13 166.72 227.10 164.33 227.93 161.13 C 228.79 157.32 225.84 153.55 222.22 152.65 C 216.59 151.18 210.55 152.98 205.02 150.94 C 200.24 149.32 196.82 143.65 198.67 138.73 Z" />
<path fill="#932636" opacity="1.00" d=" M 297.49 136.67 C 317.88 133.25 338.28 140.30 356.01 149.91 C 382.26 164.43 404.63 185.23 423.29 208.55 C 450.98 243.32 470.64 284.73 478.58 328.55 C 486.06 369.46 482.32 412.21 468.56 451.42 C 456.89 485.05 438.51 516.29 415.10 543.09 C 400.69 559.43 384.39 574.24 366.01 586.00 C 351.70 595.06 336.00 602.52 319.16 605.21 C 307.13 607.14 294.76 605.52 283.25 601.74 C 264.51 595.62 247.58 584.98 232.28 572.71 C 206.20 551.50 184.67 524.93 168.23 495.67 C 151.97 466.64 140.81 434.62 136.56 401.57 C 133.05 374.78 134.22 347.42 139.86 321.00 C 148.03 282.78 165.07 246.63 188.46 215.38 C 204.90 193.44 224.49 173.68 247.25 158.28 C 262.49 148.16 279.29 139.68 297.49 136.67 M 268.58 171.53 C 259.13 183.40 259.09 201.63 268.56 213.50 C 275.35 222.50 286.75 227.36 297.94 226.80 C 297.97 226.01 298.02 224.43 298.05 223.65 C 291.40 226.31 285.99 219.94 282.25 215.33 C 280.81 215.45 279.38 215.38 277.98 215.11 C 276.96 212.40 276.43 209.55 275.69 206.76 C 273.82 205.88 271.67 205.35 270.14 203.91 C 266.29 198.92 264.86 191.73 267.99 186.01 C 272.35 177.72 279.99 171.54 288.13 167.17 C 296.92 162.51 308.73 165.44 314.24 173.74 C 321.08 184.34 322.68 197.16 325.59 209.18 C 330.17 200.68 331.12 190.27 327.88 181.14 C 324.70 171.93 317.36 164.28 308.29 160.71 C 294.57 155.07 277.48 159.62 268.58 171.53 M 289.63 169.99 C 291.56 172.25 293.69 174.49 296.60 175.45 C 304.64 178.71 310.78 184.99 317.61 190.10 C 315.26 182.60 312.76 173.58 304.92 170.06 C 300.16 167.48 294.51 168.11 289.63 169.99 M 278.58 177.84 C 281.68 181.50 284.81 185.52 289.39 187.40 C 292.09 188.54 294.74 189.79 297.36 191.12 C 299.22 188.62 302.29 185.38 305.68 187.32 C 309.25 188.79 309.34 193.08 308.55 196.28 C 312.60 200.98 317.21 205.13 322.00 209.07 C 321.02 204.20 319.97 199.35 318.80 194.53 C 310.57 190.28 304.78 182.38 296.05 178.92 C 292.15 177.68 289.20 174.83 286.76 171.67 C 283.93 173.59 281.18 175.61 278.58 177.84 M 353.56 173.54 C 348.66 177.28 346.37 183.23 344.97 189.03 C 342.11 199.73 339.57 210.52 337.28 221.36 C 340.71 221.76 344.23 222.05 347.43 223.47 C 354.10 226.28 359.11 231.82 363.36 237.51 C 371.44 248.61 377.60 261.09 386.86 271.33 C 392.24 270.55 397.60 269.59 402.96 268.69 C 395.19 242.86 387.21 217.03 376.91 192.08 C 373.85 185.26 371.05 177.65 364.64 173.24 C 361.43 170.82 356.61 170.90 353.56 173.54 M 276.13 180.08 C 273.24 183.41 270.81 187.16 269.56 191.43 C 274.28 191.57 277.86 188.44 281.85 186.49 C 279.83 184.46 277.95 182.29 276.13 180.08 M 246.95 183.91 C 243.51 188.10 244.16 194.04 244.16 199.12 C 244.59 234.71 253.01 269.71 264.73 303.15 C 266.13 290.03 267.63 276.91 269.56 263.85 C 271.08 255.12 273.46 246.13 279.15 239.13 C 282.59 234.79 287.61 232.15 292.65 230.12 C 283.34 229.18 274.31 225.01 268.05 217.98 C 259.86 209.52 256.65 197.10 258.47 185.60 C 255.11 183.79 250.49 181.15 246.95 183.91 M 281.36 190.47 C 277.82 192.87 273.98 194.81 269.59 194.82 C 270.32 196.82 271.11 198.80 271.95 200.76 C 273.53 200.13 275.10 199.45 276.77 199.06 C 278.82 202.92 279.24 207.39 280.34 211.56 C 283.41 210.92 285.27 213.06 286.78 215.38 C 288.16 214.58 289.54 213.75 291.02 213.11 C 293.81 215.05 290.54 216.84 289.29 218.50 C 291.06 219.48 292.81 220.62 294.82 221.08 C 299.66 218.57 302.48 213.19 303.20 207.93 C 303.64 205.84 303.35 203.39 304.93 201.72 C 305.44 202.03 306.44 202.66 306.95 202.98 C 307.41 209.27 304.99 215.43 301.25 220.40 C 301.78 225.70 300.33 232.31 304.78 236.29 C 309.72 239.97 316.56 239.80 322.26 238.28 C 328.57 236.39 331.34 229.82 333.21 224.10 C 328.05 220.15 324.68 214.32 319.13 210.88 C 314.57 207.51 310.66 203.38 306.76 199.31 C 305.23 199.96 303.59 201.03 301.97 199.96 C 302.57 197.28 305.45 195.68 305.56 192.84 C 306.11 190.81 303.23 189.28 301.87 190.92 C 300.14 192.82 300.75 195.66 300.12 197.97 C 297.71 200.09 297.00 195.98 296.56 194.40 C 291.86 192.23 286.71 188.68 281.36 190.47 M 212.78 203.34 C 215.03 217.10 217.37 230.85 219.62 244.61 C 221.97 244.90 224.32 245.20 226.66 245.54 C 224.42 231.27 222.01 217.02 219.77 202.74 C 217.44 202.93 215.11 203.13 212.78 203.34 M 336.84 224.83 C 336.04 252.19 334.57 279.69 329.22 306.59 C 332.34 305.80 335.72 305.85 338.56 307.51 C 346.31 311.72 351.33 319.37 355.57 326.84 C 362.75 322.00 369.63 315.62 372.25 307.13 C 370.29 296.15 367.53 285.31 365.33 274.38 C 371.21 273.63 377.08 272.80 382.95 271.95 C 374.33 261.92 368.32 250.06 360.59 239.39 C 356.72 234.32 352.29 229.26 346.30 226.71 C 343.32 225.37 340.04 225.12 336.84 224.83 M 283.44 239.47 C 274.93 248.01 273.43 260.69 271.84 272.08 C 269.63 288.71 267.76 305.38 266.40 322.10 C 265.99 326.41 267.84 330.63 267.14 334.94 C 266.26 343.13 259.44 349.80 251.62 351.70 C 254.04 353.75 256.67 356.21 260.10 356.00 C 264.35 355.28 268.03 352.79 271.46 350.32 C 283.08 341.80 291.10 329.67 300.48 318.96 C 298.49 302.14 296.54 285.12 290.89 269.08 C 292.99 266.58 294.77 269.88 295.27 271.84 C 300.13 286.11 301.70 301.23 303.45 316.13 C 309.66 312.39 317.06 314.47 323.20 317.23 C 330.36 289.80 331.84 261.28 333.19 233.08 C 330.71 236.92 327.31 240.43 322.77 241.66 C 316.24 243.34 308.54 243.32 302.96 239.08 C 300.50 237.29 299.42 234.37 298.24 231.70 C 293.03 233.66 287.47 235.42 283.44 239.47 M 219.86 248.31 C 221.60 253.25 229.18 251.96 231.05 256.98 C 233.34 262.68 234.39 269.09 233.12 275.17 C 235.13 273.87 237.18 272.62 239.23 271.39 C 237.03 267.98 235.06 264.29 234.70 260.17 C 234.22 257.56 234.65 254.45 232.64 252.39 C 229.31 249.09 224.34 248.41 219.86 248.31 M 218.67 270.34 C 222.01 272.64 226.31 272.80 230.20 273.41 C 230.22 268.05 230.14 262.28 227.48 257.48 C 223.81 255.10 219.62 253.59 215.41 252.48 C 215.47 258.50 215.71 264.95 218.67 270.34 M 410.95 259.79 C 410.84 262.26 410.78 264.73 410.75 267.21 C 420.07 265.20 429.47 263.34 438.40 259.94 C 429.29 258.84 420.08 259.19 410.95 259.79 M 369.42 277.33 C 384.71 347.77 399.91 418.23 415.25 488.66 C 418.65 479.06 421.91 469.42 425.19 459.79 C 422.02 459.44 418.66 458.97 416.12 456.87 C 410.88 453.04 409.34 445.18 412.71 439.64 C 414.20 436.91 416.89 435.20 419.49 433.65 C 416.01 417.75 412.48 401.87 408.91 385.99 C 405.75 385.73 402.41 385.28 399.87 383.22 C 395.18 379.92 393.13 373.43 395.18 368.06 C 396.42 364.23 399.77 361.67 403.14 359.77 C 399.72 344.25 396.23 328.74 392.89 313.20 C 387.17 313.37 381.34 310.20 379.31 304.68 C 376.20 297.72 380.66 288.90 388.00 287.03 C 394.82 284.73 402.27 289.38 404.49 295.95 C 413.46 294.37 422.47 292.98 431.47 291.49 C 431.79 288.07 432.42 284.46 434.93 281.90 C 437.42 278.82 441.33 277.64 445.11 277.08 C 444.12 272.10 443.16 267.12 441.91 262.20 C 418.46 270.12 393.87 273.95 369.42 277.33 M 232.76 279.17 C 235.62 296.46 237.50 313.93 241.10 331.10 C 242.15 336.29 243.94 341.48 247.34 345.62 C 248.82 347.47 251.38 348.50 253.66 347.50 C 257.20 346.05 260.12 343.21 262.08 339.97 C 264.85 334.56 263.95 328.01 261.70 322.58 C 254.95 306.39 248.15 290.22 241.26 274.09 C 238.41 275.76 235.59 277.47 232.76 279.17 M 224.77 275.99 C 232.70 322.89 240.29 369.84 248.18 416.74 C 249.93 414.59 251.65 412.42 253.36 410.24 C 250.10 389.61 246.66 369.01 243.39 348.39 C 242.80 343.57 239.45 339.71 238.54 334.97 C 234.31 316.71 232.41 298.02 229.43 279.53 C 227.86 278.37 226.29 277.21 224.77 275.99 M 437.25 284.28 C 433.77 288.35 434.41 295.06 438.64 298.36 C 441.33 300.80 445.18 300.54 448.54 300.26 C 447.96 293.65 446.89 287.10 445.77 280.56 C 442.66 280.91 439.23 281.61 437.25 284.28 M 388.28 290.46 C 381.41 292.53 379.44 302.52 384.95 307.08 C 390.34 312.65 400.99 308.72 401.43 300.96 C 402.70 293.91 394.82 287.81 388.28 290.46 M 405.25 299.19 C 404.85 302.87 403.39 306.29 401.28 309.30 C 413.56 324.83 425.81 340.36 438.09 355.89 C 441.44 354.15 445.20 353.74 448.92 354.15 C 450.27 337.31 450.52 320.35 448.98 303.51 C 441.99 305.53 434.65 301.43 432.06 294.80 C 423.13 296.32 414.20 297.79 405.25 299.19 M 326.75 315.69 C 330.38 316.27 333.79 318.06 335.73 321.28 C 341.80 330.37 344.28 341.28 346.52 351.83 C 350.92 351.73 355.31 351.54 359.70 351.23 C 357.72 338.13 352.50 325.22 343.43 315.41 C 340.39 312.43 336.63 309.07 332.05 309.58 C 328.99 310.00 328.08 313.40 326.75 315.69 M 396.39 312.75 C 399.45 328.13 403.01 343.43 406.43 358.73 C 409.45 359.49 412.78 359.69 415.35 361.66 C 418.00 363.38 419.21 366.40 420.92 368.92 C 424.50 368.65 428.06 368.10 431.64 367.85 C 432.04 364.27 433.35 360.90 435.43 357.96 C 423.02 342.22 410.64 326.44 398.11 310.79 C 397.68 311.28 396.82 312.26 396.39 312.75 M 356.99 329.89 C 358.20 332.77 359.34 335.69 360.46 338.61 C 366.37 334.21 372.38 329.08 374.94 321.95 C 375.51 318.88 374.12 315.82 373.74 312.79 C 369.68 319.79 363.81 325.58 356.99 329.89 M 297.24 328.03 C 304.81 328.80 311.18 333.10 317.91 336.19 C 324.54 339.29 332.14 337.35 338.43 334.37 C 336.64 329.71 334.66 325.05 331.45 321.17 C 323.22 323.53 316.24 315.59 308.03 317.90 C 303.19 319.61 300.46 324.34 297.24 328.03 M 368.97 336.01 C 371.06 345.20 373.13 354.39 375.21 363.58 C 380.29 386.66 386.16 409.58 389.96 432.92 C 392.05 430.74 394.13 428.53 395.89 426.06 C 396.67 424.87 397.85 423.66 397.28 422.12 C 390.55 390.25 383.40 358.46 376.70 326.59 C 374.49 330.02 371.90 333.17 368.97 336.01 M 293.86 331.55 C 293.15 333.89 291.89 336.42 292.87 338.88 C 293.61 340.32 294.70 341.54 295.68 342.82 C 296.85 339.15 297.77 335.41 298.64 331.66 C 297.04 331.61 295.45 331.57 293.86 331.55 M 302.00 332.41 C 300.95 336.74 299.82 341.05 298.57 345.34 C 295.68 358.73 288.78 370.72 283.10 383.05 C 276.96 396.24 269.73 410.10 271.47 425.14 C 272.15 433.59 278.34 441.03 286.40 443.53 C 290.24 444.50 293.95 442.06 296.13 439.06 C 301.00 432.43 302.54 424.10 303.56 416.11 C 306.72 390.33 309.08 364.27 316.23 339.20 C 311.51 336.89 306.93 334.27 302.00 332.41 M 319.28 340.51 C 312.91 363.92 310.26 388.10 307.49 412.15 C 306.10 424.16 304.29 437.99 293.93 445.84 C 308.60 447.55 323.28 445.23 337.90 444.15 C 346.29 443.20 355.07 442.64 362.74 438.78 C 367.49 436.39 370.04 431.11 370.11 425.94 C 370.52 415.02 366.71 404.59 364.36 394.07 C 361.48 381.07 359.10 367.97 356.94 354.83 C 352.58 355.02 348.21 355.34 343.84 355.25 C 342.56 349.34 341.31 343.41 339.46 337.65 C 333.19 340.53 326.12 342.29 319.28 340.51 M 280.44 347.23 C 282.71 354.03 284.91 360.85 286.68 367.79 C 289.88 360.79 293.30 353.78 294.85 346.18 C 292.29 344.02 290.07 341.44 288.95 338.23 C 286.25 341.36 283.39 344.34 280.44 347.23 M 361.36 342.05 C 362.27 345.82 362.95 349.64 363.44 353.50 C 362.42 353.98 361.39 354.45 360.37 354.92 C 362.85 369.78 365.55 384.62 369.08 399.28 C 372.31 397.89 375.62 396.70 379.06 395.92 C 374.68 376.82 370.44 357.69 366.08 338.59 C 364.51 339.75 362.94 340.90 361.36 342.05 M 193.55 348.36 C 189.98 348.58 186.18 348.95 183.29 351.28 C 180.41 353.30 178.84 356.54 177.63 359.74 C 175.07 361.40 172.43 363.17 170.84 365.85 C 167.85 370.71 167.85 376.77 168.70 382.23 C 170.13 390.21 176.69 396.32 184.16 398.84 C 188.07 400.65 192.44 399.65 196.55 399.35 C 192.11 395.65 185.67 396.46 180.99 393.06 C 171.07 387.72 168.78 372.67 176.62 364.61 C 177.52 368.35 178.19 372.95 182.05 374.88 C 188.39 378.84 197.66 372.45 196.01 365.13 C 194.10 359.38 187.13 358.58 181.96 358.60 C 184.00 354.80 187.81 352.65 191.99 352.05 C 191.42 353.75 190.82 355.45 190.22 357.14 C 195.08 356.76 199.93 356.32 204.80 355.99 C 202.00 351.02 199.13 346.10 196.35 341.13 C 195.41 343.54 194.47 345.94 193.55 348.36 M 439.38 359.24 C 434.88 362.36 434.02 369.38 437.59 373.52 C 439.51 376.12 442.79 376.92 445.81 377.42 C 446.89 370.82 447.83 364.19 448.45 357.53 C 445.36 357.28 441.94 357.20 439.38 359.24 M 404.21 363.23 C 397.09 365.49 395.50 376.10 401.64 380.36 C 407.47 385.34 417.68 380.75 417.50 372.99 C 418.25 366.15 410.50 360.55 404.21 363.23 M 421.25 372.29 C 420.86 377.96 417.35 382.87 412.24 385.27 C 415.76 401.10 419.26 416.94 422.80 432.77 C 426.26 432.93 429.57 433.96 432.58 435.67 C 437.68 417.61 442.11 399.35 445.32 380.86 C 439.51 380.31 434.48 376.59 432.33 371.16 C 428.64 371.55 424.94 371.94 421.25 372.29 M 190.38 381.95 C 189.41 384.04 188.49 386.14 187.58 388.26 C 191.75 391.48 195.93 394.68 200.12 397.88 C 201.43 399.01 203.34 400.02 203.05 402.06 C 196.52 403.67 189.61 402.85 182.94 403.62 C 181.51 403.33 181.04 404.77 180.32 405.65 C 184.88 407.26 189.64 408.58 193.60 411.46 C 196.73 413.51 199.21 416.81 203.06 417.56 C 206.42 418.51 209.81 417.25 213.02 416.34 C 213.43 417.46 213.86 418.65 213.44 419.86 C 211.17 429.02 208.92 438.20 206.20 447.25 C 203.65 455.27 203.04 463.72 202.32 472.05 C 201.79 476.05 204.24 479.57 205.43 483.23 C 207.40 480.99 209.37 478.73 211.48 476.62 C 212.13 477.35 212.66 478.17 213.07 479.06 C 210.86 482.52 208.13 485.72 205.00 488.39 C 204.66 488.14 203.98 487.65 203.64 487.40 C 200.35 480.18 197.81 472.62 194.72 465.31 C 192.61 461.14 193.46 456.37 192.47 451.94 C 188.86 450.99 185.61 449.17 182.16 447.83 C 180.69 448.02 179.25 448.41 177.89 448.99 C 179.25 450.32 180.67 451.60 182.04 452.94 C 180.65 453.93 179.23 454.89 177.86 455.91 C 179.56 457.31 181.44 458.49 183.17 459.87 C 182.31 460.91 181.44 461.95 180.56 462.99 C 183.03 463.26 185.59 463.18 187.99 463.95 C 188.88 465.15 188.96 466.71 189.32 468.13 C 190.96 477.07 192.11 486.47 189.37 495.32 C 192.52 499.28 195.28 503.52 198.26 507.61 C 199.61 509.32 200.93 511.26 203.01 512.18 C 208.78 510.13 212.97 505.34 217.57 501.51 C 218.19 502.27 218.78 503.06 219.34 503.89 C 216.01 508.06 211.55 511.16 207.18 514.16 C 208.60 518.24 210.28 522.23 212.09 526.16 C 217.66 525.45 223.38 524.32 228.16 521.19 C 233.39 517.90 237.36 512.34 237.90 506.09 C 238.49 498.02 238.64 489.57 242.15 482.12 C 246.10 474.12 255.89 471.88 260.70 464.62 C 263.86 460.08 264.94 454.51 265.52 449.11 C 263.29 451.13 259.86 454.78 256.79 451.98 C 259.75 445.77 262.70 439.43 263.39 432.48 C 261.16 434.50 258.97 436.55 256.67 438.48 C 256.17 437.49 254.75 436.61 255.51 435.39 C 257.23 431.02 258.97 426.64 259.87 422.01 C 257.87 424.01 256.16 426.33 253.86 428.01 C 252.60 429.64 250.53 427.68 251.38 426.21 C 253.09 421.90 254.74 417.57 255.61 413.00 C 250.18 420.06 243.82 426.42 236.57 431.60 C 227.36 438.19 221.52 448.45 218.31 459.13 C 217.97 461.87 214.09 460.17 215.23 458.03 C 218.38 446.15 225.55 435.27 235.57 428.08 C 235.03 422.43 234.33 416.75 235.01 411.08 C 233.30 411.14 231.59 411.26 229.89 411.12 C 227.89 408.02 232.17 408.11 234.08 407.35 C 238.07 406.05 238.92 401.39 239.91 397.86 C 236.63 397.87 233.10 398.23 230.68 400.72 C 228.93 401.86 227.66 404.61 225.22 403.84 C 223.72 401.20 227.32 399.52 228.65 397.68 C 226.22 396.49 223.53 395.49 221.85 393.26 C 220.76 392.23 220.00 390.18 218.15 390.66 C 213.20 391.29 208.02 391.76 203.34 389.60 C 198.40 388.09 195.34 383.38 190.38 381.95 M 178.32 419.03 C 179.72 420.57 181.31 422.04 182.11 424.01 C 181.57 426.32 178.83 426.69 177.08 427.77 C 178.78 428.90 180.46 430.08 182.11 431.31 C 180.72 432.62 179.24 433.84 177.75 435.03 C 181.24 436.68 185.14 436.15 188.80 436.96 C 190.27 440.36 190.95 444.04 192.09 447.56 C 194.97 449.39 196.65 452.53 196.47 455.98 C 196.18 460.08 197.64 463.93 199.27 467.61 C 199.66 462.04 200.78 456.55 201.36 451.01 C 200.43 446.44 199.39 441.81 197.52 437.53 C 192.92 431.25 188.16 425.08 183.76 418.65 C 181.95 418.79 180.13 418.92 178.32 419.03 M 414.53 448.51 C 415.51 453.66 421.01 457.09 426.10 456.10 C 428.39 450.60 429.84 444.78 431.43 439.05 C 429.10 437.79 426.70 436.22 423.93 436.50 C 417.85 436.20 413.00 442.74 414.53 448.51 M 278.78 443.63 C 278.80 456.80 278.82 470.09 281.40 483.06 C 280.01 500.08 280.22 517.29 282.36 534.24 C 276.53 538.14 270.86 542.33 264.62 545.58 C 259.25 547.63 259.69 555.55 262.87 559.33 C 268.79 558.28 274.03 555.06 279.39 552.49 C 283.64 550.15 288.09 548.02 291.87 544.94 C 295.04 542.26 293.95 537.65 294.34 534.00 C 294.39 517.12 298.94 500.70 300.23 483.93 C 300.55 480.58 300.50 477.11 301.88 473.97 C 304.97 466.31 306.55 458.17 307.97 450.07 C 297.95 450.04 287.51 448.98 278.78 443.63 M 329.75 448.31 C 330.80 455.57 331.70 462.86 333.15 470.06 C 334.23 474.66 332.82 479.31 332.69 483.94 C 331.49 495.65 333.33 507.44 331.80 519.12 C 331.17 527.49 328.19 535.58 328.55 544.02 C 328.59 547.28 330.59 550.02 332.27 552.66 C 335.99 558.44 341.06 563.37 347.01 566.83 C 350.42 568.72 354.73 569.95 358.50 568.47 C 360.87 567.71 360.03 564.58 359.13 562.94 C 355.05 555.88 348.24 550.79 344.37 543.59 C 342.26 539.86 342.96 535.42 343.60 531.41 C 347.26 511.32 353.55 491.76 356.35 471.50 C 356.67 462.07 358.69 452.84 360.44 443.60 C 350.51 446.73 340.05 447.36 329.75 448.31 M 257.47 472.81 C 258.87 481.09 260.18 489.38 261.56 497.66 C 259.81 496.81 258.06 495.95 256.30 495.11 C 260.17 503.22 263.97 511.37 267.96 519.41 C 269.46 510.44 270.79 501.44 272.24 492.46 C 270.65 494.02 269.07 495.58 267.49 497.15 C 265.92 487.34 264.28 477.54 262.74 467.73 C 261.00 469.43 259.24 471.14 257.47 472.81 M 382.90 485.94 C 378.09 491.04 376.40 498.04 374.32 504.52 C 370.79 516.06 367.86 528.07 361.32 538.37 C 358.87 542.35 355.31 545.51 351.24 547.77 C 355.14 552.24 359.18 556.62 362.44 561.60 C 373.18 546.63 377.18 528.27 380.60 510.50 C 382.90 501.34 386.30 491.89 393.17 485.12 C 397.47 480.69 403.85 479.73 409.66 478.78 C 409.18 476.70 408.72 474.64 408.23 472.58 C 398.76 474.49 389.55 478.82 382.90 485.94 M 421.64 480.68 C 423.33 482.50 425.39 484.39 425.52 487.07 C 425.75 490.88 424.06 494.71 421.33 497.34 C 416.23 502.27 409.68 505.22 403.56 508.63 C 397.79 512.37 396.51 519.62 394.59 525.71 C 392.85 526.99 390.36 524.10 388.18 524.08 C 385.99 528.47 385.93 533.57 384.69 538.27 C 386.03 537.53 387.38 536.81 388.74 536.11 C 390.87 540.43 387.04 544.96 386.56 549.34 C 390.30 546.37 393.81 542.98 395.82 538.57 C 396.73 536.41 398.67 539.03 399.83 539.48 C 402.24 535.95 405.64 532.45 405.52 527.87 C 403.49 526.18 400.17 527.32 398.38 525.23 C 400.16 521.02 402.43 516.91 405.55 513.54 C 409.60 509.33 416.05 509.16 420.33 505.27 C 425.70 500.76 430.96 494.53 430.43 487.06 C 430.19 482.37 426.66 478.92 423.43 475.94 C 422.81 477.51 422.21 479.09 421.64 480.68 M 241.39 505.08 C 241.08 511.29 238.01 517.19 233.43 521.33 C 228.11 526.25 220.93 528.36 213.92 529.41 C 217.75 536.09 222.23 542.37 226.98 548.43 C 234.09 546.68 241.16 543.70 246.36 538.40 C 254.75 530.04 255.64 516.03 250.18 505.87 C 247.25 499.56 245.55 492.79 244.07 486.02 C 242.22 492.21 241.76 498.67 241.39 505.08 M 257.13 518.42 C 257.04 524.41 256.03 530.59 252.71 535.69 C 247.59 543.98 238.50 548.81 229.36 551.38 C 235.19 558.06 241.40 564.42 248.29 570.03 C 252.67 567.86 256.84 565.26 260.59 562.13 C 256.73 557.35 255.70 549.67 259.80 544.77 C 264.53 541.52 269.74 538.95 274.41 535.57 C 267.67 530.96 261.78 525.14 257.13 518.42 M 297.85 536.12 C 297.75 537.55 297.64 538.98 297.53 540.42 C 298.77 540.83 300.01 541.24 301.26 541.66 C 306.51 536.82 312.87 533.16 319.96 531.87 C 317.17 530.58 314.20 529.19 311.05 529.61 C 305.97 529.98 301.69 533.04 297.85 536.12 M 304.53 543.12 C 308.39 545.57 312.22 548.29 314.74 552.20 C 319.07 558.18 320.11 565.79 319.65 573.00 C 324.41 567.32 327.83 560.41 328.34 552.92 C 327.04 550.46 325.41 548.02 325.21 545.17 C 324.95 542.02 325.33 538.79 324.24 535.76 C 316.79 534.55 310.08 538.65 304.53 543.12 M 292.74 548.85 C 293.84 554.08 294.38 559.60 292.71 564.79 C 290.54 573.01 284.64 579.63 277.95 584.60 C 285.72 586.48 294.04 587.51 301.78 584.88 C 306.75 583.15 312.05 580.89 315.35 576.63 C 317.04 569.28 316.61 560.96 312.30 554.53 C 308.82 549.13 303.03 545.80 297.10 543.73 C 295.76 545.53 294.31 547.24 292.74 548.85 M 265.47 562.53 C 260.95 566.07 256.55 569.81 251.35 572.37 C 258.04 577.46 265.78 580.85 273.78 583.29 C 279.60 579.37 285.07 574.47 287.99 567.96 C 290.70 562.64 290.49 556.49 289.80 550.73 C 282.03 555.35 273.81 559.10 265.47 562.53 M 331.30 557.08 C 329.19 568.21 321.57 577.34 312.54 583.75 C 318.35 585.96 324.68 587.38 330.90 586.22 C 339.93 584.79 347.52 579.03 353.77 572.66 C 344.46 571.03 336.83 564.41 331.30 557.08 Z" />
<path fill="#932636" opacity="1.00" d=" M 178.29 156.91 C 180.82 153.19 184.11 150.08 187.23 146.88 C 186.85 148.23 186.39 149.56 186.10 150.94 C 188.19 154.10 191.38 156.30 194.03 158.95 C 200.59 165.36 207.72 171.20 213.85 178.02 C 198.82 179.06 183.71 178.96 168.66 178.51 C 176.24 185.00 183.25 192.25 191.46 197.95 C 193.01 197.10 194.56 196.25 196.10 195.40 C 193.22 199.11 190.04 202.65 186.35 205.58 C 186.98 204.23 187.67 202.89 188.36 201.56 C 179.73 191.62 168.85 183.84 160.14 173.96 C 175.38 174.04 190.62 174.00 205.86 173.98 C 200.30 168.97 194.67 164.03 189.11 159.01 C 187.16 157.30 185.30 155.44 182.98 154.25 C 181.33 154.99 179.88 156.08 178.29 156.91 Z" />
<path fill="#932636" opacity="1.00" d=" M 436.23 154.94 C 439.65 157.94 442.92 161.15 445.62 164.83 C 444.33 164.21 443.06 163.57 441.79 162.92 C 435.13 168.10 429.43 174.39 423.19 180.06 C 420.66 182.61 417.77 184.91 415.90 188.02 C 416.49 189.70 417.36 191.26 418.07 192.91 C 414.32 189.57 411.01 185.76 407.78 181.94 C 408.98 182.51 410.18 183.09 411.38 183.70 C 416.62 180.29 420.78 175.55 425.36 171.36 C 429.55 167.19 434.17 163.43 437.88 158.81 C 437.47 157.84 436.64 155.91 436.23 154.94 Z" />
<path fill="#932636" opacity="1.00" d=" M 451.66 170.48 C 454.93 174.31 457.98 178.36 460.77 182.57 C 459.51 181.86 458.27 181.15 457.04 180.44 C 451.11 189.69 445.25 198.98 439.40 208.29 C 450.03 205.29 460.86 202.80 471.17 198.77 C 470.68 197.36 470.22 195.93 469.79 194.50 C 472.70 197.78 475.29 201.35 477.71 205.00 C 476.17 204.17 474.74 203.10 473.09 202.52 C 459.19 205.32 445.71 210.15 431.69 212.38 C 436.48 203.44 442.10 194.98 447.20 186.22 C 449.11 182.80 451.64 179.68 452.99 175.98 C 452.87 174.08 452.10 172.31 451.66 170.48 Z" />
<path fill="#932636" opacity="1.00" d=" M 612.72 194.88 C 619.31 190.76 625.90 186.62 632.55 182.56 C 632.56 194.78 632.55 207.00 632.55 219.21 C 642.03 219.19 651.51 219.20 661.00 219.21 C 661.00 224.33 661.02 229.45 660.97 234.58 C 651.49 234.52 642.02 234.57 632.55 234.55 C 632.55 251.70 632.56 268.85 632.55 286.00 C 632.52 292.73 632.00 300.67 637.21 305.79 C 643.26 311.05 652.11 309.67 659.30 308.05 C 659.27 313.20 659.28 318.36 659.28 323.51 C 648.04 325.41 635.92 326.23 625.14 321.87 C 617.20 318.80 612.70 310.27 612.73 302.03 C 612.68 279.53 612.75 257.03 612.71 234.54 C 606.54 234.56 600.37 234.55 594.21 234.55 C 594.20 229.44 594.20 224.33 594.21 219.22 C 600.38 219.19 606.55 219.20 612.72 219.21 C 612.71 211.10 612.71 202.99 612.72 194.88 Z" />
<path fill="#932636" opacity="1.00" d=" M 150.31 188.52 C 152.27 190.28 154.26 192.00 156.11 193.88 C 154.98 193.56 152.73 192.93 151.60 192.61 C 149.12 195.04 147.04 197.83 145.03 200.65 C 149.16 203.55 153.32 206.42 157.47 209.30 C 159.76 205.90 162.52 202.66 163.45 198.56 C 165.50 200.52 167.64 202.39 169.60 204.44 C 168.24 203.99 166.89 203.53 165.54 203.06 C 163.17 205.31 161.22 207.93 159.27 210.53 C 164.08 213.54 168.23 217.90 173.64 219.78 C 176.61 217.67 178.70 214.38 179.83 210.95 C 179.09 209.22 178.08 207.63 177.22 205.96 C 179.38 207.43 181.56 208.97 183.11 211.11 C 179.96 217.87 174.32 223.14 170.55 229.56 C 170.60 228.49 170.70 226.34 170.75 225.27 C 164.89 219.65 157.66 215.69 151.19 210.82 C 148.13 208.79 145.31 206.34 141.92 204.85 C 140.35 205.62 138.95 206.68 137.45 207.57 C 141.54 201.09 146.60 195.25 150.31 188.52 Z" />
<path fill="#932636" opacity="1.00" d=" M 280.29 198.31 C 283.21 196.80 286.40 195.68 289.66 195.20 C 292.66 196.97 288.82 198.89 287.08 199.51 C 285.97 200.82 285.25 203.33 283.09 202.79 C 281.08 202.61 280.01 200.14 280.29 198.31 Z" />
<path fill="#932636" opacity="1.00" d=" M 481.56 211.64 C 485.59 218.13 488.74 225.17 493.32 231.32 C 490.86 232.33 488.44 233.42 485.96 234.38 C 486.84 232.78 489.35 231.51 488.54 229.43 C 487.64 226.57 485.94 224.06 484.55 221.43 C 480.16 223.88 475.83 226.45 471.45 228.92 C 473.52 232.47 475.20 236.47 478.70 238.89 C 475.98 239.90 473.34 241.09 470.69 242.25 C 471.44 241.34 472.95 239.54 473.71 238.64 C 472.49 235.69 471.02 232.85 469.46 230.08 C 465.40 232.53 461.15 234.66 457.17 237.23 C 456.01 237.92 454.75 239.19 455.37 240.66 C 456.29 243.16 457.57 245.62 459.45 247.54 C 461.10 249.58 463.84 248.08 466.05 248.23 C 463.75 249.66 461.25 250.73 458.73 251.67 C 454.53 245.35 451.26 238.46 447.55 231.86 C 448.72 232.72 449.87 233.61 451.04 234.50 C 458.17 231.48 464.63 227.14 471.39 223.41 C 474.94 221.26 478.79 219.51 481.99 216.83 C 481.88 215.10 481.74 213.36 481.56 211.64 Z" />
<path fill="#932636" opacity="1.00" d=" M 688.75 221.72 C 698.10 216.68 709.26 215.84 719.60 217.62 C 728.38 219.17 736.48 224.39 741.20 231.99 C 747.11 241.33 748.17 252.76 747.79 263.55 C 727.83 263.56 707.86 263.54 687.89 263.56 C 688.35 275.19 691.10 287.20 698.49 296.48 C 703.92 303.49 712.20 308.24 721.05 309.20 C 729.36 310.22 737.74 308.52 745.56 305.73 C 745.55 310.99 745.55 316.25 745.55 321.51 C 728.78 325.39 710.25 327.48 694.23 319.77 C 681.39 313.71 673.36 300.61 670.44 287.09 C 667.54 273.30 667.11 258.69 670.99 245.05 C 673.75 235.45 679.79 226.48 688.75 221.72 M 697.62 235.56 C 692.52 238.72 689.69 244.43 688.68 250.19 C 701.86 250.21 715.04 250.21 728.22 250.19 C 727.72 245.97 726.71 241.55 723.71 238.35 C 717.33 231.05 705.54 230.54 697.62 235.56 Z" />
<path fill="#932636" opacity="1.00" d=" M 777.42 224.28 C 786.80 217.62 798.85 215.96 810.08 217.10 C 818.68 217.89 827.44 221.26 833.12 228.00 C 839.01 234.83 840.91 244.16 840.88 252.97 C 833.35 253.03 825.82 252.98 818.30 253.01 C 818.15 247.51 817.59 241.52 813.94 237.11 C 809.46 231.62 801.13 231.11 795.02 233.91 C 789.05 236.79 785.63 242.99 783.80 249.10 C 780.83 259.46 781.26 270.62 784.06 280.97 C 786.71 290.61 792.63 299.71 801.59 304.52 C 812.94 310.70 826.79 310.59 839.01 307.34 C 838.99 311.93 838.99 316.53 839.00 321.13 C 825.45 324.90 810.91 326.37 797.05 323.55 C 782.80 320.65 770.72 310.12 765.31 296.70 C 759.22 282.07 758.46 265.48 761.58 250.05 C 763.81 240.05 768.92 230.30 777.42 224.28 Z" />
<path fill="#932636" opacity="1.00" d=" M 888.72 221.79 C 896.68 216.62 906.95 215.57 916.02 218.03 C 923.42 220.05 929.18 226.16 931.78 233.25 C 934.69 240.80 934.80 249.03 934.80 257.01 C 934.79 278.86 934.81 300.70 934.79 322.54 C 928.19 322.56 921.60 322.54 915.00 322.55 C 914.82 299.68 915.39 276.79 914.64 253.92 C 914.31 248.40 913.79 241.63 908.62 238.37 C 903.01 235.38 895.84 236.29 890.64 239.73 C 884.76 243.53 881.05 249.81 878.43 256.14 C 875.28 264.02 873.66 272.52 873.78 281.01 C 873.81 294.85 873.80 308.70 873.79 322.55 C 867.20 322.56 860.61 322.54 854.02 322.57 C 853.98 288.11 854.01 253.66 854.00 219.21 C 860.60 219.20 867.19 219.19 873.79 219.21 C 873.80 226.61 873.78 234.01 873.80 241.41 C 876.99 233.77 881.60 226.34 888.72 221.79 Z" />
<path fill="#932636" opacity="1.00" d=" M 1098.97 220.89 C 1107.29 216.34 1117.62 215.46 1126.57 218.61 C 1133.76 221.18 1138.92 227.68 1141.18 234.82 C 1144.52 244.86 1143.34 255.58 1143.55 265.97 C 1143.55 284.83 1143.55 303.69 1143.55 322.55 C 1136.93 322.56 1130.32 322.55 1123.71 322.54 C 1123.72 305.70 1123.71 288.86 1123.72 272.01 C 1123.65 263.97 1124.03 255.88 1122.86 247.89 C 1122.23 243.83 1120.34 239.47 1116.31 237.79 C 1108.30 234.49 1098.95 238.18 1093.85 244.80 C 1085.79 254.94 1082.69 268.24 1082.57 280.98 C 1082.52 294.83 1082.56 308.69 1082.56 322.55 C 1076.04 322.56 1069.52 322.54 1063.01 322.56 C 1062.97 288.11 1063.03 253.66 1062.99 219.21 C 1069.50 219.20 1076.01 219.20 1082.53 219.20 C 1082.57 226.64 1082.55 234.08 1082.54 241.52 C 1086.03 233.36 1091.04 225.36 1098.97 220.89 Z" />
<path fill="#932636" opacity="1.00" d=" M 957.72 219.20 C 964.32 219.20 970.93 219.19 977.54 219.21 C 977.60 241.12 977.48 263.03 977.60 284.94 C 977.93 290.54 977.84 296.84 981.52 301.47 C 985.43 305.72 992.07 305.87 997.26 304.24 C 1005.27 301.51 1010.36 294.01 1013.57 286.57 C 1016.63 279.10 1018.55 271.08 1018.46 262.98 C 1018.44 248.39 1018.44 233.80 1018.46 219.21 C 1025.06 219.19 1031.67 219.20 1038.28 219.21 C 1038.28 253.66 1038.29 288.10 1038.27 322.55 C 1031.66 322.55 1025.06 322.56 1018.45 322.54 C 1018.47 315.22 1018.37 307.90 1018.52 300.59 C 1014.95 309.84 1008.53 318.56 999.11 322.41 C 990.79 325.72 980.96 326.12 972.74 322.31 C 965.50 318.98 960.97 311.62 959.22 304.07 C 957.26 296.51 957.76 288.66 957.72 280.94 C 957.71 260.36 957.71 239.78 957.72 219.20 Z" />
<path fill="#932636" opacity="1.00" d=" M 127.18 228.17 C 130.63 225.82 135.60 226.35 138.61 229.20 C 141.66 231.60 143.00 235.36 144.31 238.87 C 150.16 237.59 156.18 236.95 161.90 235.13 C 165.17 234.24 167.13 231.34 169.38 229.06 C 167.75 233.31 165.96 238.66 161.10 240.10 C 155.50 241.76 149.61 241.98 143.92 243.22 C 142.24 244.88 141.45 247.24 140.24 249.24 C 144.65 251.66 149.05 254.19 153.86 255.74 C 155.03 254.36 156.19 252.97 157.41 251.64 C 155.93 256.39 153.14 260.59 150.87 264.98 C 150.98 262.76 151.25 260.20 148.78 259.23 C 139.78 254.08 130.54 249.33 121.26 244.72 C 118.73 242.94 117.24 246.27 115.43 247.50 C 116.77 243.96 118.83 240.78 120.42 237.37 C 122.08 233.94 123.94 230.36 127.18 228.17 M 121.71 239.58 C 127.12 242.45 132.52 245.33 138.00 248.08 C 139.87 245.18 143.22 241.95 141.71 238.21 C 139.44 233.74 133.98 231.04 129.06 231.69 C 125.04 232.32 123.19 236.27 121.71 239.58 Z" />
<path fill="#932636" opacity="1.00" d=" M 499.90 245.07 C 502.02 249.73 503.99 254.46 505.94 259.20 C 507.68 263.60 507.77 269.53 503.56 272.58 C 498.94 276.00 492.83 274.59 487.89 272.69 C 484.94 278.12 481.55 283.36 479.26 289.12 C 477.98 292.09 479.08 295.26 479.29 298.32 C 477.14 294.11 473.95 289.09 476.33 284.32 C 478.77 279.05 482.11 274.26 485.02 269.24 C 484.18 267.10 483.34 264.95 482.51 262.81 C 478.02 264.84 473.07 266.13 469.10 269.14 C 469.08 270.95 469.38 272.74 469.51 274.55 C 467.13 270.15 465.41 265.44 463.60 260.80 C 465.23 261.95 466.65 264.43 468.94 263.13 C 476.57 260.63 483.82 257.09 491.31 254.20 C 494.19 252.88 497.45 252.09 499.86 249.94 C 499.91 248.31 499.93 246.69 499.90 245.07 M 484.74 261.87 C 485.77 265.46 486.53 270.65 491.03 271.34 C 495.91 271.72 501.39 269.23 503.54 264.66 C 505.14 261.32 503.12 257.88 501.82 254.84 C 496.10 257.14 490.43 259.52 484.74 261.87 Z" />
<path fill="#932636" opacity="1.00" d=" M 142.96 271.93 C 146.21 270.54 147.87 267.27 150.02 264.68 C 148.66 269.14 147.79 274.95 142.92 276.97 C 137.57 279.27 131.87 280.64 126.34 282.41 C 125.52 284.58 124.71 286.76 123.90 288.93 C 128.58 290.50 133.16 292.57 138.07 293.28 C 139.29 291.95 140.21 290.38 141.27 288.93 C 140.48 293.33 138.58 297.41 137.30 301.67 C 137.07 301.90 136.62 302.38 136.39 302.61 C 136.39 301.40 136.33 300.20 136.19 299.01 C 132.58 296.34 128.06 295.44 123.95 293.83 C 116.92 291.55 110.10 288.58 102.94 286.76 C 101.49 287.78 100.31 289.12 99.03 290.33 C 101.10 284.91 102.63 279.29 104.94 273.98 C 106.69 269.73 111.36 266.76 115.99 267.86 C 121.10 268.95 124.23 273.58 126.39 277.98 C 131.94 276.03 137.62 274.40 142.96 271.93 M 109.55 273.48 C 106.16 274.97 105.14 278.81 104.25 282.05 C 110.03 283.91 115.63 286.48 121.56 287.81 C 123.62 284.75 125.98 280.19 123.19 276.87 C 119.83 273.37 114.15 271.53 109.55 273.48 Z" />
<path fill="#932636" opacity="1.00" d=" M 502.24 299.43 C 505.16 294.62 512.33 292.38 517.01 295.98 C 521.34 299.32 521.68 305.25 522.07 310.25 C 519.54 310.79 517.01 311.30 514.47 311.72 C 516.50 309.87 519.63 308.22 519.20 304.96 C 519.48 300.40 514.75 295.62 510.23 298.28 C 505.10 301.59 504.61 308.48 501.09 313.11 C 497.74 318.91 489.03 320.51 483.96 316.09 C 480.01 312.25 478.72 306.21 479.75 300.91 C 482.55 299.78 485.59 299.41 488.56 298.92 C 486.32 300.77 482.88 301.85 482.31 305.08 C 480.75 310.33 485.86 316.93 491.52 314.70 C 497.81 312.13 498.45 304.33 502.24 299.43 Z" />
<path fill="#932636" opacity="1.00" d=" M 130.13 311.39 C 132.94 310.78 133.89 307.82 135.38 305.76 C 134.94 309.45 134.17 313.10 133.40 316.74 C 127.97 316.36 122.70 318.08 117.38 318.90 C 116.69 322.71 115.98 326.51 115.27 330.32 C 119.36 332.64 123.36 335.14 127.72 336.97 C 128.53 335.76 129.33 334.54 130.17 333.36 C 129.48 337.85 128.77 342.35 127.65 346.76 C 126.94 344.46 127.54 341.27 125.07 339.90 C 113.93 332.79 102.20 326.57 91.15 319.29 C 103.93 315.78 117.31 314.75 130.13 311.39 M 99.62 321.63 C 104.09 324.20 108.63 326.63 113.18 329.06 C 113.83 325.79 114.43 322.51 115.05 319.23 C 109.91 320.02 104.76 320.77 99.62 321.63 Z" />
<path fill="#932636" opacity="1.00" d=" M 525.11 326.46 C 525.84 330.91 526.35 335.39 527.03 339.85 C 526.07 338.58 525.20 337.22 524.08 336.10 C 516.33 336.64 508.68 338.06 500.98 339.01 C 497.02 339.68 492.90 339.79 489.15 341.35 C 488.60 343.02 488.37 344.77 487.98 346.48 C 487.00 341.61 486.50 336.65 485.82 331.73 C 487.01 333.17 487.59 335.86 489.98 335.42 C 497.08 335.08 504.07 333.67 511.12 332.84 C 515.26 332.12 519.60 332.11 523.55 330.55 C 524.13 329.21 524.65 327.85 525.11 326.46 Z" />
<path fill="#932636" opacity="1.00" d=" M 89.03 334.87 C 90.08 336.78 90.41 339.45 92.63 340.45 C 104.74 346.75 117.60 351.68 129.24 358.85 C 116.66 363.69 103.69 367.49 91.02 372.10 C 88.43 372.95 88.15 376.02 86.97 378.09 C 86.97 373.43 87.54 368.81 87.49 364.16 C 87.65 363.88 87.98 363.34 88.14 363.07 C 88.50 364.34 88.86 365.61 89.23 366.89 C 98.23 364.23 107.12 361.24 116.10 358.53 C 117.46 358.03 118.99 357.79 120.08 356.76 C 110.31 352.08 100.51 347.30 90.26 343.75 C 89.90 344.74 89.17 346.71 88.81 347.70 C 88.48 343.42 89.13 339.15 89.03 334.87 Z" />
<path fill="#932636" opacity="1.00" d=" M 593.45 344.21 C 597.48 344.20 601.51 344.20 605.55 344.20 C 605.55 366.80 605.56 389.40 605.54 412.00 C 605.67 418.35 605.52 424.98 608.13 430.91 C 610.09 435.95 614.76 439.55 620.01 440.60 C 626.43 441.81 633.55 441.51 639.32 438.13 C 647.46 433.20 647.93 422.51 647.73 414.01 C 647.71 390.74 647.71 367.47 647.73 344.20 C 651.81 344.20 655.90 344.20 660.00 344.20 C 660.00 368.80 660.01 393.39 659.99 417.99 C 659.91 426.76 658.25 436.33 651.85 442.83 C 645.39 449.39 635.83 451.26 626.98 451.52 C 618.31 451.64 608.83 449.91 602.52 443.49 C 595.76 436.96 593.64 427.17 593.44 418.10 C 593.45 393.47 593.44 368.84 593.45 344.21 Z" />
<path fill="#932636" opacity="1.00" d=" M 744.21 344.21 C 748.80 344.20 753.40 344.20 758.00 344.20 C 758.00 348.89 758.00 353.59 758.00 358.29 C 753.40 358.28 748.80 358.29 744.20 358.28 C 744.20 353.59 744.19 348.90 744.21 344.21 Z" />
<path fill="#932636" opacity="1.00" d=" M 1010.21 344.21 C 1014.89 344.19 1019.58 344.20 1024.27 344.20 C 1024.28 348.90 1024.28 353.59 1024.28 358.29 C 1019.58 358.28 1014.89 358.29 1010.21 358.28 C 1010.20 353.59 1010.20 348.90 1010.21 344.21 Z" />
<path fill="#932636" opacity="1.00" d=" M 1081.72 344.21 C 1085.33 344.20 1088.93 344.20 1092.55 344.21 C 1092.55 379.40 1092.56 414.59 1092.54 449.78 C 1088.93 449.80 1085.32 449.79 1081.72 449.80 C 1081.71 445.82 1081.66 441.85 1081.79 437.88 C 1079.59 443.22 1075.65 448.05 1070.15 450.15 C 1061.18 453.44 1049.84 450.73 1044.36 442.61 C 1038.56 433.98 1037.77 423.13 1037.70 413.03 C 1038.00 402.22 1039.67 390.49 1047.01 382.05 C 1054.42 373.18 1069.91 372.67 1077.60 381.41 C 1079.39 383.44 1080.56 385.91 1081.81 388.30 C 1081.60 373.60 1081.76 358.90 1081.72 344.21 M 1062.49 384.52 C 1059.09 385.25 1056.41 387.78 1054.73 390.73 C 1051.09 397.15 1050.39 404.72 1050.01 411.95 C 1049.88 420.53 1049.83 429.91 1054.78 437.34 C 1058.69 443.31 1068.07 444.20 1073.07 439.10 C 1079.13 433.12 1081.14 424.25 1081.68 416.02 C 1081.94 407.64 1081.01 398.79 1076.66 391.44 C 1073.81 386.64 1068.21 383.06 1062.49 384.52 Z" />
<path fill="#932636" opacity="1.00" d=" M 1216.46 344.20 C 1219.97 344.20 1223.48 344.20 1227.00 344.20 C 1227.01 379.40 1226.98 414.59 1227.00 449.79 C 1223.48 449.80 1219.97 449.80 1216.46 449.79 C 1216.43 445.75 1216.38 441.71 1216.57 437.67 C 1214.52 442.54 1211.27 447.14 1206.39 449.47 C 1197.53 453.61 1185.64 451.43 1179.69 443.40 C 1174.03 435.89 1172.83 426.12 1172.45 417.01 C 1172.20 405.28 1173.55 392.58 1180.89 382.96 C 1187.46 374.19 1201.32 372.61 1209.96 379.16 C 1213.07 381.49 1214.86 385.02 1216.55 388.43 C 1216.33 373.69 1216.48 358.94 1216.46 344.20 M 1196.43 384.73 C 1192.70 385.87 1190.02 389.09 1188.50 392.54 C 1185.16 399.85 1184.77 408.04 1184.61 415.95 C 1184.73 422.85 1185.24 430.13 1188.76 436.26 C 1191.13 440.50 1196.12 443.09 1200.97 442.36 C 1206.14 441.76 1209.98 437.50 1212.20 433.08 C 1216.80 423.64 1217.34 412.64 1215.41 402.44 C 1214.21 396.86 1212.20 391.03 1207.75 387.20 C 1204.71 384.52 1200.29 383.54 1196.43 384.73 Z" />
<path fill="#932636" opacity="1.00" d=" M 521.43 352.58 C 523.98 352.91 526.53 353.36 529.06 353.89 C 528.04 364.56 528.62 375.35 529.28 386.02 C 526.61 386.01 523.94 386.04 521.28 385.96 C 522.53 385.34 523.80 384.77 525.09 384.23 C 526.71 380.32 526.15 376.05 526.20 371.94 C 514.42 372.77 502.52 371.72 490.81 373.34 C 490.29 375.14 489.79 376.95 489.15 378.72 C 488.85 373.64 488.97 368.54 489.01 363.45 C 489.55 364.72 490.08 365.99 490.60 367.28 C 502.44 368.44 514.35 367.16 526.22 367.45 C 525.93 363.78 526.30 360.03 525.47 356.43 C 524.59 354.76 522.73 353.88 521.43 352.58 Z" />
<path fill="#932636" opacity="1.00" d=" M 180.83 362.69 C 184.73 362.31 189.94 362.16 192.19 366.04 C 192.98 370.48 186.49 374.34 183.16 370.89 C 180.81 368.84 181.06 365.50 180.83 362.69 Z" />
<path fill="#932636" opacity="1.00" d=" M 126.22 372.37 C 126.97 376.00 127.16 379.71 127.40 383.40 C 122.09 384.38 117.59 387.59 112.68 389.66 C 112.95 393.55 113.35 397.44 113.67 401.33 C 118.15 402.33 122.54 403.84 127.13 404.28 C 127.87 403.07 128.48 401.80 128.97 400.48 C 129.36 404.86 129.96 409.23 130.06 413.64 C 128.85 411.42 128.18 408.27 125.30 407.68 C 112.72 404.00 99.87 401.20 87.36 397.28 C 98.72 390.72 110.94 385.73 122.41 379.35 C 125.16 378.11 125.52 374.94 126.22 372.37 M 96.40 397.30 C 101.37 398.55 106.37 399.64 111.37 400.77 C 111.10 397.43 110.81 394.09 110.42 390.76 C 105.76 392.96 101.02 395.00 96.40 397.30 Z" />
<path fill="#932636" opacity="1.00" d=" M 698.68 377.73 C 705.77 374.16 715.38 373.88 721.59 379.39 C 726.73 384.03 728.65 391.26 728.57 397.99 C 728.53 415.25 728.57 432.52 728.55 449.79 C 725.03 449.80 721.51 449.80 718.01 449.80 C 717.97 435.17 718.05 420.55 717.97 405.92 C 717.60 400.52 717.98 394.66 715.15 389.82 C 712.79 385.88 707.43 385.12 703.39 386.58 C 698.09 388.42 694.53 393.19 692.08 398.01 C 688.63 405.15 686.88 413.11 686.98 421.04 C 687.01 430.62 686.99 440.21 687.00 449.80 C 683.40 449.80 679.81 449.80 676.22 449.79 C 676.18 425.53 676.21 401.27 676.21 377.01 C 679.80 376.99 683.40 376.99 687.01 376.99 C 687.00 382.41 686.99 387.83 687.03 393.25 C 689.17 387.07 692.58 380.76 698.68 377.73 Z" />
<path fill="#932636" opacity="1.00" d=" M 859.03 376.10 C 868.10 374.00 878.92 375.15 885.57 382.30 C 891.65 388.73 892.87 398.05 892.59 406.54 C 878.65 406.56 864.71 406.55 850.77 406.55 C 850.36 417.57 852.68 429.98 861.50 437.45 C 869.68 444.20 881.26 443.08 890.81 440.40 C 890.79 443.43 890.79 446.45 890.76 449.48 C 879.28 452.12 866.48 452.93 855.69 447.41 C 846.45 442.74 841.19 432.78 839.56 422.88 C 837.96 412.57 837.96 401.65 841.69 391.78 C 844.46 384.14 850.99 377.83 859.03 376.10 M 855.79 388.84 C 853.49 391.28 852.46 394.56 851.37 397.65 C 861.09 397.74 870.82 397.80 880.55 397.62 C 879.88 394.31 878.98 390.87 876.63 388.33 C 871.25 382.58 860.92 382.94 855.79 388.84 Z" />
<path fill="#932636" opacity="1.00" d=" M 930.24 377.25 C 933.87 375.70 937.84 375.32 941.74 375.07 C 941.82 378.92 941.78 382.77 941.82 386.62 C 934.27 386.50 926.67 390.10 922.75 396.68 C 916.61 406.27 917.16 418.10 917.28 429.01 C 917.27 435.94 917.30 442.87 917.26 449.81 C 913.65 449.79 910.05 449.79 906.45 449.79 C 906.44 425.53 906.46 401.27 906.44 377.01 C 910.04 376.98 913.66 376.99 917.28 376.99 C 917.28 381.53 917.34 386.06 917.17 390.59 C 919.95 384.91 924.17 379.59 930.24 377.25 Z" />
<path fill="#932636" opacity="1.00" d=" M 958.02 379.13 C 968.28 373.32 980.85 374.79 991.80 377.62 C 992.19 380.94 991.96 384.29 992.00 387.62 C 985.10 385.30 977.73 383.38 970.43 384.66 C 966.32 385.46 961.79 387.73 960.64 392.10 C 959.87 395.15 961.82 398.09 964.28 399.73 C 968.13 402.43 972.64 403.98 976.58 406.57 C 982.01 410.04 988.46 412.26 992.65 417.40 C 997.11 422.76 997.40 430.46 995.55 436.92 C 993.75 443.30 988.13 448.01 981.89 449.78 C 971.28 452.91 959.93 451.36 949.45 448.48 C 949.44 445.19 949.44 441.90 949.46 438.61 C 958.14 441.44 967.53 443.89 976.61 441.49 C 980.74 440.48 984.84 437.63 985.67 433.22 C 987.06 428.59 983.77 424.26 980.05 421.92 C 972.16 417.03 963.32 413.67 955.94 407.98 C 946.89 400.85 947.98 384.84 958.02 379.13 Z" />
<path fill="#932636" opacity="1.00" d=" M 1118.34 378.39 C 1127.12 374.29 1137.65 374.17 1146.75 377.29 C 1154.42 380.01 1158.41 388.22 1158.36 395.99 C 1158.80 413.91 1158.43 431.86 1158.54 449.79 C 1155.02 449.80 1151.50 449.79 1147.99 449.79 C 1147.98 446.70 1147.98 443.61 1148.03 440.52 C 1143.92 446.48 1137.15 450.35 1129.99 451.18 C 1123.39 452.17 1115.88 451.01 1111.10 445.99 C 1106.49 440.98 1105.22 433.60 1106.39 427.07 C 1107.83 419.99 1113.98 415.08 1120.33 412.40 C 1128.91 408.52 1138.46 408.14 1147.72 408.02 C 1147.59 402.75 1148.18 397.32 1146.73 392.19 C 1145.48 387.92 1141.44 384.97 1137.12 384.46 C 1132.45 383.92 1127.22 384.26 1123.40 387.30 C 1120.85 389.40 1120.18 392.78 1119.39 395.81 C 1115.43 395.79 1111.47 395.82 1107.52 395.75 C 1107.77 388.55 1111.68 381.48 1118.34 378.39 M 1122.19 423.20 C 1117.01 427.45 1116.68 436.77 1122.40 440.68 C 1127.47 444.09 1134.20 442.07 1138.81 438.80 C 1145.69 433.86 1148.05 424.88 1147.80 416.78 C 1139.00 416.58 1129.14 417.14 1122.19 423.20 Z" />
<path fill="#932636" opacity="1.00" d=" M 745.71 377.00 C 749.33 376.99 752.95 376.99 756.57 377.02 C 756.52 401.28 756.58 425.54 756.54 449.79 C 752.93 449.79 749.32 449.79 745.72 449.80 C 745.71 425.53 745.72 401.26 745.71 377.00 Z" />
<path fill="#932636" opacity="1.00" d=" M 769.02 377.00 C 772.87 376.99 776.74 376.98 780.60 377.04 C 787.66 396.09 794.73 415.13 801.85 434.16 C 808.07 415.13 814.23 396.08 820.38 377.03 C 824.22 376.98 828.06 376.99 831.91 377.01 C 823.77 401.28 815.55 425.54 807.30 449.78 C 803.71 449.80 800.12 449.79 796.54 449.80 C 787.36 425.54 778.20 401.26 769.02 377.00 Z" />
<path fill="#932636" opacity="1.00" d=" M 1011.72 376.99 C 1015.33 376.99 1018.94 376.99 1022.56 377.01 C 1022.54 401.27 1022.55 425.53 1022.55 449.79 C 1018.93 449.79 1015.32 449.79 1011.72 449.80 C 1011.71 425.53 1011.71 401.26 1011.72 376.99 Z" />
<path fill="#932636" opacity="1.00" d=" M 487.26 401.55 C 487.87 397.10 488.34 392.61 489.39 388.23 C 490.14 390.45 489.72 393.51 492.11 394.83 C 503.40 401.83 515.63 407.31 526.73 414.62 C 514.07 418.10 501.00 419.93 488.35 423.43 C 485.34 424.09 484.31 427.16 482.86 429.48 C 483.20 425.68 483.92 421.94 484.61 418.20 C 489.97 418.64 495.21 416.77 500.37 415.58 C 501.30 411.83 501.63 407.97 502.27 404.17 C 498.14 401.97 494.07 399.63 489.68 398.00 C 488.84 399.16 488.05 400.36 487.26 401.55 M 502.80 415.28 C 507.97 414.28 513.17 413.35 518.35 412.37 C 513.70 409.99 509.00 407.70 504.36 405.33 C 503.87 408.65 503.34 411.96 502.80 415.28 Z" />
<path fill="#932636" opacity="1.00" d=" M 207.24 396.06 C 209.70 395.31 212.30 393.98 214.89 394.95 C 218.26 395.94 219.57 399.52 220.72 402.46 C 216.16 400.46 211.65 398.37 207.24 396.06 Z" />
<path fill="#932636" opacity="1.00" d=" M 96.89 429.34 C 108.86 426.47 120.62 422.72 132.63 420.00 C 130.88 424.53 128.18 428.60 125.75 432.78 C 120.55 441.61 115.00 450.23 109.50 458.87 C 118.98 455.59 129.05 453.81 138.11 449.46 C 138.08 448.17 138.01 445.60 137.98 444.31 C 139.87 448.63 140.77 453.29 142.08 457.81 C 141.00 456.65 140.00 455.42 138.89 454.30 C 134.23 454.57 129.85 456.41 125.34 457.48 C 117.22 459.49 109.26 462.23 101.02 463.70 C 108.80 450.56 117.04 437.70 125.11 424.74 C 116.81 427.22 108.49 429.66 100.18 432.11 C 98.86 432.62 97.26 432.92 96.38 434.14 C 96.00 435.74 95.79 437.40 95.79 439.06 C 94.50 434.91 93.52 430.69 92.27 426.54 C 93.73 427.55 94.78 430.01 96.89 429.34 Z" />
<path fill="#932636" opacity="1.00" d=" M 481.30 435.22 C 484.43 434.79 487.36 436.81 490.23 437.87 C 487.58 438.18 484.39 437.26 482.22 439.24 C 479.68 441.68 478.14 445.79 479.84 449.12 C 481.50 452.60 486.20 453.95 489.60 452.33 C 494.89 450.04 499.08 445.43 504.90 444.34 C 509.95 443.31 515.98 446.65 516.50 452.07 C 517.18 456.68 515.00 460.95 512.96 464.92 C 510.51 464.04 508.05 463.17 505.61 462.30 C 508.78 462.08 512.55 461.45 513.65 457.94 C 516.21 453.80 513.06 447.87 508.02 448.51 C 500.99 449.86 496.42 457.13 489.02 457.58 C 483.71 458.09 478.20 454.40 477.18 449.08 C 476.39 444.17 477.98 438.91 481.30 435.22 Z" />
<path fill="#932636" opacity="1.00" d=" M 637.46 471.45 C 640.97 471.44 644.48 471.45 647.99 471.44 C 648.01 506.63 647.99 541.81 648.00 577.00 C 644.48 577.00 640.97 577.00 637.46 577.01 C 637.44 572.95 637.38 568.89 637.58 564.84 C 635.64 569.45 632.69 573.86 628.18 576.27 C 618.98 581.25 606.05 578.70 600.07 569.90 C 594.88 562.35 593.73 552.89 593.43 543.96 C 593.22 532.25 594.59 519.51 602.05 509.98 C 608.51 501.68 621.46 500.05 630.09 505.80 C 633.72 508.20 635.89 512.11 637.57 516.02 C 637.29 501.17 637.52 486.31 637.46 471.45 M 616.33 512.40 C 609.65 515.54 607.65 523.49 606.51 530.15 C 605.25 540.25 604.70 550.94 608.30 560.65 C 610.25 566.27 615.98 570.65 622.09 569.58 C 627.51 568.90 631.37 564.27 633.53 559.58 C 637.61 550.67 638.22 540.47 636.62 530.89 C 635.53 525.05 633.60 518.98 629.16 514.80 C 625.82 511.62 620.59 510.57 616.33 512.40 Z" />
<path fill="#932636" opacity="1.00" d=" M 763.21 471.46 C 768.35 471.44 773.50 471.44 778.65 471.45 C 793.09 501.09 807.52 530.74 821.95 560.39 C 822.07 530.74 821.96 501.09 822.01 471.44 C 825.85 471.45 829.70 471.44 833.55 471.45 C 833.57 506.63 833.53 541.81 833.56 576.99 C 828.36 577.01 823.15 577.00 817.95 577.01 C 803.60 547.67 789.46 518.23 774.86 489.02 C 774.71 518.35 774.84 547.67 774.79 577.00 C 770.93 577.01 767.06 577.00 763.20 577.01 C 763.21 541.83 763.19 506.64 763.21 471.46 Z" />
<path fill="#932636" opacity="1.00" d=" M 475.71 489.66 C 477.93 491.19 480.20 492.68 482.63 493.89 C 483.91 493.40 485.21 492.93 486.51 492.47 C 484.78 495.64 482.62 498.57 480.06 501.13 C 477.81 497.65 476.60 493.66 475.71 489.66 Z" />
<path fill="#932636" opacity="1.00" d=" M 131.51 491.75 C 135.65 492.02 139.57 493.45 143.32 495.14 C 139.52 496.16 135.10 497.32 134.14 501.79 C 133.04 498.50 132.05 495.18 131.51 491.75 Z" />
<path fill="#932636" opacity="1.00" d=" M 1114.34 505.44 C 1118.44 503.22 1123.16 502.60 1127.76 502.31 C 1127.81 506.14 1127.77 509.98 1127.84 513.81 C 1121.37 513.94 1114.66 516.29 1110.58 521.53 C 1104.16 529.47 1103.04 540.16 1103.27 550.01 C 1103.29 559.01 1103.27 568.00 1103.29 577.00 C 1099.67 577.00 1096.05 577.01 1092.44 576.99 C 1092.45 552.73 1092.44 528.47 1092.45 504.21 C 1096.06 504.20 1099.66 504.20 1103.28 504.21 C 1103.28 508.84 1103.33 513.47 1103.20 518.11 C 1105.61 512.95 1109.12 508.04 1114.34 505.44 Z" />
<path fill="#932636" opacity="1.00" d=" M 678.88 503.66 C 688.20 501.14 699.55 502.15 706.49 509.51 C 712.66 515.91 713.77 525.30 713.58 533.79 C 699.65 533.81 685.72 533.79 671.78 533.80 C 671.22 545.04 673.78 557.75 682.99 565.14 C 691.21 571.44 702.42 570.24 711.81 567.68 C 711.79 570.68 711.80 573.68 711.78 576.69 C 700.87 579.34 688.85 580.06 678.34 575.50 C 669.51 571.70 663.53 563.14 661.35 553.97 C 658.78 543.15 658.70 531.55 661.97 520.87 C 664.44 512.89 670.62 505.81 678.88 503.66 M 677.99 514.89 C 674.92 517.42 673.50 521.24 672.41 524.94 C 682.10 525.04 691.80 525.04 701.49 524.94 C 700.88 522.00 700.26 518.93 698.32 516.55 C 693.75 510.24 683.65 509.94 677.99 514.89 Z" />
<path fill="#932636" opacity="1.00" d=" M 858.62 506.62 C 866.18 502.11 875.57 501.73 884.06 503.19 C 890.17 504.21 896.11 507.93 898.45 513.87 C 901.21 520.55 900.42 527.97 900.55 535.03 C 900.55 549.02 900.54 563.01 900.56 577.00 C 897.03 577.00 893.51 577.01 889.99 577.00 C 889.99 573.98 889.99 570.96 890.02 567.95 C 886.45 572.71 881.37 576.35 875.54 577.75 C 868.55 579.54 860.29 579.28 854.49 574.52 C 848.94 569.92 847.35 562.09 848.23 555.23 C 849.22 548.47 854.62 543.33 860.55 540.52 C 869.53 535.92 879.82 535.41 889.71 535.27 C 889.60 530.21 890.14 525.05 888.94 520.09 C 887.79 515.48 883.56 512.08 878.88 511.68 C 874.30 511.23 869.17 511.54 865.47 514.57 C 862.93 516.64 862.20 519.98 861.44 523.00 C 857.46 523.00 853.49 523.00 849.52 523.00 C 849.85 516.53 852.90 510.00 858.62 506.62 M 864.34 550.31 C 859.17 554.54 858.63 563.70 864.23 567.79 C 869.34 571.44 876.32 569.32 881.01 565.95 C 887.76 560.97 890.09 552.03 889.79 543.99 C 881.05 543.86 871.34 544.43 864.34 550.31 Z" />
<path fill="#932636" opacity="1.00" d=" M 985.02 508.90 C 991.65 502.85 1001.30 501.91 1009.86 502.67 C 1016.21 503.25 1023.06 505.63 1026.50 511.37 C 1029.22 515.71 1029.87 520.99 1029.81 526.02 C 1029.77 543.01 1029.81 560.01 1029.80 577.00 C 1026.34 577.00 1022.89 577.00 1019.44 577.01 C 1019.43 573.93 1019.43 570.86 1019.51 567.79 C 1015.87 572.57 1010.84 576.36 1004.92 577.73 C 998.05 579.51 990.01 579.28 984.21 574.78 C 978.33 570.21 976.72 562.10 977.62 555.07 C 978.85 547.43 985.57 542.09 992.39 539.38 C 1000.84 535.73 1010.17 535.47 1019.23 535.23 C 1018.99 530.08 1019.52 524.79 1018.22 519.77 C 1017.00 515.61 1013.31 512.36 1009.00 511.80 C 1004.18 511.17 998.60 511.35 994.73 514.68 C 992.25 516.74 991.56 520.05 990.76 523.01 C 986.79 523.00 982.82 523.01 978.87 523.00 C 979.35 517.81 981.00 512.46 985.02 508.90 M 993.98 550.08 C 988.69 554.20 987.83 563.37 993.37 567.63 C 998.60 571.49 1005.92 569.39 1010.65 565.72 C 1017.27 560.70 1019.32 551.89 1019.28 543.98 C 1010.60 543.85 1001.02 544.39 993.98 550.08 Z" />
<path fill="#932636" opacity="1.00" d=" M 1069.49 504.64 C 1073.20 503.00 1077.27 502.65 1081.27 502.29 C 1081.28 506.13 1081.26 509.97 1081.30 513.81 C 1074.97 513.97 1068.42 516.25 1064.31 521.26 C 1058.41 528.36 1056.80 537.99 1056.79 546.97 C 1056.81 556.98 1056.79 566.99 1056.80 576.99 C 1053.26 576.99 1049.73 576.99 1046.20 577.00 C 1046.20 552.73 1046.19 528.47 1046.21 504.21 C 1049.73 504.20 1053.25 504.20 1056.78 504.21 C 1056.80 508.64 1056.77 513.07 1056.84 517.51 C 1059.70 512.13 1063.66 506.97 1069.49 504.64 Z" />
<path fill="#932636" opacity="1.00" d=" M 1143.08 507.13 C 1149.71 502.69 1158.12 501.99 1165.88 502.67 C 1172.28 503.21 1179.09 505.80 1182.53 511.56 C 1185.32 516.18 1185.72 521.75 1185.80 527.02 C 1185.80 543.68 1185.80 560.34 1185.80 577.00 C 1182.26 577.00 1178.73 577.00 1175.21 577.01 C 1175.19 574.01 1175.19 571.02 1175.24 568.04 C 1167.54 578.57 1150.99 582.48 1140.08 574.79 C 1134.28 570.21 1132.50 562.10 1133.50 555.08 C 1134.62 548.17 1140.25 543.00 1146.39 540.24 C 1155.24 535.87 1165.29 535.43 1174.98 535.26 C 1174.86 529.89 1175.55 524.33 1173.88 519.15 C 1172.49 514.87 1168.33 512.01 1163.94 511.67 C 1159.39 511.24 1154.27 511.57 1150.64 514.65 C 1148.14 516.72 1147.47 520.04 1146.64 523.00 C 1142.69 523.00 1138.75 523.00 1134.81 522.98 C 1135.10 516.83 1137.83 510.61 1143.08 507.13 M 1149.97 550.00 C 1144.53 554.10 1143.73 563.47 1149.37 567.73 C 1154.18 571.27 1160.82 569.52 1165.44 566.52 C 1172.77 561.70 1175.37 552.33 1175.08 543.98 C 1166.47 543.88 1156.98 544.39 1149.97 550.00 Z" />
<path fill="#932636" opacity="1.00" d=" M 908.74 504.22 C 912.57 504.20 916.41 504.20 920.26 504.19 C 927.37 523.27 934.49 542.35 941.57 561.45 C 947.85 542.39 953.92 523.26 960.19 504.20 C 964.01 504.20 967.83 504.20 971.66 504.20 C 963.52 528.49 955.30 552.75 947.06 577.01 C 943.44 577.00 939.83 577.00 936.22 576.99 C 927.06 552.73 917.89 528.47 908.74 504.22 Z" />
<path fill="#932636" opacity="1.00" d=" M 167.07 510.58 C 169.86 513.43 172.04 516.79 174.30 520.07 C 166.63 526.21 159.75 533.28 152.47 539.87 C 163.38 537.69 174.17 534.83 185.16 533.08 C 180.95 543.35 175.70 553.15 170.44 562.92 C 177.97 557.75 186.09 553.43 193.31 547.85 C 193.04 546.31 192.56 544.82 192.20 543.31 C 195.06 546.45 197.52 549.92 200.05 553.32 C 198.34 552.93 196.68 550.58 194.85 551.73 C 183.64 557.90 173.17 565.42 161.74 571.19 C 166.75 559.50 173.00 548.36 178.51 536.89 C 166.15 539.49 153.89 542.63 141.45 544.79 C 149.65 535.56 159.28 527.68 167.84 518.80 C 170.42 516.37 167.71 513.22 167.07 510.58 Z" />
<path fill="#932636" opacity="1.00" d=" M 436.37 526.21 C 437.97 522.45 440.62 518.19 444.82 517.14 C 447.44 518.44 449.58 520.53 451.57 522.64 C 448.91 521.93 446.09 519.85 443.33 521.37 C 440.61 522.92 438.29 525.71 438.12 528.95 C 438.09 532.98 442.05 536.20 445.94 536.03 C 451.41 535.75 456.47 532.92 462.01 533.16 C 467.25 533.03 472.59 537.47 472.26 542.96 C 472.03 548.10 468.17 551.90 464.71 555.25 C 462.58 553.64 460.46 552.01 458.41 550.31 C 460.72 550.29 463.44 552.15 465.56 550.51 C 467.76 549.02 469.61 546.68 469.89 543.97 C 469.97 540.43 466.37 537.55 462.95 537.93 C 457.19 538.48 451.85 541.64 445.93 541.01 C 438.87 540.82 433.62 532.77 436.37 526.21 Z" />
<path fill="#932636" opacity="1.00" d=" M 410.50 557.98 C 413.56 553.97 417.03 550.22 420.76 546.82 C 420.23 548.03 419.69 549.24 419.13 550.44 C 426.83 559.52 436.38 566.80 444.90 575.09 C 447.39 572.12 450.48 569.56 452.27 566.07 C 452.21 564.47 451.90 562.90 451.72 561.33 C 453.39 563.23 454.88 565.28 456.27 567.40 C 451.83 570.91 448.20 575.28 444.37 579.42 C 440.93 583.22 437.35 586.90 434.29 591.02 C 432.47 589.12 430.62 587.26 428.82 585.35 C 430.23 585.73 431.62 586.18 433.07 586.45 C 436.66 584.77 438.94 581.33 441.68 578.60 C 432.76 570.87 424.66 562.16 415.15 555.13 C 413.62 556.12 412.08 557.09 410.50 557.98 Z" />
<path fill="#932636" opacity="1.00" d=" M 179.90 582.85 C 192.32 577.56 204.22 570.98 216.97 566.51 C 212.86 579.57 207.17 592.08 202.75 605.03 C 201.90 607.18 203.85 608.94 205.30 610.18 C 204.69 610.67 204.09 611.19 203.44 611.63 C 201.38 606.99 196.69 604.51 193.51 600.75 C 194.92 601.27 196.32 601.82 197.71 602.40 C 202.22 592.34 206.07 582.00 210.30 571.82 C 200.36 576.65 190.22 581.13 180.69 586.76 C 181.37 588.02 182.03 589.29 182.67 590.58 C 179.14 588.08 176.10 584.98 173.11 581.88 C 175.32 582.51 177.62 584.21 179.90 582.85 Z" />
<path fill="#932636" opacity="1.00" d=" M 226.02 578.70 C 230.09 580.87 235.47 582.98 236.36 588.11 C 237.38 593.93 237.48 599.86 237.97 605.74 C 239.91 607.00 241.84 608.26 243.80 609.49 C 246.27 605.38 249.28 601.52 251.03 597.03 C 250.64 595.13 248.69 594.06 247.66 592.52 C 252.17 594.53 256.14 597.52 260.21 600.27 C 258.81 600.15 257.42 599.96 256.02 599.99 C 252.98 603.01 251.02 606.90 248.64 610.43 C 245.02 616.46 240.88 622.18 237.52 628.36 C 235.93 630.53 238.92 632.26 239.77 634.14 C 234.85 631.06 229.78 628.19 225.07 624.81 C 220.83 621.90 219.09 615.63 222.12 611.27 C 224.64 607.25 229.37 605.72 233.72 604.62 C 232.98 598.54 232.78 592.36 231.36 586.39 C 230.62 583.21 227.96 581.14 226.02 578.70 M 225.30 619.05 C 225.52 623.17 229.35 625.41 232.59 627.15 C 235.87 622.00 239.15 616.85 242.40 611.68 C 239.94 609.62 237.44 606.88 234.00 606.81 C 228.77 608.15 225.19 613.80 225.30 619.05 Z" />
<path fill="#932636" opacity="1.00" d=" M 384.62 578.72 C 396.48 584.86 407.75 592.06 419.43 598.52 C 421.82 600.19 424.49 598.39 426.95 597.90 C 423.01 601.23 419.02 604.57 414.69 607.38 C 415.49 606.12 416.32 604.88 417.17 603.66 C 407.93 597.61 398.30 592.16 388.93 586.31 C 391.95 596.92 394.84 607.62 398.90 617.89 C 400.19 617.46 401.49 617.03 402.80 616.62 C 399.79 619.59 396.41 622.17 392.94 624.57 C 393.66 622.77 395.62 621.14 395.09 619.06 C 391.91 605.54 387.10 592.41 384.62 578.72 Z" />
<path fill="#932636" opacity="1.00" d=" M 342.30 607.31 C 348.93 600.29 358.98 598.76 367.23 594.37 C 366.37 595.52 365.41 596.62 364.73 597.91 C 366.74 604.81 370.51 611.03 373.36 617.60 C 375.54 621.76 376.90 626.44 379.91 630.10 C 381.52 630.02 383.12 629.78 384.74 629.66 C 380.23 632.37 375.29 634.25 370.65 636.69 C 364.38 639.84 356.92 642.40 350.02 639.76 C 337.59 635.14 333.25 617.03 342.30 607.31 M 341.57 615.06 C 340.45 624.38 346.70 634.53 356.10 636.64 C 362.65 638.29 369.17 635.29 374.72 632.05 C 371.84 625.41 368.62 618.93 365.58 612.36 C 363.68 608.45 362.03 604.34 359.19 601.00 C 351.53 602.32 343.20 606.82 341.57 615.06 Z" />
<path fill="#932636" opacity="1.00" d=" M 274.07 608.12 C 282.47 606.47 292.07 609.86 296.64 617.33 C 301.87 626.26 299.38 638.83 291.09 645.06 C 280.88 653.31 263.54 648.43 258.66 636.39 C 254.36 624.97 261.89 610.45 274.07 608.12 M 274.41 610.60 C 268.04 612.87 264.66 619.59 263.38 625.84 C 261.97 631.61 263.09 638.30 267.43 642.58 C 272.78 648.03 282.67 648.77 288.07 642.99 C 293.48 636.95 295.54 627.74 292.84 620.06 C 290.32 612.80 281.83 608.04 274.41 610.60 Z" />
<path fill="#932636" opacity="1.00" d=" M 308.01 614.12 C 312.80 612.51 317.96 612.63 322.93 611.89 C 321.72 612.63 320.50 613.35 319.28 614.05 C 318.76 620.73 320.27 627.35 320.80 633.99 C 321.45 638.83 321.61 643.77 322.67 648.55 C 323.04 650.60 325.66 650.47 327.09 651.40 C 322.60 651.92 318.13 652.49 313.63 652.90 C 314.88 652.14 316.14 651.39 317.42 650.68 C 317.44 643.10 316.08 635.61 315.36 628.09 C 314.68 623.36 314.83 618.33 312.56 614.01 C 312.28 614.38 311.73 615.13 311.45 615.51 L 311.93 614.27 C 310.95 614.23 308.99 614.15 308.01 614.12 Z" />
</g>
</svg>
