<?xml version="1.0" encoding="utf-8"?>
<!-- Generator: Adobe Illustrator 21.0.0, SVG Export Plug-In . SVG Version: 6.00 Build 0)  -->
<svg version="1.1" id="Layer_1" xmlns="http://www.w3.org/2000/svg" xmlns:xlink="http://www.w3.org/1999/xlink" x="0px" y="0px"
	 viewBox="0 0 201 83" style="enable-background:new 0 0 201 83;" xml:space="preserve">
<style type="text/css">
	.st0{fill:#0B3353;}
	.st1{fill:#FCC272;}
	.st2{fill:#A9C4B3;}
	.st3{fill:#E45A67;}
	.st4{fill:#ECE2D0;}
</style>
<g id="Logo_3__x28_for_mobile_at_small_screen_x29_">
	<g>
		<g>
			<g>
				<rect x="115.4" y="60.1" class="st0" width="0.8" height="1"/>
				<rect x="170.6" y="60.1" class="st0" width="0.8" height="1"/>
				<polygon class="st0" points="86.8,71.8 86.8,72.6 89.7,72.6 89.7,79.9 90.5,79.9 90.5,72.6 93.4,72.6 93.4,71.8 				"/>
				<path class="st0" d="M97.3,76.4h-3.6c0.2-1.2,1-1.8,2-1.8C96.5,74.6,97.3,75.2,97.3,76.4 M98.1,76.6c0-1.4-0.8-2.7-2.4-2.7
					c-1.6,0-2.8,1.1-2.8,3c0,1.8,1.3,3,3,3c1.3,0,2.1-0.8,2.1-0.8l-0.4-0.6c0,0-0.7,0.7-1.7,0.7c-1.2,0-2.2-0.8-2.2-2.3h4.4
					C98.1,77,98.1,76.8,98.1,76.6"/>
				<path class="st0" d="M99.1,77c0,1.8,1.3,3,3,3c1.5,0,2.2-0.9,2.2-0.9l-0.4-0.6c0,0-0.7,0.8-1.8,0.8c-1.3,0-2.3-1-2.3-2.3
					c0-1.4,1-2.3,2.2-2.3c1,0,1.7,0.7,1.7,0.7l0.4-0.6c0,0-0.7-0.8-2.1-0.8C100.5,74,99.1,75.2,99.1,77"/>
				<path class="st0" d="M105.8,79.9h0.8v-2.8c0-0.3,0-0.5,0.1-0.8c0.3-1,1.1-1.6,2.1-1.6c1.1,0,1.2,0.8,1.2,1.7v3.5h0.8v-3.7
					c0-1.4-0.5-2.2-1.9-2.2c-1.3,0-2.1,0.9-2.3,1.4h0c0,0,0-0.2,0-0.5v-3.1h-0.8V79.9z"/>
				<path class="st0" d="M112.5,79.9h0.8v-2.8c0-0.3,0-0.5,0.1-0.8c0.3-0.9,1.1-1.6,2.1-1.6c1.1,0,1.2,0.8,1.2,1.7v3.5h0.8v-3.7
					c0-1.4-0.5-2.2-1.9-2.2c-1.4,0-2.1,0.9-2.3,1.5h0c0,0,0-0.2,0-0.5v-0.9h-0.8V79.9z"/>
				<path class="st0" d="M124.1,77c0,1.3-1,2.3-2.2,2.3c-1.2,0-2.2-1-2.2-2.3c0-1.3,1-2.3,2.2-2.3C123.1,74.7,124.1,75.7,124.1,77
					 M124.9,77c0-1.7-1.4-3-3-3c-1.7,0-3,1.3-3,3c0,1.7,1.4,3,3,3C123.5,80,124.9,78.7,124.9,77"/>
				<path class="st0" d="M126.2,78.5c0,1.3,0.8,1.4,1.3,1.4c0.1,0,0.3,0,0.3,0v-0.7c0,0-0.1,0-0.2,0c-0.3,0-0.6-0.1-0.6-0.9v-6.5
					h-0.8V78.5z"/>
				<path class="st0" d="M133.9,77c0,1.3-1,2.3-2.2,2.3c-1.2,0-2.2-1-2.2-2.3c0-1.3,1-2.3,2.2-2.3C132.9,74.7,133.9,75.7,133.9,77
					 M134.7,77c0-1.7-1.4-3-3-3c-1.7,0-3,1.3-3,3c0,1.7,1.4,3,3,3C133.3,80,134.7,78.7,134.7,77"/>
				<path class="st0" d="M140.1,76.9c0,1.7-0.8,2.3-1.7,2.3c-1.1,0-1.9-0.9-1.9-2.3c0-1.4,0.7-2.2,1.8-2.2
					C139.3,74.7,140.1,75.2,140.1,76.9 M140.9,79.7v-5.6h-0.8v0.6c0,0.1,0,0.2,0,0.2h0c0,0-0.4-1-1.9-1c-1.5,0-2.5,1.2-2.5,2.9
					c0,1.7,1,2.9,2.6,2.9c0.9,0,1.5-0.4,1.8-1h0c0,0,0,0.2,0,0.4v0.5c0,1.3-0.9,1.8-2,1.8c-0.8,0-1.6-0.4-1.6-0.4l-0.3,0.6
					c0.6,0.3,1.2,0.5,1.9,0.5C139.5,82.3,140.9,81.6,140.9,79.7"/>
				<rect x="142.7" y="71.8" class="st0" width="0.8" height="1"/>
				<rect x="142.7" y="74.1" class="st0" width="0.8" height="5.8"/>
				<path class="st0" d="M149.3,76.4h-3.6c0.2-1.2,1-1.8,2-1.8C148.5,74.6,149.3,75.2,149.3,76.4 M150.1,76.6c0-1.4-0.8-2.7-2.4-2.7
					c-1.6,0-2.8,1.1-2.8,3c0,1.8,1.3,3,3,3c1.3,0,2.1-0.8,2.1-0.8l-0.4-0.6c0,0-0.7,0.7-1.7,0.7c-1.2,0-2.2-0.8-2.2-2.3h4.4
					C150.1,77,150.1,76.8,150.1,76.6"/>
				<path class="st0" d="M151.1,79.2c0,0,0.7,0.8,2.1,0.8c1.2,0,2-0.7,2-1.6c0-1.9-3.1-1.6-3.1-2.8c0-0.6,0.6-0.9,1.1-0.9
					c0.9,0,1.4,0.5,1.4,0.5l0.4-0.6c0,0-0.6-0.6-1.8-0.6c-1,0-2,0.6-2,1.6c0,1.9,3.1,1.6,3.1,2.8c0,0.6-0.5,0.9-1.2,0.9
					c-1.1,0-1.7-0.7-1.7-0.7L151.1,79.2z"/>
				<rect x="159.8" y="71.8" class="st0" width="0.8" height="8"/>
				<path class="st0" d="M162.6,79.9h0.8v-2.8c0-0.3,0-0.5,0.1-0.8c0.3-0.9,1.1-1.6,2.1-1.6c1.1,0,1.2,0.8,1.2,1.7v3.5h0.8v-3.7
					c0-1.4-0.5-2.2-1.9-2.2c-1.4,0-2.1,0.9-2.3,1.5h0c0,0,0-0.2,0-0.5v-0.9h-0.8V79.9z"/>
				<path class="st0" d="M168.9,79.2c0,0,0.7,0.8,2.1,0.8c1.2,0,2-0.7,2-1.6c0-1.9-3.1-1.6-3.1-2.8c0-0.6,0.6-0.9,1.1-0.9
					c0.9,0,1.4,0.5,1.4,0.5l0.4-0.6c0,0-0.6-0.6-1.8-0.6c-1,0-2,0.6-2,1.6c0,1.9,3.1,1.6,3.1,2.8c0,0.6-0.5,0.9-1.2,0.9
					c-1.1,0-1.7-0.7-1.7-0.7L168.9,79.2z"/>
				<path class="st0" d="M174.6,77.8c0,1.9,1.3,2.1,2,2.1c0.2,0,0.3,0,0.3,0v-0.7c0,0-0.1,0-0.3,0c-0.4,0-1.3-0.2-1.3-1.5v-2.9h1.4
					v-0.6h-1.4v-1.7h-0.8v1.7h-0.8v0.6h0.8V77.8z"/>
				<rect x="178.1" y="71.8" class="st0" width="0.8" height="1"/>
				<rect x="178.1" y="74.1" class="st0" width="0.8" height="5.8"/>
				<path class="st0" d="M181,77.8c0,1.9,1.3,2.1,2,2.1c0.2,0,0.3,0,0.3,0v-0.7c0,0-0.1,0-0.3,0c-0.4,0-1.3-0.2-1.3-1.5v-2.9h1.4
					v-0.6h-1.4v-1.7H181v1.7h-0.8v0.6h0.8V77.8z"/>
				<path class="st0" d="M184.4,77.8c0,1.5,0.6,2.2,1.9,2.2c1.3,0,2-0.9,2.3-1.5h0c0,0,0,0.2,0,0.5v0.9h0.8v-5.8h-0.8v2.8
					c0,1.2-0.8,2.4-2.1,2.4c-1.1,0-1.2-0.8-1.2-1.7v-3.5h-0.8V77.8z"/>
				<path class="st0" d="M191.4,77.8c0,1.9,1.3,2.1,2,2.1c0.2,0,0.3,0,0.3,0v-0.7c0,0-0.1,0-0.3,0c-0.4,0-1.3-0.2-1.3-1.5v-2.9h1.4
					v-0.6h-1.4v-1.7h-0.8v1.7h-0.8v0.6h0.8V77.8z"/>
				<path class="st0" d="M199,76.4h-3.6c0.2-1.2,1-1.8,2-1.8C198.2,74.6,199,75.2,199,76.4 M199.8,76.6c0-1.4-0.8-2.7-2.4-2.7
					c-1.6,0-2.8,1.1-2.8,3c0,1.8,1.3,3,3,3c1.3,0,2.1-0.8,2.1-0.8l-0.4-0.6c0,0-0.7,0.7-1.7,0.7c-1.2,0-2.2-0.8-2.2-2.3h4.4
					C199.8,77,199.8,76.8,199.8,76.6"/>
				<path class="st0" d="M86.8,68.2h0.8l0.4-5.6c0-0.4,0-1.1,0-1.1h0c0,0,0.3,0.7,0.4,1.1l1.9,4.1h0.7l1.9-4.1
					c0.2-0.4,0.4-1.1,0.4-1.1h0c0,0,0,0.7,0,1.1l0.4,5.6h0.8l-0.6-8h-0.8l-2.1,4.7c-0.2,0.4-0.4,1-0.4,1h0c0,0-0.2-0.6-0.4-1
					l-2.1-4.7h-0.8L86.8,68.2z"/>
				<path class="st0" d="M99.9,65.5c0,1-0.7,2.1-1.8,2.1c-0.9,0-1.3-0.5-1.3-1.1c0-1.3,1.8-1.3,2.7-1.3h0.3V65.5z M100.7,68.2v-3.7
					c0-1.4-0.8-2.2-2.1-2.2c-1.3,0-2,0.7-2,0.7l0.4,0.6c0,0,0.7-0.5,1.6-0.5c0.8,0,1.4,0.4,1.4,1.5v0.1h-0.3c-1,0-3.5,0-3.5,2
					c0,1.1,1,1.7,2,1.7c1.4,0,1.9-1.2,1.9-1.2h0c0,0,0,0.2,0,0.5v0.6H100.7z"/>
				<path class="st0" d="M106.6,65.3c0,1.6-0.9,2.3-1.9,2.3c-1.1,0-1.8-0.9-1.8-2.3c0-1.5,0.8-2.3,1.9-2.3
					C106,63,106.6,64.1,106.6,65.3 M107.3,68.2v-8h-0.8V63c0,0.2,0,0.4,0,0.4h0c0,0-0.5-1.1-1.9-1.1c-1.5,0-2.6,1.2-2.6,3
					c0,1.8,1,3,2.5,3c1.5,0,2-1.2,2-1.2h0c0,0,0,0.2,0,0.4v0.6H107.3z"/>
				<path class="st0" d="M113.2,64.7h-3.6c0.2-1.2,1-1.8,2-1.8C112.4,63,113.1,63.5,113.2,64.7 M114,65c0-1.4-0.8-2.7-2.4-2.7
					c-1.6,0-2.8,1.1-2.8,3c0,1.8,1.3,3,3,3c1.3,0,2.1-0.8,2.1-0.8l-0.4-0.6c0,0-0.7,0.7-1.8,0.7c-1.2,0-2.2-0.8-2.2-2.3h4.4
					C113.9,65.4,114,65.1,114,65"/>
				<rect x="115.4" y="62.4" class="st0" width="0.8" height="5.8"/>
				<path class="st0" d="M118,68.2h0.8v-2.4c0-0.4,0-0.8,0.2-1.1c0.3-0.8,0.9-1.5,1.7-1.5c0.1,0,0.3,0,0.3,0v-0.8c0,0-0.1,0-0.3,0
					c-0.9,0-1.5,0.7-1.8,1.5h0c0,0,0-0.2,0-0.5v-1H118V68.2z"/>
				<path class="st0" d="M125.4,65.5c0,1-0.7,2.1-1.8,2.1c-0.9,0-1.3-0.5-1.3-1.1c0-1.3,1.8-1.3,2.7-1.3h0.3V65.5z M126.2,68.2v-3.7
					c0-1.4-0.8-2.2-2.1-2.2c-1.3,0-2,0.7-2,0.7l0.4,0.6c0,0,0.7-0.5,1.6-0.5c0.8,0,1.4,0.4,1.4,1.5v0.1h-0.3c-1,0-3.5,0-3.5,2
					c0,1.1,1,1.7,2,1.7c1.4,0,1.9-1.2,1.9-1.2h0c0,0,0,0.2,0,0.5v0.6H126.2z"/>
				<rect x="131.1" y="60.2" class="st0" width="0.8" height="8"/>
				<path class="st0" d="M134,68.2h0.8v-2.8c0-0.3,0-0.5,0.1-0.8c0.3-0.9,1.1-1.6,2.1-1.6c1.1,0,1.2,0.8,1.2,1.7v3.5h0.8v-3.7
					c0-1.4-0.5-2.2-1.9-2.2c-1.4,0-2.1,0.9-2.3,1.5h0c0,0,0-0.2,0-0.5v-0.9H134V68.2z"/>
				<path class="st0" d="M140.9,66.1c0,1.9,1.3,2.1,2,2.1c0.2,0,0.3,0,0.3,0v-0.7c0,0-0.1,0-0.3,0c-0.4,0-1.3-0.2-1.3-1.5v-2.9h1.4
					v-0.6h-1.4v-1.7h-0.8v1.7h-0.8v0.6h0.8V66.1z"/>
				<path class="st0" d="M148.5,64.7h-3.6c0.2-1.2,1-1.8,2-1.8C147.7,63,148.5,63.5,148.5,64.7 M149.3,65c0-1.4-0.8-2.7-2.4-2.7
					c-1.6,0-2.8,1.1-2.8,3c0,1.8,1.3,3,3,3c1.3,0,2.1-0.8,2.1-0.8l-0.4-0.6c0,0-0.7,0.7-1.7,0.7c-1.2,0-2.2-0.8-2.2-2.3h4.4
					C149.3,65.4,149.3,65.1,149.3,65"/>
				<path class="st0" d="M150.7,68.2h0.8v-2.4c0-0.4,0-0.8,0.2-1.1c0.3-0.8,0.9-1.5,1.7-1.5c0.1,0,0.3,0,0.3,0v-0.8c0,0-0.1,0-0.3,0
					c-0.9,0-1.5,0.7-1.8,1.5h0c0,0,0-0.2,0-0.5v-1h-0.8V68.2z"/>
				<path class="st0" d="M158.1,65.5c0,1-0.7,2.1-1.8,2.1c-0.9,0-1.3-0.5-1.3-1.1c0-1.3,1.8-1.3,2.7-1.3h0.3V65.5z M158.9,68.2v-3.7
					c0-1.4-0.8-2.2-2.1-2.2c-1.3,0-2,0.7-2,0.7l0.4,0.6c0,0,0.7-0.5,1.6-0.5c0.8,0,1.4,0.4,1.4,1.5v0.1h-0.3c-1,0-3.5,0-3.5,2
					c0,1.1,1,1.7,2,1.7c1.4,0,1.9-1.2,1.9-1.2h0c0,0,0,0.2,0,0.5v0.6H158.9z"/>
				<path class="st0" d="M160.2,65.3c0,1.8,1.3,3,3,3c1.5,0,2.2-0.9,2.2-0.9l-0.4-0.6c0,0-0.7,0.8-1.8,0.8c-1.3,0-2.3-1-2.3-2.3
					c0-1.4,1-2.3,2.2-2.3c1,0,1.7,0.7,1.7,0.7l0.4-0.6c0,0-0.7-0.8-2.1-0.8C161.6,62.3,160.2,63.5,160.2,65.3"/>
				<path class="st0" d="M167.1,66.1c0,1.9,1.3,2.1,2,2.1c0.2,0,0.3,0,0.3,0v-0.7c0,0-0.1,0-0.3,0c-0.4,0-1.3-0.2-1.3-1.5v-2.9h1.4
					v-0.6h-1.4v-1.7h-0.8v1.7h-0.8v0.6h0.8V66.1z"/>
				<rect x="170.6" y="62.4" class="st0" width="0.8" height="5.8"/>
				<path class="st0" d="M174.7,68.2h0.8l2.2-5.8h-0.8l-1.6,4.2c-0.1,0.3-0.2,0.7-0.2,0.7h0c0,0-0.1-0.4-0.2-0.7l-1.6-4.2h-0.8
					L174.7,68.2z"/>
				<path class="st0" d="M182.8,64.7h-3.6c0.2-1.2,1-1.8,2-1.8C182,63,182.7,63.5,182.8,64.7 M183.6,65c0-1.4-0.8-2.7-2.4-2.7
					c-1.6,0-2.8,1.1-2.8,3c0,1.8,1.3,3,3,3c1.3,0,2.1-0.8,2.1-0.8l-0.4-0.6c0,0-0.7,0.7-1.8,0.7c-1.2,0-2.2-0.8-2.2-2.3h4.4
					C183.5,65.4,183.6,65.1,183.6,65"/>
			</g>
			<rect x="121.4" y="32.7" class="st0" width="3.7" height="3.3"/>
			<rect x="140.2" y="32.7" class="st0" width="3.7" height="3.3"/>
			<path class="st0" d="M86.8,53.6h3.7V47c0-0.7,0-1.4,0.2-1.9c0.5-1.9,1.7-3.4,3.7-3.4c1.8,0,2,1.4,2,3v8.9h3.7V47
				c0-0.7,0-1.4,0.2-1.9c0.4-1.9,1.7-3.4,3.6-3.4c1.7,0,2.1,1.3,2.1,3v8.9h3.7v-9.6c0-3.9-1.8-5.7-4.9-5.7c-2.4,0-4.3,1.5-5.1,3.1
				h-0.1c-0.6-2-2.1-3.1-4.4-3.1c-2.4,0-4.1,1.6-4.9,3.1h-0.1c0,0,0.1-0.5,0.1-1v-1.7h-3.6V53.6z"/>
			<rect x="113.7" y="44" class="st0" width="3.7" height="3.7"/>
			<rect x="121.4" y="38.6" class="st0" width="3.7" height="15"/>
			<path class="st0" d="M130.1,48.1c0,5,4.1,5.6,6.2,5.6c0.7,0,1.1-0.1,1.1-0.1v-3.3c0,0-0.3,0.1-0.7,0.1c-1,0-3-0.4-3-2.8v-5.8h3.4
				v-3h-3.4v-4.3h-3.6v4.3h-2v3h1.9V48.1z"/>
			<rect x="140.2" y="38.6" class="st0" width="3.7" height="15"/>
		</g>
		<g>
			<polygon class="st1" points="69.7,20.5 61.1,15.6 61.1,25.4 			"/>
			<polygon class="st2" points="69.7,10.6 61.1,5.7 61.1,15.6 			"/>
			<polygon class="st3" points="69.7,20.5 69.7,10.6 61.1,15.6 			"/>
			<polygon class="st0" points="69.7,10.6 69.7,0.7 61.1,5.7 			"/>
			<polygon class="st3" points="52.6,10.6 52.6,20.5 61.1,15.6 			"/>
			<polygon class="st4" points="69.7,30.4 69.7,20.5 61.1,25.4 			"/>
			<polygon class="st3" points="52.6,20.5 52.6,30.4 61.1,25.4 			"/>
			<polygon class="st4" points="61.1,15.6 52.6,20.5 61.1,25.4 			"/>
			<polygon class="st1" points="61.1,5.7 52.6,10.6 61.1,15.6 			"/>
			<polygon class="st3" points="69.7,40.3 61.1,35.3 61.1,45.2 			"/>
			<polygon class="st0" points="69.7,30.4 61.1,25.4 61.1,35.3 			"/>
			<polygon class="st2" points="69.7,40.3 69.7,30.4 61.1,35.3 			"/>
			<polygon class="st4" points="52.6,30.4 52.6,40.3 61.1,35.3 			"/>
			<polygon class="st0" points="61.1,35.3 52.6,40.3 61.1,45.2 			"/>
			<polygon class="st1" points="61.1,25.4 52.6,30.4 61.1,35.3 			"/>
			<polygon class="st3" points="52.6,40.3 44,35.3 44,45.2 			"/>
			<polygon class="st4" points="52.6,30.4 44,25.4 44,35.3 			"/>
			<polygon class="st1" points="52.6,40.3 52.6,30.4 44,35.3 			"/>
			<polygon class="st1" points="52.6,50.2 52.6,40.3 44,45.2 			"/>
			<polygon class="st3" points="35.4,30.4 35.4,40.3 44,35.3 			"/>
			<polygon class="st2" points="52.6,30.4 52.6,20.5 44,25.4 			"/>
			<polygon class="st0" points="52.6,20.5 52.6,10.6 44,15.6 			"/>
			<polygon class="st2" points="35.4,20.5 35.4,30.4 44,25.4 			"/>
			<polygon class="st2" points="44,35.3 35.4,40.3 44,45.2 			"/>
			<polygon class="st0" points="44,25.4 35.4,30.4 44,35.3 			"/>
			<polygon class="st1" points="52.6,20.5 44,15.6 44,25.4 			"/>
			<polygon class="st3" points="44,15.6 35.4,20.5 44,25.4 			"/>
			<polygon class="st4" points="69.7,60.1 61.1,55.1 61.1,65 			"/>
			<polygon class="st0" points="69.7,50.2 61.1,45.2 61.1,55.1 			"/>
			<polygon class="st3" points="69.7,60.1 69.7,50.2 61.1,55.1 			"/>
			<polygon class="st0" points="52.6,50.2 52.6,60.1 61.1,55.1 			"/>
			<polygon class="st4" points="69.7,50.2 69.7,40.3 61.1,45.2 			"/>
			<polygon class="st2" points="52.6,40.3 52.6,50.2 61.1,45.2 			"/>
			<polygon class="st1" points="61.1,55.1 52.6,60.1 61.1,65 			"/>
			<polygon class="st3" points="69.7,69.9 61.1,65 61.1,74.9 			"/>
			<polygon class="st1" points="69.7,69.9 69.7,60.1 61.1,65 			"/>
			<polygon class="st0" points="69.7,79.8 69.7,69.9 61.1,74.9 			"/>
			<polygon class="st3" points="52.6,60.1 52.6,69.9 61.1,65 			"/>
			<polygon class="st2" points="61.1,65 52.6,69.9 61.1,74.9 			"/>
			<polygon class="st4" points="61.1,45.2 52.6,50.2 61.1,55.1 			"/>
			<polygon class="st0" points="1.2,0.7 1.2,60 18.3,50.2 18.3,30.4 35.4,40.3 35.4,20.5 			"/>
		</g>
	</g>
</g>
</svg>
