<?xml version="1.0" encoding="UTF-8"?> <!-- Generator: Adobe Illustrator 21.1.0, SVG Export Plug-In . SVG Version: 6.00 Build 0) --> <svg xmlns="http://www.w3.org/2000/svg" xmlns:xlink="http://www.w3.org/1999/xlink" id="Layer_1" x="0px" y="0px" viewBox="0 0 681 156.3" style="enable-background:new 0 0 681 156.3;" xml:space="preserve"> <style type="text/css"> .st0{fill:#011182;} </style> <g id="Page-1_1_"> <g> <g id="Desktop-HD-Copy_9_" transform="translate(-369.000000, -1958.000000)"> <g id="SUBSIDIARIES_9_"> <g id="Colifast_logo_8_" transform="translate(369.000000, 1958.000000)"> <path id="Shape_72_" class="st0" d="M167.3,46c4.9,1,9.9,2,14.7,3.1c17.9,4.1,25.4,18.8,22.3,34.9c-2.7,13.8-12,19.9-24.9,22.7 c-13.8,3-27.8,2.4-41.7,1c-8.9-0.8-17.4-3.7-23.7-11c-3.7-4.2-6.2-8.9-5.9-14.5c0.3-5.2,0-10.6,1.4-15.5 c2.7-9.9,10.7-14.5,20.1-17.2c4.9-1.4,10-2.1,15.1-3.1C152.2,46,159.9,46,167.3,46z M156.6,95c3.8-1,7.8-1.4,11.3-3.1 c6.6-3.1,7.6-9.5,7.5-16.1c-0.1-7.1-3.7-12.1-10.2-14.1c-4.5-1.3-9.5-0.8-14.3-0.6c-6.5,0.3-11.3,3.7-12.9,10 c-1.4,5.9-2.1,12.4,2.7,17.7C145,93.4,150.4,94.7,156.6,95z"></path> <path id="Shape_71_" class="st0" d="M555.8,46c5.8,1,11.6,1.8,17.2,3.1c7.1,1.7,13.6,4.5,16.7,11.9c1.4,3.4,1,4-2.5,4.1 c-8.5,0-17,0-25.4,0c-1.1,0-2.8-0.1-3.2-0.8c-3.2-5.2-8.6-4.8-13.6-5.1c-2.7-0.1-5.5,0.1-8.1,1c-1.4,0.4-3.4,2.5-3.2,3.7 c0.1,1.3,2.1,3.2,3.7,3.4c5.5,0.8,11.2,0.7,16.7,1.7c10,1.7,20.3,1.1,29.9,5.5c5.2,2.3,8.9,5.7,9.7,11.4 c1,7.1-1.7,12.6-7.8,16.1c-6.5,4-13.8,5.5-21.5,5.9c-7.2,0.4-14.5,0.7-21.9,0.6c-8.9-0.1-17.8-0.6-26.4-3.4 c-6.8-2.3-13.7-7.5-13-15c1,0,2.1-0.1,3.2-0.1c8.8,0,17.4,0,26.1,0c1.1,0,2.7,0,3.2,0.6c4.5,5.7,10.9,3.8,16.7,4.1 c1,0,1.8-0.3,2.8-0.3c2.8-0.1,4.8-1.1,4.9-4.2c0.1-3.2-2.5-4.2-4.9-4.5c-8.9-1.3-17.9-1.8-26.8-3.1c-5.1-0.7-10.3-1.6-15.1-3.2 c-6.8-2.4-10-7.8-9.7-15.1c0.1-5.7,4.8-11.7,11.2-13.6c6.5-1.8,13.1-3.1,19.6-4.7C541.7,46,548.7,46,555.8,46z"></path> <path id="Shape_70_" class="st0" d="M64.2,46c5.1,1,10.2,1.8,15.1,3.1C89.5,51.8,97,57.5,100.1,68c0.3,0.7,0.1,1.6,0.3,3 c-3,0-5.7,0-8.3,0c-6.4,0-12.7,0-19.1,0c-2.3,0-3.7-0.4-4.8-3c-1.7-4-5.1-6.9-9.9-6.8c-4.8,0-9.9-0.1-14.4,1.3 c-7.6,2.1-9.5,8.9-9.2,16.7c0.4,9.9,7.8,15.3,16.7,15.3c7.5-0.1,14-1.3,17.4-8.9c0.3-0.6,1.3-1,2-1c9.7,0,19.5,0,29.7,0 c-1.8,8.9-6.1,15.7-14,18.9c-6.1,2.4-12.7,4-19.2,4.5c-9.7,0.7-19.6,0.6-29.5,0c-9.3-0.6-18.4-3.1-25.1-10.3 c-7.3-7.8-8.8-17-6.6-27.1c2.7-12.6,11.2-18.8,23-21.5c4.7-1,9.3-2,14-3C50.1,46,57.2,46,64.2,46z"></path> <path id="Shape_69_" class="st0" d="M408.2,106.4c2.4-4.7,4.5-8.8,6.6-12.7c7.5-14.4,15-29,22.6-43.4c0.6-1.1,2.3-2.1,3.4-2.1 c9.7-0.1,19.5-0.1,29.2,0c1.3,0,3,1.3,3.5,2.5c7.6,14.3,15,28.8,22.5,43.1c2,4,4.1,7.8,6.5,12.3c-1.8,0.1-3,0.3-4.1,0.3 c-7.2,0-14.4-0.1-21.5,0c-2.5,0-4.2-0.4-4.9-3.1c-0.8-3.5-3.4-4.1-6.6-4.1c-6.5,0.3-13,0.3-19.4,0c-4-0.3-6.1,1.1-7.5,4.7 c-0.4,1-1.8,2.4-2.7,2.4C426.8,106.6,418.1,106.4,408.2,106.4z M464,85.4c-2.5-6.1-4.8-11.6-7.2-17c-0.1-0.4-2.4-0.6-2.5-0.3 c-2.5,5.5-4.8,11.2-7.3,17.2C452.8,85.4,458,85.4,464,85.4z"></path> <path id="Shape_68_" class="st0" d="M366.1,85.2c0,6.1-0.1,11.7,0,17.2c0.1,3.1-1,4.1-4.1,4c-7.8-0.1-15.5,0-23.4,0 c-0.1-1.4-0.3-2.4-0.3-3.4c0-17,0.1-33.9-0.1-50.9c0-3.4,1.3-4.1,4.2-4.1c21,0.1,42.1,0.1,63.1,0c3.5,0,4.4,1.1,4.2,4.5 c-0.1,9.6,0,9.6-9.6,9.6c-9.9,0-19.8,0-29.7,0c-4.8,0-4.8,0-4.8,4.9c0,1.3,0,2.5,0,4.2c1.6,0.1,2.8,0.1,4,0.1 c10.9,0,21.9,0.1,32.8,0c2.8,0,4,0.8,4,3.8c0,10,0.1,10-9.6,10c-8.9,0-17.9,0-26.8,0C369.2,85.2,367.9,85.2,366.1,85.2z"></path> <path id="Shape_67_" class="st0" d="M650.2,62.8c0,14.7,0,29,0,43.6c-4.8,0-9.3,0-13.8,0c-3.4,0-6.8-0.1-10.2,0 c-2.7,0.1-3.7-0.7-3.7-3.5c0.1-11.9,0-23.7,0-35.6c0-1.4,0-2.8,0-4.7c-6.2,0-12,0-17.8,0c-7.6,0-7.8,0-7.6-7.6 c0.1-7.8-1.3-6.9,6.9-6.9c22.6,0,45.2,0,67.8,0c5.2,0,5.2,0,5.2,5.4c0,2-0.1,4,0,5.9c0.1,2.5-1,3.2-3.4,3.2 c-6.4-0.1-12.7,0-19.1,0C653.1,62.6,651.8,62.8,650.2,62.8z"></path> <path id="Shape_66_" class="st0" d="M243.3,91.3c11.3,0,22,0,32.6,0c3.5,0,8.3-1,10.5,1c1.8,1.6,0.6,6.6,0.7,10.2 c0,1.1,0,2.3,0,3.7c-23.9,0-47.5,0-71.3,0c-0.1-1-0.3-2-0.3-3.1c0-17.1,0-34,0-51.1c0-2.8,0.8-4,3.8-4c6.8,0.1,13.7,0.1,20.5,0 c2.7,0,3.7,0.8,3.7,3.7c-0.1,11.6,0,23.3,0,34.9C243.3,88.1,243.3,89.5,243.3,91.3z"></path> <path id="Shape_65_" class="st0" d="M296,106.4c0-10.7,0-21,0-31.2c0-8.1,0-16,0-24c0-2.3,0.7-3.2,3-3.1 c7.2,0.1,14.3,0.1,21.5,0c2.5,0,3.2,1.1,3.2,3.4c0,17.2,0,34.6-0.1,51.8c0,1-1.1,3-1.8,3C313.4,106.6,304.9,106.4,296,106.4z"></path> </g> </g> </g> </g> </g> </svg> 