<svg xmlns="http://www.w3.org/2000/svg" viewBox="0 0 479.35 260.65"><defs><style>.cls-1{fill:#231f20;}.cls-2{fill:#e2231a;}</style></defs><title>Asset 8</title><g id="Layer_2" data-name="Layer 2"><g id="Square_case_studies" data-name="Square case studies"><path class="cls-1" d="M26.6,199.41v-.13c3.21-1.38,5-4,5-9.38,0-7.35-3.59-11.07-11.95-11.07H6.54V221.6h12.7c8.36,0,12.83-3.27,12.83-12.52C32.08,203.11,29.81,200.34,26.6,199.41ZM16.54,186.76H18.3c2.58,0,3.4,1,3.4,4.6S20.88,196,18.3,196H16.54Zm1.7,26.92h-1.7V203.43h1.7c2.82,0,3.83,1.06,3.83,5.09S21.07,213.68,18.24,213.68Z"/><path class="cls-1" d="M94.46,214.37c-.69-2.14-1-4.15-1-14.15s.31-12,1-14.15c1.7-5.22,5.85-7.86,11.88-7.86s10.25,2.64,11.95,7.86c.69,2.14,1,4.15,1,14.15s-.31,12-1,14.15c-1.7,5.22-5.91,7.86-11.95,7.86S96.16,219.59,94.46,214.37Zm14.27-2.64c.25-.82.31-1.57.31-11.51s-.06-10.69-.31-11.51a2.32,2.32,0,0,0-2.39-1.57,2.29,2.29,0,0,0-2.33,1.57c-.25.82-.31,1.57-.31,11.51s.06,10.69.31,11.51a2.29,2.29,0,0,0,2.33,1.57A2.32,2.32,0,0,0,108.74,211.73Z"/><path class="cls-1" d="M125.34,209.21V178.84h10v31.5c0,1.89.94,3,2.58,3s2.58-1.07,2.58-3v-31.5h10v30.37c0,8.61-4.9,13-12.58,13S125.34,217.83,125.34,209.21Z"/><path class="cls-1" d="M201.71,178.84v8.93h6.91V221.6h10V187.77h6.89v-8.93Z"/><path class="cls-1" d="M251.8,187.77v-8.93H230.56V221.6H251.8v-8.93H240.55V204.5h9.81v-8.93h-9.81v-7.8Z"/><path class="cls-1" d="M278.91,187.77v-8.93H257.66V221.6h21.25v-8.93H267.66V204.5h9.81v-8.93h-9.81v-7.8Z"/><path class="cls-1" d="M389.47,214.37c-.69-2.14-1-4.15-1-14.15s.31-12,1-14.15c1.7-5.22,5.85-7.86,11.88-7.86s10.25,2.64,11.95,7.86c.69,2.14,1,4.15,1,14.15s-.31,12-1,14.15c-1.7,5.22-5.91,7.86-11.95,7.86S391.17,219.59,389.47,214.37Zm14.27-2.64c.25-.82.31-1.57.31-11.51s-.06-10.69-.31-11.51a2.32,2.32,0,0,0-2.39-1.57,2.3,2.3,0,0,0-2.33,1.57c-.25.82-.31,1.57-.31,11.51s.06,10.69.31,11.51a2.3,2.3,0,0,0,2.33,1.57A2.32,2.32,0,0,0,403.75,211.73Z"/><path class="cls-1" d="M420.35,209.21V178.84h10v31.5c0,1.89.94,3,2.58,3s2.58-1.07,2.58-3v-31.5h10v30.37c0,8.61-4.9,13-12.58,13S420.35,217.83,420.35,209.21Z"/><path class="cls-1" d="M464.37,178.84H452V221.6h10V206.38h2.39c7.55,0,13.08-4,13.08-13.77C477.45,183,472.36,178.84,464.37,178.84ZM463.81,198H462V187.26h1.83c2.52,0,3.65,1.13,3.65,5.35S466.33,198,463.81,198Z"/><path class="cls-1" d="M64.75,220.27l-9-40.52h0l-.2-.91h-11l-.14.63h0L35.3,220,35,221.6h10l.31-1.74h0l1-5.62h7.61L55,221a.85.85,0,0,0,0,.1l.1.53H65Zm-17.2-13.51,2.52-13.9h.13l2.33,13.9Z"/><polygon class="cls-1" points="91.58 178.84 90.88 178.84 82.39 178.84 81.78 178.84 80.12 185.91 80.12 185.91 78.17 194.18 77.98 194.18 75.97 185.91 75.97 185.91 74.25 178.84 73.64 178.84 65.03 178.84 64.32 178.84 64.53 179.47 64.53 179.47 64.75 180.14 66.57 185.72 66.57 185.72 72.95 205.31 72.95 221.6 82.95 221.6 82.95 205.31 91.38 179.47 91.38 179.47 91.58 178.84"/><path class="cls-1" d="M189.32,195.63l-2.58-1c-3.27-1.32-4-2.14-4-4.59,0-2.14.88-3.21,2.58-3.21s2.7,1.19,2.77,3.71v1.15h9.16c0-1.24,0-2.53,0-2.53-.25-6.73-4.34-10.94-12.32-10.94-8.24,0-12.2,4.4-12.2,12.51,0,7,2.45,10.44,8.49,12.83l2.58,1c3.14,1.19,3.84,2.2,3.84,5.09s-.94,4-2.77,4c-2,0-3-1.45-3-4.65v-1.17h-9.45c0,1.33,0,2.68,0,2.68.06,7.11,3.84,11.76,12.51,11.76,8.87,0,12.89-4.65,12.89-13.83C197.81,201.29,195.42,198,189.32,195.63Z"/><polygon class="cls-1" points="294.76 212.67 294.76 178.84 284.77 178.84 284.77 219.48 284.77 220.97 284.77 221.6 285.4 221.6 286.47 221.6 306.21 221.6 306.21 212.67 294.76 212.67"/><path class="cls-1" d="M351.55,197.77v2.45c0,10-.25,12-.94,14.14-1.7,5.23-5.79,7.87-11.77,7.87-6.22,0-10.3-2.58-12-7.8-.69-2.14-.95-4.22-.95-14.21s.26-12.07.95-14.21c1.7-5.21,5.79-7.8,12-7.8,7.32,0,11.47,3.88,12.38,10.11a25.31,25.31,0,0,1,.14,4h-9.57l-.05-1.17c-.18-2.82-1.06-4-2.89-4a2.44,2.44,0,0,0-2.39,1.64c-.25.82-.31,1.51-.31,11.45s.06,10.62.31,11.38a2.54,2.54,0,0,0,2.58,1.7,2.57,2.57,0,0,0,2.64-1.7c.21-.56.29-1.18.3-3.77,0-.55,0-1.19,0-1.93v-.39H339v-7.73Z"/><path class="cls-1" d="M384.12,221h0l-.16-.53-.09-.29h0l-5.33-17c2.77-2.13,4.46-5.59,4.46-10.81,0-9.63-5.16-13.53-12.83-13.53H357.53V221.6h10v-16h1.83l3.8,13.5h0l.53,1.89,0,0,.15.54h10.47Zm-14.77-23.58h-1.83V187.26h1.83c2.52,0,3.65,1.2,3.65,5.1S371.87,197.39,369.35,197.39Z"/><path class="cls-2" d="M6.5,239.1a.27.27,0,0,1,.29-.29h3.63a.27.27,0,0,1,.29.29v15.23a.15.15,0,0,0,.17.17h8.57a.27.27,0,0,1,.29.29V258a.27.27,0,0,1-.29.29H6.78A.27.27,0,0,1,6.5,258Z"/><path class="cls-2" d="M30.28,239.1a.37.37,0,0,1,.37-.29h3.6a.37.37,0,0,1,.37.29L41.2,258c.06.17,0,.29-.2.29H37.28a.34.34,0,0,1-.37-.29l-1.11-3.4H29L27.91,258a.34.34,0,0,1-.37.29H23.79c-.2,0-.26-.11-.2-.29ZM34.65,251l-2.2-6.8h-.09l-2.2,6.8Z"/><path class="cls-2" d="M46.58,258.25a.27.27,0,0,1-.29-.29V239.1a.27.27,0,0,1,.29-.29h7.55c4.23,0,6.77,2.54,6.77,6.26s-2.57,6.23-6.77,6.23H50.66a.15.15,0,0,0-.17.17V258a.27.27,0,0,1-.29.29Zm10.12-13.18a2.55,2.55,0,0,0-2.83-2.63h-3.2a.15.15,0,0,0-.17.17v4.89a.15.15,0,0,0,.17.17h3.2A2.53,2.53,0,0,0,56.69,245.08Z"/><path class="cls-2" d="M66.41,239.1a.27.27,0,0,1,.29-.29h3.63a.27.27,0,0,1,.29.29v15.23a.15.15,0,0,0,.17.17h8.57a.27.27,0,0,1,.29.29V258a.27.27,0,0,1-.29.29H66.7a.27.27,0,0,1-.29-.29Z"/><path class="cls-2" d="M90.2,239.1a.37.37,0,0,1,.37-.29h3.6a.37.37,0,0,1,.37.29L101.11,258c.06.17,0,.29-.2.29H97.2a.34.34,0,0,1-.37-.29l-1.11-3.4h-6.8L87.82,258a.34.34,0,0,1-.37.29H83.71c-.2,0-.26-.11-.2-.29ZM94.57,251l-2.2-6.8h-.09l-2.2,6.8Z"/><path class="cls-2" d="M104.86,248.53c0-3,.11-4,.54-5.26,1-3.17,3.52-4.77,6.92-4.77a6.84,6.84,0,0,1,6.77,4.31.22.22,0,0,1-.14.34l-3.12,1.4a.27.27,0,0,1-.4-.14,3.21,3.21,0,0,0-3.09-2.2,2.85,2.85,0,0,0-2.91,2.14c-.23.71-.31,1.4-.31,4.17s.09,3.46.31,4.17a2.85,2.85,0,0,0,2.91,2.14,3.2,3.2,0,0,0,3.09-2.2.27.27,0,0,1,.4-.14l3.12,1.4a.22.22,0,0,1,.14.34,6.84,6.84,0,0,1-6.77,4.32c-3.4,0-5.89-1.6-6.92-4.77C105,252.54,104.86,251.54,104.86,248.53Z"/><path class="cls-2" d="M124.64,239.1a.27.27,0,0,1,.29-.29h12.46a.27.27,0,0,1,.29.29v3.06a.27.27,0,0,1-.29.29H129a.15.15,0,0,0-.17.17v3.86a.15.15,0,0,0,.17.17h7a.27.27,0,0,1,.29.29v3a.27.27,0,0,1-.29.29h-7a.15.15,0,0,0-.17.17v4a.15.15,0,0,0,.17.17h8.37a.27.27,0,0,1,.29.29V258a.27.27,0,0,1-.29.29H124.93a.27.27,0,0,1-.29-.29Z"/><path class="cls-2" d="M154.72,260.65a.27.27,0,0,1-.29-.29v-23a.27.27,0,0,1,.29-.29h2.83a.27.27,0,0,1,.29.29v23a.27.27,0,0,1-.29.29Z"/><path class="cls-2" d="M175.18,239.1a.27.27,0,0,1,.29-.29h3.63a.27.27,0,0,1,.29.29v7.29a.15.15,0,0,0,.17.17h6.34a.15.15,0,0,0,.17-.17V239.1a.27.27,0,0,1,.29-.29H190a.27.27,0,0,1,.29.29V258a.27.27,0,0,1-.29.29h-3.63a.27.27,0,0,1-.29-.29v-7.49a.15.15,0,0,0-.17-.17h-6.34a.15.15,0,0,0-.17.17V258a.27.27,0,0,1-.29.29h-3.63a.27.27,0,0,1-.29-.29Z"/><path class="cls-2" d="M202.05,239.1a.37.37,0,0,1,.37-.29H206a.37.37,0,0,1,.37.29L213,258c.06.17,0,.29-.2.29h-3.72a.34.34,0,0,1-.37-.29l-1.11-3.4h-6.8l-1.09,3.4a.34.34,0,0,1-.37.29h-3.74c-.2,0-.26-.11-.2-.29ZM206.43,251l-2.2-6.8h-.08l-2.2,6.8Z"/><path class="cls-2" d="M228.81,258.25a.39.39,0,0,1-.43-.29L225,250.85h-2.6a.15.15,0,0,0-.17.17V258a.27.27,0,0,1-.29.29h-3.63a.27.27,0,0,1-.29-.29V239.1a.27.27,0,0,1,.29-.29h7.74c4,0,6.6,2.49,6.6,6a5.69,5.69,0,0,1-3.46,5.4l3.83,7.66a.22.22,0,0,1-.2.34Zm-.31-13.4a2.36,2.36,0,0,0-2.63-2.4h-3.43a.15.15,0,0,0-.17.17v4.49a.15.15,0,0,0,.17.17h3.43A2.37,2.37,0,0,0,228.49,244.85Z"/><path class="cls-2" d="M249.48,258.25A.39.39,0,0,1,249,258l-3.34-7.12h-2.6a.15.15,0,0,0-.17.17V258a.27.27,0,0,1-.29.29H239a.27.27,0,0,1-.29-.29V239.1a.27.27,0,0,1,.29-.29h7.74c4,0,6.6,2.49,6.6,6a5.69,5.69,0,0,1-3.46,5.4l3.83,7.66a.22.22,0,0,1-.2.34Zm-.31-13.4a2.36,2.36,0,0,0-2.63-2.4H243.1a.15.15,0,0,0-.17.17v4.49a.15.15,0,0,0,.17.17h3.43A2.37,2.37,0,0,0,249.16,244.85Z"/><path class="cls-2" d="M259.4,239.1a.27.27,0,0,1,.29-.29h3.63a.27.27,0,0,1,.29.29V258a.27.27,0,0,1-.29.29h-3.63a.27.27,0,0,1-.29-.29Z"/><path class="cls-2" d="M270.15,239.1a.27.27,0,0,1,.29-.29h3.4a.44.44,0,0,1,.46.29l4.92,11.09h.11l4.83-11.09a.44.44,0,0,1,.46-.29H288a.27.27,0,0,1,.29.29V258a.27.27,0,0,1-.29.29h-3.23a.27.27,0,0,1-.29-.29V247h-.11l-3.6,8.2a.55.55,0,0,1-.54.37h-2a.55.55,0,0,1-.54-.37l-3.6-8.2h-.11V258a.27.27,0,0,1-.29.29h-3.23a.27.27,0,0,1-.29-.29Z"/><path class="cls-2" d="M300,239.1a.37.37,0,0,1,.37-.29H304a.37.37,0,0,1,.37.29L310.93,258c.06.17,0,.29-.2.29H307a.34.34,0,0,1-.37-.29l-1.11-3.4h-6.8l-1.09,3.4a.34.34,0,0,1-.37.29h-3.74c-.2,0-.26-.11-.2-.29ZM304.39,251l-2.2-6.8h-.08l-2.2,6.8Z"/><path class="cls-2" d="M316,239.1a.27.27,0,0,1,.29-.29h3.43a.53.53,0,0,1,.49.29l6.86,12.23h.14V239.1a.27.27,0,0,1,.29-.29h3.23a.27.27,0,0,1,.29.29V258a.27.27,0,0,1-.29.29h-3.4a.5.5,0,0,1-.49-.29L320,245.76h-.14V258a.27.27,0,0,1-.29.29h-3.23A.27.27,0,0,1,316,258Z"/><path class="cls-2" d="M348.67,260.65a.27.27,0,0,1-.29-.29v-23a.27.27,0,0,1,.29-.29h2.83a.27.27,0,0,1,.29.29v23a.27.27,0,0,1-.29.29Z"/><path class="cls-2" d="M373.31,258.25a.37.37,0,0,1-.37-.29l-6.17-18.83c-.06-.2.06-.31.26-.31h3.72a.34.34,0,0,1,.37.29L375,251.85h.08l3.77-12.75a.34.34,0,0,1,.37-.29h3.69a.22.22,0,0,1,.23.31L377,258a.36.36,0,0,1-.34.29Z"/><path class="cls-2" d="M388.15,239.1a.27.27,0,0,1,.29-.29h3.63a.27.27,0,0,1,.29.29V258a.27.27,0,0,1-.29.29h-3.63a.27.27,0,0,1-.29-.29Z"/><path class="cls-2" d="M398.9,239.1a.27.27,0,0,1,.29-.29h3.43a.53.53,0,0,1,.49.29L410,251.34h.14V239.1a.27.27,0,0,1,.29-.29h3.23a.27.27,0,0,1,.29.29V258a.27.27,0,0,1-.29.29h-3.4a.5.5,0,0,1-.49-.29l-6.89-12.2h-.14V258a.27.27,0,0,1-.29.29h-3.23a.27.27,0,0,1-.29-.29Z"/><path class="cls-2" d="M424.74,258.25a.27.27,0,0,1-.29-.29V242.73a.15.15,0,0,0-.17-.17h-4.92a.27.27,0,0,1-.29-.29V239.1a.27.27,0,0,1,.29-.29h14.38a.27.27,0,0,1,.29.29v3.17a.27.27,0,0,1-.29.29h-4.92a.15.15,0,0,0-.17.17V258a.27.27,0,0,1-.29.29Z"/><path class="cls-2" d="M438.72,253.85a26.31,26.31,0,0,1,0-10.63c1-3.14,3.69-4.72,7.09-4.72s6.09,1.57,7.09,4.72a26.31,26.31,0,0,1,0,10.63c-1,3.14-3.69,4.72-7.09,4.72S439.72,257,438.72,253.85Zm10.15-1.14a27.9,27.9,0,0,0,0-8.35,3.25,3.25,0,0,0-6.12,0,27.81,27.81,0,0,0,0,8.35,3.25,3.25,0,0,0,6.12,0Z"/><path class="cls-2" d="M459.47,239.1a.27.27,0,0,1,.29-.29h3.43a.53.53,0,0,1,.49.29l6.86,12.23h.14V239.1a.27.27,0,0,1,.29-.29h3.23a.27.27,0,0,1,.29.29V258a.27.27,0,0,1-.29.29h-3.4a.5.5,0,0,1-.49-.29l-6.89-12.2h-.14V258a.27.27,0,0,1-.29.29h-3.23a.27.27,0,0,1-.29-.29Z"/><polygon class="cls-2" points="317.64 75.14 272.63 30.14 266.92 30.14 213.18 83.88 205.09 75.79 258.83 22.05 258.83 16.34 242.5 0 236.78 0 161.65 75.14 161.65 80.86 206.65 125.86 212.37 125.86 266.11 72.12 274.19 80.21 220.45 133.95 220.45 139.66 236.78 155.99 242.5 156 317.64 80.85 317.64 75.14"/><polygon class="cls-2" points="323.35 80.86 398.49 156 404.21 156 479.35 80.86 479.35 75.14 434.34 30.14 428.63 30.14 428.63 30.14 382.97 75.79 403.56 96.38 427.81 72.12 435.9 80.21 403.56 112.55 366.8 75.79 420.54 22.05 420.54 16.34 404.21 0 404.21 0 398.49 0 323.36 75.14 323.36 80.86 323.35 80.86"/><path class="cls-2" d="M108.13,27.28,80.85,0H75.14L0,75.14v5.72L75.14,156h5.72L156,80.86V75.14L128.72,47.86H108.13Zm4.41,52.93L80.2,112.55l-8.09-8.09,32.34-32.34ZM83.87,51.54,51.53,83.88l-8.09-8.09L75.79,43.45Z"/></g></g></svg>