<?xml version="1.0" encoding="UTF-8" standalone="no"?>
<!-- Created with Inkscape (http://www.inkscape.org/) -->

<svg
   xmlns:dc="http://purl.org/dc/elements/1.1/"
   xmlns:cc="http://creativecommons.org/ns#"
   xmlns:rdf="http://www.w3.org/1999/02/22-rdf-syntax-ns#"
   xmlns:svg="http://www.w3.org/2000/svg"
   xmlns="http://www.w3.org/2000/svg"
   xmlns:sodipodi="http://sodipodi.sourceforge.net/DTD/sodipodi-0.dtd"
   xmlns:inkscape="http://www.inkscape.org/namespaces/inkscape"
   width="272.57715mm"
   height="43.343021mm"
   viewBox="0 0 965.82454 153.57763"
   id="svg5543"
   version="1.1"
   inkscape:version="0.91 r13725"
   sodipodi:docname="utn-forma-logo.svg">
  <defs
     id="defs5545">
    <clipPath
       clipPathUnits="userSpaceOnUse"
       id="clipPath36">
      <path
         d="m 1177.077,2850.65 658.066,0 32.679,122.862 -657.58,0 -33.165,-122.862 z"
         id="path38"
         inkscape:connector-curvature="0" />
    </clipPath>
    <linearGradient
       x1="0"
       y1="0"
       x2="1"
       y2="0"
       gradientUnits="userSpaceOnUse"
       gradientTransform="matrix(15.416703,-176.21297,176.21297,15.416703,1514.8125,3000.1729)"
       spreadMethod="pad"
       id="linearGradient44">
      <stop
         style="stop-opacity:1;stop-color:#27a4d9"
         offset="0"
         id="stop46" />
      <stop
         style="stop-opacity:1;stop-color:#1e345d"
         offset="0.699997"
         id="stop48" />
      <stop
         style="stop-opacity:1;stop-color:#1e345d"
         offset="1"
         id="stop50" />
    </linearGradient>
  </defs>
  <sodipodi:namedview
     id="base"
     pagecolor="#ffffff"
     bordercolor="#666666"
     borderopacity="1.0"
     inkscape:pageopacity="0.0"
     inkscape:pageshadow="2"
     inkscape:zoom="1.2824219"
     inkscape:cx="353.39811"
     inkscape:cy="-69.918465"
     inkscape:document-units="px"
     inkscape:current-layer="layer1"
     showgrid="false"
     fit-margin-top="0"
     fit-margin-left="0"
     fit-margin-right="0"
     fit-margin-bottom="0"
     inkscape:window-width="1920"
     inkscape:window-height="1059"
     inkscape:window-x="0"
     inkscape:window-y="21"
     inkscape:window-maximized="1" />
  <metadata
     id="metadata5548">
    <rdf:RDF>
      <cc:Work
         rdf:about="">
        <dc:format>image/svg+xml</dc:format>
        <dc:type
           rdf:resource="http://purl.org/dc/dcmitype/StillImage" />
        <dc:title></dc:title>
      </cc:Work>
    </rdf:RDF>
  </metadata>
  <g
     inkscape:label="Layer 1"
     inkscape:groupmode="layer"
     id="layer1"
     transform="translate(103.16205,-308.8661)">
    <g
       transform="matrix(1.25,0,0,-1.25,-1510.5058,4025.7561)"
       id="g32">
      <g
         id="g34"
         clip-path="url(#clipPath36)">
        <g
           id="g40">
          <g
             id="g42">
            <path
               d="m 1177.077,2850.65 658.066,0 32.679,122.862 -657.58,0 -33.165,-122.862 z"
               style="fill:url(#linearGradient44);stroke:none"
               id="path52"
               inkscape:connector-curvature="0" />
          </g>
        </g>
      </g>
    </g>
    <g
       id="g62"
       transform="matrix(1.25,0,0,-1.25,308.73235,361.09674)">
      <path
         d="m 0,0 0,2.056 -10.99,0 0,-2.056 c 0,-2.439 -1.066,-4.632 -2.759,-6.151 l 0,8.207 -10.976,0 0,-8.207 c -1.688,1.519 -2.736,3.712 -2.736,6.151 l 0,2.056 -10.987,0 0,-2.056 c 0,-6.132 2.876,-11.591 7.342,-15.116 l -7.342,0 0,-10.976 7.342,0 c -4.466,-3.512 -7.342,-8.974 -7.342,-15.106 l 0,-2.065 10.987,0 0,2.065 c 0,2.44 1.048,4.641 2.736,6.147 l 0,-8.212 10.976,0 0,8.212 c 1.693,-1.506 2.759,-3.707 2.759,-6.147 l 0,-2.065 10.99,0 0,2.065 c 0,6.132 -2.88,11.594 -7.349,15.106 l 7.349,0 0,10.976 -7.349,0 C -2.88,-11.591 0,-6.132 0,0"
         style="fill:#797ca4;fill-opacity:1;fill-rule:nonzero;stroke:none"
         id="path64"
         inkscape:connector-curvature="0" />
    </g>
    <g
       id="g66"
       transform="matrix(1.25,0,0,-1.25,288.98645,382.12699)">
      <path
         d="m 0,0 0,-0.345 13.73,0 0,-6.858 -13.73,0 0,-0.35 c 7.838,-1.579 13.73,-8.514 13.73,-16.819 l -6.873,0 c 0,4.487 -2.86,8.305 -6.857,9.71 l 0,-9.71 -6.858,0 0,9.71 c -4.017,-1.405 -6.871,-5.223 -6.871,-9.71 l -6.86,0 c 0,8.305 5.896,15.24 13.731,16.819 l 0,0.35 -13.731,0 0,6.858 13.731,0 0,0.345 c -7.835,1.582 -13.731,8.507 -13.731,16.824 l 6.86,0 c 0,-4.489 2.854,-8.3 6.871,-9.722 l 0,9.722 6.858,0 0,-9.722 c 3.997,1.422 6.857,5.233 6.857,9.722 l 6.873,0 C 13.73,8.507 7.838,1.582 0,0"
         style="fill:#e3e1ec;fill-opacity:1;fill-rule:nonzero;stroke:none"
         id="path68"
         inkscape:connector-curvature="0" />
    </g>
    <g
       id="g70"
       transform="matrix(1.25,0,0,-1.25,110.26565,371.19437)">
      <path
         d="m 0,0 14.493,0 0,-32.041 10.427,0 0,32.041 14.488,0 0,8.923 L 0,8.923 0,0 Z"
         style="fill:#ffffff;fill-opacity:1;fill-rule:nonzero;stroke:none"
         id="path72"
         inkscape:connector-curvature="0" />
    </g>
    <g
       id="g74"
       transform="matrix(1.25,0,0,-1.25,88.871651,395.57612)">
      <path
         d="m 0,0 c 0,-2.387 -1.929,-4.3 -4.297,-4.3 l -0.005,0 -0.014,-0.016 -9.278,0 0,0.016 c -2.371,0.016 -4.29,1.929 -4.29,4.3 l -0.009,28.43 -10.42,0 0,-29.055 c 0,-6.995 5.662,-12.657 12.656,-12.657 l 13.425,0 c 6.993,0 12.653,5.662 12.653,12.657 l 0,29.055 L 0,28.43 0,0 Z"
         style="fill:#ffffff;fill-opacity:1;fill-rule:nonzero;stroke:none"
         id="path76"
         inkscape:connector-curvature="0" />
    </g>
    <g
       id="g78"
       transform="matrix(1.25,0,0,-1.25,205.43045,360.04137)">
      <path
         d="M 0,0 0,-25.972 -18.153,0 l -11.654,0 0,-40.963 10.421,0 0,25.955 18.149,-25.955 11.652,0 L 10.415,0 0,0 Z"
         style="fill:#ffffff;fill-opacity:1;fill-rule:nonzero;stroke:none"
         id="path80"
         inkscape:connector-curvature="0" />
    </g>
    <g
       id="g82"
       transform="matrix(1.25,0,0,-1.25,352.83895,411.24499)">
      <path
         d="m 0,0 0,6.442 22.351,0 c 2.044,0 3.707,1.674 3.721,3.708 l 0,3.925 c -0.014,2.058 -1.677,3.709 -3.721,3.725 l -11.18,0 C 4.992,17.8 0,21.746 0,27.909 l 0,2.948 c 0,6.178 4.992,10.081 11.171,10.081 l 18.629,0 0,-6.355 -18.629,0 c -2.057,0 -3.728,-1.68 -3.728,-3.726 l 0,-2.948 c 0,-2.056 1.671,-3.706 3.728,-3.718 l 11.18,0 c 6.159,0 11.156,-3.953 11.156,-10.116 l 0,-3.925 C 33.507,3.994 28.51,0.008 22.351,0 L 0,0 Z"
         style="fill:#b7b7cd;fill-opacity:1;fill-rule:nonzero;stroke:none"
         id="path84"
         inkscape:connector-curvature="0" />
    </g>
    <g
       id="g86"
       transform="matrix(1.25,0,0,-1.25,352.83895,411.25899)">
      <path
         d="M 0,0 0,-0.018 0,0 Z m 0,0 0,6.434 22.351,0 c 2.044,0 3.707,1.676 3.721,3.717 l 0,3.912 c -0.014,2.062 -1.677,3.716 -3.721,3.731 l -11.18,0 C 4.992,17.794 0,21.741 0,27.91 l 0,2.94 c 0,6.171 4.992,10.072 11.171,10.072 l 18.61,0 0,-6.347 -18.61,0 c -2.057,0 -3.728,-1.668 -3.728,-3.725 l 0,-2.94 c 0,-2.055 1.671,-3.723 3.728,-3.723 l 11.18,0 c 6.159,0 11.156,-3.945 11.156,-10.124 l 0,-3.912 C 33.507,3.981 28.51,0.011 22.351,0 L 0,0 Z"
         style="fill:#b7b7cd;fill-opacity:1;fill-rule:nonzero;stroke:none"
         id="path88"
         inkscape:connector-curvature="0" />
    </g>
    <g
       id="g90"
       transform="matrix(1.25,0,0,-1.25,469.78955,360.05112)">
      <path
         d="m 0,0 21.456,-30.502 0,30.502 7.456,0 0,-40.956 -8.321,0 -21.469,30.483 0,-30.483 -7.451,0 L -8.329,0 0,0 Z"
         style="fill:#b7b7cd;fill-opacity:1;fill-rule:nonzero;stroke:none"
         id="path92"
         inkscape:connector-curvature="0" />
    </g>
    <g
       id="g94"
       transform="matrix(1.25,0,0,-1.25,403.38815,373.07912)">
      <path
         d="m 0,0 0,-30.532 7.443,0 0,13.287 20.851,0 0,-13.287 7.439,0 0,30.532 c 0,6.171 -4.994,11.169 -11.173,11.169 l -13.382,0 C 4.987,11.169 0,6.171 0,0 m 7.443,-10.838 0,11.897 c 0,2.057 1.675,3.718 3.735,3.718 l 13.382,0 c 2.06,0 3.734,-1.661 3.734,-3.718 l 0,-11.897 -20.851,0 z"
         style="fill:#b7b7cd;fill-opacity:1;fill-rule:nonzero;stroke:none"
         id="path96"
         inkscape:connector-curvature="0" />
    </g>
    <g
       id="g98"
       transform="matrix(1.25,0,0,-1.25,559.16935,359.89674)">
      <path
         d="m 0,0 -36.455,0 0,-6.415 14.511,0 0,-34.665 7.434,0 0,34.665 14.51,0 L 0,0 Z"
         style="fill:#b7b7cd;fill-opacity:1;fill-rule:nonzero;stroke:none"
         id="path100"
         inkscape:connector-curvature="0" />
    </g>
    <g
       id="g102"
       transform="matrix(1.25,0,0,-1.25,596.67185,359.11737)">
      <path
         d="m 0,0 -13.393,0 c -6.166,0 -11.168,-4.998 -11.168,-11.169 l 0,-30.532 7.44,0 0,13.287 20.854,0 0,-13.287 7.445,0 0,30.532 C 11.178,-4.998 6.178,0 0,0 m -17.121,-22.008 0,11.897 c 0,2.057 1.669,3.718 3.728,3.718 l 13.393,0 c 2.063,0 3.728,-1.661 3.733,-3.718 l 0,-11.897 -20.854,0 z"
         style="fill:#b7b7cd;fill-opacity:1;fill-rule:nonzero;stroke:none"
         id="path104"
         inkscape:connector-curvature="0" />
    </g>
    <g
       id="g106"
       transform="matrix(1.25,0,0,-1.25,683.84355,368.01074)">
      <path
         d="m 0,0 0,6.368 -32.438,0 0,-40.955 7.451,0 0,17.8 17.536,0 0,6.4 -17.536,0 0,10.387 L 0,0 Z"
         style="fill:#b7b7cd;fill-opacity:1;fill-rule:nonzero;stroke:none"
         id="path108"
         inkscape:connector-curvature="0" />
    </g>
    <g
       id="g110"
       transform="matrix(1.25,0,0,-1.25,732.23215,368.06137)">
      <path
         d="m 0,0 0,6.408 -33.509,0 0,-40.956 33.509,0 0,6.381 -26.079,0 0,11.404 18.627,0 0,6.417 -18.627,0 0,10.346 L 0,0 Z"
         style="fill:#b7b7cd;fill-opacity:1;fill-rule:nonzero;stroke:none"
         id="path112"
         inkscape:connector-curvature="0" />
    </g>
    <g
       id="g114"
       transform="matrix(1.25,0,0,-1.25,-77.568849,462.44374)">
      <path
         d="m 0,0 20.476,0 32.682,122.861 -19.992,0 L 0,0 Z"
         style="fill:#27a4d9;fill-opacity:1;fill-rule:nonzero;stroke:none"
         id="path116"
         inkscape:connector-curvature="0" />
    </g>
    <g
       id="g118"
       transform="matrix(1.25,0,0,-1.25,-103.16205,462.44374)">
      <path
         d="m 0,0 10.23,0 32.692,122.861 -9.758,0 L 0,0 Z"
         style="fill:#b1dff3;fill-opacity:1;fill-rule:nonzero;stroke:none"
         id="path120"
         inkscape:connector-curvature="0" />
    </g>
    <g
       id="g122"
       transform="matrix(1.25,0,0,-1.25,796.22875,462.44374)">
      <path
         d="m 0,0 20.469,0 32.678,122.861 -19.982,0 L 0,0 Z"
         style="fill:#969162;fill-opacity:1;fill-rule:nonzero;stroke:none"
         id="path124"
         inkscape:connector-curvature="0" />
    </g>
  </g>
</svg>
