<svg id="Layer_1" data-name="Layer 1" xmlns="http://www.w3.org/2000/svg" viewBox="0 0 849 187"><defs><style>.cls-1{fill:#fff;}.cls-2{fill:#007155;}.cls-3,.cls-4{fill:none;}.cls-3{stroke:#007155;stroke-width:2.5px;}</style></defs><title>849-187uvmlogo-66AC47-web-4</title><rect class="cls-1" x="10.63" y="9.38" width="141.24" height="166.5"/><path class="cls-2" d="M182.06,130.75c1.94-.27,2.21-1.6,2.41-4.79.07-2.93.13-21.29.13-31.94a.58.58,0,0,0-.4-.47c-1.2-.07-8-.07-9.43.07a3.07,3.07,0,0,0-2.61,1.46,22.21,22.21,0,0,0-2.81,5.65c-.2.13-1.07-.07-1.14-.27a97.4,97.4,0,0,0,1.14-9.78,1.81,1.81,0,0,1,.6,0,14.23,14.23,0,0,0,4.95.93l29.55-.07a.28.28,0,0,0,.27-.27V87.77c0-.13.2-.47.33-.47a14.58,14.58,0,0,0,4.14-.87.36.36,0,0,1,.33.33c0,.27-.07,1.33-.13,6.59v16.5c0,.07.13.13.27.07,3.54-2.73,6.62-4.06,9.16-4.06,4.95,0,7.69,3.59,7.69,10.18,0,3.39.07,10.11.13,13a1.42,1.42,0,0,0,.4,1.2c.87.66,1.81.86,3.68,1.06a1.81,1.81,0,0,1-.27,1.06c-.87,0-3.54-.27-6.48-.2-2.21.07-5,.13-5.95.2-.2-.13-.13-.86,0-1.06a17.09,17.09,0,0,0,2.61-.53c.8-.4,1.07-.67,1.14-3.59.07-3.53.27-10.31-.33-13.37a5.9,5.9,0,0,0-6.15-4.79,7.6,7.6,0,0,0-5,1.8,2.43,2.43,0,0,0-.87,1.53c0,4.66.07,13.77.2,15.57.07,2.06.47,2.66,1.74,3a15,15,0,0,0,2.21.4c.2.2.07.86,0,1-.8,0-3.94-.13-6.68-.13-2.27,0-4.68.2-5.82.2a1.19,1.19,0,0,1,0-1.06,12.93,12.93,0,0,0,2.27-.4c1.07-.33,1.34-1.13,1.4-3.13.07-1.6.13-9.71.13-11.38,0-17.1,0-19.69-.07-22a.86.86,0,0,0-.6-.8c-2.47-.13-12.57-.07-14,0a.7.7,0,0,0-.33.6c0,9.45.07,28.54.27,32.07.13,3.73.94,4.13,2.34,4.53a16.74,16.74,0,0,0,3.68.53,1.89,1.89,0,0,1-.13,1.06c-2.34,0-6.15-.2-8.76-.2-3.68,0-7.75.27-9.49.2a1,1,0,0,1,0-1.06A33.86,33.86,0,0,0,182.06,130.75Z"/><path class="cls-2" d="M256.46,126.69a2.76,2.76,0,0,1-.13,1.13c-3.21,3.46-7.15,5.19-10.43,5.19a10.22,10.22,0,0,1-7.82-3.19c-2.54-2.73-3.48-6.59-3.48-10.18,0-5.39,2.21-9.45,5.75-11.64a15.32,15.32,0,0,1,6.82-2.13c6.22,0,8.29,5.85,8.82,9,.07.2.2.47.8.53.07.2-.07.8-.27.86-2.61.87-11.9,1.4-17,1.53-.27,0-.4.4-.4.73a12.84,12.84,0,0,0,2.47,7.32,9,9,0,0,0,7.35,3.39,9.76,9.76,0,0,0,7.29-2.79C256.25,126.49,256.46,126.56,256.46,126.69Zm-17.18-10.91c0,.2.13.4.2.4a88.49,88.49,0,0,0,11.3-.47.69.69,0,0,0,.4-.53c-.4-3.39-2.27-7.59-6.15-7.59C242,107.6,239.54,110.46,239.27,115.78Z"/><path class="cls-2" d="M272,91.43c1,0,4.28.2,7.69.2s5.75-.2,7.22-.2a1.29,1.29,0,0,1,0,1,24.23,24.23,0,0,0-2.81.6c-1.2.33-1.6,1-1.74,3.66-.2,5.19-.13,16.9,0,20.43.27,4.59.87,6.79,2.21,8.71,2.07,3.19,6.08,4.86,10.63,4.86,6,0,11.1-2.33,11.63-12.44.27-5,.4-13.64.13-20.42-.07-4-1.2-4.52-2.94-4.92-.94-.2-1.54-.2-2.81-.4a1.3,1.3,0,0,1,.07-1c1.07,0,3.28.13,7,.13,2.81,0,4.88-.13,6.08-.13a1.29,1.29,0,0,1,0,1,15,15,0,0,0-2.47.47c-1.67.53-2.14,1.46-2.27,5.19-.27,14.3-.27,18.3-1,22.62-1.4,9.65-8.22,12.64-15.58,12.64-9.83,0-14.77-4.33-15.71-12-.53-4.12-.33-19.56-.47-24.88,0-1.8-.2-3.06-1.67-3.53a21.19,21.19,0,0,0-3.21-.6C271.76,92.3,271.83,91.56,272,91.43Z"/><path class="cls-2" d="M317.82,130.88c.94-.33,1.2-1.4,1.27-2.66.2-2.33.13-6.92.13-10.78,0-3.33-.07-5.72-.13-6.19-.13-.8-.53-1.26-3.14-2-.07-.13,0-.87.2-.93A23.5,23.5,0,0,0,324,105.8a.3.3,0,0,1,.2.27c-.13,1.33-.2,2.79-.27,3.92,0,.2.13.33.27.27,4.08-3.26,7.15-4.39,9.22-4.39a6.69,6.69,0,0,1,5.95,3.39c1.2,1.86,1.6,4.39,1.6,7.59,0,3.46,0,9.58.07,12.24,0,.8.2,1.33.87,1.53a8.65,8.65,0,0,0,2.87.73c.07.2,0,.93-.2,1.06-.94,0-2.47-.2-5.82-.2s-5.15.13-6.55.2a1.46,1.46,0,0,1,0-1.06,16.82,16.82,0,0,0,2.54-.4,2,2,0,0,0,1.4-2.06,138.47,138.47,0,0,0-.13-14,7.64,7.64,0,0,0-1.94-4.26,5.36,5.36,0,0,0-4.08-1.46,8,8,0,0,0-5.41,2.2c-.47.47-.67,1-.67,2.39,0,5,0,11.44.13,14.37.07,1.93.4,2.4,1.2,2.66a12,12,0,0,0,2.81.6,3,3,0,0,1-.07,1.06c-1.14,0-3-.2-6.42-.2-3.88,0-5,.2-6.08.2a1.46,1.46,0,0,1,0-1.06A8,8,0,0,0,317.82,130.88Z"/><path class="cls-2" d="M359.93,132.42c-1.4,0-4-.2-6.15-.2-2.74,0-5.08.2-6.22.2a1.46,1.46,0,0,1,0-1.06,7.55,7.55,0,0,0,2.61-.53c.8-.33,1.14-.87,1.2-2.73.13-1.66.13-7,.13-10.65,0-2.59,0-4.92-.07-6.05a1.9,1.9,0,0,0-.4-1.33,4.79,4.79,0,0,0-2.67-1.26,2.51,2.51,0,0,1,0-1,26.8,26.8,0,0,0,8-2c-.07,1.8-.13,7.19-.13,11.24,0,3.59,0,8.32.07,11.51,0,1.4.47,2,1.4,2.33a10.88,10.88,0,0,0,2.47.47C360.13,131.55,360.13,132.35,359.93,132.42Zm-5-33.33a4.64,4.64,0,0,1-2.54.2,3.08,3.08,0,0,1-1.07-4,4.21,4.21,0,0,1,2.67-1,3,3,0,0,1,1.8.6,2.38,2.38,0,0,1,.53,1.53A3,3,0,0,1,354.92,99.08Z"/><path class="cls-2" d="M361.13,106.6c1.2,0,4,.2,5.95.2,2.67,0,4.68-.13,5.88-.2.2.13.13.86.07,1a14.33,14.33,0,0,0-2.54.6,1,1,0,0,0-.33.93c.8,2.86,5.75,15.5,6.22,16.57.07.07.27,0,.27,0,1.4-3.39,4.41-11.64,5.21-14.3.74-2.46.33-2.79-.4-3.06a11,11,0,0,0-3-.73c-.07-.2,0-.86.2-1,.74,0,3.41.2,5.55.2,1.8,0,4.14-.13,4.88-.2.2.07.13.86,0,1a14.58,14.58,0,0,0-2.21.47,3.91,3.91,0,0,0-2.34,2.46c-1.67,3.53-4.55,10.78-6.62,16.3-1.07,2.73-1.6,4.39-2,5.72a9.6,9.6,0,0,0-2.07.13c-.47-1.66-1-3.06-1.74-5.12-1.54-4.52-4-10.64-5.22-13.84-1.74-4.52-1.94-5.06-3.61-5.65a16.51,16.51,0,0,0-2.21-.47C360.87,107.47,361,106.67,361.13,106.6Z"/><path class="cls-2" d="M412.47,126.69a2.78,2.78,0,0,1-.13,1.13c-3.21,3.46-7.15,5.19-10.43,5.19a10.22,10.22,0,0,1-7.82-3.19c-2.54-2.73-3.48-6.59-3.48-10.18,0-5.39,2.21-9.45,5.75-11.64a15.32,15.32,0,0,1,6.82-2.13c6.22,0,8.29,5.85,8.82,9,.07.2.2.47.8.53.07.2-.07.8-.27.86-2.61.87-11.9,1.4-17,1.53-.27,0-.4.4-.4.73a12.84,12.84,0,0,0,2.47,7.32,9,9,0,0,0,7.35,3.39,9.77,9.77,0,0,0,7.29-2.79C412.27,126.49,412.47,126.56,412.47,126.69Zm-17.18-10.91c0,.2.13.4.2.4a88.49,88.49,0,0,0,11.3-.47.69.69,0,0,0,.4-.53c-.4-3.39-2.27-7.59-6.15-7.59C398,107.6,395.56,110.46,395.29,115.78Z"/><path class="cls-2" d="M434.87,107.27a2.43,2.43,0,0,1,0,1,13,13,0,0,1-2,3.59,4.66,4.66,0,0,1-.53.2,5.68,5.68,0,0,0-3.88-1.8c-1.41,0-2.47,1.2-3.41,2.73a6.82,6.82,0,0,0-.6,2.66c0,3.79.07,11.58.2,12.91s.4,1.93,1.27,2.26a17,17,0,0,0,3.48.53,1.19,1.19,0,0,1-.13,1.06c-.93,0-4.21-.2-6.75-.2-1.81,0-5.28.13-6.42.2a1.47,1.47,0,0,1,0-1.06,12.51,12.51,0,0,0,2.47-.47c.6-.27,1-.67,1.07-1.86s.27-6.85.27-11.84c0-2.59,0-4.72-.13-5.59-.07-.67-.27-1.8-3.28-2.53,0-.2.07-.8.2-.86a23.33,23.33,0,0,0,7.55-2.39c.07,0,.27.13.27.2-.07,1.2-.07,4.26-.07,5.52,0,.07.2.13.27.07a24.06,24.06,0,0,1,3.94-4.32,5.55,5.55,0,0,1,3.41-1.4A3.25,3.25,0,0,1,434.87,107.27Z"/><path class="cls-2" d="M453.45,112.92c-.07.2-.94.2-1.07.07-.33-3-.94-4.52-2.41-5.19a6.37,6.37,0,0,0-2.94-.67,3.93,3.93,0,0,0-4.14,4.06c0,2.26.73,3.73,5.61,6.19,5.42,2.73,6.62,4.72,6.62,7.78,0,4.52-4.14,7.85-9.69,7.85a18.87,18.87,0,0,1-6.62-1.26,41.33,41.33,0,0,1-.8-6.92c.07-.2.8-.4,1.07-.27.8,3.79,2.34,5.52,4.08,6.39a6.45,6.45,0,0,0,3,.73c2.61,0,4.61-1.6,4.61-4.06s-1.2-3.79-4.81-5.79c-5.62-2.93-7.09-5.19-7.09-8.52,0-4,3.14-7.45,9.09-7.45a21.94,21.94,0,0,1,3.81.33,23.67,23.67,0,0,0,2.41.27A38.1,38.1,0,0,0,453.45,112.92Z"/><path class="cls-2" d="M471.63,132.42c-1.41,0-4-.2-6.15-.2-2.74,0-5.08.2-6.22.2a1.47,1.47,0,0,1,0-1.06,7.54,7.54,0,0,0,2.61-.53c.8-.33,1.14-.87,1.2-2.73.13-1.66.13-7,.13-10.65,0-2.59,0-4.92-.06-6.05a1.89,1.89,0,0,0-.4-1.33,4.79,4.79,0,0,0-2.68-1.26,2.53,2.53,0,0,1,0-1,26.78,26.78,0,0,0,8-2c-.07,1.8-.13,7.19-.13,11.24,0,3.59,0,8.32.07,11.51,0,1.4.47,2,1.4,2.33a10.89,10.89,0,0,0,2.47.47C471.83,131.55,471.83,132.35,471.63,132.42Zm-5-33.33a4.64,4.64,0,0,1-2.54.2,3.07,3.07,0,0,1-1.07-4,4.2,4.2,0,0,1,2.67-1,3,3,0,0,1,1.8.6,2.38,2.38,0,0,1,.53,1.53A3,3,0,0,1,466.62,99.08Z"/><path class="cls-2" d="M483.06,109.26c-.13,0-.33.27-.33.4,0,3.79-.07,11,0,14a13.21,13.21,0,0,0,.47,4,3.5,3.5,0,0,0,3.54,2.33,6,6,0,0,0,3.68-1.06,3.65,3.65,0,0,1-.13,1.13,7.75,7.75,0,0,1-6.15,2.93c-2.14,0-4.21-.73-5.21-2.79-.8-1.6-.87-3.33-.87-7.58,0-3.53.07-10.11.07-12.77a.45.45,0,0,0-.27-.47c-.53-.13-2.41-.2-3.34-.27a11,11,0,0,1,.53-1.6,22.44,22.44,0,0,0,2.87-.53c.13-.07.2-.33.2-.4v-5.26A14.55,14.55,0,0,0,482.33,98a1.71,1.71,0,0,1,.8.13,53.31,53.31,0,0,0-.4,8.32c0,.13.2.4.33.4,3.28,0,6.42-.13,7.22-.27a19.17,19.17,0,0,0-.53,2.79C487.67,109.33,485.13,109.26,483.06,109.26Z"/><path class="cls-2" d="M492.82,106.6c1.07,0,2.34.2,5.95.2,2.67,0,5.08-.2,5.82-.2a1.3,1.3,0,0,1,.07,1,17.89,17.89,0,0,0-2.21.53.82.82,0,0,0-.47,1c.67,2.53,6,16.17,6.48,17.16h.13c2.21-4.86,5.15-12.64,5.68-16.1.13-.73.2-1.6-1.27-2.06l-2.67-.53a1.23,1.23,0,0,1,.13-1c.8,0,3.34.2,5.41.2s3.54-.13,5.15-.2a.9.9,0,0,1,0,1,12.84,12.84,0,0,0-2.07.53c-1,.33-1.74,1-2.41,2.73a232.31,232.31,0,0,1-16,35.4L498.16,150l-.33.13a5.05,5.05,0,0,1-2.54-1.6,1.13,1.13,0,0,1-.06-.66c2.34-2.93,7.55-9.71,10.43-15.84,0,0-.4-.93-.53-1.2-1.34-3.59-4.41-11.64-6.55-16.9-1.67-4.12-2.21-5.32-3.68-5.79a13.29,13.29,0,0,0-2.21-.53A1.29,1.29,0,0,1,492.82,106.6Z"/><path class="cls-2" d="M560.74,118.84a13.7,13.7,0,0,1-6.08,11.84,14.1,14.1,0,0,1-7.29,2.33c-9.43,0-12.77-7.19-12.77-13.84a12.24,12.24,0,0,1,5.68-10.78,15.23,15.23,0,0,1,8.29-2.53C556.39,105.87,560.74,111.59,560.74,118.84Zm-17.65-10.18c-1.67,1.13-3.34,3.79-3.34,9,0,7.85,3.74,13.51,9.23,13.51a6.16,6.16,0,0,0,4.08-1.46c2-2.06,2.54-4.86,2.54-8.78,0-7.45-3.27-13.24-9.16-13.24A6.13,6.13,0,0,0,543.09,108.66Z"/><path class="cls-2" d="M566.08,108.4a7,7,0,0,1,2.14-1.73H571a.48.48,0,0,0,.27-.4c1.67-9,4.48-14.1,9.56-17.83a9.58,9.58,0,0,1,5.08-2c1,0,1.94.27,1.94.87s-2.14,3.26-2.61,3.59a.51.51,0,0,1-.6.07,5.12,5.12,0,0,0-2.81-1c-1.14,0-2.34.86-3.08,2.53-1.34,2.73-2.14,6.05-3.27,13.71,0,.2.07.4.27.4a31.48,31.48,0,0,0,6.15-.53,1.47,1.47,0,0,1-.2.86,8.4,8.4,0,0,1-3.95,1.73c-.6.07-1.8.2-2.34.2a.77.77,0,0,0-.33.47c-1.14,7.25-2.28,16-3.74,23.42-2.34,12.71-9.09,17.7-14,17.7-2.21,0-3.54-1.2-3.68-2.39a11.26,11.26,0,0,1,.93-3.86.71.71,0,0,1,.6-.33,6.54,6.54,0,0,0,5.62,3.66c3,0,4.28-3.06,5.55-10.38,1.61-9.45,3.68-22.75,4.35-27.74,0-.2-.07-.47-.2-.47-1.47,0-3.74-.07-4.54-.13A.92.92,0,0,1,566.08,108.4Z"/><path class="cls-2" d="M601.17,91.43c1.47,0,4.88.2,7.75.2,3.88,0,6.08-.13,7.49-.2a1.3,1.3,0,0,1,0,1c-1.61.33-2.34.53-3.08.73a1.21,1.21,0,0,0-.8,1.8c2.07,5.79,10.49,27.55,11.5,29.87.07-.07.13.07.27,0,1-2.2,9.09-22.55,11-27.94.74-2.26.6-3.39-1.27-3.86-1-.2-1.87-.4-3.34-.6a1.68,1.68,0,0,1,.2-1c1.41,0,3.81.2,6.75.2s5.21-.2,6.42-.2a2.52,2.52,0,0,1,0,1,23.68,23.68,0,0,0-2.67.53c-1.94.53-2.61,1.73-4.41,6-1.87,4.59-7.29,17.7-10.5,25.81a81.47,81.47,0,0,0-2.74,7.92,11,11,0,0,0-2.94,0c-.8-2.59-1.67-5.59-3-9-3.34-9-8-21.22-10.09-26.28-1.34-3.19-2.07-4.19-3.81-4.52L601,92.43C600.91,92.23,601,91.5,601.17,91.43Z"/><path class="cls-2" d="M661.27,126.69a2.78,2.78,0,0,1-.13,1.13c-3.21,3.46-7.15,5.19-10.43,5.19a10.22,10.22,0,0,1-7.82-3.19c-2.54-2.73-3.48-6.59-3.48-10.18,0-5.39,2.2-9.45,5.75-11.64a15.33,15.33,0,0,1,6.82-2.13c6.22,0,8.29,5.85,8.82,9,.07.2.2.47.8.53.07.2-.07.8-.27.86-2.61.87-11.9,1.4-17,1.53-.27,0-.4.4-.4.73a12.83,12.83,0,0,0,2.47,7.32,9,9,0,0,0,7.35,3.39,9.76,9.76,0,0,0,7.29-2.79C661.07,126.49,661.27,126.56,661.27,126.69Zm-17.18-10.91c0,.2.13.4.2.4a88.46,88.46,0,0,0,11.3-.47.69.69,0,0,0,.4-.53c-.4-3.39-2.27-7.59-6.15-7.59C646.83,107.6,644.36,110.46,644.09,115.78Z"/><path class="cls-2" d="M683.67,107.27a2.5,2.5,0,0,1,0,1,13,13,0,0,1-2,3.59,4.65,4.65,0,0,1-.53.2,5.67,5.67,0,0,0-3.88-1.8c-1.4,0-2.47,1.2-3.41,2.73a6.82,6.82,0,0,0-.6,2.66c0,3.79.07,11.58.2,12.91s.4,1.93,1.27,2.26a17,17,0,0,0,3.48.53,1.19,1.19,0,0,1-.13,1.06c-.93,0-4.21-.2-6.75-.2-1.81,0-5.28.13-6.42.2a1.47,1.47,0,0,1,0-1.06,12.51,12.51,0,0,0,2.47-.47c.6-.27,1-.67,1.07-1.86s.27-6.85.27-11.84c0-2.59,0-4.72-.13-5.59-.07-.67-.27-1.8-3.28-2.53,0-.2.07-.8.2-.86A23.32,23.32,0,0,0,673,105.8c.07,0,.27.13.27.2-.07,1.2-.07,4.26-.07,5.52,0,.07.2.13.27.07a24.14,24.14,0,0,1,3.94-4.32,5.55,5.55,0,0,1,3.41-1.4A3.25,3.25,0,0,1,683.67,107.27Z"/><path class="cls-2" d="M688.54,130.82c1.14-.33,1.2-1.6,1.27-3,.13-3.39.2-10.84.2-15a3.9,3.9,0,0,0-.6-2.2,5.41,5.41,0,0,0-2.87-1.26,1.58,1.58,0,0,1,.27-1,20.05,20.05,0,0,0,7.75-2.59.3.3,0,0,1,.2.2c0,.53-.07,3.19-.07,4.12,0,.13.2.27.27.2,3.74-3,6.82-4.46,9-4.46a7.33,7.33,0,0,1,6.68,4.46c.07.2.34.13.4.07,3.55-2.73,6.82-4.52,9.49-4.52,4.95,0,7.49,3.79,7.55,10,.07,3.46.07,10.38.13,13a1.79,1.79,0,0,0,.47,1.46c.67.6,1.6.73,3.41.93.07.2,0,.93-.2,1.06-1.34,0-3.61-.2-6.28-.2-3.14,0-4.75.13-6,.2a1.47,1.47,0,0,1,0-1.06,11.41,11.41,0,0,0,2.87-.67c.87-.33.87-1.66.87-4.39.07-4.52.2-9.91-.27-12a5.64,5.64,0,0,0-6-5.12,8.69,8.69,0,0,0-5.68,2.39,1,1,0,0,0-.13.6,32.6,32.6,0,0,1,.27,4.59c0,3.53-.06,9.65.07,12.37a1.62,1.62,0,0,0,.94,1.53,8.71,8.71,0,0,0,2.94.67,1.19,1.19,0,0,1-.13,1.06c-1.87,0-3.81-.2-6.42-.2-2.41,0-4.75.2-5.95.2a1.45,1.45,0,0,1,0-1.06,10.93,10.93,0,0,0,2.54-.47c.87-.33,1-1,1.14-2.73a122.09,122.09,0,0,0-.2-14.31,5.55,5.55,0,0,0-5.75-4.72,8.68,8.68,0,0,0-4.68,1.73,2.65,2.65,0,0,0-1.27,2c0,4.32,0,12.31.06,15.77,0,1.13.13,1.93,1.34,2.26a16.14,16.14,0,0,0,2.54.47c.13.13.07,1-.13,1.06-1.54,0-3.81-.2-6.22-.2-3.48,0-4.55.2-6.22.2-.2-.13-.13-1,0-1.06A8.67,8.67,0,0,0,688.54,130.82Z"/><path class="cls-2" d="M762.28,118.84a13.7,13.7,0,0,1-6.08,11.84,14.09,14.09,0,0,1-7.28,2.33c-9.43,0-12.77-7.19-12.77-13.84a12.24,12.24,0,0,1,5.68-10.78,15.23,15.23,0,0,1,8.29-2.53C757.93,105.87,762.28,111.59,762.28,118.84Zm-17.65-10.18c-1.67,1.13-3.34,3.79-3.34,9,0,7.85,3.74,13.51,9.23,13.51a6.16,6.16,0,0,0,4.08-1.46c2-2.06,2.54-4.86,2.54-8.78,0-7.45-3.28-13.24-9.16-13.24A6.13,6.13,0,0,0,744.63,108.66Z"/><path class="cls-2" d="M769.16,130.88c.94-.33,1.2-1.4,1.27-2.66.2-2.33.13-6.92.13-10.78,0-3.33-.07-5.72-.13-6.19-.13-.8-.53-1.26-3.14-2-.07-.13,0-.87.2-.93a23.51,23.51,0,0,0,7.82-2.53.3.3,0,0,1,.2.27c-.13,1.33-.2,2.79-.27,3.92,0,.2.13.33.27.27,4.08-3.26,7.15-4.39,9.22-4.39a6.69,6.69,0,0,1,5.95,3.39c1.2,1.86,1.61,4.39,1.61,7.59,0,3.46,0,9.58.07,12.24,0,.8.2,1.33.87,1.53a8.66,8.66,0,0,0,2.87.73c.07.2,0,.93-.2,1.06-.94,0-2.47-.2-5.82-.2s-5.15.13-6.55.2a1.45,1.45,0,0,1,0-1.06,16.82,16.82,0,0,0,2.54-.4,2,2,0,0,0,1.4-2.06,138.3,138.3,0,0,0-.13-14,7.65,7.65,0,0,0-1.94-4.26,5.36,5.36,0,0,0-4.08-1.46,8,8,0,0,0-5.42,2.2c-.46.47-.67,1-.67,2.39,0,5,0,11.44.13,14.37.07,1.93.4,2.4,1.2,2.66a12,12,0,0,0,2.81.6,3,3,0,0,1-.07,1.06c-1.14,0-3-.2-6.42-.2-3.88,0-5,.2-6.08.2a1.47,1.47,0,0,1,0-1.06A8,8,0,0,0,769.16,130.88Z"/><path class="cls-2" d="M807.13,109.26c-.13,0-.33.27-.33.4,0,3.79-.07,11,0,14a13.21,13.21,0,0,0,.47,4A3.5,3.5,0,0,0,810.8,130a6,6,0,0,0,3.68-1.06,3.64,3.64,0,0,1-.13,1.13,7.75,7.75,0,0,1-6.15,2.93c-2.14,0-4.21-.73-5.21-2.79-.8-1.6-.87-3.33-.87-7.58,0-3.53.07-10.11.07-12.77a.44.44,0,0,0-.27-.47c-.53-.13-2.41-.2-3.34-.27a11.27,11.27,0,0,1,.53-1.6,22.44,22.44,0,0,0,2.87-.53c.13-.07.2-.33.2-.4v-5.26A14.52,14.52,0,0,0,806.39,98a1.7,1.7,0,0,1,.8.13,53.72,53.72,0,0,0-.4,8.32c0,.13.2.4.33.4,3.28,0,6.42-.13,7.22-.27a18.65,18.65,0,0,0-.53,2.79C811.74,109.33,809.2,109.26,807.13,109.26Z"/><polygon class="cls-2" points="91.09 72.84 87.46 72.84 81.23 37.22 84.87 72.84 80.54 72.84 80.54 31.96 91.09 72.84"/><polygon class="cls-2" points="95.47 80.66 95.47 78.75 92.83 75.91 68.25 75.91 65.61 78.75 65.61 80.66 95.47 80.66"/><path class="cls-2" d="M79.39,101.78H74.34V89.15a2.54,2.54,0,0,1,5.05,0Z"/><path class="cls-2" d="M72,101.78H67V89.15a2.54,2.54,0,0,1,5.05,0Z"/><path class="cls-2" d="M94.09,101.78H89V89.15a2.54,2.54,0,0,1,5.05,0Z"/><path class="cls-2" d="M86.74,101.78H81.69V89.15a2.54,2.54,0,0,1,5.05,0Z"/><polygon class="cls-2" points="97.08 106.98 95.24 103.55 65.84 103.55 64 106.98 97.08 106.98"/><path class="cls-2" d="M74.31,141.92H68.8v-7.84s0-2.31,2.76-2.31,2.76,2.31,2.76,2.31Z"/><path class="cls-2" d="M92.48,141.92H87v-7.84s0-2.31,2.76-2.31,2.76,2.31,2.76,2.31Z"/><path class="cls-2" d="M84,141.92H77.09v-13.8s0-2.77,3.45-2.77S84,128.12,84,128.12Z"/><polygon class="cls-2" points="56.42 141.92 60.56 141.92 80.54 114.71 100.52 141.92 104.66 141.92 80.54 109.6 56.42 141.92"/><polygon class="cls-2" points="43.79 147.47 117.29 147.47 119.13 144.81 41.95 144.81 43.79 147.47"/><path class="cls-2" d="M79.16,160H70v-7.33a23.26,23.26,0,0,1,9.19-2.2Z"/><path class="cls-2" d="M81.92,160h9.19v-7.33a23.26,23.26,0,0,0-9.19-2.2Z"/><rect class="cls-2" x="69.97" y="162.71" width="9.19" height="6.97"/><rect class="cls-2" x="81.92" y="162.71" width="9.19" height="6.97"/><path class="cls-2" d="M67.22,160H60.36a30.47,30.47,0,0,1,6.85-5.83"/><path class="cls-2" d="M67.22,169.69v-7H58.14a31.19,31.19,0,0,0-4,7H67.22"/><path class="cls-2" d="M93.86,160h6.85a30.46,30.46,0,0,0-6.85-5.83"/><path class="cls-2" d="M93.86,169.69v-7h9.07a31.19,31.19,0,0,1,4,7H93.86"/><path class="cls-2" d="M117.29,169.69v-8L120,160v-6.24l1.84-1.54v-6.65l2.76-1.74v-1.88H107.89L100.52,132l-3.45-21.36L99.83,107l-2.76-5.2V85.23l3.64-1.84v-3L94.8,73.69l-.7-.85-11-39.93,1.61-1.22-3.35-5.84a2.17,2.17,0,0,0,1.42-2.07,2.13,2.13,0,0,0-2.2-2.24V16.07h51V169.69Z"/><path class="cls-2" d="M43.79,169.69v-8L41,160v-6.24l-1.84-1.54v-6.65l-2.76-1.74v-1.88H53.19L60.56,132,64,110.67,61.24,107l2.76-5.2V85.23l-3.64-1.84v-3l5.92-6.74.7-.85L78,32.91l-1.61-1.22,3.35-5.84a2.17,2.17,0,0,1-1.42-2.07,2.13,2.13,0,0,1,2.2-2.24V16.07h-51V169.69Z"/><rect class="cls-3" x="17" y="16.07" width="128.56" height="153.62"/><rect class="cls-2" x="17" y="16.07" width="15.04" height="153.62"/><rect class="cls-2" x="130.52" y="16.07" width="15.04" height="153.62"/><rect class="cls-4" width="849" height="187"/></svg>