<?xml version="1.0" encoding="UTF-8" standalone="no"?>
<!DOCTYPE svg PUBLIC "-//W3C//DTD SVG 1.0//EN" "http://www.w3.org/TR/2001/REC-SVG-20010904/DTD/svg10.dtd">
<!-- Created with Inkscape (http://www.inkscape.org/) -->
<svg
   xmlns:svg="http://www.w3.org/2000/svg"
   xmlns="http://www.w3.org/2000/svg"
   version="1.0"
   width="800"
   height="900"
   id="svg2">
  <defs
     id="defs4" />
  <g
     id="layer1">
    <path
       d="M 344.96711,416.47116 A 104.04572,104.04572 0 1 1 136.87566,416.47116 A 104.04572,104.04572 0 1 1 344.96711,416.47116 z"
       transform="matrix(3.4220773,0,0,3.4220773,-421.42642,-1042.5809)"
       id="path2419"
       style="opacity:1;fill:#ffffff;fill-opacity:1;fill-rule:evenodd;stroke:none;stroke-width:1;stroke-linecap:square;stroke-linejoin:miter;stroke-miterlimit:4;stroke-dasharray:none;stroke-dashoffset:0;stroke-opacity:1" />
    <path
       d="M 403.04907,26.330357 C 206.38892,26.330357 46.736607,185.98264 46.736607,382.64282 C 46.736607,478.33899 84.556513,565.22009 146.02138,629.24835 L 146.02138,231.01216 L 146.02138,199.04043 L 176.42588,189.24517 L 564.08318,64.806147 C 515.70466,40.225624 460.99713,26.330357 403.04907,26.330357 z M 652.63236,128.51453 L 233.78694,262.9839 L 233.78694,696.16958 C 284.1347,723.41526 341.81869,738.87692 403.04907,738.87692 C 599.70923,738.87692 759.28317,579.30295 759.28317,382.64282 C 759.28317,283.17534 718.43606,193.16768 652.63236,128.51453 z M 575.52405,245.1957 L 575.52405,587.7948 L 487.7585,520.32503 L 487.7585,273.40606 L 575.52405,245.1957 z M 404.77304,299.73572 L 404.77304,642.33482 L 317.00749,574.86505 L 317.00749,327.94608 L 404.77304,299.73572 z"
       id="path2417"
       style="opacity:1;fill:#960000;fill-opacity:1;fill-rule:evenodd;stroke:none;stroke-width:1;stroke-linecap:square;stroke-linejoin:miter;stroke-miterlimit:4;stroke-dasharray:none;stroke-dashoffset:0;stroke-opacity:1" />
    <path
       d="M 109.16695,875.66898 L 96.480716,875.66898 L 93.555741,854.13982 C 93.351624,852.62067 93.164558,850.93144 92.994568,849.07213 C 92.824454,847.21286 92.671416,845.18352 92.535404,842.98409 C 92.217918,845.09282 91.594382,847.72303 90.664769,850.87471 C 90.460677,851.5323 90.313281,852.0198 90.222631,852.33721 L 83.454378,875.66898 L 74.40738,875.66898 L 67.639101,852.33721 C 67.548402,852.0198 67.41234,851.5323 67.230966,850.87471 C 66.278635,847.72303 65.655098,845.10418 65.360356,843.01812 C 65.224295,844.90011 65.065564,846.76505 64.884191,848.61297 C 64.702792,850.46094 64.48739,852.30324 64.237985,854.13982 L 61.31301,875.66898 L 48.694807,875.66898 L 56.381364,825.8764 L 69.815837,825.8764 L 77.33233,851.55495 C 77.377667,851.73637 77.468366,852.03114 77.604428,852.43925 C 78.307305,854.72935 78.749442,856.69069 78.930866,858.3232 C 79.021541,857.43892 79.191605,856.45828 79.441035,855.38122 C 79.690439,854.30422 80.030543,853.00611 80.461372,851.48694 L 88.04592,825.8764 L 101.5144,825.8764 L 109.16695,875.66898 z M 129.70978,857.06479 L 143.21229,857.06479 L 138.1446,840.63731 C 137.98585,840.13853 137.77045,839.33359 137.49837,838.22251 C 137.22625,837.11152 136.87481,835.68305 136.44403,833.93709 C 136.14924,835.16152 135.86014,836.32925 135.57673,837.44024 C 135.29328,838.55133 135.0042,839.617 134.70946,840.63731 L 129.70978,857.06479 z M 110.69746,875.66898 L 127.87317,825.8764 L 144.87883,825.8764 L 162.08857,875.66898 L 148.58607,875.66898 L 146.06923,866.75802 L 126.78481,866.75802 L 124.19994,875.66898 L 110.69746,875.66898 z M 166.88416,875.66898 L 166.88416,825.8764 L 180.45468,825.8764 L 180.45468,864.03711 L 197.32429,864.03711 L 197.32429,875.66898 L 166.88416,875.66898 z M 261.12955,875.66898 L 248.44334,875.66898 L 245.51836,854.13982 C 245.31424,852.62067 245.12718,850.93144 244.95716,849.07213 C 244.78707,847.21286 244.63401,845.18352 244.49803,842.98409 C 244.18054,845.09282 243.557,847.72303 242.62739,850.87471 C 242.42327,851.5323 242.2759,852.0198 242.18525,852.33721 L 235.417,875.66898 L 226.36998,875.66898 L 219.60172,852.33721 C 219.51102,852.0198 219.37496,851.5323 219.19359,850.87471 C 218.24126,847.72303 217.61772,845.10418 217.32298,843.01812 C 217.18692,844.90011 217.02819,846.76505 216.84681,848.61297 C 216.66539,850.46094 216.44999,852.30324 216.20061,854.13982 L 213.27563,875.66898 L 200.65743,875.66898 L 208.34399,825.8764 L 221.77846,825.8764 L 229.29495,851.55495 C 229.34026,851.73637 229.43096,852.03114 229.56705,852.43925 C 230.26993,854.72935 230.71206,856.69069 230.89349,858.3232 C 230.98416,857.43892 231.1542,856.45828 231.40366,855.38122 C 231.65304,854.30422 231.99316,853.00611 232.42399,851.48694 L 240.00852,825.8764 L 253.47702,825.8764 L 261.12955,875.66898 z M 319.62902,850.87471 C 319.62897,854.45728 318.97143,857.81306 317.65638,860.94207 C 316.34122,864.07114 314.42525,866.87139 311.90846,869.34287 C 309.3689,871.7917 306.4666,873.67931 303.20157,875.00575 C 299.93644,876.33219 296.54663,876.99542 293.03217,876.99542 C 289.4723,876.99542 286.06549,876.33219 282.81178,875.00575 C 279.55801,873.67931 276.69539,871.7917 274.22392,869.34287 C 271.66171,866.87139 269.71741,864.05978 268.39097,860.90807 C 267.06453,857.75636 266.4013,854.41192 266.4013,850.87471 C 266.4013,847.31489 267.06453,843.96478 268.39097,840.82438 C 269.71741,837.68403 271.66171,834.87811 274.22392,832.40659 C 276.69539,829.9578 279.55801,828.07019 282.81178,826.7437 C 286.06549,825.41729 289.4723,824.75408 293.03217,824.75403 C 296.56933,824.75408 299.97611,825.41729 303.25257,826.7437 C 306.52896,828.07019 309.41424,829.9578 311.90846,832.40659 C 314.40256,834.85542 316.31286,837.65569 317.63938,840.80738 C 318.96574,843.95911 319.62897,847.31489 319.62902,850.87471 L 319.62902,850.87471 z M 293.03217,865.49959 C 296.79606,865.49961 299.9081,864.11648 302.36827,861.35021 C 304.82839,858.58396 306.05846,855.09215 306.05851,850.87471 C 306.05846,846.70269 304.81139,843.22221 302.31727,840.43325 C 299.82307,837.64436 296.72803,836.24989 293.03217,836.24986 C 289.26824,836.24989 286.15619,837.63869 283.69605,840.41624 C 281.23588,843.19387 280.00581,846.68002 280.00584,850.87471 C 280.00581,855.13749 281.21888,858.64066 283.64505,861.38424 C 286.07116,864.12781 289.2002,865.49961 293.03217,865.49959 L 293.03217,865.49959 z M 294.73274,814.27854 C 294.73269,812.98618 295.21453,811.85814 296.17822,810.89442 C 297.14183,809.93083 298.29256,809.449 299.63036,809.44892 C 300.96811,809.449 302.11315,809.9195 303.06551,810.86039 C 304.01779,811.80144 304.49395,812.94081 304.49398,814.27854 C 304.49395,815.68439 304.02912,816.85779 303.09953,817.79871 C 302.16985,818.73976 301.01345,819.21023 299.63036,819.21018 C 298.2472,819.21023 297.08516,818.73407 296.14421,817.78171 C 295.20319,816.82945 294.73269,815.66172 294.73274,814.27854 L 294.73274,814.27854 z M 281.43431,814.27854 C 281.43428,812.98618 281.92745,811.85814 282.91381,810.89442 C 283.90012,809.93083 285.05082,809.449 286.36595,809.44892 C 287.72637,809.449 288.87143,809.9195 289.8011,810.86039 C 290.73071,811.80144 291.19554,812.94081 291.19557,814.27854 C 291.19554,815.70708 290.74204,816.88613 289.8351,817.81571 C 288.92811,818.74543 287.77173,819.21023 286.36595,819.21018 C 285.00549,819.21023 283.84342,818.73407 282.87978,817.78171 C 281.91612,816.82945 281.43428,815.66172 281.43431,814.27854 L 281.43431,814.27854 z M 349.86511,875.66898 L 349.86511,825.8764 L 363.43564,825.8764 L 363.43564,845.22886 L 381.52966,845.22886 L 381.52966,825.8764 L 395.13418,825.8764 L 395.13418,875.66898 L 381.52966,875.66898 L 381.52966,855.39823 L 363.43564,855.39823 L 363.43564,875.66898 L 349.86511,875.66898 z M 456.89873,850.87471 C 456.89868,854.45728 456.24114,857.81306 454.92609,860.94207 C 453.61093,864.07114 451.69496,866.87139 449.17817,869.34287 C 446.63861,871.7917 443.7363,873.67931 440.47128,875.00575 C 437.20615,876.33219 433.81637,876.99542 430.30188,876.99542 C 426.74201,876.99542 423.3352,876.33219 420.08148,875.00575 C 416.82771,873.67931 413.9651,871.7917 411.49362,869.34287 C 408.93142,866.87139 406.98711,864.05978 405.66068,860.90807 C 404.33424,857.75636 403.67101,854.41192 403.67101,850.87471 C 403.67101,847.31489 404.33424,843.96478 405.66068,840.82438 C 406.98711,837.68403 408.93142,834.87811 411.49362,832.40659 C 413.9651,829.9578 416.82771,828.07019 420.08148,826.7437 C 423.3352,825.41729 426.74201,824.75408 430.30188,824.75403 C 433.83903,824.75408 437.24582,825.41729 440.52228,826.7437 C 443.79867,828.07019 446.68397,829.9578 449.17817,832.40659 C 451.67229,834.85542 453.5826,837.65569 454.90908,840.80738 C 456.23547,843.95911 456.89868,847.31489 456.89873,850.87471 L 456.89873,850.87471 z M 430.30188,865.49959 C 434.06577,865.49961 437.17781,864.11648 439.638,861.35021 C 442.0981,858.58396 443.32817,855.09215 443.32822,850.87471 C 443.32817,846.70269 442.0811,843.22221 439.58698,840.43325 C 437.09278,837.64436 433.99774,836.24989 430.30188,836.24986 C 426.53794,836.24989 423.4259,837.63869 420.96578,840.41624 C 418.50561,843.19387 417.27554,846.68002 417.27554,850.87471 C 417.27554,855.13749 418.48859,858.64066 420.91475,861.38424 C 423.34087,864.12781 426.46991,865.49961 430.30188,865.49959 L 430.30188,865.49959 z M 432.00245,814.27854 C 432.00243,812.98618 432.48423,811.85814 433.44793,810.89442 C 434.41154,809.93083 435.56227,809.449 436.90007,809.44892 C 438.23782,809.449 439.38288,809.9195 440.33521,810.86039 C 441.2875,811.80144 441.76366,812.94081 441.76371,814.27854 C 441.76366,815.68439 441.29883,816.85779 440.36924,817.79871 C 439.43955,818.73976 438.28318,819.21023 436.90007,819.21018 C 435.51691,819.21023 434.35487,818.73407 433.41392,817.78171 C 432.4729,816.82945 432.00243,815.66172 432.00245,814.27854 L 432.00245,814.27854 z M 418.70402,814.27854 C 418.70402,812.98618 419.19716,811.85814 420.18352,810.89442 C 421.16983,809.93083 422.32053,809.449 423.63566,809.44892 C 424.9961,809.449 426.14114,809.9195 427.07081,810.86039 C 428.00042,811.80144 428.46525,812.94081 428.46527,814.27854 C 428.46525,815.70708 428.01175,816.88613 427.10483,817.81571 C 426.19781,818.74543 425.04144,819.21023 423.63566,819.21018 C 422.2752,819.21023 421.11313,818.73407 420.14951,817.78171 C 419.18582,816.82945 418.70402,815.66172 418.70402,814.27854 L 418.70402,814.27854 z M 489.03943,857.33687 L 489.03943,846.8954 L 515.70431,846.8954 C 515.72692,847.23555 515.74395,847.60966 515.75534,848.01777 C 515.76662,848.42593 515.77229,849.0268 515.77234,849.82037 C 515.77229,858.39126 513.51052,865.04045 508.98708,869.76803 C 504.46352,874.49558 498.09773,876.85938 489.88972,876.85938 C 485.85369,876.85938 482.26548,876.25285 479.12513,875.03978 C 475.98473,873.82671 473.17881,871.9731 470.70734,869.47893 C 468.3492,867.09813 466.51826,864.28088 465.21449,861.02711 C 463.91072,857.77336 463.25885,854.36658 463.25885,850.80671 C 463.25885,847.08816 463.89372,843.67001 465.16349,840.55228 C 466.43323,837.43462 468.32653,834.62868 470.84337,832.13449 C 473.33752,829.7084 476.20015,827.87179 479.43123,826.62464 C 482.66228,825.37762 486.14845,824.75408 489.88972,824.75403 C 494.76465,824.75408 499.0784,825.71772 502.83103,827.64498 C 506.58356,829.57233 509.74094,832.44064 512.30319,836.24986 L 500.53526,841.89575 C 499.12943,839.96847 497.5479,838.53433 495.79068,837.5933 C 494.03339,836.65236 492.06641,836.18188 489.88972,836.18183 C 485.83102,836.18188 482.63395,837.53666 480.29853,840.24618 C 477.96306,842.95578 476.79533,846.65735 476.79536,851.35088 C 476.79533,856.08982 477.96306,859.81973 480.29853,862.54061 C 482.63395,865.26152 485.83102,866.62198 489.88972,866.62196 C 493.33618,866.62198 496.21012,865.77735 498.51159,864.08812 C 500.81297,862.39891 502.15644,860.1485 502.54193,857.33687 L 489.03943,857.33687 z M 526.34987,859.58163 C 528.36785,861.87174 530.35752,863.58364 532.31885,864.71735 C 534.28016,865.85105 536.2358,866.41792 538.1858,866.41789 C 539.99972,866.41792 541.49055,865.93042 542.65828,864.95542 C 543.82599,863.98044 544.40986,862.7447 544.40988,861.24818 C 544.40986,859.59297 543.90536,858.31756 542.89638,857.4219 C 541.88735,856.52629 539.60292,855.60232 536.04309,854.64999 C 531.16812,853.33491 527.72164,851.623 525.70364,849.51427 C 523.68563,847.40559 522.67663,844.51465 522.67663,840.84138 C 522.67663,836.07985 524.2695,832.19688 527.45524,829.19251 C 530.64095,826.18822 534.77333,824.68605 539.85237,824.686 C 542.59592,824.68605 545.19777,825.05452 547.65796,825.79137 C 550.11808,826.52832 552.44785,827.64503 554.64728,829.14148 L 550.39587,838.90274 C 548.85398,837.58766 547.27247,836.59569 545.65129,835.92674 C 544.03006,835.25789 542.42586,834.92345 540.83868,834.92343 C 539.20611,834.92345 537.87968,835.31458 536.85936,836.0968 C 535.839,836.87909 535.32883,837.88243 535.32886,839.10681 C 535.32883,840.35393 535.77664,841.3516 536.6723,842.09981 C 537.56791,842.84808 539.29681,843.56231 541.85902,844.24252 L 542.47122,844.41256 C 548.00371,845.90909 551.64292,847.55299 553.38888,849.34421 C 554.56789,850.56864 555.46353,852.0368 556.07576,853.74868 C 556.68793,855.46061 556.99404,857.35956 556.99406,859.44557 C 556.99404,864.72868 555.25946,868.97443 551.79034,872.18281 C 548.32114,875.39122 543.69562,876.99542 537.9137,876.99542 C 534.44453,876.99542 531.28715,876.40589 528.44157,875.22685 C 525.59593,874.04778 522.85803,872.19984 520.22782,869.683 L 526.34987,859.58163 z M 564.68064,875.66898 L 564.68064,825.8764 L 578.11512,825.8764 L 578.11512,848.49394 L 593.86236,825.8764 L 609.67764,825.8764 L 591.27749,850.16048 L 611.27615,875.66898 L 594.33853,875.66898 L 578.11512,853.32355 L 578.11512,875.66898 L 564.68064,875.66898 z M 666.27248,850.87471 C 666.27243,854.45728 665.61486,857.81306 664.29981,860.94207 C 662.98465,864.07114 661.06868,866.87139 658.55189,869.34287 C 656.01233,871.7917 653.11005,873.67931 649.845,875.00575 C 646.57987,876.33219 643.19009,876.99542 639.67563,876.99542 C 636.11573,876.99542 632.70895,876.33219 629.4552,875.00575 C 626.20143,873.67931 623.33882,871.7917 620.86734,869.34287 C 618.30517,866.87139 616.36083,864.05978 615.03442,860.90807 C 613.70796,857.75636 613.04475,854.41192 613.04475,850.87471 C 613.04475,847.31489 613.70796,843.96478 615.03442,840.82438 C 616.36083,837.68403 618.30517,834.87811 620.86734,832.40659 C 623.33882,829.9578 626.20143,828.07019 629.4552,826.7437 C 632.70895,825.41729 636.11573,824.75408 639.67563,824.75403 C 643.21275,824.75408 646.61956,825.41729 649.89603,826.7437 C 653.17239,828.07019 656.05769,829.9578 658.55189,832.40659 C 661.04601,834.85542 662.95632,837.65569 664.28281,840.80738 C 665.60919,843.95911 666.27243,847.31489 666.27248,850.87471 L 666.27248,850.87471 z M 639.67563,865.49959 C 643.43949,865.49961 646.55153,864.11648 649.01173,861.35021 C 651.47184,858.58396 652.70192,855.09215 652.70197,850.87471 C 652.70192,846.70269 651.45484,843.22221 648.9607,840.43325 C 646.4665,837.64436 643.37148,836.24989 639.67563,836.24986 C 635.91166,836.24989 632.79965,837.63869 630.3395,840.41624 C 627.87934,843.19387 626.64926,846.68002 626.64929,850.87471 C 626.64926,855.13749 627.86233,858.64066 630.2885,861.38424 C 632.71462,864.12781 635.84366,865.49961 639.67563,865.49959 L 639.67563,865.49959 z M 674.74127,875.66898 L 674.74127,825.8764 L 688.31181,825.8764 L 688.31181,864.03711 L 705.18143,864.03711 L 705.18143,875.66898 L 674.74127,875.66898 z M 725.04405,857.06479 L 738.54655,857.06479 L 733.47885,840.63731 C 733.32011,840.13853 733.10471,839.33359 732.83264,838.22251 C 732.56052,837.11152 732.20908,835.68305 731.7783,833.93709 C 731.48351,835.16152 731.19441,836.32925 730.911,837.44024 C 730.62754,838.55133 730.33844,839.617 730.0437,840.63731 L 725.04405,857.06479 z M 706.03172,875.66898 L 723.20744,825.8764 L 740.2131,825.8764 L 757.42284,875.66898 L 743.92034,875.66898 L 741.4035,866.75802 L 722.11907,866.75802 L 719.5342,875.66898 L 706.03172,875.66898 z"
       id="text2413"
       style="font-size:27.77777672px;font-style:normal;font-variant:normal;font-weight:bold;font-stretch:normal;text-align:start;line-height:100%;writing-mode:lr-tb;text-anchor:start;fill:#000000;fill-opacity:1;stroke:none;stroke-width:1px;stroke-linecap:butt;stroke-linejoin:miter;stroke-opacity:1;font-family:Futura Md BT;-inkscape-font-specification:Futura Md BT Bold" />
  </g>
</svg>
