<?xml version="1.0" encoding="utf-8"?>
<!-- Generator: Adobe Illustrator 14.0.0, SVG Export Plug-In  -->
<!DOCTYPE svg PUBLIC "-//W3C//DTD SVG 1.1//EN" "http://www.w3.org/Graphics/SVG/1.1/DTD/svg11.dtd" [
	<!ENTITY ns_flows "http://ns.adobe.com/Flows/1.0/">
]>
<svg version="1.1"
	 xmlns="http://www.w3.org/2000/svg" xmlns:xlink="http://www.w3.org/1999/xlink" xmlns:a="http://ns.adobe.com/AdobeSVGViewerExtensions/3.0/"
	 x="0px" y="0px" width="481px" height="481px" viewBox="0 0 481 481" enable-background="new 0 0 481 481" xml:space="preserve">
<defs>
</defs>
<g>
	<defs>
		<rect id="SVGID_1_" width="480.5" height="480.5"/>
	</defs>
	<clipPath id="SVGID_2_">
		<use xlink:href="#SVGID_1_"  overflow="visible"/>
	</clipPath>
	<path clip-path="url(#SVGID_2_)" fill-rule="evenodd" clip-rule="evenodd" fill="#2E3192" d="M239.93,62.327
		c108.02,0,196.124,88.104,196.124,196.127c0,108.021-88.104,196.123-196.124,196.123c-108.021,0-196.125-88.103-196.125-196.123
		C43.805,150.431,131.909,62.327,239.93,62.327"/>
	<path clip-path="url(#SVGID_2_)" fill="none" stroke="#000000" stroke-width="0.16" stroke-miterlimit="22.926" d="M239.93,62.327
		c108.02,0,196.124,88.104,196.124,196.127c0,108.021-88.104,196.123-196.124,196.123c-108.021,0-196.125-88.103-196.125-196.123
		C43.805,150.431,131.909,62.327,239.93,62.327z"/>
	<path clip-path="url(#SVGID_2_)" fill-rule="evenodd" clip-rule="evenodd" fill="#D1D3D4" d="M239.93,66.306
		c105.831,0,192.147,86.316,192.147,192.148c0,105.83-86.316,192.146-192.147,192.146c-105.832,0-192.149-86.316-192.149-192.146
		C47.78,152.622,134.098,66.306,239.93,66.306"/>
	<path clip-path="url(#SVGID_2_)" fill="none" stroke="#000000" stroke-width="0.16" stroke-miterlimit="22.926" d="M239.93,66.306
		c105.831,0,192.147,86.316,192.147,192.148c0,105.83-86.316,192.146-192.147,192.146c-105.832,0-192.149-86.316-192.149-192.146
		C47.78,152.622,134.098,66.306,239.93,66.306z"/>
	<path clip-path="url(#SVGID_2_)" fill-rule="evenodd" clip-rule="evenodd" fill="#2E3192" d="M239.93,72.469
		c102.436,0,185.981,83.546,185.981,185.985c0,102.435-83.546,185.98-185.981,185.98c-102.438,0-185.982-83.546-185.982-185.98
		C53.947,156.016,137.491,72.469,239.93,72.469"/>
	<path clip-path="url(#SVGID_2_)" fill="none" stroke="#000000" stroke-width="0.16" stroke-miterlimit="22.926" d="M239.93,72.469
		c102.436,0,185.981,83.546,185.981,185.985c0,102.435-83.546,185.98-185.981,185.98c-102.438,0-185.982-83.546-185.982-185.98
		C53.947,156.016,137.491,72.469,239.93,72.469z"/>
	<polygon clip-path="url(#SVGID_2_)" fill-rule="evenodd" clip-rule="evenodd" fill="#FFFFFF" points="171.188,71.333 
		233.04,184.414 252.396,184.013 321.22,64.25 	"/>
	<polygon clip-path="url(#SVGID_2_)" fill-rule="evenodd" clip-rule="evenodd" fill="#FFFFFF" points="220.838,64.495 
		244.4,183.994 252.816,183.994 323.694,59.259 	"/>
	<path clip-path="url(#SVGID_2_)" fill-rule="evenodd" clip-rule="evenodd" fill="#ED1C24" d="M158.574,27.551l30.591,11.239
		c3.825-0.091,15.142-10.797,23.333-10.889c10.535-0.115,22.319,10.378,32.854,10.264l26.843-11.568l29.971,12.193l29.342-11.239
		L243.48,181.756L158.574,27.551z"/>
	<path clip-path="url(#SVGID_2_)" fill-rule="evenodd" clip-rule="evenodd" fill="#FFFFFF" d="M214.656,99.475V75.36h-9.543v-4.915
		h25.561v4.915h-9.516v24.115H214.656z M229.842,93.913h6.163v5.562h-6.163V93.913z M262.949,88.806l6.293,1.797
		c-0.967,3.169-2.569,5.524-4.814,7.061c-2.241,1.536-5.096,2.307-8.545,2.307c-4.272,0-7.782-1.319-10.532-3.948
		c-2.75-2.635-4.126-6.238-4.126-10.798c0-4.834,1.388-8.587,4.149-11.263c2.764-2.67,6.396-4.007,10.902-4.007
		c3.933,0,7.131,1.047,9.587,3.15c1.469,1.234,2.563,3.021,3.297,5.344l-6.438,1.387c-0.37-1.506-1.163-2.698-2.379-3.57
		c-1.203-0.87-2.672-1.304-4.395-1.304c-2.381,0-4.321,0.771-5.805,2.318c-1.48,1.542-2.222,4.043-2.222,7.503
		c0,3.671,0.726,6.288,2.193,7.842c1.46,1.562,3.36,2.337,5.699,2.337c1.729,0,3.212-0.493,4.456-1.486
		C261.511,92.489,262.402,90.928,262.949,88.806 M274.776,93.913h6.159v5.562h-6.159V93.913z"/>
	<path clip-path="url(#SVGID_2_)" fill-rule="evenodd" clip-rule="evenodd" fill="#D1D3D4" d="M241.983,177.278
		c46.408,0,84.257,37.849,84.257,84.256c0,46.408-37.849,84.259-84.257,84.259c-46.406,0-84.255-37.851-84.255-84.259
		C157.729,215.127,195.577,177.278,241.983,177.278"/>
	<path clip-path="url(#SVGID_2_)" fill-rule="evenodd" clip-rule="evenodd" fill="#AAA576" d="M241.983,187.552
		c40.749,0,73.982,33.234,73.982,73.982c0,40.749-33.233,73.982-73.982,73.982c-40.746,0-73.979-33.233-73.979-73.982
		C168.004,220.786,201.237,187.552,241.983,187.552"/>
	<path clip-path="url(#SVGID_2_)" fill-rule="evenodd" clip-rule="evenodd" fill="#FFFFFF" d="M190.757,277.386h-6.792v-24.034
		c-2.483,2.184-5.408,3.793-8.776,4.83v-5.785c1.766-0.542,3.698-1.572,5.779-3.09c2.08-1.525,3.51-3.302,4.275-5.328h5.514V277.386
		z M209.626,269.694l6.581-0.683c0.163,1.256,0.583,2.187,1.264,2.79c0.675,0.603,1.566,0.908,2.681,0.908
		c1.403,0,2.593-0.605,3.575-1.814c0.99-1.208,1.617-3.719,1.892-7.538c-1.712,1.868-3.847,2.797-6.407,2.797
		c-2.79,0-5.199-1.016-7.224-3.029c-2.021-2.02-3.038-4.646-3.038-7.885c0-3.379,1.073-6.096,3.212-8.163
		c2.131-2.063,4.854-3.099,8.157-3.099c3.599,0,6.547,1.309,8.857,3.918c2.304,2.611,3.457,6.902,3.457,12.876
		c0,6.088-1.203,10.473-3.605,13.166c-2.403,2.689-5.534,4.036-9.388,4.036c-2.771,0-5.012-0.688-6.72-2.074
		S210.114,272.444,209.626,269.694 M225.015,255.761c0-2.063-0.504-3.655-1.512-4.789c-1.007-1.138-2.179-1.703-3.501-1.703
		c-1.254,0-2.301,0.465-3.127,1.394c-0.834,0.927-1.247,2.454-1.247,4.578c0,2.146,0.454,3.726,1.353,4.725
		c0.901,1.007,2.033,1.511,3.388,1.511c1.303,0,2.41-0.479,3.302-1.449C224.568,259.06,225.015,257.633,225.015,255.761
		 M245.74,269.694l6.581-0.683c0.162,1.256,0.584,2.187,1.262,2.79c0.676,0.603,1.567,0.908,2.68,0.908
		c1.403,0,2.595-0.605,3.575-1.814c0.99-1.208,1.619-3.719,1.894-7.538c-1.71,1.868-3.85,2.797-6.407,2.797
		c-2.79,0-5.201-1.016-7.224-3.029c-2.022-2.02-3.038-4.646-3.038-7.885c0-3.379,1.074-6.096,3.212-8.163
		c2.13-2.063,4.854-3.099,8.155-3.099c3.601,0,6.546,1.309,8.858,3.918c2.302,2.611,3.459,6.902,3.459,12.876
		c0,6.088-1.206,10.473-3.608,13.166c-2.4,2.689-5.528,4.036-9.385,4.036c-2.773,0-5.012-0.688-6.72-2.074
		S246.229,272.444,245.74,269.694 M261.126,255.761c0-2.063-0.502-3.655-1.508-4.789c-1.009-1.138-2.183-1.703-3.501-1.703
		c-1.258,0-2.304,0.465-3.127,1.394c-0.836,0.927-1.249,2.454-1.249,4.578c0,2.146,0.453,3.726,1.354,4.725
		c0.898,1.007,2.031,1.511,3.385,1.511c1.303,0,2.41-0.479,3.302-1.449C260.681,259.06,261.126,257.633,261.126,255.761
		 M304.662,271.461v5.925h-23.823c0.263-2.238,1.03-4.359,2.328-6.365c1.288-2.009,3.838-4.664,7.632-7.979
		c3.073-2.673,4.948-4.493,5.64-5.445c0.935-1.316,1.403-2.619,1.403-3.907c0-1.417-0.403-2.508-1.223-3.274
		c-0.818-0.766-1.938-1.146-3.373-1.146c-1.422,0-2.546,0.401-3.384,1.199c-0.835,0.807-1.323,2.14-1.454,3.998l-6.77-0.634
		c0.404-3.51,1.669-6.027,3.797-7.562c2.13-1.525,4.788-2.292,7.983-2.292c3.499,0,6.248,0.889,8.247,2.655
		c1.997,1.773,2.996,3.975,2.996,6.607c0,1.494-0.291,2.921-0.858,4.276c-0.57,1.354-1.479,2.773-2.717,4.254
		c-0.823,0.983-2.312,2.4-4.448,4.244c-2.147,1.842-3.51,3.076-4.078,3.679c-0.57,0.605-1.042,1.192-1.396,1.767H304.662z"/>
	<path clip-path="url(#SVGID_2_)" fill-rule="evenodd" clip-rule="evenodd" fill="#FFFFFF" d="M160.451,114.469l-4.097,3.2
		c-1.19-1.305-2.407-2.045-3.651-2.221c-1.234-0.175-2.536,0.164-3.904,1.03c-1.442,0.915-2.344,1.913-2.681,2.992
		c-0.348,1.075-0.264,2.024,0.255,2.845c0.334,0.525,0.771,0.874,1.316,1.041c0.541,0.184,1.283,0.162,2.226-0.06
		c0.642-0.146,2.044-0.583,4.211-1.302c2.785-0.932,4.938-1.266,6.458-1.012c2.141,0.355,3.77,1.415,4.887,3.174
		c0.718,1.134,1.066,2.393,1.05,3.789c-0.018,1.394-0.469,2.729-1.345,4.012c-0.888,1.283-2.178,2.462-3.888,3.546
		c-2.797,1.771-5.281,2.492-7.467,2.162c-2.187-0.33-3.962-1.494-5.332-3.492l4.366-3.042c0.915,1.021,1.853,1.583,2.798,1.679
		c0.951,0.104,2.058-0.25,3.318-1.052c1.308-0.823,2.165-1.74,2.559-2.744c0.26-0.643,0.207-1.256-0.158-1.83
		c-0.334-0.529-0.844-0.839-1.526-0.93c-0.864-0.115-2.559,0.259-5.066,1.132c-2.515,0.864-4.468,1.359-5.862,1.47
		c-1.396,0.11-2.69-0.12-3.892-0.701c-1.199-0.583-2.242-1.578-3.13-2.981c-0.809-1.271-1.217-2.693-1.21-4.248
		c0.005-1.565,0.479-3.025,1.433-4.387c0.949-1.362,2.396-2.657,4.324-3.88c2.814-1.783,5.385-2.506,7.712-2.16
		C156.485,110.842,158.587,112.167,160.451,114.469 M138.741,151.852l-3.461,4.03l-10.823-9.282
		c-1.715-1.474-2.875-2.379-3.466-2.719c-0.966-0.527-1.98-0.677-3.028-0.453c-1.055,0.224-2.065,0.9-3.029,2.028
		c-0.982,1.141-1.492,2.207-1.521,3.192c-0.032,0.979,0.243,1.823,0.825,2.522c0.579,0.709,1.66,1.735,3.243,3.093l11.055,9.484
		l-3.461,4.034l-10.496-9.005c-2.399-2.062-4.002-3.62-4.805-4.692c-0.805-1.066-1.295-2.181-1.476-3.354
		c-0.175-1.168-0.046-2.424,0.39-3.748c0.435-1.326,1.338-2.784,2.695-4.365c1.637-1.907,3.098-3.166,4.386-3.774
		c1.286-0.607,2.526-0.892,3.721-0.864c1.191,0.03,2.256,0.287,3.183,0.773c1.372,0.713,3.174,2.032,5.411,3.952L138.741,151.852z
		 M136.941,156.267l3.283,2.815l-2.817,3.29l-3.287-2.821L136.941,156.267z M131.915,162.124l3.284,2.818l-2.831,3.298l-3.283-2.817
		L131.915,162.124z M87.358,176.942l19.554,9.803l3.501-6.982l3.982,1.999l-9.379,18.704l-3.983-1.999l3.493-6.963l-19.554-9.805
		L87.358,176.942z M78.957,229.431l-2.717,4.668c-2.633-1.401-4.428-3.147-5.389-5.248c-0.956-2.093-1.128-4.523-0.509-7.281
		c0.761-3.412,2.559-5.953,5.376-7.628c2.826-1.675,6.259-2.06,10.297-1.156c4.277,0.959,7.352,2.812,9.223,5.55
		c1.87,2.735,2.402,5.903,1.595,9.503c-0.704,3.14-2.203,5.488-4.502,7.031c-1.357,0.928-3.13,1.448-5.321,1.574l-0.075-5.413
		c1.401,0,2.595-0.398,3.585-1.194c0.988-0.79,1.634-1.879,1.941-3.255c0.425-1.902,0.092-3.604-1.014-5.096
		c-1.098-1.49-3.179-2.579-6.242-3.263c-3.249-0.729-5.694-0.669-7.331,0.197c-1.643,0.855-2.671,2.224-3.089,4.088
		c-0.31,1.382-0.14,2.663,0.516,3.854C75.953,227.551,77.177,228.572,78.957,229.431 M64.89,214.828l2.068,0.461
		c-0.394,1.18-0.708,2.265-0.932,3.27c-0.233,1.043-0.222,1.857,0.043,2.443c0.189,0.442,0.512,0.719,0.954,0.817
		c0.401,0.088,0.78-0.015,1.156-0.306c0.374-0.303,0.644-0.831,0.814-1.59c0.168-0.75,0.227-1.54,0.166-2.372l1.634,0.846
		c0.105,0.979,0.05,1.997-0.188,3.047c-0.326,1.46-0.898,2.503-1.708,3.115c-0.816,0.618-1.685,0.818-2.604,0.611
		c-1.031-0.229-1.768-0.834-2.227-1.824c-0.621-1.323-0.697-3.051-0.224-5.163C64.181,216.678,64.532,215.553,64.89,214.828
		 M92.725,255.217l0.403,5.3l-14.215,1.086c-2.256,0.172-3.719,0.353-4.375,0.53c-1.06,0.308-1.879,0.92-2.462,1.818
		c-0.586,0.905-0.822,2.098-0.71,3.575c0.116,1.507,0.508,2.619,1.185,3.334c0.667,0.719,1.46,1.119,2.366,1.204
		c0.909,0.092,2.4,0.052,4.479-0.11l14.523-1.107l0.403,5.298l-13.788,1.058c-3.154,0.237-5.389,0.268-6.716,0.08
		c-1.321-0.188-2.458-0.629-3.414-1.33c-0.952-0.704-1.747-1.683-2.375-2.926c-0.63-1.248-1.022-2.916-1.18-4.993
		c-0.192-2.505-0.05-4.43,0.433-5.769c0.48-1.343,1.153-2.419,2.02-3.243c0.865-0.82,1.8-1.391,2.797-1.708
		c1.476-0.462,3.681-0.802,6.621-1.027L92.725,255.217z M94.573,259.613l4.314-0.329l0.332,4.313l-4.314,0.331L94.573,259.613z
		 M95.162,267.309l4.317-0.331l0.33,4.334l-4.316,0.33L95.162,267.309z M76.086,313.292l24.988-8.299l1.674,5.044l-24.988,8.299
		L76.086,313.292z M102.568,304.712l4.53-1.507l1.563,4.702l-4.531,1.504L102.568,304.712z M87.78,341.361l22.241-14.096
		l4.259,6.722l-12.612,13.65l17.695-5.631l4.271,6.738l-22.238,14.094l-2.642-4.167l17.506-11.096l-20.305,6.68l-2.742-4.324
		l14.716-15.498L90.423,345.53L87.78,341.361z M136.662,397.449l-4.395-3.768l2.15-6.039l-7.985-6.854l-5.543,3.13l-4.281-3.674
		l24.928-13.306l4.268,3.662L136.662,397.449z M136.014,383.171l3.605-9.781l-9.06,5.103L136.014,383.171z M156.015,409.985
		l10.975-23.936l7.23,3.317l-3.144,18.316l11.776-14.358l7.251,3.322l-10.973,23.936l-4.485-2.058l8.637-18.84l-13.391,16.662
		l-4.654-2.135l3.902-21.013l-8.638,18.843L156.015,409.985z M216.038,403.306l5.298,0.43l-1.15,14.215
		c-0.181,2.253-0.233,3.724-0.158,4.401c0.138,1.092,0.612,1.997,1.41,2.715c0.802,0.723,1.943,1.143,3.42,1.26
		c1.502,0.122,2.664-0.091,3.479-0.645c0.813-0.552,1.331-1.272,1.557-2.152c0.23-0.882,0.425-2.362,0.594-4.438l1.175-14.519
		l5.3,0.428l-1.117,13.786c-0.256,3.153-0.574,5.368-0.969,6.642c-0.395,1.278-1.009,2.332-1.85,3.167
		c-0.844,0.829-1.932,1.46-3.261,1.889c-1.33,0.428-3.039,0.552-5.114,0.385c-2.506-0.204-4.383-0.645-5.632-1.33
		c-1.25-0.685-2.208-1.521-2.885-2.503c-0.678-0.979-1.094-1.994-1.249-3.026c-0.229-1.532-0.22-3.764,0.019-6.706L216.038,403.306z
		 M220.67,402.168l0.349-4.314l4.315,0.349l-0.351,4.315L220.67,402.168z M228.363,402.792l0.348-4.314l4.333,0.352l-0.349,4.313
		L228.363,402.792z M260.91,429.893l-4.288-25.977l5.104-0.843l13.496,15.593l-2.862-17.346l4.875-0.807l4.286,25.979l-5.267,0.87
		l-13.266-15.215l2.797,16.941L260.91,429.893z M305.845,417.895l-10.445-24.171l4.878-2.106l10.442,24.168L305.845,417.895z
		 M294.986,392.26l-1.896-4.385l4.547-1.964l1.898,4.383L294.986,392.26z M338.302,399.587l-22.631-16.421l4.76-3.257l16.499,12.325
		l-5.678-19.725l4.654-3.184l7.081,27.054L338.302,399.587z M367.095,374.847l-20.569-16.438l12.187-15.251l3.481,2.783
		l-8.869,11.095l4.562,3.644l8.252-10.323l3.46,2.767l-8.249,10.325l5.598,4.475l9.181-11.489l3.468,2.771L367.095,374.847z
		 M392.643,338.091l-23.737-11.389l4.841-10.093c1.215-2.536,2.315-4.271,3.292-5.218c0.98-0.946,2.177-1.507,3.599-1.676
		c1.424-0.164,2.834,0.089,4.234,0.763c1.783,0.854,3.006,2.086,3.665,3.688c0.655,1.6,0.636,3.521-0.065,5.748
		c1.107-0.749,2.182-1.286,3.23-1.612c1.047-0.328,2.764-0.619,5.159-0.877l6.022-0.681l-2.749,5.731l-6.83,0.988
		c-2.438,0.345-4.003,0.629-4.699,0.852c-0.699,0.223-1.255,0.547-1.68,0.969c-0.423,0.423-0.896,1.181-1.427,2.288l-0.462,0.966
		l9.91,4.754L392.643,338.091z M381.242,326.722l1.701-3.543c1.1-2.3,1.698-3.782,1.783-4.451c0.077-0.661-0.048-1.27-0.366-1.825
		c-0.319-0.549-0.831-0.997-1.546-1.34c-0.801-0.385-1.544-0.476-2.241-0.288c-0.696,0.189-1.295,0.645-1.802,1.36
		c-0.234,0.364-0.821,1.516-1.753,3.463l-1.795,3.735L381.242,326.722z M399.948,294.153l0.274-5.191
		c1.767-0.043,3.123-0.475,4.073-1.298c0.94-0.818,1.539-2.022,1.783-3.622c0.256-1.692,0.094-3.027-0.5-3.991
		c-0.584-0.967-1.356-1.525-2.313-1.671c-0.617-0.094-1.166,0.01-1.651,0.308c-0.49,0.291-0.962,0.863-1.415,1.72
		c-0.31,0.58-0.901,1.929-1.778,4.033c-1.124,2.712-2.283,4.559-3.475,5.537c-1.673,1.384-3.541,1.919-5.601,1.604
		c-1.328-0.199-2.508-0.765-3.55-1.691c-1.039-0.927-1.753-2.145-2.145-3.648c-0.382-1.509-0.427-3.259-0.127-5.258
		c0.5-3.275,1.584-5.619,3.267-7.058c1.687-1.429,3.728-2.008,6.135-1.729l-0.567,5.29c-1.373,0.021-2.409,0.359-3.104,1.01
		c-0.699,0.649-1.158,1.715-1.384,3.195c-0.23,1.527-0.104,2.775,0.396,3.73c0.314,0.617,0.812,0.979,1.485,1.081
		c0.617,0.094,1.185-0.087,1.698-0.542c0.659-0.577,1.485-2.102,2.473-4.565c0.995-2.468,1.905-4.263,2.736-5.39
		c0.833-1.126,1.855-1.949,3.083-2.478c1.227-0.521,2.66-0.656,4.305-0.408c1.49,0.228,2.827,0.853,3.998,1.88
		c1.178,1.027,1.971,2.344,2.372,3.955c0.403,1.612,0.434,3.553,0.089,5.812c-0.497,3.29-1.64,5.704-3.43,7.236
		C405.288,293.537,402.909,294.257,399.948,294.153 M412.062,249.534l-26.284,1.551l-0.313-5.308l26.282-1.548L412.062,249.534z
		 M384.259,250.972l-4.767,0.279l-0.291-4.943l4.768-0.281L384.259,250.972z M406.093,213.723l-21.09,5.8l2.069,7.526l-4.298,1.186
		l-5.547-20.177l4.299-1.18l2.064,7.513l21.092-5.798L406.093,213.723z M392.971,179.4l-22.946,12.913l-9.574-17.01l3.885-2.183
		l6.966,12.377l5.085-2.861l-6.482-11.52l3.863-2.173l6.483,11.518l6.243-3.515l-7.213-12.817l3.869-2.174L392.971,179.4z
		 M362.538,149.638l-4.038-3.271c1.005-1.456,1.45-2.807,1.345-4.058c-0.11-1.245-0.734-2.439-1.884-3.572
		c-1.221-1.201-2.394-1.854-3.521-1.941c-1.127-0.099-2.029,0.199-2.713,0.889c-0.436,0.443-0.678,0.949-0.723,1.516
		c-0.051,0.569,0.137,1.286,0.562,2.157c0.286,0.592,1.029,1.859,2.219,3.809c1.532,2.503,2.344,4.526,2.436,6.065
		c0.136,2.166-0.527,3.991-1.994,5.474c-0.94,0.959-2.091,1.578-3.456,1.879c-1.355,0.295-2.764,0.158-4.209-0.408
		c-1.447-0.58-2.891-1.569-4.329-2.992c-2.357-2.322-3.615-4.583-3.789-6.788c-0.166-2.206,0.565-4.195,2.206-5.98l3.946,3.567
		c-0.791,1.125-1.126,2.163-1.007,3.106c0.112,0.948,0.704,1.946,1.771,2.996c1.098,1.088,2.182,1.716,3.249,1.874
		c0.686,0.11,1.27-0.082,1.748-0.567c0.439-0.441,0.627-1.009,0.562-1.693c-0.08-0.87-0.826-2.434-2.241-4.683
		c-1.41-2.254-2.327-4.048-2.752-5.379c-0.422-1.338-0.485-2.652-0.192-3.954c0.301-1.298,1.032-2.535,2.201-3.723
		c1.058-1.07,2.348-1.786,3.868-2.128c1.522-0.349,3.055-0.217,4.597,0.408c1.541,0.617,3.125,1.735,4.753,3.34
		c2.37,2.34,3.653,4.68,3.839,7.029C365.178,144.958,364.361,147.304,362.538,149.638 M333.392,113.939l-14.582,21.92l-4.425-2.94
		l14.584-21.923L333.392,113.939z M317.806,137.006l-2.645,3.977l-4.124-2.741l2.644-3.979L317.806,137.006z"/>
	<path clip-path="url(#SVGID_2_)" fill="none" stroke="#FFFFFF" stroke-width="0.16" stroke-miterlimit="22.926" d="
		M160.451,114.469l-4.097,3.2c-1.19-1.305-2.407-2.045-3.651-2.221c-1.234-0.175-2.536,0.164-3.904,1.03
		c-1.442,0.915-2.344,1.913-2.681,2.992c-0.348,1.075-0.264,2.024,0.255,2.845c0.334,0.525,0.771,0.874,1.316,1.041
		c0.541,0.184,1.283,0.162,2.226-0.06c0.642-0.146,2.044-0.583,4.211-1.302c2.785-0.932,4.938-1.266,6.458-1.012
		c2.141,0.355,3.77,1.415,4.887,3.174c0.718,1.134,1.066,2.393,1.05,3.789c-0.018,1.394-0.469,2.729-1.345,4.012
		c-0.888,1.283-2.178,2.462-3.888,3.546c-2.797,1.771-5.281,2.492-7.467,2.162c-2.187-0.33-3.962-1.494-5.332-3.492l4.366-3.042
		c0.915,1.021,1.853,1.583,2.798,1.679c0.951,0.104,2.058-0.25,3.318-1.052c1.308-0.823,2.165-1.74,2.559-2.744
		c0.26-0.643,0.207-1.256-0.158-1.83c-0.334-0.529-0.844-0.839-1.526-0.93c-0.864-0.115-2.559,0.259-5.066,1.132
		c-2.515,0.864-4.468,1.359-5.862,1.47c-1.396,0.11-2.69-0.12-3.892-0.701c-1.199-0.583-2.242-1.578-3.13-2.981
		c-0.809-1.271-1.217-2.693-1.21-4.248c0.005-1.565,0.479-3.025,1.433-4.387c0.949-1.362,2.396-2.657,4.324-3.88
		c2.814-1.783,5.385-2.506,7.712-2.16C156.485,110.842,158.587,112.167,160.451,114.469z M138.741,151.852l-3.461,4.03
		l-10.823-9.282c-1.715-1.474-2.875-2.379-3.466-2.719c-0.966-0.527-1.98-0.677-3.028-0.453c-1.055,0.224-2.065,0.9-3.029,2.028
		c-0.982,1.141-1.492,2.207-1.521,3.192c-0.032,0.979,0.243,1.823,0.825,2.522c0.579,0.709,1.66,1.735,3.243,3.093l11.055,9.484
		l-3.461,4.034l-10.496-9.005c-2.399-2.062-4.002-3.62-4.805-4.692c-0.805-1.066-1.295-2.181-1.476-3.354
		c-0.175-1.168-0.046-2.424,0.39-3.748c0.435-1.326,1.338-2.784,2.695-4.365c1.637-1.907,3.098-3.166,4.386-3.774
		c1.286-0.607,2.526-0.892,3.721-0.864c1.191,0.03,2.256,0.287,3.183,0.773c1.372,0.713,3.174,2.032,5.411,3.952L138.741,151.852z
		 M136.941,156.267l3.283,2.815l-2.817,3.29l-3.287-2.821L136.941,156.267z M131.915,162.124l3.284,2.818l-2.831,3.298l-3.283-2.817
		L131.915,162.124z M87.358,176.942l19.554,9.803l3.501-6.982l3.982,1.999l-9.379,18.704l-3.983-1.999l3.493-6.963l-19.554-9.805
		L87.358,176.942z M78.957,229.431l-2.717,4.668c-2.633-1.401-4.428-3.147-5.389-5.248c-0.956-2.093-1.128-4.523-0.509-7.281
		c0.761-3.412,2.559-5.953,5.376-7.628c2.826-1.675,6.259-2.06,10.297-1.156c4.277,0.959,7.352,2.812,9.223,5.55
		c1.87,2.735,2.402,5.903,1.595,9.503c-0.704,3.14-2.203,5.488-4.502,7.031c-1.357,0.928-3.13,1.448-5.321,1.574l-0.075-5.413
		c1.401,0,2.595-0.398,3.585-1.194c0.988-0.79,1.634-1.879,1.941-3.255c0.425-1.902,0.092-3.604-1.014-5.096
		c-1.098-1.49-3.179-2.579-6.242-3.263c-3.249-0.729-5.694-0.669-7.331,0.197c-1.643,0.855-2.671,2.224-3.089,4.088
		c-0.31,1.382-0.14,2.663,0.516,3.854C75.953,227.551,77.177,228.572,78.957,229.431z M64.89,214.828l2.068,0.461
		c-0.394,1.18-0.708,2.265-0.932,3.27c-0.233,1.043-0.222,1.857,0.043,2.443c0.189,0.442,0.512,0.719,0.954,0.817
		c0.401,0.088,0.78-0.015,1.156-0.306c0.374-0.303,0.644-0.831,0.814-1.59c0.168-0.75,0.227-1.54,0.166-2.372l1.634,0.846
		c0.105,0.979,0.05,1.997-0.188,3.047c-0.326,1.46-0.898,2.503-1.708,3.115c-0.816,0.618-1.685,0.818-2.604,0.611
		c-1.031-0.229-1.768-0.834-2.227-1.824c-0.621-1.323-0.697-3.051-0.224-5.163C64.181,216.678,64.532,215.553,64.89,214.828z
		 M92.725,255.217l0.403,5.3l-14.215,1.086c-2.256,0.172-3.719,0.353-4.375,0.53c-1.06,0.308-1.879,0.92-2.462,1.818
		c-0.586,0.905-0.822,2.098-0.71,3.575c0.116,1.507,0.508,2.619,1.185,3.334c0.667,0.719,1.46,1.119,2.366,1.204
		c0.909,0.092,2.4,0.052,4.479-0.11l14.523-1.107l0.403,5.298l-13.788,1.058c-3.154,0.237-5.389,0.268-6.716,0.08
		c-1.321-0.188-2.458-0.629-3.414-1.33c-0.952-0.704-1.747-1.683-2.375-2.926c-0.63-1.248-1.022-2.916-1.18-4.993
		c-0.192-2.505-0.05-4.43,0.433-5.769c0.48-1.343,1.153-2.419,2.02-3.243c0.865-0.82,1.8-1.391,2.797-1.708
		c1.476-0.462,3.681-0.802,6.621-1.027L92.725,255.217z M94.573,259.613l4.314-0.329l0.332,4.313l-4.314,0.331L94.573,259.613z
		 M95.162,267.309l4.317-0.331l0.33,4.334l-4.316,0.33L95.162,267.309z M76.086,313.292l24.988-8.299l1.674,5.044l-24.988,8.299
		L76.086,313.292z M102.568,304.712l4.53-1.507l1.563,4.702l-4.531,1.504L102.568,304.712z M87.78,341.361l22.241-14.096
		l4.259,6.722l-12.612,13.65l17.695-5.631l4.271,6.738l-22.238,14.094l-2.642-4.167l17.506-11.096l-20.305,6.68l-2.742-4.324
		l14.716-15.498L90.423,345.53L87.78,341.361z M136.662,397.449l-4.395-3.768l2.15-6.039l-7.985-6.854l-5.543,3.13l-4.281-3.674
		l24.928-13.306l4.268,3.662L136.662,397.449z M136.014,383.171l3.605-9.781l-9.06,5.103L136.014,383.171z M156.015,409.985
		l10.975-23.936l7.23,3.317l-3.144,18.316l11.776-14.358l7.251,3.322l-10.973,23.936l-4.485-2.058l8.637-18.84l-13.391,16.662
		l-4.654-2.135l3.902-21.013l-8.638,18.843L156.015,409.985z M216.038,403.306l5.298,0.43l-1.15,14.215
		c-0.181,2.253-0.233,3.724-0.158,4.401c0.138,1.092,0.612,1.997,1.41,2.715c0.802,0.723,1.943,1.143,3.42,1.26
		c1.502,0.122,2.664-0.091,3.479-0.645c0.813-0.552,1.331-1.272,1.557-2.152c0.23-0.882,0.425-2.362,0.594-4.438l1.175-14.519
		l5.3,0.428l-1.117,13.786c-0.256,3.153-0.574,5.368-0.969,6.642c-0.395,1.278-1.009,2.332-1.85,3.167
		c-0.844,0.829-1.932,1.46-3.261,1.889c-1.33,0.428-3.039,0.552-5.114,0.385c-2.506-0.204-4.383-0.645-5.632-1.33
		c-1.25-0.685-2.208-1.521-2.885-2.503c-0.678-0.979-1.094-1.994-1.249-3.026c-0.229-1.532-0.22-3.764,0.019-6.706L216.038,403.306z
		 M220.67,402.168l0.349-4.314l4.315,0.349l-0.351,4.315L220.67,402.168z M228.363,402.792l0.348-4.314l4.333,0.352l-0.349,4.313
		L228.363,402.792z M260.91,429.893l-4.288-25.977l5.104-0.843l13.496,15.593l-2.862-17.346l4.875-0.807l4.286,25.979l-5.267,0.87
		l-13.266-15.215l2.797,16.941L260.91,429.893z M305.845,417.895l-10.445-24.171l4.878-2.106l10.442,24.168L305.845,417.895z
		 M294.986,392.26l-1.896-4.385l4.547-1.964l1.898,4.383L294.986,392.26z M338.302,399.587l-22.631-16.421l4.76-3.257l16.499,12.325
		l-5.678-19.725l4.654-3.184l7.081,27.054L338.302,399.587z M367.095,374.847l-20.569-16.438l12.187-15.251l3.481,2.783
		l-8.869,11.095l4.562,3.644l8.252-10.323l3.46,2.767l-8.249,10.325l5.598,4.475l9.181-11.489l3.468,2.771L367.095,374.847z
		 M392.643,338.091l-23.737-11.389l4.841-10.093c1.215-2.536,2.315-4.271,3.292-5.218c0.98-0.946,2.177-1.507,3.599-1.676
		c1.424-0.164,2.834,0.089,4.234,0.763c1.783,0.854,3.006,2.086,3.665,3.688c0.655,1.6,0.636,3.521-0.065,5.748
		c1.107-0.749,2.182-1.286,3.23-1.612c1.047-0.328,2.764-0.619,5.159-0.877l6.022-0.681l-2.749,5.731l-6.83,0.988
		c-2.438,0.345-4.003,0.629-4.699,0.852c-0.699,0.223-1.255,0.547-1.68,0.969c-0.423,0.423-0.896,1.181-1.427,2.288l-0.462,0.966
		l9.91,4.754L392.643,338.091z M381.242,326.722l1.701-3.543c1.1-2.3,1.698-3.782,1.783-4.451c0.077-0.661-0.048-1.27-0.366-1.825
		c-0.319-0.549-0.831-0.997-1.546-1.34c-0.801-0.385-1.544-0.476-2.241-0.288c-0.696,0.189-1.295,0.645-1.802,1.36
		c-0.234,0.364-0.821,1.516-1.753,3.463l-1.795,3.735L381.242,326.722z M399.948,294.153l0.274-5.191
		c1.767-0.043,3.123-0.475,4.073-1.298c0.94-0.818,1.539-2.022,1.783-3.622c0.256-1.692,0.094-3.027-0.5-3.991
		c-0.584-0.967-1.356-1.525-2.313-1.671c-0.617-0.094-1.166,0.01-1.651,0.308c-0.49,0.291-0.962,0.863-1.415,1.72
		c-0.31,0.58-0.901,1.929-1.778,4.033c-1.124,2.712-2.283,4.559-3.475,5.537c-1.673,1.384-3.541,1.919-5.601,1.604
		c-1.328-0.199-2.508-0.765-3.55-1.691c-1.039-0.927-1.753-2.145-2.145-3.648c-0.382-1.509-0.427-3.259-0.127-5.258
		c0.5-3.275,1.584-5.619,3.267-7.058c1.687-1.429,3.728-2.008,6.135-1.729l-0.567,5.29c-1.373,0.021-2.409,0.359-3.104,1.01
		c-0.699,0.649-1.158,1.715-1.384,3.195c-0.23,1.527-0.104,2.775,0.396,3.73c0.314,0.617,0.812,0.979,1.485,1.081
		c0.617,0.094,1.185-0.087,1.698-0.542c0.659-0.577,1.485-2.102,2.473-4.565c0.995-2.468,1.905-4.263,2.736-5.39
		c0.833-1.126,1.855-1.949,3.083-2.478c1.227-0.521,2.66-0.656,4.305-0.408c1.49,0.228,2.827,0.853,3.998,1.88
		c1.178,1.027,1.971,2.344,2.372,3.955c0.403,1.612,0.434,3.553,0.089,5.812c-0.497,3.29-1.64,5.704-3.43,7.236
		C405.288,293.537,402.909,294.257,399.948,294.153z M412.062,249.534l-26.284,1.551l-0.313-5.308l26.282-1.548L412.062,249.534z
		 M384.259,250.972l-4.767,0.279l-0.291-4.943l4.768-0.281L384.259,250.972z M406.093,213.723l-21.09,5.8l2.069,7.526l-4.298,1.186
		l-5.547-20.177l4.299-1.18l2.064,7.513l21.092-5.798L406.093,213.723z M392.971,179.4l-22.946,12.913l-9.574-17.01l3.885-2.183
		l6.966,12.377l5.085-2.861l-6.482-11.52l3.863-2.173l6.483,11.518l6.243-3.515l-7.213-12.817l3.869-2.174L392.971,179.4z
		 M362.538,149.638l-4.038-3.271c1.005-1.456,1.45-2.807,1.345-4.058c-0.11-1.245-0.734-2.439-1.884-3.572
		c-1.221-1.201-2.394-1.854-3.521-1.941c-1.127-0.099-2.029,0.199-2.713,0.889c-0.436,0.443-0.678,0.949-0.723,1.516
		c-0.051,0.569,0.137,1.286,0.562,2.157c0.286,0.592,1.029,1.859,2.219,3.809c1.532,2.503,2.344,4.526,2.436,6.065
		c0.136,2.166-0.527,3.991-1.994,5.474c-0.94,0.959-2.091,1.578-3.456,1.879c-1.355,0.295-2.764,0.158-4.209-0.408
		c-1.447-0.58-2.891-1.569-4.329-2.992c-2.357-2.322-3.615-4.583-3.789-6.788c-0.166-2.206,0.565-4.195,2.206-5.98l3.946,3.567
		c-0.791,1.125-1.126,2.163-1.007,3.106c0.112,0.948,0.704,1.946,1.771,2.996c1.098,1.088,2.182,1.716,3.249,1.874
		c0.686,0.11,1.27-0.082,1.748-0.567c0.439-0.441,0.627-1.009,0.562-1.693c-0.08-0.87-0.826-2.434-2.241-4.683
		c-1.41-2.254-2.327-4.048-2.752-5.379c-0.422-1.338-0.485-2.652-0.192-3.954c0.301-1.298,1.032-2.535,2.201-3.723
		c1.058-1.07,2.348-1.786,3.868-2.128c1.522-0.349,3.055-0.217,4.597,0.408c1.541,0.617,3.125,1.735,4.753,3.34
		c2.37,2.34,3.653,4.68,3.839,7.029C365.178,144.958,364.361,147.304,362.538,149.638z M333.392,113.939l-14.582,21.92l-4.425-2.94
		l14.584-21.923L333.392,113.939z M317.806,137.006l-2.645,3.977l-4.124-2.741l2.644-3.979L317.806,137.006z"/>
	<path clip-path="url(#SVGID_2_)" fill-rule="evenodd" clip-rule="evenodd" fill="#FFFFFF" d="M185.408,146.949l13.009,24.465
		l-4.939,2.623l-5.772-10.859l-4.205,16.166l-6.643,3.532l4.145-14.428l-17.654-9.771l6.391-3.397l12.827,7.909l1.836-6.223
		l-3.931-7.393L185.408,146.949z M129.485,199.438l3.579-4.927l6.517,1.747l6.511-8.964l-3.753-5.548l3.487-4.802l16.072,25.02
		l-3.476,4.785L129.485,199.438z M144.407,197.548l10.565,2.953l-6.121-9.073L144.407,197.548z M119.171,226.195l27.439,3.858
		l-0.781,5.545l-10.797-1.518l-1.525,10.854l10.797,1.516l-0.779,5.539l-27.437-3.854l0.779-5.54l11.995,1.688l1.526-10.854
		l-11.999-1.687L119.171,226.195z M116.581,279.129l26.494-8.1l3.445,11.265c0.868,2.829,1.252,4.96,1.171,6.386
		c-0.082,1.43-0.613,2.717-1.593,3.862c-0.985,1.143-2.256,1.952-3.823,2.431c-1.986,0.607-3.814,0.523-5.466-0.246
		c-1.646-0.772-3.003-2.271-4.046-4.496c-0.323,1.366-0.771,2.549-1.35,3.548s-1.701,2.449-3.371,4.356l-4.181,4.819l-1.955-6.396
		l4.587-5.633c1.641-2.007,2.649-3.342,3.029-4.008c0.382-0.671,0.583-1.321,0.612-1.949c0.023-0.629-0.148-1.554-0.528-2.788
		l-0.326-1.079l-11.063,3.381L116.581,279.129z M133.509,279.81l1.211,3.953c0.783,2.568,1.379,4.139,1.79,4.713
		c0.413,0.57,0.941,0.955,1.584,1.157c0.639,0.194,1.356,0.178,2.152-0.063c0.894-0.274,1.534-0.734,1.939-1.377
		c0.405-0.644,0.544-1.422,0.427-2.337c-0.076-0.448-0.445-1.76-1.107-3.93l-1.276-4.17L133.509,279.81z M152.279,347.489
		l-3.748-4.8l3.473-5.783l-6.819-8.729l-6.368,2.077l-3.654-4.677l28.479-8.554l3.643,4.662L152.279,347.489z M154.574,332.622
		l5.754-9.341l-10.41,3.384L154.574,332.622z M174.863,365.056l11.709-25.109l7.59,3.536l-3.434,19.253l12.491-15.03l7.606,3.548
		l-11.71,25.111l-4.706-2.193l9.216-19.767l-14.204,17.438l-4.881-2.273l4.248-22.087l-9.22,19.77L174.863,365.056z
		 M254.076,382.477h-6.091l-2.419-6.295h-11.077l-2.283,6.295h-5.934l10.791-27.709h5.915L254.076,382.477z M243.774,371.517
		l-3.82-10.285l-3.743,10.285H243.774z M281.592,375.503l-11.271-25.313l4.977-2.215l17.885,12.291l-7.522-16.901l4.747-2.116
		l11.271,25.313l-5.133,2.285l-17.553-11.968l7.352,16.511L281.592,375.503z M326.182,347.572l-20.262-18.896l5.711-6.124
		l17.251,9.216l-10.438-16.526l5.726-6.138l20.264,18.894l-3.543,3.802l-15.949-14.875l12.198,18.9l-3.675,3.939l-19.688-10.865
		l15.951,14.875L326.182,347.572z M363.644,275.762l-1.474,5.91l-6.693,0.823l-2.68,10.748l5.556,3.74l-1.436,5.758l-24.274-17.175
		l1.432-5.741L363.644,275.762z M350.517,283.107l-10.898,1.218l9.068,6.119L350.517,283.107z M363.547,247.683l-27.434,3.854
		l-1.643-11.662c-0.413-2.934-0.46-5.095-0.157-6.493c0.305-1.398,1.03-2.588,2.178-3.564c1.151-0.977,2.533-1.573,4.157-1.804
		c2.058-0.288,3.845,0.079,5.358,1.098c1.504,1.021,2.609,2.716,3.292,5.077c0.535-1.3,1.161-2.397,1.889-3.294
		c0.728-0.898,2.063-2.155,4.01-3.777l4.882-4.108l0.932,6.627l-5.41,4.846c-1.934,1.723-3.14,2.883-3.62,3.485
		c-0.483,0.601-0.779,1.211-0.908,1.829c-0.122,0.612-0.094,1.555,0.085,2.833l0.157,1.117l11.454-1.607L363.547,247.683z
		 M346.932,244.363l-0.575-4.095c-0.373-2.659-0.716-4.303-1.032-4.937c-0.316-0.627-0.779-1.088-1.382-1.389
		c-0.601-0.293-1.31-0.39-2.135-0.274c-0.927,0.13-1.634,0.485-2.133,1.055c-0.498,0.575-0.758,1.319-0.786,2.241
		c0.007,0.454,0.164,1.81,0.479,4.056l0.607,4.32L346.932,244.363z M334.116,176.62l3.496,4.986l-3.772,5.594l6.354,9.071
		l6.466-1.739l3.406,4.861l-28.889,7.053l-3.393-4.848L334.116,176.62z M331.048,191.345l-6.234,9.025l10.572-2.833L331.048,191.345
		z M309.324,166.039l-4.901-2.429c0.697-1.726,0.845-3.216,0.446-4.479c-0.396-1.25-1.312-2.33-2.757-3.233
		c-1.525-0.954-2.882-1.353-4.06-1.183c-1.18,0.158-2.041,0.67-2.58,1.536c-0.35,0.56-0.479,1.131-0.395,1.725
		c0.077,0.596,0.437,1.29,1.072,2.083c0.43,0.543,1.487,1.674,3.153,3.402c2.151,2.219,3.449,4.11,3.899,5.669
		c0.636,2.194,0.375,4.219-0.788,6.078c-0.749,1.199-1.786,2.103-3.118,2.725c-1.323,0.615-2.802,0.798-4.418,0.548
		c-1.619-0.259-3.327-0.944-5.134-2.073c-2.954-1.848-4.765-3.875-5.452-6.101c-0.679-2.227-0.385-4.438,0.892-6.649l4.87,2.759
		c-0.551,1.332-0.656,2.479-0.316,3.418c0.333,0.949,1.171,1.838,2.506,2.671c1.379,0.861,2.637,1.26,3.768,1.176
		c0.729-0.046,1.286-0.376,1.666-0.983c0.348-0.56,0.41-1.179,0.186-1.866c-0.282-0.88-1.408-2.311-3.379-4.298
		c-1.966-1.99-3.319-3.618-4.065-4.89c-0.737-1.275-1.105-2.611-1.104-4.015c0.01-1.403,0.477-2.842,1.403-4.326
		c0.84-1.346,2.002-2.379,3.484-3.081c1.482-0.708,3.085-0.922,4.81-0.637c1.727,0.279,3.613,1.063,5.652,2.336
		c2.97,1.859,4.823,3.969,5.558,6.336C310.957,160.624,310.659,163.224,309.324,166.039 M312.738,148.561l-1.186,1.896
		c-1.032-0.808-2.001-1.497-2.921-2.072c-0.947-0.593-1.764-0.867-2.438-0.807c-0.507,0.031-0.892,0.257-1.145,0.661
		c-0.228,0.367-0.259,0.78-0.097,1.257c0.164,0.475,0.596,0.927,1.291,1.361c0.685,0.428,1.449,0.76,2.294,0.993l-1.407,1.325
		c-1.009-0.235-1.999-0.648-2.961-1.252c-1.338-0.83-2.168-1.763-2.494-2.783c-0.328-1.026-0.226-1.957,0.303-2.799
		c0.586-0.94,1.442-1.462,2.585-1.572c1.532-0.154,3.273,0.373,5.204,1.579C311.147,147.211,312.138,147.951,312.738,148.561"/>
	<path clip-path="url(#SVGID_2_)" fill="none" stroke="#FFFFFF" stroke-width="0.16" stroke-miterlimit="22.926" d="
		M185.408,146.949l13.009,24.465l-4.939,2.623l-5.772-10.859l-4.205,16.166l-6.643,3.532l4.145-14.428l-17.654-9.771l6.391-3.397
		l12.827,7.909l1.836-6.223l-3.931-7.393L185.408,146.949z M129.485,199.438l3.579-4.927l6.517,1.747l6.511-8.964l-3.753-5.548
		l3.487-4.802l16.072,25.02l-3.476,4.785L129.485,199.438z M144.407,197.548l10.565,2.953l-6.121-9.073L144.407,197.548z
		 M119.171,226.195l27.439,3.858l-0.781,5.545l-10.797-1.518l-1.525,10.854l10.797,1.516l-0.779,5.539l-27.437-3.854l0.779-5.54
		l11.995,1.688l1.526-10.854l-11.999-1.687L119.171,226.195z M116.581,279.129l26.494-8.1l3.445,11.265
		c0.868,2.829,1.252,4.96,1.171,6.386c-0.082,1.43-0.613,2.717-1.593,3.862c-0.985,1.143-2.256,1.952-3.823,2.431
		c-1.986,0.607-3.814,0.523-5.466-0.246c-1.646-0.772-3.003-2.271-4.046-4.496c-0.323,1.366-0.771,2.549-1.35,3.548
		s-1.701,2.449-3.371,4.356l-4.181,4.819l-1.955-6.396l4.587-5.633c1.641-2.007,2.649-3.342,3.029-4.008
		c0.382-0.671,0.583-1.321,0.612-1.949c0.023-0.629-0.148-1.554-0.528-2.788l-0.326-1.079l-11.063,3.381L116.581,279.129z
		 M133.509,279.81l1.211,3.953c0.783,2.568,1.379,4.139,1.79,4.713c0.413,0.57,0.941,0.955,1.584,1.157
		c0.639,0.194,1.356,0.178,2.152-0.063c0.894-0.274,1.534-0.734,1.939-1.377c0.405-0.644,0.544-1.422,0.427-2.337
		c-0.076-0.448-0.445-1.76-1.107-3.93l-1.276-4.17L133.509,279.81z M152.279,347.489l-3.748-4.8l3.473-5.783l-6.819-8.729
		l-6.368,2.077l-3.654-4.677l28.479-8.554l3.643,4.662L152.279,347.489z M154.574,332.622l5.754-9.341l-10.41,3.384L154.574,332.622
		z M174.863,365.056l11.709-25.109l7.59,3.536l-3.434,19.253l12.491-15.03l7.606,3.548l-11.71,25.111l-4.706-2.193l9.216-19.767
		l-14.204,17.438l-4.881-2.273l4.248-22.087l-9.22,19.77L174.863,365.056z M254.076,382.477h-6.091l-2.419-6.295h-11.077
		l-2.283,6.295h-5.934l10.791-27.709h5.915L254.076,382.477z M243.774,371.517l-3.82-10.285l-3.743,10.285H243.774z
		 M281.592,375.503l-11.271-25.313l4.977-2.215l17.885,12.291l-7.522-16.901l4.747-2.116l11.271,25.313l-5.133,2.285l-17.553-11.968
		l7.352,16.511L281.592,375.503z M326.182,347.572l-20.262-18.896l5.711-6.124l17.251,9.216l-10.438-16.526l5.726-6.138
		l20.264,18.894l-3.543,3.802l-15.949-14.875l12.198,18.9l-3.675,3.939l-19.688-10.865l15.951,14.875L326.182,347.572z
		 M363.644,275.762l-1.474,5.91l-6.693,0.823l-2.68,10.748l5.556,3.74l-1.436,5.758l-24.274-17.175l1.432-5.741L363.644,275.762z
		 M350.517,283.107l-10.898,1.218l9.068,6.119L350.517,283.107z M363.547,247.683l-27.434,3.854l-1.643-11.662
		c-0.413-2.934-0.46-5.095-0.157-6.493c0.305-1.398,1.03-2.588,2.178-3.564c1.151-0.977,2.533-1.573,4.157-1.804
		c2.058-0.288,3.845,0.079,5.358,1.098c1.504,1.021,2.609,2.716,3.292,5.077c0.535-1.3,1.161-2.397,1.889-3.294
		c0.728-0.898,2.063-2.155,4.01-3.777l4.882-4.108l0.932,6.627l-5.41,4.846c-1.934,1.723-3.14,2.883-3.62,3.485
		c-0.483,0.601-0.779,1.211-0.908,1.829c-0.122,0.612-0.094,1.555,0.085,2.833l0.157,1.117l11.454-1.607L363.547,247.683z
		 M346.932,244.363l-0.575-4.095c-0.373-2.659-0.716-4.303-1.032-4.937c-0.316-0.627-0.779-1.088-1.382-1.389
		c-0.601-0.293-1.31-0.39-2.135-0.274c-0.927,0.13-1.634,0.485-2.133,1.055c-0.498,0.575-0.758,1.319-0.786,2.241
		c0.007,0.454,0.164,1.81,0.479,4.056l0.607,4.32L346.932,244.363z M334.116,176.62l3.496,4.986l-3.772,5.594l6.354,9.071
		l6.466-1.739l3.406,4.861l-28.889,7.053l-3.393-4.848L334.116,176.62z M331.048,191.345l-6.234,9.025l10.572-2.833L331.048,191.345
		z M309.324,166.039l-4.901-2.429c0.697-1.726,0.845-3.216,0.446-4.479c-0.396-1.25-1.312-2.33-2.757-3.233
		c-1.525-0.954-2.882-1.353-4.06-1.183c-1.18,0.158-2.041,0.67-2.58,1.536c-0.35,0.56-0.479,1.131-0.395,1.725
		c0.077,0.596,0.437,1.29,1.072,2.083c0.43,0.543,1.487,1.674,3.153,3.402c2.151,2.219,3.449,4.11,3.899,5.669
		c0.636,2.194,0.375,4.219-0.788,6.078c-0.749,1.199-1.786,2.103-3.118,2.725c-1.323,0.615-2.802,0.798-4.418,0.548
		c-1.619-0.259-3.327-0.944-5.134-2.073c-2.954-1.848-4.765-3.875-5.452-6.101c-0.679-2.227-0.385-4.438,0.892-6.649l4.87,2.759
		c-0.551,1.332-0.656,2.479-0.316,3.418c0.333,0.949,1.171,1.838,2.506,2.671c1.379,0.861,2.637,1.26,3.768,1.176
		c0.729-0.046,1.286-0.376,1.666-0.983c0.348-0.56,0.41-1.179,0.186-1.866c-0.282-0.88-1.408-2.311-3.379-4.298
		c-1.966-1.99-3.319-3.618-4.065-4.89c-0.737-1.275-1.105-2.611-1.104-4.015c0.01-1.403,0.477-2.842,1.403-4.326
		c0.84-1.346,2.002-2.379,3.484-3.081c1.482-0.708,3.085-0.922,4.81-0.637c1.727,0.279,3.613,1.063,5.652,2.336
		c2.97,1.859,4.823,3.969,5.558,6.336C310.957,160.624,310.659,163.224,309.324,166.039z M312.738,148.561l-1.186,1.896
		c-1.032-0.808-2.001-1.497-2.921-2.072c-0.947-0.593-1.764-0.867-2.438-0.807c-0.507,0.031-0.892,0.257-1.145,0.661
		c-0.228,0.367-0.259,0.78-0.097,1.257c0.164,0.475,0.596,0.927,1.291,1.361c0.685,0.428,1.449,0.76,2.294,0.993l-1.407,1.325
		c-1.009-0.235-1.999-0.648-2.961-1.252c-1.338-0.83-2.168-1.763-2.494-2.783c-0.328-1.026-0.226-1.957,0.303-2.799
		c0.586-0.94,1.442-1.462,2.585-1.572c1.532-0.154,3.273,0.373,5.204,1.579C311.147,147.211,312.138,147.951,312.738,148.561z"/>
</g>
</svg>
