<svg id="Layer_1" data-name="Layer 1" xmlns="http://www.w3.org/2000/svg" viewBox="0 0 420 400"><defs><style>.cls-1{fill:#fff;}.cls-2{fill:#c8102e;}</style></defs><title>Interlocking UH White Red 2</title><polygon class="cls-1" points="315.15 206.69 315.15 167.67 258.17 167.67 258.17 139.02 270.04 139.02 270.04 100 196.67 100 196.67 139.02 207.74 139.02 207.74 167.67 167.14 167.67 167.14 139.02 178.22 139.02 178.22 100 104.85 100 104.85 139.02 116.72 139.02 116.72 210.24 139.55 229.89 162.63 229.89 162.63 261.01 150.76 261.01 150.76 300 224.13 300 224.13 261.01 213.06 261.01 213.06 253.82 252.85 253.82 252.85 261.01 241.78 261.01 241.78 300 315.15 300 315.15 261.01 303.28 261.01 303.28 206.69 315.15 206.69"/><path class="cls-2" d="M309.6,201.14V173.22h-57V133.47h11.87V105.55H202.22v27.92h11.07v39.75h-51.7V133.47h11.08V105.55H110.4v27.92h11.87v74.22l19.34,16.65h26.57v42.22H156.31v27.89h62.27V266.56H207.51V248.27H258.4v18.29H247.34v27.89H309.6V266.56H297.73V201.14ZM240.71,218.7l17.34-15.37V218.7Z"/><polygon class="cls-1" points="218.57 201.13 207.5 201.13 207.5 219.06 231.82 219.06 247.35 205.27 247.35 128.19 259.21 128.19 259.21 110.83 207.5 110.83 207.5 128.19 218.57 128.19 218.57 201.13"/><polygon class="cls-1" points="168.19 201.13 156.32 201.13 156.32 128.19 167.39 128.19 167.39 110.83 115.68 110.83 115.68 128.19 127.55 128.19 127.55 205.27 143.56 219.06 168.19 219.06 168.19 201.13"/><polygon class="cls-1" points="304.32 195.87 304.32 178.5 252.61 178.5 252.61 195.87 263.68 195.87 263.68 224.33 202.23 224.33 202.23 195.87 213.3 195.87 213.3 178.5 161.59 178.5 161.59 195.87 173.46 195.87 173.46 271.83 161.59 271.83 161.59 289.18 213.3 289.18 213.3 271.83 202.23 271.83 202.23 242.99 263.68 242.99 263.68 271.83 252.61 271.83 252.61 289.18 304.32 289.18 304.32 271.83 292.46 271.83 292.46 195.87 304.32 195.87"/><path class="cls-1" d="M322.461,293.7v-.034a6.335,6.335,0,0,1,12.67-.035v.035a6.335,6.335,0,0,1-12.67.034Zm11.287-.034v-.031a4.953,4.953,0,1,0-9.9.031v.03a4.953,4.953,0,1,0,9.9-.03Zm-7.413-3.126H329.1a2.732,2.732,0,0,1,2.013.663,1.816,1.816,0,0,1,.51,1.355v.03a1.856,1.856,0,0,1-1.222,1.816l1.424,2.063h-1.9l-1.207-1.8h-.727v1.8h-1.656Zm2.739,2.849c.572,0,.9-.262.9-.693v-.032c0-.477-.354-.708-.913-.708h-1.067v1.433Z"/></svg>