<svg id="Layer_1" data-name="Layer 1" xmlns="http://www.w3.org/2000/svg" viewBox="0 0 125 72.55"><defs><style>.cls-1{fill:#fff;}.cls-2{fill:#c4c4c4;}.cls-3{fill:#d40026;}.cls-4{fill:#004b85;}</style></defs><title>fau-light</title><path class="cls-1" d="M54.63,49.89l-1.27,3.88c3.51-.27,7.12-.5,10.77-.67l3.18-5.67H78.48l2.91,5.48c3.54.09,7.09.25,10.58.47l-1.44-4.07L88,49.13,78.39,32.22H68.14L57,49.66Zm18.67-14,3.5,6.52H69.47Z" transform="translate(-12.9 -26.22)"/><path class="cls-1" d="M126.19,32.26c0-.15-.12-.1-.12-.1-4.86,1.95-11.83,2.12-13.63,2.12h-12.3l1.27,3.89H103l4,11.53-6.45-.64L97.46,38.17h1.69L98,34.28H85.55l1,3.89h2.09l2.61,10.68c.89,3.63,4.64,4.69,10.88,5.31l6.75.67c7.19.71,9.81,1,7.83-3.51l-3.16-7.16c-.34-.78.12-1.24.85-1.24a1.38,1.38,0,0,1,1.33.89c0,.08.1,0,.1,0,.8-1.32-1.18-2.39-1.18-2.39a8.5,8.5,0,0,0,5.14-1.11c.11-.14-.08-.14-.08-.14-2.73,0-3.64-.6-3.64-.6,5.15-1,7.13-3,7.19-3.19s-.11-.11-.11-.11a29.47,29.47,0,0,1-5.77.29A15.47,15.47,0,0,0,126.19,32.26Z" transform="translate(-12.9 -26.22)"/><path class="cls-1" d="M32.73,51.87l-2.09,4.31c4.88-.65,10.86-1.36,17.4-2l1.46-4-4.42.33,1.32-3.6,8.24-.36L57.91,42l-9.85.36,1.16-4.22h6.19L55,39.94h7.67l.9-5.66H40.07s-8.52-.1-14-2.3c0,0-.14,0-.12.1a15.47,15.47,0,0,0,8.82,4.33A29.52,29.52,0,0,1,29,36.12s-.17-.05-.12.11,2,2.21,7.19,3.19c0,0-.91.57-3.64.6,0,0-.19,0-.09.14a8.5,8.5,0,0,0,5.14,1.11l-.23,1.1H35.38l1.78,4.12-1.9,5Z" transform="translate(-12.9 -26.22)"/><polygon class="cls-1" points="106.57 27.42 105.16 27.24 105.27 27.68 105.71 27.74 106.1 29.32 106.63 29.39 106.24 27.81 106.68 27.87 106.57 27.42"/><polygon class="cls-1" points="108.37 27.66 108.2 28.68 107.51 27.55 106.99 27.48 107.14 29.45 107.67 29.52 107.56 28.38 108.32 29.61 108.53 29.63 108.74 28.54 109.18 29.72 109.71 29.79 108.9 27.73 108.37 27.66"/><path class="cls-1" d="M57.6,89.44l-2.24-.37a1.89,1.89,0,0,1-1.6-1.34,2.46,2.46,0,0,0-1.5,1.42,5.58,5.58,0,0,1-.61-2.05,2.36,2.36,0,0,1,2.57-2.49,8,8,0,0,1,1.71.25,1.64,1.64,0,0,1-.24-1.11,1.7,1.7,0,0,0-1.33.33,2.31,2.31,0,0,1,0-1.29l-8.4.88c1.83,3.7,6.55,6.86,12.93,8.88l.13-.17A4.65,4.65,0,0,1,57.6,89.44Z" transform="translate(-12.9 -26.22)"/><path class="cls-1" d="M54.44,69.62a52,52,0,0,1,10,1.37,3.33,3.33,0,0,1-.58-2.08,3.38,3.38,0,0,0,1.35.64A2.73,2.73,0,0,1,64.75,67a9,9,0,0,0,3.19,1.85,30.94,30.94,0,0,1,14.93,0A9,9,0,0,0,86.05,67a2.73,2.73,0,0,1-.51,2.56,3.38,3.38,0,0,0,1.35-.64A3.32,3.32,0,0,1,86.31,71a52,52,0,0,1,10-1.37c-5.44-2.54-12.82-4.11-21-4.11S59.88,67.08,54.44,69.62Z" transform="translate(-12.9 -26.22)"/><path class="cls-1" d="M88.14,90.63l.62-2.4-1.46-1.32L86.58,88l-4.45-3.35c-.12.53.34,1.08.67,1.39a46.78,46.78,0,0,1,4.31,4.3,21.61,21.61,0,0,1-23.42,0A46.65,46.65,0,0,1,68,86c.33-.31.78-.87.67-1.39L64.22,88l-.71-1.07L62,88.23l.62,2.4A2.74,2.74,0,0,1,62,93.41a59.84,59.84,0,0,0,26.73,0A2.74,2.74,0,0,1,88.14,90.63Z" transform="translate(-12.9 -26.22)"/><path class="cls-1" d="M96.44,84.09a1.7,1.7,0,0,0-1.33-.33,1.64,1.64,0,0,1-.24,1.11,8,8,0,0,1,1.71-.25,2.36,2.36,0,0,1,2.57,2.49,5.58,5.58,0,0,1-.61,2.05A2.47,2.47,0,0,0,97,87.74a1.89,1.89,0,0,1-1.6,1.34l-2.24.37a4.65,4.65,0,0,1-1.46,2.94l.13.17c6.38-2,11.1-5.17,12.93-8.88l-8.4-.87A2.3,2.3,0,0,1,96.44,84.09Z" transform="translate(-12.9 -26.22)"/><path class="cls-1" d="M70.77,75.24a1,1,0,0,0,.85-.4L70.06,74a.63.63,0,0,0-.24.48A.86.86,0,0,0,70.77,75.24Z" transform="translate(-12.9 -26.22)"/><path class="cls-1" d="M80,75.24a.86.86,0,0,0,.95-.73.63.63,0,0,0-.24-.48l-1.56.81A1,1,0,0,0,80,75.24Z" transform="translate(-12.9 -26.22)"/><polygon class="cls-1" points="22.13 34.72 22.55 34.67 22.55 37.59 22.13 37.64 22.13 38.69 24.67 38.37 24.67 37.33 24.27 37.38 24.27 36.31 25.55 36.15 25.55 35.24 24.27 35.4 24.27 34.45 25.2 34.34 25.2 34.89 26.69 34.7 26.69 33.11 22.13 33.67 22.13 34.72"/><polygon class="cls-1" points="30.25 36.6 29.48 36.69 29.48 33.77 29.88 33.72 29.88 32.68 27.38 32.98 27.38 34.03 27.78 33.98 27.78 36.9 27.38 36.95 27.38 37.99 31.84 37.45 31.84 35.52 30.25 35.71 30.25 36.6"/><path class="cls-1" d="M47.15,63.42l1.14-.12c.54-.06,1.27-.14,1.49-.82a2.88,2.88,0,0,0,.08-.84V59.56a1.6,1.6,0,0,0-.19-1c-.29-.38-.85-.34-1.45-.28L47,58.42c-.47.05-1.09.12-1.36.67a1.82,1.82,0,0,0-.13.84v2.45a.92.92,0,0,0,.39.93A2.29,2.29,0,0,0,47.15,63.42Zm.07-1.06V59.44l.93-.1v2.92l-.93.1Z" transform="translate(-12.9 -26.22)"/><path class="cls-1" d="M54.7,62.7l1.18-.1v-1l-.42,0v-.54a.83.83,0,0,0-.24-.65,1.06,1.06,0,0,0-.63-.21c.89-.31.9-.75.9-1.41a.89.89,0,0,0-.34-.87A1.92,1.92,0,0,0,54,57.75L50.72,58v1l.4,0V62l-.4,0v1l2.12-.19v-2l1-.08v1.52C53.81,62.73,54.06,62.75,54.7,62.7Zm-1.86-2.81v-1l1-.08v1Z" transform="translate(-12.9 -26.22)"/><polygon class="cls-1" points="43.77 35.28 43.77 36.33 46.31 36.15 46.31 35.1 45.89 35.13 45.89 32.21 46.31 32.18 46.31 31.14 43.77 31.32 43.77 32.36 44.18 32.33 44.18 35.25 43.77 35.28"/><path class="cls-1" d="M60.09,61.26v1l3.22-.17c.51,0,1.09-.06,1.37-.58a1.76,1.76,0,0,0,.15-.87V58.35c0-.41,0-.94-.59-1.15a2.57,2.57,0,0,0-1-.07l-3.18.17v1l.4,0v2.92Zm2.1-3,.93,0V61.1l-.93,0Z" transform="translate(-12.9 -26.22)"/><path class="cls-1" d="M68.59,60.66l.22,1.21,1.92-.07v-1h-.43l-.88-3.94-2.72.1-.86,4-.46,0v1l1.93-.07.21-1.23Zm-.52-2.95.39,2.09-.79,0Z" transform="translate(-12.9 -26.22)"/><path class="cls-1" d="M77.72,56.73H75l-.86,4h-.46v1h1.93l.21-1.22h1.06l.22,1.22H79v-1H78.6ZM76,59.66l.4-2.1.39,2.1Z" transform="translate(-12.9 -26.22)"/><polygon class="cls-1" points="71.3 32.58 71.3 30.73 65.92 30.54 65.92 32.4 67.13 32.44 67.13 31.63 67.76 31.65 67.76 34.58 67.35 34.56 67.35 35.6 69.87 35.69 69.87 34.65 69.46 34.64 69.46 31.71 70.09 31.73 70.09 32.54 71.3 32.58"/><polygon class="cls-1" points="71.98 34.68 71.98 35.73 76.44 35.96 76.44 34.03 74.84 33.95 74.84 34.83 74.08 34.79 74.08 31.87 74.48 31.89 74.48 30.85 71.98 30.72 71.98 31.76 72.38 31.78 72.38 34.7 71.98 34.68"/><path class="cls-1" d="M94,57.49l-2.72-.19-.86,3.91-.46,0v1l1.94.14.21-1.21,1.05.07.22,1.24,1.92.13v-1l-.43,0Zm-1.77,2.8.4-2.07.39,2.13Z" transform="translate(-12.9 -26.22)"/><polygon class="cls-1" points="83.02 35.36 83.02 36.4 84.96 36.57 84.96 33.84 86.67 36.72 88.67 36.9 88.67 35.86 88.26 35.82 88.26 32.92 88.26 32.9 88.67 32.93 88.67 31.89 86.75 31.72 86.75 34.52 85.02 31.57 83.02 31.39 83.02 32.44 83.43 32.47 83.43 35.4 83.02 35.36"/><polygon class="cls-1" points="89.31 33.83 90.52 33.95 90.52 33.14 91.14 33.21 91.14 36.13 90.73 36.09 90.73 37.13 93.25 37.4 93.25 36.36 92.85 36.31 92.85 33.39 93.48 33.45 93.48 34.26 94.69 34.39 94.69 32.54 89.31 31.97 89.31 33.83"/><polygon class="cls-1" points="95.31 33.66 95.71 33.72 95.71 36.64 95.31 36.59 95.31 37.63 97.84 37.94 97.84 36.9 97.42 36.85 97.42 33.93 97.84 33.98 97.84 32.93 95.31 32.62 95.31 33.66"/><path class="cls-1" d="M114.25,63.54l-.93-.11V60.5l.93.11v.57l1.44.18V59.75l-2.46-.3a1.74,1.74,0,0,0-1.36.18,1,1,0,0,0-.27.83v2.65a1.09,1.09,0,0,0,.83,1.19,4,4,0,0,0,.75.14h0l2.55.31V62.92l-1.52-.19Z" transform="translate(-12.9 -26.22)"/><path class="cls-2" d="M137.36,71.88l-9.82-8.63,6.1-3.79a1.67,1.67,0,0,0-.6-3.05s-2.94-.51-7.64-1.18l-2.69-5.09-2.21-.29-.73-2c1.62.13,2.57-1.79,2.54-3.21a10.34,10.34,0,0,0,5.29-3.89c.56-.72.53-1.48.25-1.63a10.8,10.8,0,0,0,4.12-4,1.67,1.67,0,0,0-.23-2.07A10.08,10.08,0,0,0,134,28.47a1.87,1.87,0,0,0-2.7-2,48.72,48.72,0,0,1-17.88,3.27H82.71l-1.63-1.78h-15L64.45,29.7H41c-12.27,0-16-1.78-20.56-3.31a1.87,1.87,0,0,0-2.61,2.08A10.1,10.1,0,0,0,20,33a1.7,1.7,0,0,0-.24,2.07,10.84,10.84,0,0,0,4.09,4,1.64,1.64,0,0,0,.28,1.64,10.34,10.34,0,0,0,5.29,3.9C29.39,46.12,30.52,48,32,47.84l-.25.72-1.87.27-3.5,6.26c-5.27.75-8.57,1.32-8.6,1.32a1.66,1.66,0,0,0-.6,3.05l6.1,3.79-9.82,8.63a1.66,1.66,0,0,0,1.42,2.89c.11,0,3.84-.75,9.67-1.71a1.42,1.42,0,0,0-.12.6,6.53,6.53,0,0,0,3.24,5.63,1.06,1.06,0,0,0-.55.86c0,1.39,3.6,3.44,6.76,3.68-.43.62-.5,1.79,1.36,1.79,1.17,0,2.15,0,2.88-.06,4.73,7.72,19.54,13.21,37.3,13.21S108,93.27,112.7,85.55c.72,0,1.71.06,2.87.06,1.86,0,1.8-1.17,1.37-1.79,3.15-.24,6.76-2.29,6.76-3.68a1.06,1.06,0,0,0-.55-.86,6.53,6.53,0,0,0,3.24-5.63,1.41,1.41,0,0,0-.12-.59c5.83,1,9.55,1.69,9.67,1.7A1.67,1.67,0,0,0,137.36,71.88Zm-14.5-1.08c-.71,3-3.15,4.11-6.57,5a18.23,18.23,0,0,0,8.58-1.65c-.49,3.86-4.05,5.21-9.66,4.87a29.84,29.84,0,0,0,6.37,1.47,8.49,8.49,0,0,1-6.49,1.7l-2.92-.56,0,.14L115,84.15a18.93,18.93,0,0,1-3.61-.22C107.71,91.47,93,97.1,75.4,97.1s-32.31-5.63-36-13.17a18.94,18.94,0,0,1-3.61.22l2.87-2.35,0-.14-2.92.56a8.49,8.49,0,0,1-6.49-1.7,29.85,29.85,0,0,0,6.37-1.47c-5.61.35-9.17-1-9.66-4.87a18.23,18.23,0,0,0,8.58,1.65c-3.43-.92-5.86-2-6.57-5-8,1.28-13.4,2.33-13.4,2.33L26,63l-8-5s3.57-.62,9.37-1.43l3.51-6.26L33,50.06l.73-2.13c.38-1.11,0-2-1-2a1.9,1.9,0,0,0-.9.26c-1.3-1-.49-2.9-.49-2.9a8.41,8.41,0,0,1-5.89-3.62.13.13,0,0,1,0-.21,2.87,2.87,0,0,0,2.06-.9,8.71,8.71,0,0,1-6.33-4.32c-.13-.24.1-.18.1-.18a9.21,9.21,0,0,0,2.76,0,8.52,8.52,0,0,1-4.67-5.89c-.08-.49.4-.25.4-.25,4.55,1.61,9,3.41,21.12,3.41H65.19l1.63-1.78H80.35L82,31.37h31.41A50.31,50.31,0,0,0,131.92,28s.48-.25.4.25a8.52,8.52,0,0,1-4.67,5.89,9.21,9.21,0,0,0,2.76,0s.23-.06.1.18a8.71,8.71,0,0,1-6.33,4.32,2.88,2.88,0,0,0,2.06.9.13.13,0,0,1,0,.21,8.42,8.42,0,0,1-5.89,3.62s.81,1.92-.49,2.9a1.63,1.63,0,0,0-.9-.26c-.75,0-1.46.61-1,2l1.24,3.43,2.37.31,2.68,5.07c5.24.75,8.43,1.3,8.43,1.3l-8,5,11.5,10.11S130.91,72.09,122.86,70.81Z" transform="translate(-12.9 -26.22)"/><path class="cls-2" d="M33.91,69.9l-3.23.49a28.61,28.61,0,0,0,5.71,2.1A6.23,6.23,0,0,1,33.91,69.9Z" transform="translate(-12.9 -26.22)"/><path class="cls-2" d="M50.48,67.77c-3.68.4-7.29.84-10.72,1.3a42.22,42.22,0,0,0,6.81.61A35.8,35.8,0,0,1,50.48,67.77Z" transform="translate(-12.9 -26.22)"/><path class="cls-2" d="M111,69.07c-3.43-.46-7-.9-10.72-1.3a35.71,35.71,0,0,1,3.91,1.91A42.19,42.19,0,0,0,111,69.07Z" transform="translate(-12.9 -26.22)"/><path class="cls-2" d="M114.41,72.48a28.61,28.61,0,0,0,5.71-2.1l-3.23-.49A6.24,6.24,0,0,1,114.41,72.48Z" transform="translate(-12.9 -26.22)"/><path class="cls-2" d="M62,83.34l-2.11,2.4L58.52,82.6c-1.4-2.5-3.67-.2-3.45.54a1.46,1.46,0,0,1,1.88-.25,2.56,2.56,0,0,0-.32.67,1,1,0,0,0,.55,1,1,1,0,0,0,0,.91,2.49,2.49,0,0,0,.63.67l-3-.65a2.71,2.71,0,0,0-2,.38,1.74,1.74,0,0,0-.33,1.88,1.38,1.38,0,0,1,1.74-1.05c0,.06-.17.85,1,1.16a1.47,1.47,0,0,0,1.21-.18,1.54,1.54,0,0,0,.9.58,2.77,2.77,0,0,0,1.16,0,1.51,1.51,0,0,0,.11,1,1.79,1.79,0,0,0,.64.62A1.4,1.4,0,0,0,59.34,91a1.23,1.23,0,0,0,1.22.59c.25.58-.43,1.55-1.21,2,1.88-.05,2.87-1.4,2.43-2.79l-1-3.1a1.51,1.51,0,0,0,.8-.39A1.94,1.94,0,0,0,62,86.15a1,1,0,0,0,.91-.6,1.3,1.3,0,0,0,0-1.41c.62-.73,1.4,0,1.29.67a1.24,1.24,0,0,0-.28-1.75A1.33,1.33,0,0,0,62,83.34Z" transform="translate(-12.9 -26.22)"/><path class="cls-2" d="M64.73,74.08,64.52,73S60.64,71.37,51,71.37c-1,0-2.14.07-3.69.07C37.74,71.44,35,68.38,35,68.38c-.11,1.11,1.59,4.45,15.09,4.45,1.39,0,3.93-.09,4.74-.09A48,48,0,0,1,64.73,74.08Z" transform="translate(-12.9 -26.22)"/><path class="cls-2" d="M96,85.52l-3,.65a2.47,2.47,0,0,0,.63-.67,1,1,0,0,0,0-.91,1,1,0,0,0,.55-1,2.53,2.53,0,0,0-.32-.67,1.45,1.45,0,0,1,1.88.25c.21-.74-2.05-3-3.45-.54l-1.35,3.13-2.12-2.4a1.33,1.33,0,0,0-1.9-.28,1.24,1.24,0,0,0-.28,1.75c-.1-.72.67-1.4,1.29-.67a1.3,1.3,0,0,0,0,1.41,1,1,0,0,0,.9.6,2,2,0,0,0,.36,1.21,1.51,1.51,0,0,0,.8.39l-1,3.1c-.43,1.39.56,2.73,2.43,2.79-.78-.49-1.46-1.46-1.21-2A1.23,1.23,0,0,0,91.46,91a1.39,1.39,0,0,0,.09-1.09,1.79,1.79,0,0,0,.64-.62,1.5,1.5,0,0,0,.11-1,2.77,2.77,0,0,0,1.16,0,1.54,1.54,0,0,0,.91-.58,1.47,1.47,0,0,0,1.21.18c1.16-.31,1-1.1,1-1.16a1.39,1.39,0,0,1,1.74,1.05A1.74,1.74,0,0,0,98,85.9,2.71,2.71,0,0,0,96,85.52Z" transform="translate(-12.9 -26.22)"/><path class="cls-2" d="M115.75,68.38s-2.7,3.06-12.28,3.06c-1.55,0-2.65-.07-3.69-.07-9.61,0-13.5,1.61-13.5,1.61l-.21,1.1a48.06,48.06,0,0,1,9.86-1.34c.81,0,3.34.09,4.74.09C114.16,72.83,115.86,69.49,115.75,68.38Z" transform="translate(-12.9 -26.22)"/><path class="cls-2" d="M87.07,75.33c-2.14,4-7.26,3.2-7.95,3.28l.43.79-1.23-.22a9.5,9.5,0,0,1-2.93,3.48,9.5,9.5,0,0,1-2.93-3.48l-1.23.22.43-.79c-.69-.08-5.81.71-7.94-3.28,0,1,.53,3.81,6.51,4.21l-.49.93,2.06-.37c.77,1.77,3.58,3.7,3.58,3.7s2.81-1.92,3.58-3.7l2.07.37-.49-.93C86.54,79.14,87.09,76.31,87.07,75.33Z" transform="translate(-12.9 -26.22)"/><path class="cls-2" d="M77,78.1a3.79,3.79,0,0,0-1.61-2.76v5.12a5.34,5.34,0,0,1-1.09-2.81A3,3,0,0,1,74.81,76a3,3,0,0,0-.94,2.08,5.14,5.14,0,0,0,1.53,3.09A5.08,5.08,0,0,0,77,78.1Z" transform="translate(-12.9 -26.22)"/><path class="cls-2" d="M70.52,76.71a4.19,4.19,0,0,0,2.82-1l-.76-.38a2.84,2.84,0,0,1-2.14.88,2.33,2.33,0,0,1-2.57-2,1.65,1.65,0,0,1,.47-1.13l-1-.55a2.28,2.28,0,0,0-.45,1.35C66.85,75.45,68.49,76.71,70.52,76.71Z" transform="translate(-12.9 -26.22)"/><path class="cls-2" d="M84,73.91a2.29,2.29,0,0,0-.45-1.35l-1,.55a1.66,1.66,0,0,1,.47,1.13,2.33,2.33,0,0,1-2.57,2,2.84,2.84,0,0,1-2.14-.88l-.76.38a4.2,4.2,0,0,0,2.82,1C82.31,76.71,84,75.45,84,73.91Z" transform="translate(-12.9 -26.22)"/><path class="cls-3" d="M120.92,62.8l5.7-3.54A344.44,344.44,0,0,0,75.4,54.83a344.44,344.44,0,0,0-51.22,4.43l5.7,3.54-7.66,6.08S26.56,68,33.5,67c0-.37,0-.78,0-1.22l1.33,1A303.56,303.56,0,0,1,75.4,63.79a303.53,303.53,0,0,1,40.53,3.07l1.33-1c0,.45,0,.85,0,1.22,6.95,1,11.28,1.84,11.28,1.84ZM39.59,60.92l-1.49.18v-.55l-.93.12v.94l1.29-.16v.91l-1.29.16V63.6l.4,0v1L35,64.9v-1l.42-.05V60.88l-.42.05v-1l4.56-.56Zm5.15,2.74-4.46.55v-1l.4,0V60.2l-.4,0v-1l2.5-.31v1l-.4,0v2.92l.76-.09v-.89l1.6-.2Zm5.11-2a2.88,2.88,0,0,1-.08.84c-.22.68-.95.77-1.49.82l-1.14.12a2.29,2.29,0,0,1-1.25-.1.92.92,0,0,1-.39-.93V59.93a1.82,1.82,0,0,1,.13-.84c.27-.55.89-.62,1.36-.67l1.22-.13c.59-.06,1.15-.1,1.45.28a1.6,1.6,0,0,1,.19,1Zm6,1-1.18.1c-.65,0-.9,0-.9-.44V60.74l-1,.08v2L50.72,63V62l.4,0V59l-.4,0V58L54,57.75a1.92,1.92,0,0,1,1.17.15.89.89,0,0,1,.34.87c0,.66,0,1.1-.9,1.41a1.06,1.06,0,0,1,.63.21.83.83,0,0,1,.24.65v.54l.42,0Zm3.33-4.2-.42,0v2.92l.42,0v1l-2.54.18v-1l.41,0V58.55l-.41,0v-1l2.54-.18Zm5.61,2.3a1.76,1.76,0,0,1-.15.87c-.27.51-.86.55-1.37.58l-3.22.17v-1l.4,0V58.32l-.4,0v-1l3.18-.17a2.57,2.57,0,0,1,1,.07c.58.21.59.75.59,1.15Zm5.91,1.12-1.92.07-.22-1.21-1.06,0-.21,1.23L65.39,62V61l.46,0,.86-4,2.72-.1.88,3.94h.43ZM79,61.73H77.1l-.22-1.22H75.82l-.21,1.22H73.68v-1h.46l.86-4h2.72l.88,4H79ZM84.2,58.8l-1.21,0V58l-.63,0v2.92h.41v1l-2.52-.09v-1h.41V57.87l-.63,0v.81l-1.21,0V56.76L84.2,57Zm5.14,3.38-4.46-.23v-1l.4,0V58l-.4,0v-1l2.5.13v1l-.4,0V61l.76,0v-.89l1.6.08Zm6,.41-1.92-.13-.22-1.24-1.05-.07-.21,1.21L90,62.21v-1l.46,0,.86-3.91,2.72.19.88,4,.43,0Zm6.23-3.44-.41,0V62l.41,0v1l-2-.17-1.71-2.88v2.74l-1.94-.17v-1l.41,0V58.69l-.41,0v-1l2,.18,1.73,3v-2.8l1.92.17Zm6,1.46-1.21-.13v-.81l-.63-.07v2.92l.41,0v1l-2.52-.26v-1l.41,0V59.43l-.63-.07v.81L102.21,60V58.19l5.38.57Zm3.16-.41-.42-.05v2.92l.42.05v1l-2.54-.31v-1l.41,0V59.93l-.41-.05v-1l2.54.31Zm5,4.57-2.55-.31h0a4,4,0,0,1-.75-.14,1.09,1.09,0,0,1-.83-1.19V60.46a1,1,0,0,1,.27-.83,1.74,1.74,0,0,1,1.36-.18l2.46.3v1.62l-1.44-.18v-.57l-.93-.11v2.92l.93.11v-.8l1.52.19Z" transform="translate(-12.9 -26.22)"/><polygon class="cls-3" points="39.94 33.67 40.9 33.59 40.9 32.59 39.94 32.68 39.94 33.67"/><polygon class="cls-3" points="34.32 36.14 34.32 36.15 35.25 36.05 35.25 33.13 34.32 33.22 34.32 36.14"/><polygon class="cls-3" points="49.29 34.93 50.22 34.88 50.22 31.96 49.29 32.01 49.29 34.93"/><polygon class="cls-3" points="63.05 33.44 63.84 33.44 63.45 31.34 63.05 33.44"/><polygon class="cls-3" points="79.37 34.07 80.16 34.12 79.77 32 79.37 34.07"/><polygon class="cls-3" points="54.77 33.61 55.55 33.59 55.16 31.5 54.77 33.61"/><path class="cls-3" d="M69.38,70.37a11.54,11.54,0,0,1-4.14-2.23s0,2.16,4.26,3.62A12.52,12.52,0,0,1,75,75C75,72.56,70.64,70.75,69.38,70.37Z" transform="translate(-12.9 -26.22)"/><path class="cls-3" d="M75.83,75a12.51,12.51,0,0,1,5.48-3.23c4.28-1.46,4.26-3.62,4.26-3.62a11.55,11.55,0,0,1-4.14,2.23C80.16,70.75,75.77,72.56,75.83,75Z" transform="translate(-12.9 -26.22)"/><polygon class="cls-4" points="60.4 9.62 56.57 16.15 63.9 16.15 60.4 9.62"/><path class="cls-4" d="M116.29,75.84c3.43-.92,5.86-2,6.57-5,8,1.28,13.4,2.33,13.4,2.33L124.76,63l8-5s-3.19-.55-8.43-1.3l-2.68-5.07-2.37-.31L118,47.93c-.5-1.38.22-2,1-2a1.63,1.63,0,0,1,.9.26c1.3-1,.49-2.9.49-2.9a8.42,8.42,0,0,0,5.89-3.62.13.13,0,0,0,0-.21,2.88,2.88,0,0,1-2.06-.9,8.71,8.71,0,0,0,6.33-4.32c.13-.24-.1-.18-.1-.18a9.21,9.21,0,0,1-2.76,0,8.52,8.52,0,0,0,4.67-5.89c.08-.49-.4-.25-.4-.25a50.31,50.31,0,0,1-18.54,3.41H82l-1.62-1.78H66.81l-1.63,1.78H41c-12.1,0-16.57-1.8-21.12-3.41,0,0-.48-.25-.4.25A8.52,8.52,0,0,0,24.1,34.1a9.21,9.21,0,0,1-2.76,0s-.23-.06-.1.18a8.71,8.71,0,0,0,6.33,4.32,2.87,2.87,0,0,1-2.06.9.13.13,0,0,0,0,.21,8.41,8.41,0,0,0,5.89,3.62s-.81,1.92.49,2.9a1.9,1.9,0,0,1,.9-.26c1,0,1.35.88,1,2L33,50.06l-2.06.29-3.51,6.26C21.62,57.43,18,58,18,58l8,5L14.54,73.14s5.35-1,13.4-2.33c.71,3,3.15,4.11,6.57,5a18.23,18.23,0,0,1-8.58-1.65C26.43,78,30,79.4,35.6,79.05a29.85,29.85,0,0,1-6.37,1.47,8.49,8.49,0,0,0,6.49,1.7l2.92-.56,0,.14-2.87,2.35a18.94,18.94,0,0,0,3.61-.22c3.7,7.54,18.41,13.17,36,13.17s32.31-5.63,36-13.17a18.93,18.93,0,0,0,3.61.22l-2.87-2.35,0-.14,2.92.56a8.49,8.49,0,0,0,6.49-1.7,29.84,29.84,0,0,1-6.37-1.47c5.61.35,9.17-1,9.66-4.87A18.23,18.23,0,0,1,116.29,75.84Zm4.13-22.07.69,1.13.17-1,.53.07.81,2.06-.53-.07-.44-1.18-.21,1.1-.21,0-.76-1.22.11,1.14-.53-.07-.15-2Zm-.94-.12.11.44-.44-.06.39,1.57-.53-.07L118.61,54l-.44-.06-.11-.44ZM98,34.28l1.19,3.89H97.46l3.17,10.89,6.45.64-4-11.53H101.4l-1.27-3.89h12.3c1.8,0,8.77-.17,13.63-2.12,0,0,.14,0,.12.1a15.47,15.47,0,0,1-8.82,4.33,29.47,29.47,0,0,0,5.77-.29s.17-.05.11.11-2,2.21-7.19,3.19c0,0,.91.57,3.64.6,0,0,.19,0,.08.14a8.5,8.5,0,0,1-5.14,1.11s2,1.06,1.18,2.39c0,0-.07.06-.1,0a1.38,1.38,0,0,0-1.33-.89c-.73,0-1.19.45-.85,1.24l3.16,7.16c2,4.48-.64,4.22-7.83,3.51l-6.75-.67c-6.24-.62-10-1.68-10.88-5.31L88.62,38.17H86.53l-1-3.89ZM68.14,32.22H78.39L88,49.13l2.55.18L92,53.38c-3.49-.22-7-.38-10.58-.47l-2.91-5.48H67.32L64.14,53.1c-3.65.16-7.26.39-10.77.67l1.27-3.88L57,49.66ZM32.73,51.87l2.54-.4,1.9-5-1.78-4.12h1.86l.23-1.1a8.5,8.5,0,0,1-5.14-1.11c-.11-.14.09-.14.09-.14,2.73,0,3.64-.6,3.64-.6-5.15-1-7.13-3-7.19-3.19s.12-.11.12-.11a29.52,29.52,0,0,0,5.77.29,15.47,15.47,0,0,1-8.82-4.33c0-.15.12-.1.12-.1,5.5,2.2,14,2.3,14,2.3H63.53l-.9,5.66H55l.46-1.77H49.22l-1.16,4.22L57.91,42l-3.28,4.52-8.24.36-1.32,3.6,4.42-.33-1.46,4c-6.53.6-12.52,1.31-17.4,2ZM29.89,62.8l-5.7-3.54A344.44,344.44,0,0,1,75.4,54.83a344.44,344.44,0,0,1,51.22,4.43l-5.7,3.54,7.66,6.08S124.25,68,117.3,67c0-.37,0-.78,0-1.22l-1.33,1A303.53,303.53,0,0,0,75.4,63.79a303.56,303.56,0,0,0-40.53,3.07l-1.33-1c0,.45,0,.85,0,1.22-6.95,1-11.28,1.84-11.28,1.84Zm55.66,6.75A2.73,2.73,0,0,0,86.05,67a9,9,0,0,1-3.19,1.85,30.94,30.94,0,0,0-14.93,0A9,9,0,0,1,64.75,67a2.73,2.73,0,0,0,.51,2.56,3.38,3.38,0,0,1-1.35-.64A3.33,3.33,0,0,0,64.49,71a52,52,0,0,0-10-1.37c5.44-2.54,12.82-4.11,21-4.11s15.52,1.56,21,4.11a52,52,0,0,0-10,1.37,3.32,3.32,0,0,0,.58-2.08A3.38,3.38,0,0,1,85.54,69.55Zm8.63,14a1,1,0,0,1-.55,1,1,1,0,0,1,0,.91,2.47,2.47,0,0,1-.62.67l3-.65a2.71,2.71,0,0,1,2,.38,1.74,1.74,0,0,1,.33,1.88,1.39,1.39,0,0,0-1.74-1.05c0,.06.17.85-1,1.16a1.47,1.47,0,0,1-1.21-.18,1.54,1.54,0,0,1-.91.58,2.77,2.77,0,0,1-1.16,0,1.5,1.5,0,0,1-.11,1,1.79,1.79,0,0,1-.64.62A1.39,1.39,0,0,1,91.46,91a1.23,1.23,0,0,1-1.22.59c-.26.58.43,1.55,1.21,2-1.87-.05-2.87-1.4-2.43-2.79l1-3.1a1.51,1.51,0,0,1-.8-.39,2,2,0,0,1-.36-1.21,1,1,0,0,1-.9-.6,1.3,1.3,0,0,1,0-1.41c-.62-.73-1.39,0-1.29.67a1.24,1.24,0,0,1,.28-1.75,1.33,1.33,0,0,1,1.9.28l2.12,2.4,1.35-3.13c1.4-2.5,3.67-.2,3.45.54a1.45,1.45,0,0,0-1.88-.25A2.53,2.53,0,0,1,94.17,83.56Zm-13.61-4,.49.93L79,80.1c-.77,1.77-3.58,3.7-3.58,3.7s-2.81-1.92-3.58-3.7l-2.06.37.49-.93c-6-.39-6.53-3.23-6.51-4.21,2.14,4,7.26,3.2,7.94,3.28l-.43.79,1.23-.22a9.5,9.5,0,0,0,2.93,3.48,9.5,9.5,0,0,0,2.93-3.48l1.23.22-.43-.79c.69-.08,5.81.71,7.95-3.28C87.09,76.31,86.54,79.14,80.56,79.54ZM62.87,84.14a1.3,1.3,0,0,1,0,1.41,1,1,0,0,1-.91.6,1.94,1.94,0,0,1-.36,1.21,1.51,1.51,0,0,1-.8.39l1,3.1c.43,1.39-.56,2.73-2.43,2.79.78-.49,1.46-1.46,1.21-2A1.23,1.23,0,0,1,59.34,91a1.4,1.4,0,0,1-.09-1.09,1.79,1.79,0,0,1-.64-.62,1.51,1.51,0,0,1-.11-1,2.77,2.77,0,0,1-1.16,0,1.54,1.54,0,0,1-.9-.58,1.47,1.47,0,0,1-1.21.18c-1.16-.31-1-1.1-1-1.16a1.38,1.38,0,0,0-1.74,1.05,1.74,1.74,0,0,1,.33-1.88,2.71,2.71,0,0,1,2-.37l3,.65a2.49,2.49,0,0,1-.62-.67,1,1,0,0,1,0-.91,1,1,0,0,1-.55-1,2.56,2.56,0,0,1,.32-.67,1.46,1.46,0,0,0-1.88.25c-.21-.74,2.05-3,3.45-.54l1.35,3.13L62,83.34a1.33,1.33,0,0,1,1.9-.28,1.24,1.24,0,0,1,.28,1.75C64.26,84.09,63.49,83.41,62.87,84.14Zm17.5-7.94a2.33,2.33,0,0,0,2.57-2,1.66,1.66,0,0,0-.47-1.13l1-.55A2.29,2.29,0,0,1,84,73.91c0,1.55-1.64,2.8-3.67,2.8a4.2,4.2,0,0,1-2.82-1l.76-.38A2.84,2.84,0,0,0,80.37,76.2Zm-1.19-1.36L80.74,74a.63.63,0,0,1,.24.48.86.86,0,0,1-.95.73A1,1,0,0,1,79.18,74.84Zm2.13-3.08A12.51,12.51,0,0,0,75.83,75c-.07-2.42,4.33-4.23,5.6-4.61a11.55,11.55,0,0,0,4.14-2.23S85.59,70.3,81.31,71.76ZM77,78.1a5.08,5.08,0,0,1-1.61,3.09,5.14,5.14,0,0,1-1.53-3.09A3,3,0,0,1,74.81,76a3,3,0,0,0-.49,1.63,5.34,5.34,0,0,0,1.09,2.81V75.34A3.79,3.79,0,0,1,77,78.1ZM69.5,71.76c-4.28-1.46-4.26-3.62-4.26-3.62a11.54,11.54,0,0,0,4.14,2.23C70.64,70.75,75,72.56,75,75A12.52,12.52,0,0,0,69.5,71.76Zm.94,4.44a2.84,2.84,0,0,0,2.14-.88l.76.38a4.19,4.19,0,0,1-2.82,1c-2,0-3.67-1.25-3.67-2.8a2.28,2.28,0,0,1,.45-1.35l1,.55a1.65,1.65,0,0,0-.47,1.13A2.33,2.33,0,0,0,70.43,76.2Zm-.61-1.69a.63.63,0,0,1,.24-.48l1.56.81a1,1,0,0,1-.85.4A.86.86,0,0,1,69.82,74.51ZM46.57,69.69a42.22,42.22,0,0,1-6.81-.61c3.43-.46,7-.9,10.72-1.3A35.8,35.8,0,0,0,46.57,69.69Zm53.75-1.91c3.68.4,7.29.84,10.72,1.3a42.19,42.19,0,0,1-6.81.61A35.71,35.71,0,0,0,100.32,67.77ZM30.68,70.38l3.23-.49a6.23,6.23,0,0,0,2.48,2.58A28.61,28.61,0,0,1,30.68,70.38Zm4.37-2s2.69,3.06,12.28,3.06c1.56,0,2.65-.07,3.69-.07,9.61,0,13.5,1.61,13.5,1.61l.21,1.1a48,48,0,0,0-9.86-1.34c-.8,0-3.34.09-4.74.09C36.64,72.83,34.94,69.49,35,68.38ZM46,83.67l8.4-.87a2.31,2.31,0,0,0,0,1.29,1.7,1.7,0,0,1,1.33-.33,1.64,1.64,0,0,0,.24,1.11,8,8,0,0,0-1.71-.25,2.36,2.36,0,0,0-2.57,2.49,5.58,5.58,0,0,0,.61,2.05,2.46,2.46,0,0,1,1.5-1.42,1.89,1.89,0,0,0,1.6,1.34l2.24.37a4.65,4.65,0,0,0,1.45,2.94l-.13.17C52.54,90.53,47.82,87.38,46,83.67ZM75.4,94.93A57.77,57.77,0,0,1,62,93.41a2.74,2.74,0,0,0,.63-2.79L62,88.23l1.46-1.32L64.22,88l4.45-3.35c.12.53-.34,1.08-.67,1.39a46.65,46.65,0,0,0-4.31,4.3,21.61,21.61,0,0,0,23.42,0A46.78,46.78,0,0,0,82.8,86c-.33-.31-.79-.87-.67-1.39L86.58,88l.71-1.07,1.46,1.32-.62,2.4a2.74,2.74,0,0,0,.63,2.79A57.77,57.77,0,0,1,75.4,94.93Zm16.48-2.37-.13-.17a4.65,4.65,0,0,0,1.46-2.94l2.24-.37A1.89,1.89,0,0,0,97,87.74a2.47,2.47,0,0,1,1.5,1.42,5.58,5.58,0,0,0,.61-2.05,2.36,2.36,0,0,0-2.57-2.49,8,8,0,0,0-1.71.25,1.64,1.64,0,0,0,.24-1.11,1.7,1.7,0,0,1,1.33.33,2.3,2.3,0,0,0,0-1.29l8.4.88C103,87.38,98.27,90.53,91.88,92.55Zm8.78-19.72c-1.4,0-3.93-.09-4.74-.09a48.06,48.06,0,0,0-9.86,1.34l.21-1.1s3.89-1.61,13.5-1.61c1,0,2.14.07,3.69.07,9.59,0,12.28-3.06,12.28-3.06C115.86,69.49,114.16,72.83,100.66,72.83Zm13.75-.35a6.24,6.24,0,0,0,2.48-2.58l3.23.49A28.61,28.61,0,0,1,114.41,72.48Z" transform="translate(-12.9 -26.22)"/></svg>