<?xml version="1.0" encoding="utf-8"?>
<!-- Generator: Adobe Illustrator 16.0.4, SVG Export Plug-In . SVG Version: 6.00 Build 0)  -->
<!DOCTYPE svg PUBLIC "-//W3C//DTD SVG 1.1//EN" "http://www.w3.org/Graphics/SVG/1.1/DTD/svg11.dtd">
<svg version="1.1" id="Ebene_1" xmlns="http://www.w3.org/2000/svg" xmlns:xlink="http://www.w3.org/1999/xlink" x="0px" y="0px"
	 width="569.76px" height="325.98px" viewBox="0 0 569.76 325.98" enable-background="new 0 0 569.76 325.98" xml:space="preserve">
<g>
	<path fill="#61A138" d="M232.105,114.768c-1.58,1.101-3.495,1.676-6.512,1.676h-10.582V83.166h10.103
		c2.969,0,4.692,0.431,6.225,1.34c2.059,1.197,3.543,3.591,3.543,6.895c0,3.112-1.532,6.177-4.788,7.326
		c3.399,0.958,5.841,3.591,5.841,7.709C235.936,110.075,234.596,113.092,232.105,114.768z M224.444,88.911h-2.92v7.47h3.064
		c2.49,0,3.543-1.484,3.543-3.735C228.131,90.3,226.743,88.911,224.444,88.911z M224.492,101.983h-2.968v8.619h3.256
		c2.633,0,3.783-1.819,3.783-4.309C228.562,103.754,227.509,101.983,224.492,101.983z"/>
	<path fill="#61A138" d="M245.509,116.443V83.166h6.56v33.278H245.509z"/>
	<path fill="#61A138" d="M274.429,117.018c-8.906,0-12.785-7.613-12.785-16.615c0-11.54,5.076-17.812,12.593-17.812
		c9.576,0,12.832,8.81,12.832,16.375C287.069,107.873,284.532,117.018,274.429,117.018z M274.285,88.001
		c-4.549,0-5.315,6.225-5.315,11.396c0,6.56,0.814,12.162,5.506,12.162c4.549,0,5.315-5.267,5.315-11.731
		C279.792,93.077,279.073,88.001,274.285,88.001z"/>
	<path fill="#61A138" d="M312.156,116.443h-19.152v-4.74l10.534-20.015c0.718-1.341,1.867-3.064,1.867-3.064
		s-1.867,0.239-3.112,0.239h-8.476l0.623-5.698h18.243v4.979l-10.534,20.254c-0.526,0.958-1.532,2.442-1.532,2.442
		s2.011-0.192,3.16-0.192h9.05L312.156,116.443z"/>
	<path fill="#61A138" d="M321.635,116.443V83.166h16.759l-0.718,5.746h-9.481v7.422h7.853v5.65h-7.853v8.571h10.391v5.89H321.635z"
		/>
	<path fill="#61A138" d="M361.806,116.443l-6.033-13.599c-1.005-2.25-2.537-6.943-2.537-6.943s0.431,4.788,0.431,7.613l0.048,12.928
		h-6.272V83.166h6.464l6.272,13.742c0.958,2.107,2.49,6.751,2.49,6.751s-0.335-5.65-0.335-8.427l-0.048-12.066h6.32v33.278H361.806z
		"/>
	<path fill="#61A138" d="M396.853,88.911h-6.991v27.532h-6.56V88.911h-6.943v-5.746h21.26L396.853,88.911z"/>
	<path fill="#61A138" d="M418.636,116.443c-0.191-0.479-3.304-8.667-3.974-10.055c-1.341-2.921-1.916-3.543-3.496-3.543v13.599
		h-6.512V83.166h8.763c7.661,0,11.396,3.256,11.396,9.433c0,5.411-2.969,8.523-6.416,9.002c1.102,0.526,2.25,2.106,2.969,3.639
		c1.102,2.394,4.214,9.29,4.979,11.205H418.636z M413.369,88.863h-2.155v8.667l2.251,0.048c3.16,0.048,4.214-1.771,4.214-4.645
		C417.679,89.917,416.146,88.863,413.369,88.863z"/>
	<path fill="#61A138" d="M454.019,112.326c-1.389,2.49-4.405,4.692-9.624,4.692c-4.549,0-7.613-1.389-9.289-4.262
		c-1.006-1.771-1.293-2.825-1.293-6.607V83.166h6.56v22.552c0,3.304,0.671,5.794,4.07,5.794c3.352,0,4.069-2.011,4.069-5.507V83.166
		h6.561v23.271C455.072,109.548,454.833,110.889,454.019,112.326z"/>
	<path fill="#61A138" d="M488.874,116.443l-0.862-17.716c-0.096-2.25-0.191-6.751-0.191-6.751s-0.814,4.549-1.197,6.32l-4.07,18.147
		h-5.984l-3.544-17.429c-0.479-2.298-1.293-7.039-1.293-7.039s0,5.124-0.096,7.134l-0.813,17.333h-6.656l2.538-33.278h8.667
		l3.447,17.812c0.383,1.963,0.958,6.416,0.958,6.416s0.574-4.261,1.005-6.368l3.64-17.86h8.475l2.442,33.278H488.874z"/>
</g>
<text transform="matrix(1 0 0 1 211.8994 172.124)" fill="#283583" font-family="'MetaPlusMedium-Roman'" font-size="47.878"> </text>
<g>
	<path fill="#283583" d="M295.306,168.006c-1.389,2.49-4.405,4.692-9.624,4.692c-4.549,0-7.613-1.389-9.29-4.261
		c-1.005-1.771-1.292-2.825-1.292-6.608v-22.983h6.56v22.552c0,3.304,0.671,5.794,4.07,5.794c3.352,0,4.069-2.011,4.069-5.507
		v-22.839h6.561v23.271C296.359,165.229,296.12,166.57,295.306,168.006z"/>
	<path fill="#283583" d="M319.1,172.124l-6.033-13.599c-1.005-2.25-2.537-6.943-2.537-6.943s0.431,4.788,0.431,7.613l0.048,12.928
		h-6.272v-33.278h6.464l6.272,13.742c0.958,2.107,2.49,6.751,2.49,6.751s-0.335-5.65-0.335-8.427l-0.048-12.066h6.32v33.278H319.1z"
		/>
	<path fill="#283583" d="M334.516,172.124v-33.278h6.56v33.278H334.516z"/>
	<path fill="#283583" d="M362.429,172.124h-7.373l-9.002-33.278h7.182l4.07,18.578c0.526,2.346,1.484,7.47,1.484,7.47
		s1.006-5.268,1.532-7.422l4.501-18.626h6.847L362.429,172.124z"/>
	<path fill="#283583" d="M376.647,172.124v-33.278h16.759l-0.719,5.746h-9.48v7.422h7.853v5.65h-7.853v8.571h10.391v5.89H376.647z"
		/>
	<path fill="#283583" d="M413.993,172.124c-0.191-0.479-3.304-8.667-3.974-10.055c-1.341-2.921-1.916-3.543-3.496-3.543v13.599
		h-6.512v-33.278h8.763c7.661,0,11.396,3.256,11.396,9.433c0,5.411-2.969,8.523-6.416,9.002c1.102,0.526,2.25,2.106,2.969,3.639
		c1.102,2.394,4.214,9.29,4.979,11.205H413.993z M408.727,144.544h-2.155v8.667l2.251,0.048c3.16,0.048,4.214-1.771,4.214-4.645
		C413.036,145.597,411.504,144.544,408.727,144.544z"/>
	<path fill="#283583" d="M435.299,172.698c-4.118,0-7.613-1.196-10.391-3.112l2.825-5.267c2.106,1.628,4.597,2.729,7.518,2.729
		c2.92,0,4.884-1.437,4.884-4.022c0-2.059-1.532-2.921-3.544-3.878l-3.878-1.819c-3.064-1.437-6.32-3.4-6.32-8.906
		c0-5.985,4.453-10.151,10.63-10.151c3.782,0,7.277,1.149,9.863,3.017l-3.017,4.788c-2.106-1.341-4.021-2.298-6.272-2.298
		c-2.346,0-4.07,1.149-4.07,3.304c0,1.868,1.102,2.921,2.825,3.687l4.836,2.107c3.257,1.389,6.225,3.735,6.225,9.05
		C447.412,168.868,442.002,172.698,435.299,172.698z"/>
	<path fill="#283583" d="M454.305,172.124v-33.278h6.56v33.278H454.305z"/>
	<path fill="#283583" d="M487.486,144.592h-6.991v27.532h-6.56v-27.532h-6.943v-5.746h21.26L487.486,144.592z"/>
	<path fill="#283583" d="M507.978,172.124l-1.819-7.47h-7.996l-1.916,7.47h-6.847l9.385-33.278h7.374l8.906,33.278H507.978z
		 M497.587,136.117c-1.915,0-3.591-1.532-3.591-3.448c0-1.963,1.58-3.447,3.447-3.447c1.963,0,3.591,1.484,3.591,3.447
		C501.034,134.584,499.454,136.117,497.587,136.117z M503.189,151.152c-0.335-1.676-0.958-5.603-0.958-5.603
		s-0.67,3.974-1.005,5.603l-1.725,8.283h5.411L503.189,151.152z M507.451,136.117c-1.916,0-3.592-1.532-3.592-3.448
		c0-1.963,1.58-3.447,3.447-3.447c1.964,0,3.592,1.484,3.592,3.447C510.898,134.584,509.318,136.117,507.451,136.117z"/>
	<path fill="#283583" d="M538.235,144.592h-6.991v27.532h-6.56v-27.532h-6.943v-5.746h21.26L538.235,144.592z"/>
</g>
<text transform="matrix(1 0 0 1 211.8994 227.8057)"><tspan x="0" y="0" fill="#283583" font-family="'MetaCondExtraBoldLF-Roman'" font-size="47.878" letter-spacing="50"> </tspan><tspan x="60.326" y="0" fill="#283583" font-family="'MetaCondExtraBoldLF-Roman'" font-size="47.878"> </tspan></text>
<g>
	<path fill="#283583" d="M361.903,227.806h-7.948l-2.395-16.615c-0.335-2.298-0.957-7.422-0.957-7.422s-0.575,4.884-0.958,7.374
		l-2.489,16.663h-8.093l-6.464-33.278h7.087l2.537,16.376c0.432,2.729,1.054,8.523,1.054,8.523s0.718-6.273,1.054-8.284
		l2.633-16.615h7.47l2.729,16.759c0.383,2.395,0.958,8.236,0.958,8.236s0.718-5.89,1.101-8.571l2.395-16.424h7.087L361.903,227.806z
		"/>
	<path fill="#283583" d="M394.173,223.688c-1.389,2.49-4.405,4.692-9.624,4.692c-4.549,0-7.613-1.389-9.289-4.261
		c-1.006-1.772-1.293-2.825-1.293-6.608v-22.983h6.56v22.553c0,3.304,0.671,5.794,4.07,5.794c3.352,0,4.069-2.012,4.069-5.507
		v-22.84h6.561v23.271C395.227,220.91,394.987,222.251,394.173,223.688z M379.809,191.799c-1.916,0-3.592-1.533-3.592-3.448
		c0-1.963,1.58-3.447,3.448-3.447c1.963,0,3.591,1.484,3.591,3.447C383.256,190.266,381.676,191.799,379.809,191.799z
		 M389.672,191.799c-1.915,0-3.591-1.533-3.591-3.448c0-1.963,1.58-3.447,3.447-3.447c1.963,0,3.591,1.484,3.591,3.447
		C393.119,190.266,391.539,191.799,389.672,191.799z"/>
	<path fill="#283583" d="M417.584,227.806c-0.191-0.479-3.304-8.667-3.974-10.056c-1.341-2.92-1.916-3.543-3.496-3.543v13.599
		h-6.512v-33.278h8.763c7.661,0,11.396,3.256,11.396,9.433c0,5.411-2.969,8.523-6.416,9.002c1.102,0.527,2.25,2.107,2.969,3.64
		c1.102,2.394,4.214,9.289,4.979,11.204H417.584z M412.317,200.226h-2.155v8.667l2.251,0.048c3.16,0.048,4.214-1.771,4.214-4.645
		C416.627,201.279,415.095,200.226,412.317,200.226z"/>
	<path fill="#283583" d="M448.801,227.806h-19.152v-4.74l10.534-20.015c0.718-1.341,1.867-3.064,1.867-3.064
		s-1.867,0.239-3.112,0.239h-8.476l0.623-5.698h18.243v4.98l-10.534,20.254c-0.526,0.957-1.532,2.441-1.532,2.441
		s2.011-0.191,3.16-0.191h9.05L448.801,227.806z"/>
	<path fill="#283583" d="M473.506,226.13c-1.58,1.102-3.495,1.676-6.512,1.676h-10.582v-33.278h10.104
		c2.969,0,4.692,0.432,6.225,1.341c2.059,1.197,3.543,3.591,3.543,6.896c0,3.112-1.532,6.177-4.788,7.325
		c3.399,0.958,5.842,3.592,5.842,7.709C477.337,221.438,475.996,224.454,473.506,226.13z M465.845,200.273h-2.921v7.47h3.064
		c2.49,0,3.544-1.484,3.544-3.735C469.532,201.662,468.144,200.273,465.845,200.273z M465.893,213.346h-2.969v8.618h3.256
		c2.634,0,3.783-1.819,3.783-4.31C469.963,215.117,468.909,213.346,465.893,213.346z"/>
	<path fill="#283583" d="M504.004,223.688c-1.389,2.49-4.405,4.692-9.624,4.692c-4.549,0-7.613-1.389-9.289-4.261
		c-1.006-1.772-1.293-2.825-1.293-6.608v-22.983h6.56v22.553c0,3.304,0.671,5.794,4.07,5.794c3.352,0,4.069-2.012,4.069-5.507
		v-22.84h6.561v23.271C505.058,220.91,504.818,222.251,504.004,223.688z"/>
	<path fill="#283583" d="M527.415,227.806c-0.191-0.479-3.304-8.667-3.974-10.056c-1.341-2.92-1.916-3.543-3.496-3.543v13.599
		h-6.512v-33.278h8.763c7.661,0,11.396,3.256,11.396,9.433c0,5.411-2.969,8.523-6.416,9.002c1.102,0.527,2.25,2.107,2.969,3.64
		c1.102,2.394,4.214,9.289,4.979,11.204H527.415z M522.148,200.226h-2.155v8.667l2.251,0.048c3.16,0.048,4.214-1.771,4.214-4.645
		C526.458,201.279,524.926,200.226,522.148,200.226z"/>
	<path fill="#283583" d="M558.249,202.572c-1.724-1.725-3.783-2.729-5.985-2.729c-4.836,0-6.225,5.075-6.225,11.635
		c0,5.794,1.102,11.109,6.033,11.109c1.149,0,2.441-0.336,3.304-0.767v-6.847h-4.022l-0.861-5.698h11.396v15.896
		c-3.064,2.155-6.32,3.208-10.391,3.208c-3.208,0-6.512-1.101-9.001-3.974c-2.251-2.634-3.735-6.608-3.735-12.737
		c0-9.049,3.735-17.668,13.359-17.668c3.639,0,7.23,1.484,9.815,4.118L558.249,202.572z"/>
</g>
<rect x="127.11" y="20.915" transform="matrix(-0.7071 -0.7071 0.7071 -0.7071 238.0545 215.4097)" fill="#70B04F" width="73.063" height="74.971"/>
<polygon fill="#70B04F" points="317.047,59.328 214.374,59.328 164.341,6.493 266.211,6.493 "/>
<polygon fill="#70B04F" points="8.135,163.275 59.795,214.935 112.808,161.928 61.146,110.263 "/>
<polygon fill="#70B04F" points="212.824,163.526 110.153,163.526 60.118,110.688 161.991,110.688 "/>
<rect x="227.129" y="224.174" transform="matrix(0.7071 0.7071 -0.7071 0.7071 262.2381 -109.798)" fill="#70B04F" width="73.061" height="74.966"/>
<polygon fill="#70B04F" points="110.254,260.728 212.925,260.728 262.96,313.565 161.09,313.565 "/>
</svg>
